<?xml version="1.0" encoding="utf-8"?>
<svg viewBox="0 0 1200 235.581" fill="none" xmlns="http://www.w3.org/2000/svg">
  <path fill-rule="evenodd" clip-rule="evenodd" d="M 1153.99 81.341 L 1199.38 81.341 C 1199.72 81.341 1200 81.041 1200 80.671 L 1200 35.911 C 1199.99 24.971 1196.37 16.071 1189.04 9.851 C 1182.3 4.131 1172.18 0.681 1158.65 0.001 C 1158.31 -0.019 1158.03 0.271 1158.03 0.631 L 1158.03 17.511 C 1158.03 17.841 1158.28 18.111 1158.59 18.141 C 1170.46 18.971 1179.49 22.801 1179.49 36.141 L 1153.99 36.151 C 1153.65 36.151 1153.37 36.451 1153.37 36.821 L 1153.37 80.681 C 1153.37 81.041 1153.65 81.341 1153.99 81.341 Z M 172.19 117.571 L 117.15 117.571 C 116.29 117.571 115.74 118.341 115.74 119.101 L 115.74 148.661 C 115.74 149.591 116.44 150.191 117.15 150.191 L 136.7 150.191 L 136.7 173.991 C 136.7 191.691 132.38 201.191 117.15 201.191 C 104.43 201.191 95.4 193.481 95.4 169.501 L 95.4 100.391 C 95.4 77.431 102.24 66.671 117.39 66.671 C 131.05 66.671 136.62 75.061 136.62 90.731 L 136.62 99.631 C 136.62 100.561 137.33 101.151 138.04 101.151 L 171.88 101.151 C 172.74 101.151 173.29 100.391 173.29 99.631 L 173.29 89.191 C 173.6 52.011 153.82 32.351 118.02 32.351 C 82.22 32.351 58.9 53.621 58.9 98.351 L 58.9 172.301 C 58.9 216.351 86.06 235.501 116.21 235.501 C 149.97 235.501 173.52 222.201 173.52 172.981 L 173.52 119.011 C 173.534 118.636 173.405 118.269 173.157 117.986 C 172.91 117.704 172.564 117.526 172.19 117.491 L 172.19 117.571 Z M 277.55 196.331 L 224.63 196.331 L 224.63 37.581 C 224.63 36.641 223.93 36.051 223.22 36.051 L 189.92 36.051 C 189.06 36.051 188.52 36.811 188.52 37.581 L 188.52 230.471 C 188.52 231.401 189.22 231.991 189.92 231.991 L 277.47 231.991 C 278.33 231.991 278.88 231.231 278.88 230.471 L 278.88 197.941 C 278.88 197.011 278.18 196.411 277.47 196.411 L 277.55 196.411 L 277.55 196.331 Z M 774.85 98.851 C 774.85 54.381 797.69 32.691 832.63 32.691 C 867.1 32.691 890.26 54.461 890.1 98.851 L 890.1 169.331 C 890.1 214.401 868.67 235.151 832.63 235.151 C 796.59 235.151 774.85 214.821 774.85 169.331 L 774.85 98.851 Z M 832.63 201.351 C 847.23 201.351 853.28 190.681 853.28 167.981 L 853.28 100.461 C 853.28 77.761 847.39 66.751 832.63 66.751 C 817.87 66.751 811.98 78.181 811.98 100.461 L 811.98 167.981 C 811.98 190.771 818.03 201.351 832.63 201.351 Z M 961.95 32.691 C 927.01 32.691 904.16 54.381 904.16 98.851 L 904.16 169.331 C 904.16 214.831 925.91 235.151 961.95 235.151 C 997.99 235.151 1019.42 214.401 1019.42 169.331 L 1019.42 98.851 C 1019.58 54.461 996.42 32.691 961.95 32.691 Z M 982.6 167.991 C 982.6 190.691 976.55 201.361 961.95 201.361 C 947.35 201.361 941.3 190.771 941.3 167.991 L 941.3 100.471 C 941.3 78.191 947.19 66.761 961.95 66.761 C 976.71 66.761 982.6 77.761 982.6 100.471 L 982.6 167.991 Z M 652.85 35.991 L 702.78 35.991 L 702.78 36.161 C 736.54 36.161 761.98 54.711 761.98 100.461 L 761.98 167.641 C 761.98 212.961 737.17 231.941 702.38 231.941 L 652.85 231.941 C 652.14 231.941 651.43 231.341 651.43 230.411 L 651.43 37.691 C 651.43 36.841 651.98 35.991 652.85 35.991 Z M 700.82 196.271 C 715.89 196.271 725.32 185.931 725.32 161.791 L 725.39 161.871 L 725.39 103.001 C 725.39 78.601 715.5 68.771 700.5 68.771 L 686.76 68.771 L 686.76 196.271 L 700.82 196.271 Z M 470.78 32.351 L 470.23 32.351 C 435.84 32.351 417.71 53.531 417.71 85.301 C 417.71 118.371 439.07 133.761 456.69 146.451 L 460.1 148.921 L 464.19 151.891 L 464.2 151.901 L 464.21 151.911 C 476.65 160.911 486.25 167.851 486.25 183.141 C 486.25 195.941 478.4 201.021 469.29 201.271 C 459.24 201.521 451.94 193.221 451.94 182.801 L 451.94 165.941 C 451.944 165.689 451.898 165.439 451.805 165.205 C 451.712 164.972 451.574 164.758 451.398 164.578 C 451.223 164.398 451.013 164.254 450.782 164.155 C 450.55 164.056 450.302 164.004 450.05 164.001 L 417.86 164.001 C 416.76 164.001 415.98 164.841 415.98 165.951 L 415.98 183.051 C 415.98 216.851 434.98 235.581 468.43 235.581 C 501.87 235.581 522.13 216.431 522.13 182.801 C 522.13 147.781 501.39 132.651 483.32 119.451 L 482.72 119.011 C 480.746 117.567 478.759 116.141 476.76 114.731 C 464.38 105.931 452.88 97.761 452.88 85.041 C 452.88 72.421 460.88 66.491 470.15 66.491 C 480.13 66.491 487.19 74.201 487.19 84.371 L 487.19 99.271 C 487.19 100.371 488.06 101.221 489.08 101.221 L 521.27 101.221 C 522.37 101.221 523.15 100.381 523.15 99.281 L 523.15 84.791 C 523.23 51.591 503.21 32.521 470.78 32.351 Z M 586.41 32.351 L 586.96 32.351 C 619.39 32.521 639.33 51.581 639.33 84.791 L 639.33 99.281 C 639.33 100.381 638.55 101.221 637.45 101.221 L 605.25 101.221 C 604.999 101.217 604.752 101.164 604.521 101.064 C 604.291 100.965 604.083 100.821 603.908 100.64 C 603.734 100.46 603.596 100.247 603.504 100.014 C 603.412 99.781 603.366 99.532 603.37 99.281 L 603.37 84.371 C 603.37 74.201 596.31 66.491 586.33 66.491 C 577.07 66.491 569.06 72.421 569.06 85.041 C 569.06 97.751 580.56 105.931 592.94 114.731 C 594.92 116.131 596.92 117.561 598.9 119.011 L 599.5 119.451 C 617.58 132.651 638.31 147.781 638.31 182.801 C 638.31 216.431 618.05 235.581 584.61 235.581 C 551.16 235.581 532.16 216.861 532.16 183.061 L 532.16 165.941 C 532.16 164.841 532.95 164.001 534.04 164.001 L 566.24 164.001 C 567.26 164.001 568.12 164.841 568.12 165.951 L 568.12 182.791 C 568.12 193.211 575.42 201.511 585.47 201.261 C 594.57 201.011 602.43 195.921 602.43 183.131 C 602.43 167.831 592.83 160.901 580.4 151.901 C 579.06 150.931 577.68 149.941 576.29 148.901 L 572.91 146.461 L 572.88 146.441 C 555.25 133.751 533.88 118.361 533.88 85.291 C 533.88 53.521 552.03 32.341 586.41 32.341 L 586.41 32.351 Z M 1141.11 96.331 L 1141.11 80.151 C 1141.11 55.501 1122.11 36.101 1100.28 36.101 L 1035.43 36.101 C 1034.65 36.101 1034.02 36.781 1034.02 37.621 L 1034.02 230.351 C 1034.02 231.191 1034.65 231.871 1035.43 231.871 L 1067.15 231.871 C 1068.01 231.871 1068.56 231.111 1068.56 230.351 L 1068.56 150.121 L 1084.11 150.121 C 1098.56 150.121 1103.11 155.881 1103.11 170.541 L 1103.11 230.181 C 1103.11 231.111 1103.82 231.701 1104.52 231.701 L 1137.26 231.701 C 1137.66 231.691 1138.03 231.526 1138.31 231.243 C 1138.59 230.959 1138.75 230.578 1138.75 230.181 L 1138.75 171.641 C 1138.75 151.641 1133.65 138.851 1120.62 133.601 C 1133.73 127.841 1141.11 116.321 1141.11 96.331 Z M 1105.62 103.111 C 1105.62 111.151 1099.65 117.591 1092.27 117.591 L 1068.17 117.591 L 1068.17 68.631 L 1092.27 68.631 C 1099.65 68.631 1105.62 75.071 1105.62 83.031 L 1105.62 103.111 Z M 334.62 36.101 L 368.39 36.101 C 369.02 36.101 369.64 36.601 369.8 37.371 L 413.61 229.841 C 414.01 230.941 413.21 231.961 412.2 231.961 L 379.85 231.961 C 379.3 231.961 378.59 231.451 378.44 230.681 L 371.53 196.211 L 331.17 196.211 L 324.27 230.681 C 324.221 231.026 324.051 231.342 323.792 231.575 C 323.532 231.807 323.198 231.94 322.85 231.951 L 290.5 231.951 C 289.56 231.951 288.85 230.941 289.09 229.841 L 333.2 37.371 C 333.233 37.019 333.397 36.693 333.661 36.457 C 333.924 36.222 334.267 36.094 334.62 36.101 Z M 351.04 97.261 L 337.69 163.851 L 364.69 163.851 L 351.35 97.261 L 351.19 98.191 L 351.04 97.261 Z M 46 36.061 L 0.62 36.061 C 0.28 36.061 0 36.361 0 36.721 L 0 80.571 C 0 80.941 0.28 81.241 0.62 81.241 L 26.12 81.241 C 26.12 94.591 17.09 98.421 5.22 99.251 C 5.064 99.264 4.918 99.336 4.814 99.454 C 4.709 99.571 4.654 99.724 4.66 99.881 L 4.66 116.771 C 4.66 117.121 4.95 117.411 5.28 117.391 C 18.81 116.711 28.93 113.261 35.67 107.541 C 43 101.321 46.62 92.421 46.63 81.481 L 46.63 36.721 C 46.63 36.351 46.35 36.051 46.01 36.051 L 46 36.061 Z" fill="#fff" style=""/>
</svg>