<?xml version="1.0" encoding="utf-8"?>
<svg viewBox="0 0 1400 560" xmlns="http://www.w3.org/2000/svg" xmlns:bx="https://boxy-svg.com">
  <defs>
    <filter id="saturate-filter-0" color-interpolation-filters="sRGB" x="-500%" y="-500%" width="1000%" height="1000%" bx:preset="saturate 1 0.5">
      <feColorMatrix type="saturate" values="0.5"/>
    </filter>
    <mask id="mask-1">
      <rect x="93.334" y="-435.968" width="367.636" height="116.885" style="fill: url(#gradient-4);" transform="matrix(1, 0, 0, -1, 0, 0)">
        <title>Mask</title>
      </rect>
    </mask>
    <linearGradient gradientUnits="userSpaceOnUse" x1="277.152" y1="109.753" x2="277.152" y2="225.851" id="gradient-4" gradientTransform="matrix(-1.023584, 0, 0, -1.010791, 560.840515, -207.823761)">
      <stop offset="0" style=""/>
      <stop offset="1" style="stop-color: rgb(255, 255, 255);"/>
    </linearGradient>
    <filter id="spot-light-filter-2" primitiveUnits="objectBoundingBox" color-interpolation-filters="sRGB" x="-500%" y="-500%" width="1000%" height="1000%" bx:preset="spot-light 1 0.5 0.5 1 0.5 0.5 0 15 #ffffff 128 1 2 1">
      <feSpecularLighting result="specular-lighting" lighting-color="#ffffff" specularConstant="1" specularExponent="128">
        <feSpotLight x="0.5" y="0.5" z="1" limitingConeAngle="15" pointsAtX="0.5" pointsAtY="0.5" pointsAtZ="0"/>
      </feSpecularLighting>
      <feDiffuseLighting result="diffuse-lighting" lighting-color="#ffffff" diffuseConstant="2">
        <feSpotLight x="0.5" y="0.5" z="1" limitingConeAngle="15" pointsAtX="0.5" pointsAtY="0.5" pointsAtZ="0"/>
      </feDiffuseLighting>
      <feMerge result="lighting">
        <feMergeNode in="diffuse-lighting"/>
        <feMergeNode in="specular-lighting"/>
      </feMerge>
      <feComposite in="SourceGraphic" in2="lighting" operator="arithmetic" k1="1" k2="1" k3="0" k4="0"/>
    </filter>
    <filter id="spot-light-filter-0" primitiveUnits="objectBoundingBox" color-interpolation-filters="sRGB" x="-500%" y="-500%" width="1000%" height="1000%" bx:preset="spot-light 1 0.5 0.5 1 0.5 0.5 0 20 #ffffff 1 0.76 2 1">
      <feSpecularLighting result="specular-lighting" lighting-color="#ffffff" specularConstant="0.76" specularExponent="1">
        <feSpotLight x="0.5" y="0.5" z="1" limitingConeAngle="20" pointsAtX="0.5" pointsAtY="0.5" pointsAtZ="0"/>
      </feSpecularLighting>
      <feDiffuseLighting result="diffuse-lighting" lighting-color="#ffffff" diffuseConstant="2">
        <feSpotLight x="0.5" y="0.5" z="1" limitingConeAngle="20" pointsAtX="0.5" pointsAtY="0.5" pointsAtZ="0"/>
      </feDiffuseLighting>
      <feMerge result="lighting">
        <feMergeNode in="diffuse-lighting"/>
        <feMergeNode in="specular-lighting"/>
      </feMerge>
      <feComposite in="SourceGraphic" in2="lighting" operator="arithmetic" k1="1" k2="1" k3="0" k4="0"/>
    </filter>
    <filter id="pixelete-filter-0" color-interpolation-filters="sRGB" x="0" y="0" width="100%" height="100%" bx:preset="pixelete 1 10">
      <feFlood height="2" width="2"/>
      <feComposite width="10" height="10"/>
      <feTile result="a"/>
      <feComposite in="SourceGraphic" in2="a" operator="in"/>
      <feMorphology operator="dilate" radius="5"/>
    </filter>
    <filter id="spot-light-filter-1" primitiveUnits="objectBoundingBox" color-interpolation-filters="sRGB" x="-500%" y="-500%" width="1000%" height="1000%" bx:preset="spot-light 1 0.5 0.5 1 0.5 0.5 0 90 #ffffff 30 2 0.1 0.31">
      <feSpecularLighting result="specular-lighting" lighting-color="#ffffff" specularConstant="2" specularExponent="30">
        <feSpotLight x="0.5" y="0.5" z="1" limitingConeAngle="90" pointsAtX="0.5" pointsAtY="0.5" pointsAtZ="0"/>
      </feSpecularLighting>
      <feDiffuseLighting result="diffuse-lighting" lighting-color="#ffffff" diffuseConstant="0.1">
        <feSpotLight x="0.5" y="0.5" z="1" limitingConeAngle="90" pointsAtX="0.5" pointsAtY="0.5" pointsAtZ="0"/>
      </feDiffuseLighting>
      <feMerge result="lighting">
        <feMergeNode in="diffuse-lighting"/>
        <feMergeNode in="specular-lighting"/>
      </feMerge>
      <feComposite in="SourceGraphic" in2="lighting" operator="arithmetic" k1="1" k2="0.31" k3="0" k4="0"/>
    </filter>
    <filter id="spot-light-filter-3" primitiveUnits="objectBoundingBox" color-interpolation-filters="sRGB" x="-500%" y="-500%" width="1000%" height="1000%" bx:preset="spot-light 1 0.5 0.5 1 0.5 0.5 0 41 rgba(0,212,255,1) 30 1.1 0.01 0">
      <feSpecularLighting result="specular-lighting" lighting-color="rgba(0,212,255,1)" specularConstant="1.1" specularExponent="30">
        <feSpotLight x="0.5" y="0.5" z="1" limitingConeAngle="41" pointsAtX="0.5" pointsAtY="0.5" pointsAtZ="0"/>
      </feSpecularLighting>
      <feDiffuseLighting result="diffuse-lighting" lighting-color="rgba(0,212,255,1)" diffuseConstant="0.01">
        <feSpotLight x="0.5" y="0.5" z="1" limitingConeAngle="41" pointsAtX="0.5" pointsAtY="0.5" pointsAtZ="0"/>
      </feDiffuseLighting>
      <feMerge result="lighting">
        <feMergeNode in="diffuse-lighting"/>
        <feMergeNode in="specular-lighting"/>
      </feMerge>
      <feComposite in="SourceGraphic" in2="lighting" operator="arithmetic" k1="1" k2="0" k3="0" k4="0"/>
    </filter>
    <filter id="saturate-filter-1" color-interpolation-filters="sRGB" x="-500%" y="-500%" width="1000%" height="1000%" bx:preset="saturate 1 0.5">
      <feColorMatrix type="saturate" values="0.5"/>
    </filter>
    <mask id="mask-0">
      <rect x="93.334" y="319.87" width="367.636" height="116.885" style="fill: url(#gradient-1);">
        <title>Mask</title>
      </rect>
    </mask>
    <linearGradient gradientUnits="userSpaceOnUse" x1="277.152" y1="109.753" x2="277.152" y2="225.851" id="gradient-1" gradientTransform="matrix(-1.023584, 0, 0, -1.010791, 560.840027, 548.013214)">
      <stop offset="0" style=""/>
      <stop offset="1" style="stop-color: rgb(255, 255, 255);"/>
    </linearGradient>
    <filter id="pixelete-filter-1" color-interpolation-filters="sRGB" x="0" y="0" width="100%" height="100%" bx:preset="pixelete 1 12">
      <feFlood height="2" width="2"/>
      <feComposite width="12" height="12"/>
      <feTile result="a"/>
      <feComposite in="SourceGraphic" in2="a" operator="in"/>
      <feMorphology operator="dilate" radius="6"/>
    </filter>
    <filter id="filter-1" color-interpolation-filters="sRGB" x="-500%" y="-500%" width="1000%" height="1000%" bx:preset="saturate 1 0.5">
      <feColorMatrix type="saturate" values="0.5"/>
    </filter>
    <mask id="mask-2">
      <rect x="93.334" y="-435.968" width="367.636" height="116.885" style="fill: url(#gradient-2);" transform="matrix(1, 0, 0, -1, 0, 0)">
        <title>Mask</title>
      </rect>
    </mask>
    <linearGradient gradientUnits="userSpaceOnUse" x1="277.152" y1="109.753" x2="277.152" y2="225.851" id="gradient-2" gradientTransform="matrix(-1.023584, 0, 0, -1.010791, 560.840515, -207.823761)">
      <stop offset="0" style=""/>
      <stop offset="1" style="stop-color: rgb(255, 255, 255);"/>
    </linearGradient>
    <filter id="filter-2" primitiveUnits="objectBoundingBox" color-interpolation-filters="sRGB" x="-500%" y="-500%" width="1000%" height="1000%" bx:preset="spot-light 1 0.5 0.5 1 0.5 0.5 0 15 #ffffff 128 1 2 1">
      <feSpecularLighting result="specular-lighting" lighting-color="#ffffff" specularConstant="1" specularExponent="128">
        <feSpotLight x="0.5" y="0.5" z="1" limitingConeAngle="15" pointsAtX="0.5" pointsAtY="0.5" pointsAtZ="0"/>
      </feSpecularLighting>
      <feDiffuseLighting result="diffuse-lighting" lighting-color="#ffffff" diffuseConstant="2">
        <feSpotLight x="0.5" y="0.5" z="1" limitingConeAngle="15" pointsAtX="0.5" pointsAtY="0.5" pointsAtZ="0"/>
      </feDiffuseLighting>
      <feMerge result="lighting">
        <feMergeNode in="diffuse-lighting"/>
        <feMergeNode in="specular-lighting"/>
      </feMerge>
      <feComposite in="SourceGraphic" in2="lighting" operator="arithmetic" k1="1" k2="1" k3="0" k4="0"/>
    </filter>
    <filter id="filter-3" primitiveUnits="objectBoundingBox" color-interpolation-filters="sRGB" x="-500%" y="-500%" width="1000%" height="1000%" bx:preset="spot-light 1 0.5 0.5 1 0.5 0.5 0 20 #ffffff 1 0.76 2 1">
      <feSpecularLighting result="specular-lighting" lighting-color="#ffffff" specularConstant="0.76" specularExponent="1">
        <feSpotLight x="0.5" y="0.5" z="1" limitingConeAngle="20" pointsAtX="0.5" pointsAtY="0.5" pointsAtZ="0"/>
      </feSpecularLighting>
      <feDiffuseLighting result="diffuse-lighting" lighting-color="#ffffff" diffuseConstant="2">
        <feSpotLight x="0.5" y="0.5" z="1" limitingConeAngle="20" pointsAtX="0.5" pointsAtY="0.5" pointsAtZ="0"/>
      </feDiffuseLighting>
      <feMerge result="lighting">
        <feMergeNode in="diffuse-lighting"/>
        <feMergeNode in="specular-lighting"/>
      </feMerge>
      <feComposite in="SourceGraphic" in2="lighting" operator="arithmetic" k1="1" k2="1" k3="0" k4="0"/>
    </filter>
    <filter id="gaussian-blur-filter-0" color-interpolation-filters="sRGB" x="-500%" y="-500%" width="1000%" height="1000%" bx:preset="gaussian-blur 1 10">
      <feGaussianBlur stdDeviation="10 10" edgeMode="none"/>
    </filter>
    <filter id="filter-6" primitiveUnits="objectBoundingBox" color-interpolation-filters="sRGB" x="-500%" y="-500%" width="1000%" height="1000%" bx:preset="spot-light 1 0.5 0.5 1 0.5 0.5 0 41 rgba(0,212,255,1) 30 1.1 0.01 0">
      <feSpecularLighting result="specular-lighting" lighting-color="rgba(0,212,255,1)" specularConstant="1.1" specularExponent="30">
        <feSpotLight x="0.5" y="0.5" z="1" limitingConeAngle="41" pointsAtX="0.5" pointsAtY="0.5" pointsAtZ="0"/>
      </feSpecularLighting>
      <feDiffuseLighting result="diffuse-lighting" lighting-color="rgba(0,212,255,1)" diffuseConstant="0.01">
        <feSpotLight x="0.5" y="0.5" z="1" limitingConeAngle="41" pointsAtX="0.5" pointsAtY="0.5" pointsAtZ="0"/>
      </feDiffuseLighting>
      <feMerge result="lighting">
        <feMergeNode in="diffuse-lighting"/>
        <feMergeNode in="specular-lighting"/>
      </feMerge>
      <feComposite in="SourceGraphic" in2="lighting" operator="arithmetic" k1="1" k2="0" k3="0" k4="0"/>
    </filter>
    <filter id="filter-4" color-interpolation-filters="sRGB" x="-500%" y="-500%" width="1000%" height="1000%" bx:preset="saturate 1 0.5">
      <feColorMatrix type="saturate" values="0.5"/>
    </filter>
    <mask id="mask-3">
      <rect x="93.334" y="319.87" width="367.636" height="116.885" style="fill: url(#gradient-3);">
        <title>Mask</title>
      </rect>
    </mask>
    <linearGradient gradientUnits="userSpaceOnUse" x1="277.152" y1="109.753" x2="277.152" y2="225.851" id="gradient-3" gradientTransform="matrix(-1.023584, 0, 0, -1.010791, 560.840027, 548.013214)">
      <stop offset="0" style=""/>
      <stop offset="1" style="stop-color: rgb(255, 255, 255);"/>
    </linearGradient>
    <filter id="filter-5" color-interpolation-filters="sRGB" x="0" y="0" width="100%" height="100%" bx:preset="pixelete 1 12">
      <feFlood height="2" width="2"/>
      <feComposite width="12" height="12"/>
      <feTile result="a"/>
      <feComposite in="SourceGraphic" in2="a" operator="in"/>
      <feMorphology operator="dilate" radius="6"/>
    </filter>
    <filter id="drop-shadow-filter-0" color-interpolation-filters="sRGB" x="-500%" y="-500%" width="1000%" height="1000%" bx:preset="drop-shadow 1 0 0 4 1 rgba(0,0,0,0.3)">
      <feGaussianBlur in="SourceAlpha" stdDeviation="4"/>
      <feOffset dx="0" dy="0"/>
      <feComponentTransfer result="offsetblur">
        <feFuncA id="spread-ctrl" type="linear" slope="2"/>
      </feComponentTransfer>
      <feFlood flood-color="rgba(0,0,0,0.3)"/>
      <feComposite in2="offsetblur" operator="in"/>
      <feMerge>
        <feMergeNode/>
        <feMergeNode in="SourceGraphic"/>
      </feMerge>
    </filter>
    <style bx:fonts="Open Sans">@import url(https://fonts.googleapis.com/css2?family=Open+Sans%3Aital%2Cwght%400%2C300%3B0%2C400%3B0%2C500%3B0%2C600%3B0%2C700%3B0%2C800%3B1%2C300%3B1%2C400%3B1%2C500%3B1%2C600%3B1%2C700%3B1%2C800&amp;display=swap);</style>
    <filter id="outline-filter-1" color-interpolation-filters="sRGB" x="-500%" y="-500%" width="1000%" height="1000%" bx:preset="outline 1 0 rgba(255,255,255,1)">
      <feMorphology in="SourceAlpha" result="dilated" operator="dilate" radius="0"/>
      <feFlood flood-color="rgba(255,255,255,1)" result="flood"/>
      <feComposite in="flood" in2="dilated" operator="in" result="outline"/>
      <feMerge>
        <feMergeNode in="outline"/>
        <feMergeNode in="SourceGraphic"/>
      </feMerge>
    </filter>
    <mask id="mask-4">
      <polygon style="fill: rgb(255, 255, 255);" points="91 -41 -44 -41 -44 94">
        <title>briefcase-2-mask</title>
      </polygon>
    </mask>
    <clipPath id="clip-5">
      <path style="stroke-width: 3px; fill: rgb(255, 255, 0); stroke: rgb(0, 0, 0); stroke-opacity: 0; stroke-linejoin: round; stroke-linecap: round; pointer-events: none;" d="M 214.768 255.253 C 208.387 241.371 147.803 231.913 146.804 234.787 C 122.672 296.86 217.521 311.741 214.768 255.253 Z">
        <title>Left Eye Clip</title>
      </path>
    </clipPath>
    <clipPath id="clip-6">
      <path style="stroke-width: 3px; fill: rgb(255, 255, 0); stroke: rgb(0, 0, 0); stroke-opacity: 0; stroke-linejoin: round; stroke-linecap: round; pointer-events: none;" d="M 285.049 249.847 L 333.339 223.346 C 388.849 270.474 281.291 335.727 285.049 249.847 Z">
        <title>Right Eye Clip</title>
      </path>
    </clipPath>
    <mask id="mask-5">
      <polygon style="fill: rgb(255, 255, 255);" points="-44 94 91 94 91 -41">
        <title>briefcase-3-mask</title>
      </polygon>
    </mask>
    <filter id="filter-7" color-interpolation-filters="sRGB" x="-500%" y="-500%" width="1000%" height="1000%" bx:preset="saturate 1 0">
      <feColorMatrix type="saturate" values="0"/>
    </filter>
    <clipPath id="clip-7">
      <path style="stroke-width: 3px; fill: rgb(255, 255, 0); stroke: rgb(0, 0, 0); stroke-opacity: 0; stroke-linejoin: round; stroke-linecap: round; pointer-events: none;" d="M 214.768 255.253 C 208.387 241.371 147.803 231.913 146.804 234.787 C 122.672 296.86 217.521 311.741 214.768 255.253 Z">
        <title>Left Eye Clip</title>
      </path>
    </clipPath>
    <clipPath id="clip-8">
      <path style="stroke-width: 3px; fill: rgb(255, 255, 0); stroke: rgb(0, 0, 0); stroke-opacity: 0; stroke-linejoin: round; stroke-linecap: round; pointer-events: none;" d="M 285.049 249.847 L 333.339 223.346 C 388.849 270.474 281.291 335.727 285.049 249.847 Z">
        <title>Right Eye Clip</title>
      </path>
    </clipPath>
  </defs>
  <rect width="1400" height="560" style="fill: rgb(244, 222, 182);">
    <title>Background</title>
  </rect>
  <g transform="matrix(1, 0, 0, 1, 36, 0)">
    <title>Left Side</title>
    <g transform="matrix(1.494624, 0, 0, 1.494624, -1443.172974, 557.105164)" style="">
      <title>Logo</title>
      <rect x="965.576" y="-372.739" width="374.676" height="374.676" style="fill: none;">
        <title>Container</title>
      </rect>
      <g style="" transform="matrix(1.666667, 0, 0, 1.666667, 1113.856201, -260.724365)">
        <title>icon</title>
        <path d="M -7.098 57.612 C -8.539 57.612 -9.8 57.045 -10.88 55.906 C -11.962 54.77 -12.5 53.442 -12.5 51.928 L -12.5 6.455 C -12.5 4.938 -11.962 3.61 -10.88 2.475 C -9.8 1.338 -8.539 0.768 -7.098 0.768 L 9.099 0.768 L 9.099 -8.704 C 9.099 -10.218 9.642 -11.546 10.718 -12.682 C 11.8 -13.821 13.06 -14.388 14.5 -14.388 L 32.5 -14.388 C 33.94 -14.388 35.2 -13.821 36.282 -12.682 C 37.358 -11.546 37.901 -10.218 37.901 -8.704 L 37.901 0.768 L 54.098 0.768 C 55.539 0.768 56.8 1.338 57.88 2.475 C 58.959 3.61 59.5 4.938 59.5 6.455 L 59.5 51.928 C 59.5 53.442 58.959 54.77 57.88 55.906 C 56.8 57.045 55.539 57.612 54.098 57.612 L -7.098 57.612 Z M 14.5 0.768 L 32.5 0.768 L 32.5 -8.704 L 14.5 -8.704 L 14.5 0.768 Z" style="paint-order: fill; stroke-width: 4px; stroke: rgb(0, 0, 0); filter: url(#outline-filter-1);">
          <title>briefcase-prevent-seam</title>
        </path>
        <path style="stroke-width: 3px; stroke-opacity: 0; stroke-linejoin: round; stroke-linecap: round; stroke: rgb(186, 218, 85);" d="M 13.695 42.728 C 5.181 42.499 -3.487 32.43 6.373 21.353 C 6.698 20.47 6.794 10.524 6.976 10.524 C 7.198 8.708 13.103 17.207 14.013 18.549 C 20.212 14.327 30.345 15.734 32.993 18.791 C 33.473 18.235 37.132 12.96 38.22 12.071 C 39.939 11.881 39.247 22.507 39.427 22.32 C 47.744 26.516 47.201 40.995 34.919 42.728">
          <title>head-prevent-seam</title>
        </path>
        <g style="mask: url(#mask-4);">
          <title>briefcase-upper-left</title>
          <path d="M -7.098 57.612 C -8.539 57.612 -9.8 57.045 -10.88 55.906 C -11.962 54.77 -12.5 53.442 -12.5 51.928 L -12.5 6.455 C -12.5 4.938 -11.962 3.61 -10.88 2.475 C -9.8 1.338 -8.539 0.768 -7.098 0.768 L 9.099 0.768 L 9.099 -8.704 C 9.099 -10.218 9.642 -11.546 10.718 -12.682 C 11.8 -13.821 13.06 -14.388 14.5 -14.388 L 32.5 -14.388 C 33.94 -14.388 35.2 -13.821 36.282 -12.682 C 37.358 -11.546 37.901 -10.218 37.901 -8.704 L 37.901 0.768 L 54.098 0.768 C 55.539 0.768 56.8 1.338 57.88 2.475 C 58.959 3.61 59.5 4.938 59.5 6.455 L 59.5 51.928 C 59.5 53.442 58.959 54.77 57.88 55.906 C 56.8 57.045 55.539 57.612 54.098 57.612 L -7.098 57.612 Z M 14.5 0.768 L 32.5 0.768 L 32.5 -8.704 L 14.5 -8.704 L 14.5 0.768 Z" style="stroke: rgb(0, 0, 0); fill: rgb(217, 168, 118);">
            <title>briefcase</title>
          </path>
          <g style="" transform="matrix(0.104132, 0, 0, 0.104132, -2.532993, -0.637008)">
            <title>Charm</title>
            <path style="stroke-width: 3px; stroke-opacity: 0; stroke-linejoin: round; stroke-linecap: round; pointer-events: none; stroke: rgb(186, 218, 85);" d="M 155.839 416.452 C 74.076 414.246 -9.163 317.554 85.521 211.184 C 88.642 202.702 89.567 107.184 91.313 107.184 C 93.447 89.745 150.151 171.369 158.89 184.258 C 218.415 143.708 315.724 157.224 341.157 186.578 C 345.771 181.239 380.902 130.582 391.357 122.043 C 407.86 120.218 401.213 222.267 402.943 220.47 C 482.816 260.759 477.595 399.802 359.651 416.452">
              <title>Head</title>
            </path>
            <g style="clip-path: url(#clip-5);">
              <title>Left Eye</title>
              <path style="stroke-width: 3px; stroke-opacity: 0; stroke-linejoin: round; stroke-linecap: round; pointer-events: none; fill: rgb(217, 217, 118);" d="M 214.768 255.253 C 208.387 241.371 147.803 231.913 146.804 234.787 C 122.672 296.86 217.521 311.741 214.768 255.253 Z">
                <title>Left Eye Outer</title>
              </path>
              <path style="fill: black; stroke-width: 3px; stroke-linejoin: round; stroke-linecap: round; pointer-events: none; stroke: rgb(0, 0, 0);" d="M 169.232 238.541 C 164.496 240.806 158.937 268.553 168.383 274.458 C 181.214 279.697 208.634 252.081 198.524 245.975 C 194.377 243.919 170.2 237.767 169.232 238.541 Z">
                <title>Left Eye Pupil</title>
              </path>
            </g>
            <g style="pointer-events: none; clip-path: url(#clip-6); visibility: hidden;">
              <title>Right Eye</title>
              <path style="stroke-width: 3px; fill: rgb(255, 255, 0); stroke-opacity: 0; stroke-linejoin: round; stroke-linecap: round; stroke: rgb(186, 218, 85);" d="M 285.049 249.847 L 333.339 223.346 C 388.849 270.474 281.291 335.727 285.049 249.847 Z">
                <title>Right Eye Outer</title>
              </path>
              <path style="fill: black; stroke-width: 3px; stroke-linejoin: round; stroke-linecap: round; stroke: rgb(186, 218, 85);" d="M 296.094 245.378 L 314.081 235.588 C 321.11 237.808 327.078 271.989 309.864 276.822 C 292.65 281.657 295.966 247.777 296.094 245.378 Z">
                <title>Right Eye Pupil</title>
              </path>
            </g>
            <path style="stroke-width: 3px; fill: rgb(128, 128, 128); stroke-linejoin: round; stroke-linecap: round; pointer-events: none; stroke: rgb(186, 218, 85); visibility: hidden;" d="M 233.32 303.41 C 233.32 302.919 267.736 300.274 267.736 301.963 C 270.98 301.963 267.194 332.711 265.99 332.711 C 262.439 338.218 230.936 307.108 233.32 303.41 Z" transform="matrix(-0.679305, 0.733856, -0.733856, -0.679305, 654.596728, 348.709856)">
              <title>Nose</title>
            </path>
            <path d="M 217.5 -411.659 L 225 -385.967 L 210 -385.967 L 217.5 -411.659 Z" style="fill: rgb(255, 255, 255); visibility: hidden; stroke: rgb(186, 218, 85);" transform="matrix(1, 0, 0, -1, 0, 0)" class="halloween" bx:shape="triangle 210 -411.659 15 25.692 0.5 0 1@d8234d65">
              <title>Halloween Left Fang</title>
            </path>
            <path d="M 280.986 -402.974 L 288.486 -377.282 L 273.486 -377.282 L 280.986 -402.974 Z" style="fill: rgb(255, 255, 255); visibility: hidden; stroke: rgb(186, 218, 85);" transform="matrix(1, 0, 0, -1, 0, 0)" class="halloween" bx:shape="triangle 273.486 -402.974 15 25.692 0.5 0 1@027a9276">
              <title>Halloween Right Fang</title>
            </path>
            <path style="fill: none; stroke-width: 6px; stroke-linejoin: round; stroke-linecap: round; pointer-events: none; stroke: rgb(186, 218, 85); visibility: hidden;" d="M 250.589 336.034 L 252.443 361.372 C 230.077 409.832 166.815 377.88 183.845 340.978">
              <title>Left Lip</title>
            </path>
            <path style="fill: none; stroke-width: 6px; stroke-linejoin: round; stroke-linecap: round; pointer-events: none; stroke: rgb(186, 218, 85); visibility: hidden;" d="M 252.443 359.518 C 278.217 395.377 308.936 368.31 298.175 353.337">
              <title>Right Lip</title>
            </path>
            <path style="stroke-width: 6px; stroke-linejoin: round; stroke-linecap: round; fill: rgb(51, 51, 51); pointer-events: none; stroke-opacity: 0; stroke: rgb(186, 218, 85); visibility: hidden;" d="M 144.908 229.028 C 144.908 229.028 222.328 249.598 222.328 249.598">
              <title>Left Eyelid Chromium</title>
            </path>
            <path style="stroke-width: 6px; stroke-linejoin: round; stroke-linecap: round; fill: rgb(51, 51, 51); pointer-events: none; stroke-opacity: 0; stroke: rgb(186, 218, 85); visibility: hidden;" d="M 278.801 251.337 C 278.801 251.337 339.019 218.997 339.019 218.997">
              <title>Right Eyelid Chromium</title>
            </path>
          </g>
        </g>
        <g style="mask: url(#mask-5);">
          <title>briefcase-lower-right</title>
          <path d="M -7.098 57.612 C -8.539 57.612 -9.8 57.045 -10.88 55.906 C -11.962 54.77 -12.5 53.442 -12.5 51.928 L -12.5 6.455 C -12.5 4.938 -11.962 3.61 -10.88 2.475 C -9.8 1.338 -8.539 0.768 -7.098 0.768 L 9.099 0.768 L 9.099 -8.704 C 9.099 -10.218 9.642 -11.546 10.718 -12.682 C 11.8 -13.821 13.06 -14.388 14.5 -14.388 L 32.5 -14.388 C 33.94 -14.388 35.2 -13.821 36.282 -12.682 C 37.358 -11.546 37.901 -10.218 37.901 -8.704 L 37.901 0.768 L 54.098 0.768 C 55.539 0.768 56.8 1.338 57.88 2.475 C 58.959 3.61 59.5 4.938 59.5 6.455 L 59.5 51.928 C 59.5 53.442 58.959 54.77 57.88 55.906 C 56.8 57.045 55.539 57.612 54.098 57.612 L -7.098 57.612 Z M 14.5 0.768 L 32.5 0.768 L 32.5 -8.704 L 14.5 -8.704 L 14.5 0.768 Z" style="stroke: rgb(0, 0, 0);">
            <title>briefcase</title>
          </path>
          <g style="opacity: 0; visibility: hidden; filter: url(#filter-7);" transform="matrix(0.104132, 0, 0, 0.104132, -2.532993, -0.637008)">
            <title>Charm</title>
            <path style="stroke-width: 3px; stroke: rgb(0, 0, 0); stroke-opacity: 0; fill: rgb(51, 51, 51); stroke-linejoin: round; stroke-linecap: round; pointer-events: none; visibility: hidden;" d="M 155.839 416.452 C 74.076 414.246 -9.163 317.554 85.521 211.184 C 88.642 202.702 89.567 107.184 91.313 107.184 C 93.447 89.745 150.151 171.369 158.89 184.258 C 218.415 143.708 315.724 157.224 341.157 186.578 C 345.771 181.239 380.902 130.582 391.357 122.043 C 407.86 120.218 401.213 222.267 402.943 220.47 C 482.816 260.759 477.595 399.802 359.651 416.452">
              <title>Head</title>
            </path>
            <g style="clip-path: url(#clip-7);">
              <title>Left Eye</title>
              <path style="stroke-width: 3px; fill: rgb(255, 255, 0); stroke: rgb(0, 0, 0); stroke-opacity: 0; stroke-linejoin: round; stroke-linecap: round; pointer-events: none;" d="M 214.768 255.253 C 208.387 241.371 147.803 231.913 146.804 234.787 C 122.672 296.86 217.521 311.741 214.768 255.253 Z">
                <title>Left Eye Outer</title>
              </path>
              <path style="fill: black; stroke-width: 3px; stroke: black; stroke-linejoin: round; stroke-linecap: round; pointer-events: none;" d="M 169.232 238.541 C 164.496 240.806 158.937 268.553 168.383 274.458 C 181.214 279.697 208.634 252.081 198.524 245.975 C 194.377 243.919 170.2 237.767 169.232 238.541 Z">
                <title>Left Eye Pupil</title>
              </path>
            </g>
            <g style="pointer-events: none; clip-path: url(#clip-8);">
              <title>Right Eye</title>
              <path style="stroke-width: 3px; fill: rgb(255, 255, 0); stroke: rgb(0, 0, 0); stroke-opacity: 0; stroke-linejoin: round; stroke-linecap: round;" d="M 285.049 249.847 L 333.339 223.346 C 388.849 270.474 281.291 335.727 285.049 249.847 Z">
                <title>Right Eye Outer</title>
              </path>
              <path style="fill: black; stroke-width: 3px; stroke: black; stroke-linejoin: round; stroke-linecap: round;" d="M 296.094 245.378 L 314.081 235.588 C 321.11 237.808 327.078 271.989 309.864 276.822 C 292.65 281.657 295.966 247.777 296.094 245.378 Z">
                <title>Right Eye Pupil</title>
              </path>
            </g>
            <path style="stroke-width: 3px; stroke: rgb(128, 128, 128); fill: rgb(128, 128, 128); stroke-linejoin: round; stroke-linecap: round; pointer-events: none;" d="M 233.32 303.41 C 233.32 302.919 267.736 300.274 267.736 301.963 C 270.98 301.963 267.194 332.711 265.99 332.711 C 262.439 338.218 230.936 307.108 233.32 303.41 Z" transform="matrix(-0.679305, 0.733856, -0.733856, -0.679305, 654.596728, 348.709856)">
              <title>Nose</title>
            </path>
            <path style="fill: none; stroke: rgb(128, 128, 128); stroke-width: 6px; stroke-linejoin: round; stroke-linecap: round; pointer-events: none;" d="M 250.589 336.034 L 252.443 361.372 C 230.077 409.832 166.815 377.88 183.845 340.978">
              <title>Left Lip</title>
            </path>
            <path style="fill: none; stroke: rgb(128, 128, 128); stroke-width: 6px; stroke-linejoin: round; stroke-linecap: round; pointer-events: none;" d="M 252.443 359.518 C 278.217 395.377 308.936 368.31 298.175 353.337">
              <title>Right Lip</title>
            </path>
            <path style="stroke-width: 6px; stroke-linejoin: round; stroke: rgb(128, 128, 128); stroke-linecap: round; fill: rgb(51, 51, 51); pointer-events: none; stroke-opacity: 0;" d="M 144.908 229.028 C 144.908 229.028 222.328 249.598 222.328 249.598">
              <title>Left Eyelid Chromium</title>
            </path>
            <path style="stroke-width: 6px; stroke-linejoin: round; stroke: rgb(128, 128, 128); stroke-linecap: round; fill: rgb(51, 51, 51); pointer-events: none; stroke-opacity: 0;" d="M 278.801 251.337 C 278.801 251.337 339.019 218.997 339.019 218.997">
              <title>Right Eyelid Chromium</title>
            </path>
          </g>
        </g>
      </g>
      <text style="font-family: &quot;Open Sans&quot;; font-size: 40.1px; font-weight: 700; white-space: pre;" x="1030.287" y="-98.071"><title>Title</title>Hide n' Seek</text>
    </g>
  </g>
  <g transform="matrix(1, 0, 0, 1, -50, 0)">
    <title>Right Side</title>
    <rect x="560" width="840" height="560" style="fill: none;">
      <title>Container</title>
    </rect>
    <g transform="matrix(0.651543, 0, 0, 0.651543, 563.023193, 42.677296)" style="">
      <title>Title</title>
      <rect y="5.098" width="1117.385" height="137.807" style="fill: none;" x="81.291">
        <title>Text Box</title>
      </rect>
      <text style="fill: rgb(255, 255, 255); font-family: &quot;Open Sans&quot;; font-size: 45.2px; font-weight: 600; line-height: 53.2073px; white-space: pre;" x="0.585" y="-0.409"><title>Text</title><tspan x="116.383" y="90.885" style="fill: rgb(0, 0, 0); font-size: 45.2px; word-spacing: 0px;">View the jobs you seek.</tspan><tspan style="font-size: 45.2px; word-spacing: 0px;"> </tspan><tspan style="fill: rgb(223, 32, 32); font-size: 45.2px; word-spacing: 0px;">Hide the ones you don't.</tspan></text>
    </g>
    <path d="M 941.276 317.392 H 988.744 L 988.744 304.892 L 1018.744 324.892 L 988.744 344.892 L 988.744 332.392 H 941.276 V 317.392 Z" style="fill: rgb(223, 32, 32);" bx:shape="arrow 941.276 304.892 77.468 40 15 30 0 1@4e211934"/>
    <g transform="matrix(0.651543, 0, 0, 0.651543, 622.071655, 64.2752)" style="">
      <title>Before</title>
      <g transform="matrix(1, 0, 0, 1, 0, -210.115509)" style="filter: url(#saturate-filter-0); mask: url(#mask-1);">
        <title>Job Ad</title>
        <rect x="96.854" y="319.868" width="360.596" height="116.099" style="fill: rgb(230, 230, 230); stroke: rgb(179, 179, 179);">
          <title>Container</title>
        </rect>
        <g transform="matrix(1, 0, 0, 1, 10, 18.941498)">
          <title>Company Logo</title>
          <rect x="106.854" y="329.868" width="58.216" height="58.216" style="">
            <title>Container</title>
          </rect>
          <path style="fill: rgb(115, 115, 115); filter: url(#spot-light-filter-2);" transform="matrix(0.23, 0, 0, 0.23, 22.48218, 281.605499)" d="M 482.989 247 L 505.011 247 L 509.658 280.634 A 58.5 58.5 0 0 1 522.785 286.072 L 549.854 265.575 L 565.425 281.146 L 544.928 308.215 A 58.5 58.5 0 0 1 550.366 321.342 L 584 325.989 L 584 348.011 L 550.366 352.658 A 58.5 58.5 0 0 1 544.928 365.785 L 565.425 392.854 L 549.854 408.425 L 522.785 387.928 A 58.5 58.5 0 0 1 509.658 393.366 L 505.011 427 L 482.989 427 L 478.342 393.366 A 58.5 58.5 0 0 1 465.215 387.928 L 438.146 408.425 L 422.575 392.854 L 443.072 365.785 A 58.5 58.5 0 0 1 437.634 352.658 L 404 348.011 L 404 325.989 L 437.634 321.342 A 58.5 58.5 0 0 1 443.072 308.215 L 422.575 281.146 L 438.146 265.575 L 465.215 286.072 A 58.5 58.5 0 0 1 478.342 280.634 Z M 494 310 A 27 27 0 0 0 494 364 A 27 27 0 0 0 494 310" bx:shape="cog 494 337 27 58.5 90 0.38 8 1@0ee9e527">
            <title>Logo</title>
          </path>
        </g>
        <text style="fill: rgb(0, 42, 255); font-family: &quot;Open Sans&quot;; font-size: 18px; font-weight: 700; white-space: pre;" transform="matrix(1, 0, 0, 1, 55.55901, 91.018478)"><title>Job Title</title><tspan x="139.511" y="277.334">Frontend Developer</tspan><tspan x="139.51100158691406" dy="1em">​</tspan></text>
        <text style="font-family: &quot;Open Sans&quot;; font-size: 18px; white-space: pre;" x="193.564" y="398.353"><title>Company Name</title>Generic Inc.</text>
        <g transform="matrix(1.155068, 0, 0, 1.155068, -321.793549, -84.109703)">
          <title>Block Button</title>
          <circle style="fill: rgb(179, 179, 179);" cx="640" cy="400" r="17.315">
            <title>Container</title>
          </circle>
          <path d="M 639.989 409.23 C 638.717 409.23 637.52 408.989 636.399 408.504 C 635.278 408.02 634.299 407.358 633.46 406.519 C 632.621 405.68 631.963 404.7 631.486 403.579 C 631.009 402.459 630.77 401.255 630.77 399.968 C 630.77 398.709 631.013 397.52 631.497 396.399 C 631.982 395.278 632.639 394.303 633.47 393.47 C 634.303 392.639 635.278 391.982 636.399 391.497 C 637.52 391.013 638.717 390.77 639.989 390.77 C 641.263 390.77 642.459 391.013 643.579 391.497 C 644.7 391.982 645.677 392.639 646.508 393.47 C 647.34 394.303 648.002 395.278 648.493 396.399 C 648.984 397.52 649.23 398.709 649.23 399.968 C 649.23 401.255 648.988 402.459 648.504 403.579 C 648.02 404.7 647.358 405.68 646.519 406.519 C 645.68 407.358 644.7 408.02 643.579 408.504 C 642.459 408.989 641.263 409.23 639.989 409.23 Z M 639.989 407.192 C 641.985 407.192 643.681 406.49 645.077 405.087 C 646.472 403.685 647.169 401.978 647.169 399.968 C 647.169 399.187 647.047 398.427 646.801 397.69 C 646.555 396.952 646.193 396.28 645.716 395.673 L 635.673 405.694 C 636.251 406.215 636.917 406.594 637.668 406.834 C 638.42 407.072 639.194 407.192 639.989 407.192 Z M 634.284 404.284 L 644.284 394.263 C 643.663 393.785 642.99 393.427 642.267 393.188 C 641.545 392.951 640.785 392.831 639.989 392.831 C 637.994 392.831 636.298 393.522 634.902 394.902 C 633.506 396.283 632.809 397.972 632.809 399.968 C 632.809 400.763 632.942 401.529 633.21 402.267 C 633.478 403.005 633.836 403.677 634.284 404.284 Z" style="fill: rgb(255, 0, 0);">
            <title>Icon</title>
          </path>
        </g>
      </g>
      <g transform="matrix(1, 0, 0, 1, 0, -94.01651)">
        <title>Job Ad</title>
        <rect x="96.854" y="319.868" width="360.596" height="116.099" style="fill: rgb(230, 230, 230); stroke: rgb(179, 179, 179);">
          <title>Container</title>
        </rect>
        <g transform="matrix(1, 0, 0, 1, 10, 18.941498)">
          <title>Company Logo</title>
          <rect x="106.854" y="329.868" width="58.216" height="58.216" style="">
            <title>Container</title>
          </rect>
          <path d="M 135.952 358.981 m -20.55 0 a 20.55 20.55 0 1 0 41.1 0 a 20.55 20.55 0 1 0 -41.1 0 Z M 135.952 358.981 m -10.275 0 a 10.275 10.275 0 0 1 20.55 0 a 10.275 10.275 0 0 1 -20.55 0 Z" style="stroke: rgb(0, 0, 0); fill: rgb(255, 162, 0); filter: url(#spot-light-filter-0);" bx:shape="ring 135.952 358.981 10.275 10.275 20.55 20.55 1@df57ffaf"/>
        </g>
        <text style="fill: rgb(0, 42, 255); font-family: &quot;Open Sans&quot;; font-size: 18px; font-weight: 700; white-space: pre;" transform="matrix(1, 0, 0, 1, 55.55901, 91.018478)"><title>Job Title</title><tspan x="139.511" y="277.334">Web Developer</tspan><tspan x="139.51100158691406" dy="1em">​</tspan></text>
        <text style="font-family: &quot;Open Sans&quot;; font-size: 18px; white-space: pre;" x="193.564" y="398.353"><title>Company Name</title>WeAreFamily Inc.</text>
        <g transform="matrix(1.155068, 0, 0, 1.155068, -321.793549, -84.109703)">
          <title>Block Button</title>
          <circle style="fill: rgb(179, 179, 179);" cx="640" cy="400" r="17.315">
            <title>Container</title>
          </circle>
          <path d="M 639.989 409.23 C 638.717 409.23 637.52 408.989 636.399 408.504 C 635.278 408.02 634.299 407.358 633.46 406.519 C 632.621 405.68 631.963 404.7 631.486 403.579 C 631.009 402.459 630.77 401.255 630.77 399.968 C 630.77 398.709 631.013 397.52 631.497 396.399 C 631.982 395.278 632.639 394.303 633.47 393.47 C 634.303 392.639 635.278 391.982 636.399 391.497 C 637.52 391.013 638.717 390.77 639.989 390.77 C 641.263 390.77 642.459 391.013 643.579 391.497 C 644.7 391.982 645.677 392.639 646.508 393.47 C 647.34 394.303 648.002 395.278 648.493 396.399 C 648.984 397.52 649.23 398.709 649.23 399.968 C 649.23 401.255 648.988 402.459 648.504 403.579 C 648.02 404.7 647.358 405.68 646.519 406.519 C 645.68 407.358 644.7 408.02 643.579 408.504 C 642.459 408.989 641.263 409.23 639.989 409.23 Z M 639.989 407.192 C 641.985 407.192 643.681 406.49 645.077 405.087 C 646.472 403.685 647.169 401.978 647.169 399.968 C 647.169 399.187 647.047 398.427 646.801 397.69 C 646.555 396.952 646.193 396.28 645.716 395.673 L 635.673 405.694 C 636.251 406.215 636.917 406.594 637.668 406.834 C 638.42 407.072 639.194 407.192 639.989 407.192 Z M 634.284 404.284 L 644.284 394.263 C 643.663 393.785 642.99 393.427 642.267 393.188 C 641.545 392.951 640.785 392.831 639.989 392.831 C 637.994 392.831 636.298 393.522 634.902 394.902 C 633.506 396.283 632.809 397.972 632.809 399.968 C 632.809 400.763 632.942 401.529 633.21 402.267 C 633.478 403.005 633.836 403.677 634.284 404.284 Z" style="fill: rgb(255, 0, 0);">
            <title>Icon</title>
          </path>
        </g>
      </g>
      <g transform="matrix(1, 0, 0, 1, 0, 22.082489)">
        <title>Job Ad</title>
        <rect x="96.854" y="319.868" width="360.596" height="116.099" style="fill: rgb(230, 230, 230); stroke: rgb(179, 179, 179);">
          <title>Container</title>
        </rect>
        <g transform="matrix(1, 0, 0, 1, 10, 18.941498)">
          <title>Company Logo</title>
          <rect x="106.854" y="329.868" width="58.216" height="58.216" style="">
            <title>Container</title>
          </rect>
          <path d="M 136.499 238.69 Q 136.499 238.085 137.05 237.736 Q 137.638 237.364 138.407 237.589 Q 139.261 237.839 139.803 238.69 Q 140.412 239.646 140.314 240.893 Q 140.205 242.286 139.252 243.459 Q 138.197 244.757 136.499 245.298 Q 134.637 245.891 132.644 245.366 Q 130.48 244.797 128.869 243.095 Q 127.133 241.261 126.587 238.69 Q 126.003 235.937 126.961 233.183 Q 127.981 230.252 130.442 228.199 Q 133.048 226.024 136.499 225.474 Q 140.139 224.895 143.657 226.291 Q 147.355 227.758 149.852 230.981 Q 152.467 234.356 153.019 238.69 Q 153.595 243.216 151.759 247.5 Q 149.847 251.963 145.86 254.904 Q 141.717 257.96 136.499 258.513 Q 131.087 259.088 126.037 256.811 Q 120.808 254.455 117.424 249.703 Q 113.927 244.792 113.372 238.69 Q 112.799 232.393 115.516 226.576 Q 118.317 220.581 123.834 216.754 Q 129.513 212.815 136.499 212.259 Q 143.681 211.687 150.265 214.846 Q 157.027 218.09 161.297 224.373 Q 165.677 230.819 166.234 238.69 Q 166.805 246.758 163.204 254.108 Q 159.517 261.636 152.468 266.349 Q 145.255 271.172 136.499 271.729 Q 127.546 272.299 119.429 268.257 Q 111.135 264.126 105.979 256.311 Q 100.714 248.331 100.156 238.69 Q 99.587 228.852 104.071 219.968 Q 108.645 210.907 117.226 205.308 Q 125.973 199.601 136.499 199.043 Q 136.535 199.041 136.499 199.043" style="stroke-width: 5.05646px; stroke: rgb(186, 218, 85); filter: url(#pixelete-filter-0) url(#spot-light-filter-1);" transform="matrix(0.621209, 0, 0, 0.565393, 53.207775, 225.862625)" bx:shape="spiral 136.499 238.69 0 39.647 0 1080 1@746db35f">
            <title>Logo</title>
          </path>
        </g>
        <text style="fill: rgb(0, 42, 255); font-family: &quot;Open Sans&quot;; font-size: 18px; font-weight: 700; white-space: pre;" transform="matrix(1, 0, 0, 1, 55.55901, 91.018478)"><title>Job Title</title><tspan x="139.511" y="277.334">Software Engineer</tspan><tspan x="139.51100158691406" dy="1em">​</tspan></text>
        <text style="font-family: &quot;Open Sans&quot;; font-size: 18px; white-space: pre;" x="193.564" y="398.353"><title>Company Name</title>PayYouLittle Inc.</text>
        <g transform="matrix(1.155068, 0, 0, 1.155068, -321.793549, -84.109703)">
          <title>Block Button</title>
          <circle style="fill: rgb(179, 179, 179);" cx="640" cy="400" r="17.315">
            <title>Container</title>
          </circle>
          <path d="M 640 370.868 L 645.398 383.376 L 657.114 376.432 L 654.133 389.726 L 667.691 390.998 L 657.47 400 L 667.691 409.002 L 654.133 410.274 L 657.114 423.568 L 645.398 416.624 L 640 429.132 L 634.602 416.624 L 622.886 423.568 L 625.867 410.274 L 612.309 409.002 L 622.53 400 L 612.309 390.998 L 625.867 389.726 L 622.886 376.432 L 634.602 383.376 Z" style="stroke: rgb(255, 255, 0); stroke-width: 6px; fill: none;" bx:shape="star 640 400 29.116 29.132 0.6 10 1@9ec5b4a1">
            <title>Click Indicator</title>
          </path>
          <path d="M 639.989 409.23 C 638.717 409.23 637.52 408.989 636.399 408.504 C 635.278 408.02 634.299 407.358 633.46 406.519 C 632.621 405.68 631.963 404.7 631.486 403.579 C 631.009 402.459 630.77 401.255 630.77 399.968 C 630.77 398.709 631.013 397.52 631.497 396.399 C 631.982 395.278 632.639 394.303 633.47 393.47 C 634.303 392.639 635.278 391.982 636.399 391.497 C 637.52 391.013 638.717 390.77 639.989 390.77 C 641.263 390.77 642.459 391.013 643.579 391.497 C 644.7 391.982 645.677 392.639 646.508 393.47 C 647.34 394.303 648.002 395.278 648.493 396.399 C 648.984 397.52 649.23 398.709 649.23 399.968 C 649.23 401.255 648.988 402.459 648.504 403.579 C 648.02 404.7 647.358 405.68 646.519 406.519 C 645.68 407.358 644.7 408.02 643.579 408.504 C 642.459 408.989 641.263 409.23 639.989 409.23 Z M 639.989 407.192 C 641.985 407.192 643.681 406.49 645.077 405.087 C 646.472 403.685 647.169 401.978 647.169 399.968 C 647.169 399.187 647.047 398.427 646.801 397.69 C 646.555 396.952 646.193 396.28 645.716 395.673 L 635.673 405.694 C 636.251 406.215 636.917 406.594 637.668 406.834 C 638.42 407.072 639.194 407.192 639.989 407.192 Z M 634.284 404.284 L 644.284 394.263 C 643.663 393.785 642.99 393.427 642.267 393.188 C 641.545 392.951 640.785 392.831 639.989 392.831 C 637.994 392.831 636.298 393.522 634.902 394.902 C 633.506 396.283 632.809 397.972 632.809 399.968 C 632.809 400.763 632.942 401.529 633.21 402.267 C 633.478 403.005 633.836 403.677 634.284 404.284 Z" style="fill: rgb(255, 0, 0);">
            <title>Icon</title>
          </path>
        </g>
      </g>
      <g transform="matrix(1, 0, 0, 1, 0, 138.181488)">
        <title>Job Ad</title>
        <rect x="96.854" y="319.868" width="360.596" height="116.099" style="fill: rgb(230, 230, 230); stroke: rgb(179, 179, 179);">
          <title>Container</title>
        </rect>
        <g transform="matrix(1, 0, 0, 1, 10, 18.941498)">
          <title>Company Logo</title>
          <rect x="106.854" y="329.868" width="58.216" height="58.216" style="">
            <title>Container</title>
          </rect>
          <path d="M 135.951 338.419 L 141.031 353.786 L 156.5 354.117 L 144.171 363.946 L 148.651 379.518 L 135.951 370.226 L 123.251 379.518 L 127.731 363.946 L 115.402 354.117 L 130.871 353.786 Z" style="fill: rgb(255, 255, 255); filter: url(#spot-light-filter-3);" bx:shape="star 135.951 361.138 21.607 22.719 0.4 5 1@b065aade"/>
        </g>
        <text style="fill: rgb(0, 42, 255); font-family: &quot;Open Sans&quot;; font-size: 18px; font-weight: 700; white-space: pre;" transform="matrix(1, 0, 0, 1, 55.55901, 91.018478)"><title>Job Title</title><tspan x="139.511" y="277.334">Software Developer</tspan><tspan x="139.51100158691406" dy="1em">​</tspan></text>
        <text style="font-family: &quot;Open Sans&quot;; font-size: 18px; white-space: pre;" x="193.564" y="398.353"><title>Company Name</title>Grind-U-Down Inc.</text>
        <g transform="matrix(1.155068, 0, 0, 1.155068, -321.793549, -84.109703)">
          <title>Block Button</title>
          <circle style="fill: rgb(179, 179, 179);" cx="640" cy="400" r="17.315">
            <title>Container</title>
          </circle>
          <path d="M 639.989 409.23 C 638.717 409.23 637.52 408.989 636.399 408.504 C 635.278 408.02 634.299 407.358 633.46 406.519 C 632.621 405.68 631.963 404.7 631.486 403.579 C 631.009 402.459 630.77 401.255 630.77 399.968 C 630.77 398.709 631.013 397.52 631.497 396.399 C 631.982 395.278 632.639 394.303 633.47 393.47 C 634.303 392.639 635.278 391.982 636.399 391.497 C 637.52 391.013 638.717 390.77 639.989 390.77 C 641.263 390.77 642.459 391.013 643.579 391.497 C 644.7 391.982 645.677 392.639 646.508 393.47 C 647.34 394.303 648.002 395.278 648.493 396.399 C 648.984 397.52 649.23 398.709 649.23 399.968 C 649.23 401.255 648.988 402.459 648.504 403.579 C 648.02 404.7 647.358 405.68 646.519 406.519 C 645.68 407.358 644.7 408.02 643.579 408.504 C 642.459 408.989 641.263 409.23 639.989 409.23 Z M 639.989 407.192 C 641.985 407.192 643.681 406.49 645.077 405.087 C 646.472 403.685 647.169 401.978 647.169 399.968 C 647.169 399.187 647.047 398.427 646.801 397.69 C 646.555 396.952 646.193 396.28 645.716 395.673 L 635.673 405.694 C 636.251 406.215 636.917 406.594 637.668 406.834 C 638.42 407.072 639.194 407.192 639.989 407.192 Z M 634.284 404.284 L 644.284 394.263 C 643.663 393.785 642.99 393.427 642.267 393.188 C 641.545 392.951 640.785 392.831 639.989 392.831 C 637.994 392.831 636.298 393.522 634.902 394.902 C 633.506 396.283 632.809 397.972 632.809 399.968 C 632.809 400.763 632.942 401.529 633.21 402.267 C 633.478 403.005 633.836 403.677 634.284 404.284 Z" style="fill: rgb(255, 0, 0);">
            <title>Icon</title>
          </path>
        </g>
      </g>
      <g transform="matrix(1, 0, 0, 1, 0, 254.280487)" style="filter: url(#saturate-filter-1); mask: url(#mask-0);">
        <title>Job Ad</title>
        <rect x="96.854" y="319.868" width="360.596" height="116.099" style="fill: rgb(230, 230, 230); stroke: rgb(179, 179, 179);">
          <title>Container</title>
        </rect>
        <g transform="matrix(1, 0, 0, 1, 10, 18.941498)">
          <title>Company Logo</title>
          <rect x="106.854" y="329.868" width="58.216" height="58.216" style="">
            <title>Container</title>
          </rect>
          <path d="M 136.499 238.69 Q 136.499 238.085 137.05 237.736 Q 137.638 237.364 138.407 237.589 Q 139.261 237.839 139.803 238.69 Q 140.412 239.646 140.314 240.893 Q 140.205 242.286 139.252 243.459 Q 138.197 244.757 136.499 245.298 Q 134.637 245.891 132.644 245.366 Q 130.48 244.797 128.869 243.095 Q 127.133 241.261 126.587 238.69 Q 126.003 235.937 126.961 233.183 Q 127.981 230.252 130.442 228.199 Q 133.048 226.024 136.499 225.474 Q 140.139 224.895 143.657 226.291 Q 147.355 227.758 149.852 230.981 Q 152.467 234.356 153.019 238.69 Q 153.595 243.216 151.759 247.5 Q 149.847 251.963 145.86 254.904 Q 141.717 257.96 136.499 258.513 Q 131.087 259.088 126.037 256.811 Q 120.808 254.455 117.424 249.703 Q 113.927 244.792 113.372 238.69 Q 112.799 232.393 115.516 226.576 Q 118.317 220.581 123.834 216.754 Q 129.513 212.815 136.499 212.259 Q 143.681 211.687 150.265 214.846 Q 157.027 218.09 161.297 224.373 Q 165.677 230.819 166.234 238.69 Q 166.805 246.758 163.204 254.108 Q 159.517 261.636 152.468 266.349 Q 145.255 271.172 136.499 271.729 Q 127.546 272.299 119.429 268.257 Q 111.135 264.126 105.979 256.311 Q 100.714 248.331 100.156 238.69 Q 99.587 228.852 104.071 219.968 Q 108.645 210.907 117.226 205.308 Q 125.973 199.601 136.499 199.043 Q 136.535 199.041 136.499 199.043" style="stroke-width: 5.05646px; stroke: rgb(209, 85, 218); filter: url(#pixelete-filter-1);" transform="matrix(0.621209, 0, 0, 0.565393, 53.207775, 225.862625)" bx:shape="spiral 136.499 238.69 0 39.647 0 1080 1@746db35f">
            <title>Logo</title>
          </path>
        </g>
        <text style="fill: rgb(0, 42, 255); font-family: &quot;Open Sans&quot;; font-size: 18px; font-weight: 700; white-space: pre;" transform="matrix(1, 0, 0, 1, 55.55901, 91.018478)"><title>Job Title</title><tspan x="139.511" y="277.334">UI Developer</tspan><tspan x="139.51100158691406" dy="1em">​</tspan></text>
        <text style="font-family: &quot;Open Sans&quot;; font-size: 18px; white-space: pre;" x="193.564" y="398.353">Small Business Inc.</text>
        <g transform="matrix(1.155068, 0, 0, 1.155068, -321.793549, -84.109703)">
          <title>Block Button</title>
          <circle style="fill: rgb(179, 179, 179);" cx="640" cy="400" r="17.315">
            <title>Container</title>
          </circle>
          <path d="M 639.989 409.23 C 638.717 409.23 637.52 408.989 636.399 408.504 C 635.278 408.02 634.299 407.358 633.46 406.519 C 632.621 405.68 631.963 404.7 631.486 403.579 C 631.009 402.459 630.77 401.255 630.77 399.968 C 630.77 398.709 631.013 397.52 631.497 396.399 C 631.982 395.278 632.639 394.303 633.47 393.47 C 634.303 392.639 635.278 391.982 636.399 391.497 C 637.52 391.013 638.717 390.77 639.989 390.77 C 641.263 390.77 642.459 391.013 643.579 391.497 C 644.7 391.982 645.677 392.639 646.508 393.47 C 647.34 394.303 648.002 395.278 648.493 396.399 C 648.984 397.52 649.23 398.709 649.23 399.968 C 649.23 401.255 648.988 402.459 648.504 403.579 C 648.02 404.7 647.358 405.68 646.519 406.519 C 645.68 407.358 644.7 408.02 643.579 408.504 C 642.459 408.989 641.263 409.23 639.989 409.23 Z M 639.989 407.192 C 641.985 407.192 643.681 406.49 645.077 405.087 C 646.472 403.685 647.169 401.978 647.169 399.968 C 647.169 399.187 647.047 398.427 646.801 397.69 C 646.555 396.952 646.193 396.28 645.716 395.673 L 635.673 405.694 C 636.251 406.215 636.917 406.594 637.668 406.834 C 638.42 407.072 639.194 407.192 639.989 407.192 Z M 634.284 404.284 L 644.284 394.263 C 643.663 393.785 642.99 393.427 642.267 393.188 C 641.545 392.951 640.785 392.831 639.989 392.831 C 637.994 392.831 636.298 393.522 634.902 394.902 C 633.506 396.283 632.809 397.972 632.809 399.968 C 632.809 400.763 632.942 401.529 633.21 402.267 C 633.478 403.005 633.836 403.677 634.284 404.284 Z" style="fill: rgb(255, 0, 0);">
            <title>Icon</title>
          </path>
        </g>
      </g>
    </g>
    <g transform="matrix(0.651543, 0, 0, 0.651543, 976.796753, 64.2752)" style="">
      <title>After</title>
      <g transform="matrix(1, 0, 0, 1, 0, -210.115509)" style="filter: url(#filter-1); mask: url(#mask-2);">
        <title>Job Ad</title>
        <rect x="96.854" y="319.868" width="360.596" height="116.099" style="fill: rgb(230, 230, 230); stroke: rgb(179, 179, 179);">
          <title>Container</title>
        </rect>
        <g transform="matrix(1, 0, 0, 1, 10, 18.941498)">
          <title>Company Logo</title>
          <rect x="106.854" y="329.868" width="58.216" height="58.216" style="">
            <title>Container</title>
          </rect>
          <path style="fill: rgb(115, 115, 115); filter: url(#filter-2);" transform="matrix(0.23, 0, 0, 0.23, 22.48218, 281.605499)" d="M 482.989 247 L 505.011 247 L 509.658 280.634 A 58.5 58.5 0 0 1 522.785 286.072 L 549.854 265.575 L 565.425 281.146 L 544.928 308.215 A 58.5 58.5 0 0 1 550.366 321.342 L 584 325.989 L 584 348.011 L 550.366 352.658 A 58.5 58.5 0 0 1 544.928 365.785 L 565.425 392.854 L 549.854 408.425 L 522.785 387.928 A 58.5 58.5 0 0 1 509.658 393.366 L 505.011 427 L 482.989 427 L 478.342 393.366 A 58.5 58.5 0 0 1 465.215 387.928 L 438.146 408.425 L 422.575 392.854 L 443.072 365.785 A 58.5 58.5 0 0 1 437.634 352.658 L 404 348.011 L 404 325.989 L 437.634 321.342 A 58.5 58.5 0 0 1 443.072 308.215 L 422.575 281.146 L 438.146 265.575 L 465.215 286.072 A 58.5 58.5 0 0 1 478.342 280.634 Z M 494 310 A 27 27 0 0 0 494 364 A 27 27 0 0 0 494 310" bx:shape="cog 494 337 27 58.5 90 0.38 8 1@0ee9e527">
            <title>Logo</title>
          </path>
        </g>
        <text style="fill: rgb(0, 42, 255); font-family: &quot;Open Sans&quot;; font-size: 18px; font-weight: 700; white-space: pre;" transform="matrix(1, 0, 0, 1, 55.55901, 91.018478)"><title>Job Title</title><tspan x="139.511" y="277.334">Frontend Developer</tspan><tspan x="139.51100158691406" dy="1em">​</tspan></text>
        <text style="font-family: &quot;Open Sans&quot;; font-size: 18px; white-space: pre;" x="193.564" y="398.353"><title>Company Name</title>Generic Inc.</text>
        <g transform="matrix(1.155068, 0, 0, 1.155068, -321.793549, -84.109703)">
          <title>Block Button</title>
          <circle style="fill: rgb(179, 179, 179);" cx="640" cy="400" r="17.315">
            <title>Container</title>
          </circle>
          <path d="M 639.989 409.23 C 638.717 409.23 637.52 408.989 636.399 408.504 C 635.278 408.02 634.299 407.358 633.46 406.519 C 632.621 405.68 631.963 404.7 631.486 403.579 C 631.009 402.459 630.77 401.255 630.77 399.968 C 630.77 398.709 631.013 397.52 631.497 396.399 C 631.982 395.278 632.639 394.303 633.47 393.47 C 634.303 392.639 635.278 391.982 636.399 391.497 C 637.52 391.013 638.717 390.77 639.989 390.77 C 641.263 390.77 642.459 391.013 643.579 391.497 C 644.7 391.982 645.677 392.639 646.508 393.47 C 647.34 394.303 648.002 395.278 648.493 396.399 C 648.984 397.52 649.23 398.709 649.23 399.968 C 649.23 401.255 648.988 402.459 648.504 403.579 C 648.02 404.7 647.358 405.68 646.519 406.519 C 645.68 407.358 644.7 408.02 643.579 408.504 C 642.459 408.989 641.263 409.23 639.989 409.23 Z M 639.989 407.192 C 641.985 407.192 643.681 406.49 645.077 405.087 C 646.472 403.685 647.169 401.978 647.169 399.968 C 647.169 399.187 647.047 398.427 646.801 397.69 C 646.555 396.952 646.193 396.28 645.716 395.673 L 635.673 405.694 C 636.251 406.215 636.917 406.594 637.668 406.834 C 638.42 407.072 639.194 407.192 639.989 407.192 Z M 634.284 404.284 L 644.284 394.263 C 643.663 393.785 642.99 393.427 642.267 393.188 C 641.545 392.951 640.785 392.831 639.989 392.831 C 637.994 392.831 636.298 393.522 634.902 394.902 C 633.506 396.283 632.809 397.972 632.809 399.968 C 632.809 400.763 632.942 401.529 633.21 402.267 C 633.478 403.005 633.836 403.677 634.284 404.284 Z" style="fill: rgb(255, 0, 0);">
            <title>Icon</title>
          </path>
        </g>
      </g>
      <g transform="matrix(1, 0, 0, 1, 0, -94.01651)">
        <title>Job Ad</title>
        <rect x="96.854" y="319.868" width="360.596" height="116.099" style="fill: rgb(230, 230, 230); stroke: rgb(179, 179, 179);">
          <title>Container</title>
        </rect>
        <g transform="matrix(1, 0, 0, 1, 10, 18.941498)">
          <title>Company Logo</title>
          <rect x="106.854" y="329.868" width="58.216" height="58.216" style="">
            <title>Container</title>
          </rect>
          <path d="M 135.952 358.981 m -20.55 0 a 20.55 20.55 0 1 0 41.1 0 a 20.55 20.55 0 1 0 -41.1 0 Z M 135.952 358.981 m -10.275 0 a 10.275 10.275 0 0 1 20.55 0 a 10.275 10.275 0 0 1 -20.55 0 Z" style="stroke: rgb(0, 0, 0); fill: rgb(255, 162, 0); filter: url(#filter-3);" bx:shape="ring 135.952 358.981 10.275 10.275 20.55 20.55 1@df57ffaf"/>
        </g>
        <text style="fill: rgb(0, 42, 255); font-family: &quot;Open Sans&quot;; font-size: 18px; font-weight: 700; white-space: pre;" transform="matrix(1, 0, 0, 1, 55.55901, 91.018478)"><title>Job Title</title><tspan x="139.511" y="277.334">Web Developer</tspan><tspan x="139.51100158691406" dy="1em">​</tspan></text>
        <text style="font-family: &quot;Open Sans&quot;; font-size: 18px; white-space: pre;" x="193.564" y="398.353"><title>Company Name</title>WeAreFamily Inc.</text>
        <g transform="matrix(1.155068, 0, 0, 1.155068, -321.793549, -84.109703)">
          <title>Block Button</title>
          <circle style="fill: rgb(179, 179, 179);" cx="640" cy="400" r="17.315">
            <title>Container</title>
          </circle>
          <path d="M 639.989 409.23 C 638.717 409.23 637.52 408.989 636.399 408.504 C 635.278 408.02 634.299 407.358 633.46 406.519 C 632.621 405.68 631.963 404.7 631.486 403.579 C 631.009 402.459 630.77 401.255 630.77 399.968 C 630.77 398.709 631.013 397.52 631.497 396.399 C 631.982 395.278 632.639 394.303 633.47 393.47 C 634.303 392.639 635.278 391.982 636.399 391.497 C 637.52 391.013 638.717 390.77 639.989 390.77 C 641.263 390.77 642.459 391.013 643.579 391.497 C 644.7 391.982 645.677 392.639 646.508 393.47 C 647.34 394.303 648.002 395.278 648.493 396.399 C 648.984 397.52 649.23 398.709 649.23 399.968 C 649.23 401.255 648.988 402.459 648.504 403.579 C 648.02 404.7 647.358 405.68 646.519 406.519 C 645.68 407.358 644.7 408.02 643.579 408.504 C 642.459 408.989 641.263 409.23 639.989 409.23 Z M 639.989 407.192 C 641.985 407.192 643.681 406.49 645.077 405.087 C 646.472 403.685 647.169 401.978 647.169 399.968 C 647.169 399.187 647.047 398.427 646.801 397.69 C 646.555 396.952 646.193 396.28 645.716 395.673 L 635.673 405.694 C 636.251 406.215 636.917 406.594 637.668 406.834 C 638.42 407.072 639.194 407.192 639.989 407.192 Z M 634.284 404.284 L 644.284 394.263 C 643.663 393.785 642.99 393.427 642.267 393.188 C 641.545 392.951 640.785 392.831 639.989 392.831 C 637.994 392.831 636.298 393.522 634.902 394.902 C 633.506 396.283 632.809 397.972 632.809 399.968 C 632.809 400.763 632.942 401.529 633.21 402.267 C 633.478 403.005 633.836 403.677 634.284 404.284 Z" style="fill: rgb(255, 0, 0);">
            <title>Icon</title>
          </path>
        </g>
      </g>
      <g transform="matrix(1, 0, 0, 1, 0, 22.082489)">
        <title>Job Ad</title>
        <rect x="96.854" y="319.868" width="360.596" height="116.099" style="stroke: rgb(179, 179, 179); fill: rgb(128, 128, 128);">
          <title>Container</title>
        </rect>
        <g transform="matrix(1, 0, 0, 1, 10, 18.941498)" style="filter: url(#gaussian-blur-filter-0); opacity: 0.25;">
          <title>Company Logo</title>
          <rect x="106.854" y="329.868" width="58.216" height="58.216" style="">
            <title>Container</title>
          </rect>
          <path d="M 136.499 238.69 Q 136.499 238.085 137.05 237.736 Q 137.638 237.364 138.407 237.589 Q 139.261 237.839 139.803 238.69 Q 140.412 239.646 140.314 240.893 Q 140.205 242.286 139.252 243.459 Q 138.197 244.757 136.499 245.298 Q 134.637 245.891 132.644 245.366 Q 130.48 244.797 128.869 243.095 Q 127.133 241.261 126.587 238.69 Q 126.003 235.937 126.961 233.183 Q 127.981 230.252 130.442 228.199 Q 133.048 226.024 136.499 225.474 Q 140.139 224.895 143.657 226.291 Q 147.355 227.758 149.852 230.981 Q 152.467 234.356 153.019 238.69 Q 153.595 243.216 151.759 247.5 Q 149.847 251.963 145.86 254.904 Q 141.717 257.96 136.499 258.513 Q 131.087 259.088 126.037 256.811 Q 120.808 254.455 117.424 249.703 Q 113.927 244.792 113.372 238.69 Q 112.799 232.393 115.516 226.576 Q 118.317 220.581 123.834 216.754 Q 129.513 212.815 136.499 212.259 Q 143.681 211.687 150.265 214.846 Q 157.027 218.09 161.297 224.373 Q 165.677 230.819 166.234 238.69 Q 166.805 246.758 163.204 254.108 Q 159.517 261.636 152.468 266.349 Q 145.255 271.172 136.499 271.729 Q 127.546 272.299 119.429 268.257 Q 111.135 264.126 105.979 256.311 Q 100.714 248.331 100.156 238.69 Q 99.587 228.852 104.071 219.968 Q 108.645 210.907 117.226 205.308 Q 125.973 199.601 136.499 199.043 Q 136.535 199.041 136.499 199.043" style="stroke-width: 5.05646px; stroke: rgb(186, 218, 85); filter: url(#pixelete-filter-0) url(#spot-light-filter-1);" transform="matrix(0.621209, 0, 0, 0.565393, 53.207775, 225.862625)" bx:shape="spiral 136.499 238.69 0 39.647 0 1080 1@746db35f">
            <title>Logo</title>
          </path>
        </g>
        <text style="fill: rgb(0, 42, 255); font-family: &quot;Open Sans&quot;; font-size: 18px; font-weight: 700; white-space: pre; filter: url(#gaussian-blur-filter-0); opacity: 0.25;" transform="matrix(1, 0, 0, 1, 55.55901, 91.018478)"><title>Job Title</title><tspan x="139.511" y="277.334">Software Engineer</tspan><tspan x="139.51100158691406" dy="1em">​</tspan></text>
        <text style="font-family: &quot;Open Sans&quot;; font-size: 18px; white-space: pre; filter: url(#gaussian-blur-filter-0); opacity: 0.25;" x="193.564" y="398.353"><title>Company Name</title>PayYouLittle Inc.</text>
        <g style="" transform="matrix(1, 0, 0, 1, -0.000992, -0.000488)">
          <title>Blocked Job Button</title>
          <rect style="stroke: rgb(255, 255, 255); fill: rgb(255, 255, 255);" x="209.092" y="347.827" width="136.122" height="60.182" rx="10" ry="10">
            <title>Container</title>
          </rect>
          <text style="font-family: &quot;Open Sans&quot;; font-size: 14px; white-space: pre;" x="223.767" y="371.588"><title>Company Name</title>PayYouLittle Inc.</text>
          <g transform="matrix(1, 0, 0, 1, -23.606514, 0.821675)">
            <title>Indicator</title>
            <rect style="fill: rgb(128, 128, 128);" x="275.552" y="376.563" width="50.416" height="19.218" rx="9" ry="9">
              <title>Container</title>
            </rect>
            <text style="fill: rgb(255, 255, 255); font-family: &quot;Open Sans&quot;; font-size: 12px; white-space: pre;" x="280.434" y="390.788">Hidden</text>
          </g>
        </g>
      </g>
      <g transform="matrix(1, 0, 0, 1, 0, 138.181488)">
        <title>Job Ad</title>
        <rect x="96.854" y="319.868" width="360.596" height="116.099" style="fill: rgb(230, 230, 230); stroke: rgb(179, 179, 179);">
          <title>Container</title>
        </rect>
        <g transform="matrix(1, 0, 0, 1, 10, 18.941498)">
          <title>Company Logo</title>
          <rect x="106.854" y="329.868" width="58.216" height="58.216" style="">
            <title>Container</title>
          </rect>
          <path d="M 135.951 338.419 L 141.031 353.786 L 156.5 354.117 L 144.171 363.946 L 148.651 379.518 L 135.951 370.226 L 123.251 379.518 L 127.731 363.946 L 115.402 354.117 L 130.871 353.786 Z" style="fill: rgb(255, 255, 255); filter: url(#filter-6);" bx:shape="star 135.951 361.138 21.607 22.719 0.4 5 1@b065aade"/>
        </g>
        <text style="fill: rgb(0, 42, 255); font-family: &quot;Open Sans&quot;; font-size: 18px; font-weight: 700; white-space: pre;" transform="matrix(1, 0, 0, 1, 55.55901, 91.018478)"><title>Job Title</title><tspan x="139.511" y="277.334">Software Developer</tspan><tspan x="139.51100158691406" dy="1em">​</tspan></text>
        <text style="font-family: &quot;Open Sans&quot;; font-size: 18px; white-space: pre;" x="193.564" y="398.353"><title>Company Name</title>Grind-U-Down Inc.</text>
        <g transform="matrix(1.155068, 0, 0, 1.155068, -321.793549, -84.109703)">
          <title>Block Button</title>
          <circle style="fill: rgb(179, 179, 179);" cx="640" cy="400" r="17.315">
            <title>Container</title>
          </circle>
          <path d="M 639.989 409.23 C 638.717 409.23 637.52 408.989 636.399 408.504 C 635.278 408.02 634.299 407.358 633.46 406.519 C 632.621 405.68 631.963 404.7 631.486 403.579 C 631.009 402.459 630.77 401.255 630.77 399.968 C 630.77 398.709 631.013 397.52 631.497 396.399 C 631.982 395.278 632.639 394.303 633.47 393.47 C 634.303 392.639 635.278 391.982 636.399 391.497 C 637.52 391.013 638.717 390.77 639.989 390.77 C 641.263 390.77 642.459 391.013 643.579 391.497 C 644.7 391.982 645.677 392.639 646.508 393.47 C 647.34 394.303 648.002 395.278 648.493 396.399 C 648.984 397.52 649.23 398.709 649.23 399.968 C 649.23 401.255 648.988 402.459 648.504 403.579 C 648.02 404.7 647.358 405.68 646.519 406.519 C 645.68 407.358 644.7 408.02 643.579 408.504 C 642.459 408.989 641.263 409.23 639.989 409.23 Z M 639.989 407.192 C 641.985 407.192 643.681 406.49 645.077 405.087 C 646.472 403.685 647.169 401.978 647.169 399.968 C 647.169 399.187 647.047 398.427 646.801 397.69 C 646.555 396.952 646.193 396.28 645.716 395.673 L 635.673 405.694 C 636.251 406.215 636.917 406.594 637.668 406.834 C 638.42 407.072 639.194 407.192 639.989 407.192 Z M 634.284 404.284 L 644.284 394.263 C 643.663 393.785 642.99 393.427 642.267 393.188 C 641.545 392.951 640.785 392.831 639.989 392.831 C 637.994 392.831 636.298 393.522 634.902 394.902 C 633.506 396.283 632.809 397.972 632.809 399.968 C 632.809 400.763 632.942 401.529 633.21 402.267 C 633.478 403.005 633.836 403.677 634.284 404.284 Z" style="fill: rgb(255, 0, 0);">
            <title>Icon</title>
          </path>
        </g>
      </g>
      <g transform="matrix(1, 0, 0, 1, 0, 254.280487)" style="filter: url(#filter-4); mask: url(#mask-3);">
        <title>Job Ad</title>
        <rect x="96.854" y="319.868" width="360.596" height="116.099" style="fill: rgb(230, 230, 230); stroke: rgb(179, 179, 179);">
          <title>Container</title>
        </rect>
        <g transform="matrix(1, 0, 0, 1, 10, 18.941498)">
          <title>Company Logo</title>
          <rect x="106.854" y="329.868" width="58.216" height="58.216" style="">
            <title>Container</title>
          </rect>
          <path d="M 136.499 238.69 Q 136.499 238.085 137.05 237.736 Q 137.638 237.364 138.407 237.589 Q 139.261 237.839 139.803 238.69 Q 140.412 239.646 140.314 240.893 Q 140.205 242.286 139.252 243.459 Q 138.197 244.757 136.499 245.298 Q 134.637 245.891 132.644 245.366 Q 130.48 244.797 128.869 243.095 Q 127.133 241.261 126.587 238.69 Q 126.003 235.937 126.961 233.183 Q 127.981 230.252 130.442 228.199 Q 133.048 226.024 136.499 225.474 Q 140.139 224.895 143.657 226.291 Q 147.355 227.758 149.852 230.981 Q 152.467 234.356 153.019 238.69 Q 153.595 243.216 151.759 247.5 Q 149.847 251.963 145.86 254.904 Q 141.717 257.96 136.499 258.513 Q 131.087 259.088 126.037 256.811 Q 120.808 254.455 117.424 249.703 Q 113.927 244.792 113.372 238.69 Q 112.799 232.393 115.516 226.576 Q 118.317 220.581 123.834 216.754 Q 129.513 212.815 136.499 212.259 Q 143.681 211.687 150.265 214.846 Q 157.027 218.09 161.297 224.373 Q 165.677 230.819 166.234 238.69 Q 166.805 246.758 163.204 254.108 Q 159.517 261.636 152.468 266.349 Q 145.255 271.172 136.499 271.729 Q 127.546 272.299 119.429 268.257 Q 111.135 264.126 105.979 256.311 Q 100.714 248.331 100.156 238.69 Q 99.587 228.852 104.071 219.968 Q 108.645 210.907 117.226 205.308 Q 125.973 199.601 136.499 199.043 Q 136.535 199.041 136.499 199.043" style="stroke-width: 5.05646px; stroke: rgb(209, 85, 218); filter: url(#filter-5);" transform="matrix(0.621209, 0, 0, 0.565393, 53.207775, 225.862625)" bx:shape="spiral 136.499 238.69 0 39.647 0 1080 1@746db35f">
            <title>Logo</title>
          </path>
        </g>
        <text style="fill: rgb(0, 42, 255); font-family: &quot;Open Sans&quot;; font-size: 18px; font-weight: 700; white-space: pre;" transform="matrix(1, 0, 0, 1, 55.55901, 91.018478)"><title>Job Title</title><tspan x="139.511" y="277.334">UI Developer</tspan><tspan x="139.51100158691406" dy="1em">​</tspan></text>
        <text style="font-family: &quot;Open Sans&quot;; font-size: 18px; white-space: pre;" x="193.564" y="398.353">Small Business Inc.</text>
        <g transform="matrix(1.155068, 0, 0, 1.155068, -321.793549, -84.109703)">
          <title>Block Button</title>
          <circle style="fill: rgb(179, 179, 179);" cx="640" cy="400" r="17.315">
            <title>Container</title>
          </circle>
          <path d="M 639.989 409.23 C 638.717 409.23 637.52 408.989 636.399 408.504 C 635.278 408.02 634.299 407.358 633.46 406.519 C 632.621 405.68 631.963 404.7 631.486 403.579 C 631.009 402.459 630.77 401.255 630.77 399.968 C 630.77 398.709 631.013 397.52 631.497 396.399 C 631.982 395.278 632.639 394.303 633.47 393.47 C 634.303 392.639 635.278 391.982 636.399 391.497 C 637.52 391.013 638.717 390.77 639.989 390.77 C 641.263 390.77 642.459 391.013 643.579 391.497 C 644.7 391.982 645.677 392.639 646.508 393.47 C 647.34 394.303 648.002 395.278 648.493 396.399 C 648.984 397.52 649.23 398.709 649.23 399.968 C 649.23 401.255 648.988 402.459 648.504 403.579 C 648.02 404.7 647.358 405.68 646.519 406.519 C 645.68 407.358 644.7 408.02 643.579 408.504 C 642.459 408.989 641.263 409.23 639.989 409.23 Z M 639.989 407.192 C 641.985 407.192 643.681 406.49 645.077 405.087 C 646.472 403.685 647.169 401.978 647.169 399.968 C 647.169 399.187 647.047 398.427 646.801 397.69 C 646.555 396.952 646.193 396.28 645.716 395.673 L 635.673 405.694 C 636.251 406.215 636.917 406.594 637.668 406.834 C 638.42 407.072 639.194 407.192 639.989 407.192 Z M 634.284 404.284 L 644.284 394.263 C 643.663 393.785 642.99 393.427 642.267 393.188 C 641.545 392.951 640.785 392.831 639.989 392.831 C 637.994 392.831 636.298 393.522 634.902 394.902 C 633.506 396.283 632.809 397.972 632.809 399.968 C 632.809 400.763 632.942 401.529 633.21 402.267 C 633.478 403.005 633.836 403.677 634.284 404.284 Z" style="fill: rgb(255, 0, 0);">
            <title>Icon</title>
          </path>
        </g>
      </g>
    </g>
    <g transform="matrix(1.655755, 0, 0, 1.655755, 884.472839, 324.552612)" style="filter: url(#drop-shadow-filter-0);">
      <title>Cursor</title>
      <g transform="matrix(.23944 0 0 .23944 94.337 75.208)">
        <path d="m-368.99-226.1v-9h-4v-8h-4v-8h-4v-9h-5v-4h-4v-8h9v4h4v12h4v-54h8v38h4v-17h9v17h4v-13h8v17h4v-13h5v5h4v29h-4v12h-5v9h-33z" fill="#fefefe" style=""/>
        <path d="m-372.99-222.1v-13h-4v-8h-4v-8h-5v-9h-4v-4h-4v-12h13v4h4v-38h4v-4h8v4h4v17h9v4h12v4h9v4h4v5h4v29h-4v12h-4v13h-42zm37-4v-9h5v-12h4v-29h-4v-5h-5v13h-4v-17h-8v13h-4v-17h-9v17h-4v-38h-8v54h-4v-12h-4v-4h-9v8h4v4h5v9h4v8h4v8h4v9h33z" style=""/>
      </g>
    </g>
  </g>
</svg>