<?xml version="1.0" encoding="utf-8"?>
<svg viewBox="211.286 426.699 957.5 166.1" xmlns="http://www.w3.org/2000/svg">
  <defs>
    <filter id="gaussian-blur-filter-1" color-interpolation-filters="sRGB" x="-500%" y="-500%" width="1000%" height="1000%">
      <feGaussianBlur stdDeviation="10 10" edgeMode="none"/>
    </filter>
    <filter id="drop-shadow-filter-0" color-interpolation-filters="sRGB" x="-500%" y="-500%" width="1000%" height="1000%">
      <feGaussianBlur in="SourceAlpha" stdDeviation="4"/>
      <feOffset dx="0" dy="0"/>
      <feComponentTransfer result="offsetblur">
        <feFuncA id="spread-ctrl" type="linear" slope="2"/>
      </feComponentTransfer>
      <feFlood flood-color="rgba(0,0,0,0.3)"/>
      <feComposite in2="offsetblur" operator="in"/>
      <feMerge>
        <feMergeNode/>
        <feMergeNode in="SourceGraphic"/>
      </feMerge>
    </filter>
  </defs>
  <rect style="fill: rgb(245, 221, 178);" x="211.286" y="426.699" width="957.5" height="166.1" rx="0" ry="0">
    <title>Background</title>
  </rect>
  <g>
    <title>Before and After</title>
    <g transform="matrix(1, 0, 0, 1, 139.450653, 131.831497)">
      <title>After</title>
      <rect x="96.854" y="319.868" width="360.596" height="116.099" style="fill: rgb(230, 230, 230); stroke: rgb(179, 179, 179);">
        <title>Container</title>
      </rect>
      <g transform="matrix(1, 0, 0, 1, 10, 18.941498)">
        <title>Company Logo</title>
        <rect x="106.854" y="329.868" width="58.216" height="58.216" style="">
          <title>Container</title>
        </rect>
        <path d="M 136.499 238.69 Q 136.499 238.085 137.05 237.736 Q 137.638 237.364 138.407 237.589 Q 139.261 237.839 139.803 238.69 Q 140.412 239.646 140.314 240.893 Q 140.205 242.286 139.252 243.459 Q 138.197 244.757 136.499 245.298 Q 134.637 245.891 132.644 245.366 Q 130.48 244.797 128.869 243.095 Q 127.133 241.261 126.587 238.69 Q 126.003 235.937 126.961 233.183 Q 127.981 230.252 130.442 228.199 Q 133.048 226.024 136.499 225.474 Q 140.139 224.895 143.657 226.291 Q 147.355 227.758 149.852 230.981 Q 152.467 234.356 153.019 238.69 Q 153.595 243.216 151.759 247.5 Q 149.847 251.963 145.86 254.904 Q 141.717 257.96 136.499 258.513 Q 131.087 259.088 126.037 256.811 Q 120.808 254.455 117.424 249.703 Q 113.927 244.792 113.372 238.69 Q 112.799 232.393 115.516 226.576 Q 118.317 220.581 123.834 216.754 Q 129.513 212.815 136.499 212.259 Q 143.681 211.687 150.265 214.846 Q 157.027 218.09 161.297 224.373 Q 165.677 230.819 166.234 238.69 Q 166.805 246.758 163.204 254.108 Q 159.517 261.636 152.468 266.349 Q 145.255 271.172 136.499 271.729 Q 127.546 272.299 119.429 268.257 Q 111.135 264.126 105.979 256.311 Q 100.714 248.331 100.156 238.69 Q 99.587 228.852 104.071 219.968 Q 108.645 210.907 117.226 205.308 Q 125.973 199.601 136.499 199.043 Q 136.535 199.041 136.499 199.043" style="fill: rgb(223, 32, 32); paint-order: fill; stroke-dasharray: 8px; stroke-linecap: round; stroke-width: 5.05646px; stroke: rgb(85, 218, 85);" transform="matrix(0.621209, 0, 0, 0.565393, 53.207775, 225.862625)">
          <title>Logo</title>
        </path>
      </g>
      <path d="M 148.713 273.766 Q 148.713 274.908 148.159 275.752 Q 147.606 276.596 146.547 277.053 Q 145.488 277.51 143.976 277.51 Q 143.308 277.51 142.671 277.422 Q 142.033 277.334 141.449 277.163 Q 140.865 276.991 140.337 276.736 L 140.337 274.205 Q 141.251 274.609 142.236 274.935 Q 143.22 275.26 144.187 275.26 Q 144.855 275.26 145.263 275.084 Q 145.672 274.908 145.857 274.601 Q 146.041 274.293 146.041 273.897 Q 146.041 273.414 145.716 273.071 Q 145.391 272.729 144.824 272.43 Q 144.257 272.131 143.545 271.788 Q 143.097 271.577 142.57 271.274 Q 142.042 270.971 141.568 270.531 Q 141.093 270.092 140.79 269.463 Q 140.487 268.835 140.487 267.956 Q 140.487 266.805 141.014 265.987 Q 141.541 265.17 142.521 264.735 Q 143.501 264.3 144.837 264.3 Q 145.839 264.3 146.749 264.533 Q 147.658 264.766 148.652 265.205 L 147.773 267.323 Q 146.885 266.963 146.182 266.765 Q 145.479 266.567 144.749 266.567 Q 144.24 266.567 143.879 266.73 Q 143.519 266.893 143.334 267.187 Q 143.15 267.481 143.15 267.868 Q 143.15 268.325 143.418 268.637 Q 143.686 268.949 144.226 269.239 Q 144.767 269.529 145.575 269.916 Q 146.56 270.382 147.259 270.887 Q 147.957 271.393 148.335 272.074 Q 148.713 272.755 148.713 273.766 Z" transform="matrix(1, 0, 0, 1, 55.55901, 91.018478)" style="fill: rgb(0, 42, 255); white-space: pre;"/>
      <path d="M 159.754 272.403 Q 159.754 273.634 159.424 274.583 Q 159.094 275.532 158.466 276.187 Q 157.838 276.842 156.954 277.176 Q 156.071 277.51 154.964 277.51 Q 153.926 277.51 153.061 277.176 Q 152.195 276.842 151.558 276.187 Q 150.921 275.532 150.573 274.583 Q 150.226 273.634 150.226 272.403 Q 150.226 270.769 150.806 269.635 Q 151.386 268.501 152.459 267.912 Q 153.531 267.323 155.016 267.323 Q 156.396 267.323 157.464 267.912 Q 158.532 268.501 159.143 269.635 Q 159.754 270.769 159.754 272.403 Z M 152.96 272.403 Q 152.96 273.37 153.171 274.029 Q 153.382 274.689 153.83 275.022 Q 154.278 275.356 154.999 275.356 Q 155.711 275.356 156.154 275.022 Q 156.598 274.689 156.805 274.029 Q 157.011 273.37 157.011 272.403 Q 157.011 271.428 156.805 270.782 Q 156.598 270.136 156.15 269.811 Q 155.702 269.485 154.981 269.485 Q 153.918 269.485 153.439 270.215 Q 152.96 270.944 152.96 272.403 Z" transform="matrix(1, 0, 0, 1, 55.55901, 91.018478)" style="fill: rgb(0, 42, 255); white-space: pre;"/>
      <path d="M 167.397 269.521 L 165.076 269.521 L 165.076 277.334 L 162.396 277.334 L 162.396 269.521 L 160.919 269.521 L 160.919 268.229 L 162.396 267.508 L 162.396 266.787 Q 162.396 265.53 162.822 264.832 Q 163.248 264.133 164.026 263.847 Q 164.804 263.562 165.867 263.562 Q 166.649 263.562 167.291 263.689 Q 167.933 263.816 168.337 263.975 L 167.651 265.943 Q 167.344 265.847 166.983 265.768 Q 166.623 265.689 166.157 265.689 Q 165.595 265.689 165.336 266.027 Q 165.076 266.365 165.076 266.893 L 165.076 267.508 L 167.397 267.508 Z" transform="matrix(1, 0, 0, 1, 55.55901, 91.018478)" style="fill: rgb(0, 42, 255); white-space: pre;"/>
      <path d="M 173.058 275.374 Q 173.497 275.374 173.915 275.286 Q 174.332 275.198 174.745 275.066 L 174.745 277.062 Q 174.315 277.255 173.678 277.382 Q 173.04 277.51 172.285 277.51 Q 171.406 277.51 170.707 277.224 Q 170.008 276.939 169.608 276.231 Q 169.208 275.523 169.208 274.258 L 169.208 269.521 L 167.925 269.521 L 167.925 268.387 L 169.402 267.49 L 170.175 265.416 L 171.889 265.416 L 171.889 267.508 L 174.64 267.508 L 174.64 269.521 L 171.889 269.521 L 171.889 274.258 Q 171.889 274.82 172.21 275.097 Q 172.531 275.374 173.058 275.374 Z" transform="matrix(1, 0, 0, 1, 55.55901, 91.018478)" style="fill: rgb(0, 42, 255); white-space: pre;"/>
      <path d="M 184.808 277.334 L 184.052 273.897 Q 183.991 273.59 183.85 272.988 Q 183.71 272.386 183.547 271.696 Q 183.384 271.006 183.248 270.417 Q 183.112 269.828 183.05 269.556 L 182.971 269.556 Q 182.91 269.828 182.778 270.417 Q 182.646 271.006 182.484 271.7 Q 182.321 272.395 182.18 273.005 Q 182.04 273.616 181.969 273.933 L 181.178 277.334 L 178.296 277.334 L 175.501 267.508 L 178.173 267.508 L 179.306 271.858 Q 179.421 272.315 179.526 272.944 Q 179.632 273.572 179.715 274.157 Q 179.798 274.741 179.842 275.084 L 179.913 275.084 Q 179.93 274.829 179.987 274.407 Q 180.045 273.985 180.119 273.533 Q 180.194 273.08 180.26 272.715 Q 180.326 272.351 180.361 272.219 L 181.574 267.508 L 184.527 267.508 L 185.678 272.219 Q 185.74 272.474 185.841 273.027 Q 185.942 273.581 186.021 274.166 Q 186.1 274.75 186.109 275.084 L 186.179 275.084 Q 186.215 274.785 186.302 274.196 Q 186.39 273.607 186.509 272.961 Q 186.628 272.315 186.751 271.858 L 187.928 267.508 L 190.556 267.508 L 187.726 277.334 Z" transform="matrix(1, 0, 0, 1, 55.55901, 91.018478)" style="fill: rgb(0, 42, 255); white-space: pre;"/>
      <path d="M 196.163 267.306 Q 198.141 267.306 199.196 268.167 Q 200.25 269.028 200.25 270.786 L 200.25 277.334 L 198.378 277.334 L 197.86 275.998 L 197.789 275.998 Q 197.367 276.525 196.928 276.859 Q 196.489 277.193 195.917 277.352 Q 195.346 277.51 194.529 277.51 Q 193.658 277.51 192.969 277.176 Q 192.279 276.842 191.883 276.152 Q 191.488 275.462 191.488 274.398 Q 191.488 272.834 192.586 272.091 Q 193.685 271.349 195.882 271.27 L 197.587 271.217 L 197.587 270.786 Q 197.587 270.013 197.183 269.652 Q 196.779 269.292 196.058 269.292 Q 195.346 269.292 194.66 269.494 Q 193.975 269.696 193.289 270.004 L 192.402 268.193 Q 193.184 267.78 194.155 267.543 Q 195.126 267.306 196.163 267.306 Z M 197.587 272.781 L 196.55 272.816 Q 195.249 272.852 194.744 273.282 Q 194.239 273.713 194.239 274.416 Q 194.239 275.031 194.599 275.291 Q 194.959 275.55 195.539 275.55 Q 196.401 275.55 196.994 275.04 Q 197.587 274.53 197.587 273.59 Z" transform="matrix(1, 0, 0, 1, 55.55901, 91.018478)" style="fill: rgb(0, 42, 255); white-space: pre;"/>
      <path d="M 208.482 267.323 Q 208.684 267.323 208.952 267.345 Q 209.22 267.367 209.387 267.402 L 209.185 269.916 Q 209.053 269.872 208.812 269.85 Q 208.57 269.828 208.394 269.828 Q 207.876 269.828 207.388 269.96 Q 206.9 270.092 206.513 270.386 Q 206.127 270.681 205.903 271.16 Q 205.678 271.639 205.678 272.333 L 205.678 277.334 L 202.998 277.334 L 202.998 267.508 L 205.028 267.508 L 205.424 269.16 L 205.555 269.16 Q 205.845 268.659 206.28 268.242 Q 206.715 267.824 207.274 267.574 Q 207.832 267.323 208.482 267.323 Z" transform="matrix(1, 0, 0, 1, 55.55901, 91.018478)" style="fill: rgb(0, 42, 255); white-space: pre;"/>
      <path d="M 215.222 267.323 Q 216.584 267.323 217.568 267.846 Q 218.553 268.369 219.089 269.362 Q 219.625 270.355 219.625 271.788 L 219.625 273.089 L 213.288 273.089 Q 213.332 274.223 213.969 274.869 Q 214.606 275.515 215.74 275.515 Q 216.681 275.515 217.463 275.321 Q 218.245 275.128 219.071 274.741 L 219.071 276.815 Q 218.342 277.176 217.546 277.343 Q 216.751 277.51 215.617 277.51 Q 214.141 277.51 213.002 276.965 Q 211.864 276.42 211.218 275.304 Q 210.572 274.188 210.572 272.491 Q 210.572 270.769 211.157 269.622 Q 211.741 268.475 212.787 267.899 Q 213.833 267.323 215.222 267.323 Z M 215.239 269.23 Q 214.457 269.23 213.943 269.731 Q 213.429 270.232 213.35 271.305 L 217.111 271.305 Q 217.103 270.707 216.896 270.241 Q 216.689 269.775 216.281 269.503 Q 215.872 269.23 215.239 269.23 Z" transform="matrix(1, 0, 0, 1, 55.55901, 91.018478)" style="fill: rgb(0, 42, 255); white-space: pre;"/>
      <path d="M 234.079 277.334 L 226.678 277.334 L 226.678 264.484 L 234.079 264.484 L 234.079 266.717 L 229.403 266.717 L 229.403 269.538 L 233.753 269.538 L 233.753 271.771 L 229.403 271.771 L 229.403 275.084 L 234.079 275.084 Z" transform="matrix(1, 0, 0, 1, 55.55901, 91.018478)" style="fill: rgb(0, 42, 255); white-space: pre;"/>
      <path d="M 242.127 267.323 Q 243.7 267.323 244.658 268.18 Q 245.616 269.037 245.616 270.927 L 245.616 277.334 L 242.936 277.334 L 242.936 271.595 Q 242.936 270.54 242.553 270.004 Q 242.171 269.468 241.353 269.468 Q 240.123 269.468 239.675 270.303 Q 239.227 271.138 239.227 272.711 L 239.227 277.334 L 236.546 277.334 L 236.546 267.508 L 238.594 267.508 L 238.954 268.765 L 239.103 268.765 Q 239.42 268.255 239.89 267.939 Q 240.36 267.622 240.936 267.473 Q 241.512 267.323 242.127 267.323 Z" transform="matrix(1, 0, 0, 1, 55.55901, 91.018478)" style="fill: rgb(0, 42, 255); white-space: pre;"/>
      <path d="M 251.248 281.658 Q 249.192 281.658 248.106 280.942 Q 247.021 280.226 247.021 278.934 Q 247.021 278.046 247.575 277.448 Q 248.128 276.851 249.201 276.596 Q 248.788 276.42 248.48 276.02 Q 248.172 275.62 248.172 275.172 Q 248.172 274.609 248.497 274.236 Q 248.823 273.862 249.438 273.502 Q 248.664 273.168 248.212 272.43 Q 247.759 271.691 247.759 270.689 Q 247.759 269.617 248.229 268.866 Q 248.7 268.114 249.601 267.719 Q 250.501 267.323 251.793 267.323 Q 252.066 267.323 252.426 267.358 Q 252.787 267.394 253.09 267.438 Q 253.393 267.481 253.498 267.508 L 256.926 267.508 L 256.926 268.87 L 255.388 269.266 Q 255.599 269.591 255.705 269.96 Q 255.81 270.329 255.81 270.742 Q 255.81 272.324 254.707 273.208 Q 253.604 274.091 251.644 274.091 Q 251.178 274.064 250.765 274.021 Q 250.563 274.179 250.457 274.355 Q 250.352 274.53 250.352 274.724 Q 250.352 274.917 250.515 275.044 Q 250.677 275.172 251.007 275.238 Q 251.336 275.304 251.829 275.304 L 253.498 275.304 Q 255.116 275.304 255.964 275.998 Q 256.812 276.692 256.812 278.037 Q 256.812 279.76 255.375 280.709 Q 253.938 281.658 251.248 281.658 Z M 251.363 279.909 Q 252.321 279.909 253.011 279.729 Q 253.701 279.549 254.07 279.219 Q 254.439 278.89 254.439 278.433 Q 254.439 278.064 254.224 277.848 Q 254.008 277.633 253.573 277.545 Q 253.138 277.457 252.461 277.457 L 251.073 277.457 Q 250.58 277.457 250.189 277.615 Q 249.798 277.773 249.57 278.059 Q 249.341 278.345 249.341 278.723 Q 249.341 279.276 249.873 279.593 Q 250.405 279.909 251.363 279.909 Z M 251.793 272.456 Q 252.549 272.456 252.901 271.99 Q 253.252 271.524 253.252 270.725 Q 253.252 269.837 252.888 269.393 Q 252.523 268.949 251.793 268.949 Q 251.055 268.949 250.686 269.393 Q 250.317 269.837 250.317 270.725 Q 250.317 271.524 250.682 271.99 Q 251.046 272.456 251.793 272.456 Z" transform="matrix(1, 0, 0, 1, 55.55901, 91.018478)" style="fill: rgb(0, 42, 255); white-space: pre;"/>
      <path d="M 261.212 267.508 L 261.212 277.334 L 258.531 277.334 L 258.531 267.508 Z M 259.876 263.658 Q 260.473 263.658 260.904 263.935 Q 261.335 264.212 261.335 264.968 Q 261.335 265.715 260.904 266.001 Q 260.473 266.286 259.876 266.286 Q 259.269 266.286 258.843 266.001 Q 258.417 265.715 258.417 264.968 Q 258.417 264.212 258.843 263.935 Q 259.269 263.658 259.876 263.658 Z" transform="matrix(1, 0, 0, 1, 55.55901, 91.018478)" style="fill: rgb(0, 42, 255); white-space: pre;"/>
      <path d="M 269.612 267.323 Q 271.186 267.323 272.144 268.18 Q 273.102 269.037 273.102 270.927 L 273.102 277.334 L 270.421 277.334 L 270.421 271.595 Q 270.421 270.54 270.039 270.004 Q 269.656 269.468 268.839 269.468 Q 267.608 269.468 267.16 270.303 Q 266.712 271.138 266.712 272.711 L 266.712 277.334 L 264.031 277.334 L 264.031 267.508 L 266.079 267.508 L 266.439 268.765 L 266.589 268.765 Q 266.905 268.255 267.375 267.939 Q 267.846 267.622 268.421 267.473 Q 268.997 267.323 269.612 267.323 Z" transform="matrix(1, 0, 0, 1, 55.55901, 91.018478)" style="fill: rgb(0, 42, 255); white-space: pre;"/>
      <path d="M 279.896 267.323 Q 281.258 267.323 282.243 267.846 Q 283.227 268.369 283.763 269.362 Q 284.299 270.355 284.299 271.788 L 284.299 273.089 L 277.962 273.089 Q 278.006 274.223 278.644 274.869 Q 279.281 275.515 280.415 275.515 Q 281.355 275.515 282.137 275.321 Q 282.919 275.128 283.746 274.741 L 283.746 276.815 Q 283.016 277.176 282.221 277.343 Q 281.425 277.51 280.291 277.51 Q 278.815 277.51 277.677 276.965 Q 276.539 276.42 275.893 275.304 Q 275.247 274.188 275.247 272.491 Q 275.247 270.769 275.831 269.622 Q 276.415 268.475 277.461 267.899 Q 278.507 267.323 279.896 267.323 Z M 279.914 269.23 Q 279.131 269.23 278.617 269.731 Q 278.103 270.232 278.024 271.305 L 281.786 271.305 Q 281.777 270.707 281.57 270.241 Q 281.364 269.775 280.955 269.503 Q 280.546 269.23 279.914 269.23 Z" transform="matrix(1, 0, 0, 1, 55.55901, 91.018478)" style="fill: rgb(0, 42, 255); white-space: pre;"/>
      <path d="M 290.537 267.323 Q 291.899 267.323 292.884 267.846 Q 293.868 268.369 294.404 269.362 Q 294.94 270.355 294.94 271.788 L 294.94 273.089 L 288.603 273.089 Q 288.647 274.223 289.285 274.869 Q 289.922 275.515 291.056 275.515 Q 291.996 275.515 292.778 275.321 Q 293.56 275.128 294.387 274.741 L 294.387 276.815 Q 293.657 277.176 292.862 277.343 Q 292.066 277.51 290.932 277.51 Q 289.456 277.51 288.318 276.965 Q 287.18 276.42 286.534 275.304 Q 285.888 274.188 285.888 272.491 Q 285.888 270.769 286.472 269.622 Q 287.057 268.475 288.102 267.899 Q 289.148 267.323 290.537 267.323 Z M 290.555 269.23 Q 289.772 269.23 289.258 269.731 Q 288.744 270.232 288.665 271.305 L 292.427 271.305 Q 292.418 270.707 292.211 270.241 Q 292.005 269.775 291.596 269.503 Q 291.187 269.23 290.555 269.23 Z" transform="matrix(1, 0, 0, 1, 55.55901, 91.018478)" style="fill: rgb(0, 42, 255); white-space: pre;"/>
      <path d="M 302.595 267.323 Q 302.797 267.323 303.065 267.345 Q 303.333 267.367 303.5 267.402 L 303.298 269.916 Q 303.166 269.872 302.925 269.85 Q 302.683 269.828 302.507 269.828 Q 301.989 269.828 301.501 269.96 Q 301.013 270.092 300.626 270.386 Q 300.24 270.681 300.015 271.16 Q 299.791 271.639 299.791 272.333 L 299.791 277.334 L 297.111 277.334 L 297.111 267.508 L 299.141 267.508 L 299.536 269.16 L 299.668 269.16 Q 299.958 268.659 300.393 268.242 Q 300.828 267.824 301.387 267.574 Q 301.945 267.323 302.595 267.323 Z" transform="matrix(1, 0, 0, 1, 55.55901, 91.018478)" style="fill: rgb(0, 42, 255); white-space: pre;"/>
      <path d="M 198.829 385.503 Q 201.316 385.503 202.463 386.497 Q 203.61 387.49 203.61 389.318 Q 203.61 390.144 203.346 390.887 Q 203.083 391.629 202.489 392.196 Q 201.896 392.763 200.929 393.093 Q 199.962 393.422 198.556 393.422 L 197.088 393.422 L 197.088 398.353 L 195.287 398.353 L 195.287 385.503 Z M 198.688 387.015 L 197.088 387.015 L 197.088 391.902 L 198.363 391.902 Q 199.479 391.902 200.235 391.651 Q 200.991 391.401 201.377 390.847 Q 201.764 390.293 201.764 389.388 Q 201.764 388.193 201.017 387.604 Q 200.27 387.015 198.688 387.015 Z" style="white-space: pre;"/>
      <path d="M 209.714 388.5 Q 211.507 388.5 212.394 389.296 Q 213.282 390.091 213.282 391.805 L 213.282 398.353 L 212.017 398.353 L 211.674 396.947 L 211.603 396.947 Q 211.199 397.474 210.76 397.826 Q 210.32 398.177 209.745 398.353 Q 209.169 398.529 208.343 398.529 Q 207.464 398.529 206.778 398.212 Q 206.093 397.896 205.702 397.259 Q 205.311 396.622 205.311 395.637 Q 205.311 394.161 206.444 393.396 Q 207.578 392.631 209.881 392.561 L 211.551 392.491 L 211.551 391.946 Q 211.551 390.812 211.045 390.346 Q 210.54 389.88 209.635 389.88 Q 208.888 389.88 208.202 390.096 Q 207.517 390.311 206.884 390.61 L 206.321 389.327 Q 207.007 388.975 207.881 388.738 Q 208.756 388.5 209.714 388.5 Z M 211.533 393.651 L 210.18 393.712 Q 208.501 393.774 207.82 394.27 Q 207.139 394.767 207.139 395.655 Q 207.139 396.428 207.604 396.789 Q 208.07 397.149 208.835 397.149 Q 210.013 397.149 210.773 396.485 Q 211.533 395.822 211.533 394.521 Z" style="white-space: pre;"/>
      <path d="M 214.739 388.667 L 216.646 388.667 L 218.702 394.249 Q 218.861 394.679 218.997 395.088 Q 219.133 395.497 219.234 395.879 Q 219.335 396.261 219.397 396.63 L 219.458 396.63 Q 219.564 396.182 219.757 395.54 Q 219.951 394.899 220.179 394.24 L 222.148 388.667 L 224.046 388.667 L 219.863 399.724 Q 219.52 400.647 219.032 401.311 Q 218.544 401.974 217.876 402.33 Q 217.208 402.686 216.294 402.686 Q 215.872 402.686 215.552 402.638 Q 215.231 402.589 215.002 402.528 L 215.002 401.122 Q 215.196 401.165 215.473 401.201 Q 215.749 401.236 216.048 401.236 Q 216.602 401.236 217.002 401.02 Q 217.402 400.805 217.687 400.41 Q 217.973 400.014 218.166 399.487 L 218.606 398.344 Z" style="white-space: pre;"/>
      <path d="M 229.219 391.656 L 232.454 385.503 L 234.387 385.503 L 230.116 393.361 L 230.116 398.353 L 228.314 398.353 L 228.314 393.44 L 224.034 385.503 L 226.003 385.503 Z" style="white-space: pre;"/>
      <path d="M 244.36 393.493 Q 244.36 394.688 244.048 395.624 Q 243.736 396.56 243.143 397.206 Q 242.55 397.852 241.715 398.19 Q 240.88 398.529 239.825 398.529 Q 238.841 398.529 238.019 398.19 Q 237.197 397.852 236.6 397.206 Q 236.002 396.56 235.677 395.624 Q 235.352 394.688 235.352 393.493 Q 235.352 391.902 235.897 390.781 Q 236.442 389.661 237.457 389.076 Q 238.472 388.492 239.878 388.492 Q 241.214 388.492 242.225 389.081 Q 243.235 389.669 243.798 390.786 Q 244.36 391.902 244.36 393.493 Z M 237.162 393.493 Q 237.162 394.609 237.448 395.413 Q 237.734 396.217 238.327 396.648 Q 238.92 397.079 239.86 397.079 Q 240.783 397.079 241.381 396.648 Q 241.979 396.217 242.26 395.413 Q 242.541 394.609 242.541 393.493 Q 242.541 392.385 242.26 391.594 Q 241.979 390.803 241.385 390.381 Q 240.792 389.959 239.843 389.959 Q 238.454 389.959 237.808 390.887 Q 237.162 391.814 237.162 393.493 Z" style="white-space: pre;"/>
      <path d="M 255.014 388.667 L 255.014 398.353 L 253.599 398.353 L 253.353 397.026 L 253.256 397.026 Q 252.958 397.527 252.483 397.861 Q 252.008 398.195 251.419 398.362 Q 250.831 398.529 250.171 398.529 Q 249.055 398.529 248.277 398.16 Q 247.5 397.79 247.1 397.013 Q 246.7 396.235 246.7 395.004 L 246.7 388.667 L 248.475 388.667 L 248.475 394.758 Q 248.475 395.927 248.98 396.507 Q 249.486 397.087 250.523 397.087 Q 251.534 397.087 252.127 396.687 Q 252.72 396.288 252.98 395.519 Q 253.239 394.749 253.239 393.633 L 253.239 388.667 Z" style="white-space: pre;"/>
      <path d="M 258.242 398.353 L 258.242 385.503 L 260.044 385.503 L 260.044 396.789 L 265.625 396.789 L 265.625 398.353 Z" style="white-space: pre;"/>
      <path d="M 269.383 388.667 L 269.383 398.353 L 267.617 398.353 L 267.617 388.667 Z M 268.513 385.002 Q 268.935 385.002 269.238 385.249 Q 269.541 385.495 269.541 386.048 Q 269.541 386.602 269.238 386.853 Q 268.935 387.103 268.513 387.103 Q 268.082 387.103 267.788 386.853 Q 267.493 386.602 267.493 386.048 Q 267.493 385.495 267.788 385.249 Q 268.082 385.002 268.513 385.002 Z" style="white-space: pre;"/>
      <path d="M 275.757 397.096 Q 276.135 397.096 276.522 397.03 Q 276.909 396.964 277.19 396.859 L 277.19 398.212 Q 276.891 398.344 276.395 398.436 Q 275.898 398.529 275.379 398.529 Q 274.588 398.529 273.947 398.256 Q 273.305 397.984 272.923 397.325 Q 272.541 396.665 272.541 395.497 L 272.541 390.03 L 271.196 390.03 L 271.196 389.212 L 272.602 388.562 L 273.226 386.47 L 274.316 386.47 L 274.316 388.667 L 277.12 388.667 L 277.12 390.03 L 274.316 390.03 L 274.316 395.47 Q 274.316 396.288 274.707 396.692 Q 275.098 397.096 275.757 397.096 Z" style="white-space: pre;"/>
      <path d="M 282.523 397.096 Q 282.901 397.096 283.288 397.03 Q 283.675 396.964 283.956 396.859 L 283.956 398.212 Q 283.657 398.344 283.16 398.436 Q 282.664 398.529 282.145 398.529 Q 281.354 398.529 280.713 398.256 Q 280.071 397.984 279.689 397.325 Q 279.306 396.665 279.306 395.497 L 279.306 390.03 L 277.962 390.03 L 277.962 389.212 L 279.368 388.562 L 279.992 386.47 L 281.082 386.47 L 281.082 388.667 L 283.886 388.667 L 283.886 390.03 L 281.082 390.03 L 281.082 395.47 Q 281.082 396.288 281.473 396.692 Q 281.864 397.096 282.523 397.096 Z" style="white-space: pre;"/>
      <path d="M 287.689 398.353 L 285.914 398.353 L 285.914 384.677 L 287.689 384.677 Z" style="white-space: pre;"/>
      <path d="M 294.492 388.492 Q 295.758 388.492 296.663 389.032 Q 297.569 389.573 298.052 390.557 Q 298.535 391.541 298.535 392.877 L 298.535 393.879 L 291.961 393.879 Q 291.988 395.435 292.761 396.266 Q 293.534 397.096 294.932 397.096 Q 295.855 397.096 296.575 396.92 Q 297.296 396.745 298.07 396.402 L 298.07 397.887 Q 297.34 398.221 296.606 398.375 Q 295.872 398.529 294.853 398.529 Q 293.447 398.529 292.387 397.966 Q 291.328 397.404 290.739 396.301 Q 290.151 395.198 290.151 393.581 Q 290.151 391.981 290.687 390.843 Q 291.223 389.705 292.198 389.098 Q 293.174 388.492 294.492 388.492 Z M 294.484 389.863 Q 293.411 389.863 292.761 390.561 Q 292.111 391.26 291.996 392.561 L 296.76 392.561 Q 296.751 391.761 296.505 391.155 Q 296.259 390.548 295.762 390.206 Q 295.266 389.863 294.484 389.863 Z" style="white-space: pre;"/>
      <path d="M 305.822 398.353 L 305.822 385.503 L 307.624 385.503 L 307.624 398.353 Z" style="white-space: pre;"/>
      <path d="M 315.685 388.492 Q 317.363 388.492 318.264 389.335 Q 319.165 390.179 319.165 392.042 L 319.165 398.353 L 317.416 398.353 L 317.416 392.28 Q 317.416 391.12 316.906 390.535 Q 316.396 389.951 315.342 389.951 Q 313.839 389.951 313.237 390.838 Q 312.635 391.726 312.635 393.414 L 312.635 398.353 L 310.868 398.353 L 310.868 388.667 L 312.266 388.667 L 312.521 390.03 L 312.617 390.03 Q 312.925 389.52 313.399 389.177 Q 313.874 388.834 314.458 388.663 Q 315.043 388.492 315.685 388.492 Z" style="white-space: pre;"/>
      <path d="M 325.997 398.529 Q 324.661 398.529 323.659 397.993 Q 322.657 397.457 322.107 396.353 Q 321.558 395.25 321.558 393.563 Q 321.558 391.805 322.147 390.685 Q 322.736 389.564 323.777 389.028 Q 324.819 388.492 326.164 388.492 Q 326.955 388.492 327.644 388.65 Q 328.334 388.808 328.8 389.045 L 328.273 390.478 Q 327.781 390.285 327.214 390.135 Q 326.647 389.986 326.137 389.986 Q 325.206 389.986 324.595 390.395 Q 323.984 390.803 323.676 391.594 Q 323.369 392.385 323.369 393.545 Q 323.369 394.67 323.672 395.448 Q 323.975 396.226 324.568 396.63 Q 325.162 397.035 326.049 397.035 Q 326.831 397.035 327.456 396.859 Q 328.08 396.683 328.607 396.411 L 328.607 397.966 Q 328.097 398.248 327.482 398.388 Q 326.867 398.529 325.997 398.529 Z" style="white-space: pre;"/>
      <path d="M 330.614 397.351 Q 330.614 396.683 330.952 396.406 Q 331.291 396.129 331.774 396.129 Q 332.266 396.129 332.609 396.406 Q 332.952 396.683 332.952 397.351 Q 332.952 398.001 332.609 398.3 Q 332.266 398.599 331.774 398.599 Q 331.291 398.599 330.952 398.3 Q 330.614 398.001 330.614 397.351 Z" style="white-space: pre;"/>
      <g transform="matrix(1.155068, 0, 0, 1.155068, -321.793549, -84.109703)">
        <title>Block Button</title>
        <circle style="fill: rgba(128, 128, 128, 0.25);" cx="640" cy="400" r="17.315">
          <title>Container</title>
        </circle>
        <path d="M 639.989 409.23 C 638.717 409.23 637.52 408.989 636.399 408.504 C 635.278 408.02 634.299 407.358 633.46 406.519 C 632.621 405.68 631.963 404.7 631.486 403.579 C 631.009 402.459 630.77 401.255 630.77 399.968 C 630.77 398.709 631.013 397.52 631.497 396.399 C 631.982 395.278 632.639 394.303 633.47 393.47 C 634.303 392.639 635.278 391.982 636.399 391.497 C 637.52 391.013 638.717 390.77 639.989 390.77 C 641.263 390.77 642.459 391.013 643.579 391.497 C 644.7 391.982 645.677 392.639 646.508 393.47 C 647.34 394.303 648.002 395.278 648.493 396.399 C 648.984 397.52 649.23 398.709 649.23 399.968 C 649.23 401.255 648.988 402.459 648.504 403.579 C 648.02 404.7 647.358 405.68 646.519 406.519 C 645.68 407.358 644.7 408.02 643.579 408.504 C 642.459 408.989 641.263 409.23 639.989 409.23 Z M 639.989 407.192 C 641.985 407.192 643.681 406.49 645.077 405.087 C 646.472 403.685 647.169 401.978 647.169 399.968 C 647.169 399.187 647.047 398.427 646.801 397.69 C 646.555 396.952 646.193 396.28 645.716 395.673 L 635.673 405.694 C 636.251 406.215 636.917 406.594 637.668 406.834 C 638.42 407.072 639.194 407.192 639.989 407.192 Z M 634.284 404.284 L 644.284 394.263 C 643.663 393.785 642.99 393.427 642.267 393.188 C 641.545 392.951 640.785 392.831 639.989 392.831 C 637.994 392.831 636.298 393.522 634.902 394.902 C 633.506 396.283 632.809 397.972 632.809 399.968 C 632.809 400.763 632.942 401.529 633.21 402.267 C 633.478 403.005 633.836 403.677 634.284 404.284 Z" style="fill: rgb(255, 0, 0);">
          <title>Icon</title>
        </path>
      </g>
    </g>
    <path d="M -749.488 498.238 H -676.633 L -676.633 479.052 L -630.588 509.749 L -676.633 540.445 L -676.633 521.26 H -749.488 V 498.238 Z" style="fill: rgb(223, 32, 32);" transform="matrix(-1, 0, 0, 1, 0, 0)"/>
    <g transform="matrix(1, 0, 0, 1, 686.317322, 131.831497)">
      <title>Before</title>
      <rect x="96.854" y="319.868" width="360.596" height="116.099" style="stroke: rgb(179, 179, 179); fill: rgb(128, 128, 128);">
        <title>Container</title>
      </rect>
      <g transform="matrix(1, 0, 0, 1, 10, 18.941498)" style="filter: url(#gaussian-blur-filter-1); opacity: 0.25;">
        <title>Company Logo</title>
        <rect x="106.854" y="329.868" width="58.216" height="58.216" style="">
          <title>Container</title>
        </rect>
        <path d="M 136.499 238.69 Q 136.499 238.085 137.05 237.736 Q 137.638 237.364 138.407 237.589 Q 139.261 237.839 139.803 238.69 Q 140.412 239.646 140.314 240.893 Q 140.205 242.286 139.252 243.459 Q 138.197 244.757 136.499 245.298 Q 134.637 245.891 132.644 245.366 Q 130.48 244.797 128.869 243.095 Q 127.133 241.261 126.587 238.69 Q 126.003 235.937 126.961 233.183 Q 127.981 230.252 130.442 228.199 Q 133.048 226.024 136.499 225.474 Q 140.139 224.895 143.657 226.291 Q 147.355 227.758 149.852 230.981 Q 152.467 234.356 153.019 238.69 Q 153.595 243.216 151.759 247.5 Q 149.847 251.963 145.86 254.904 Q 141.717 257.96 136.499 258.513 Q 131.087 259.088 126.037 256.811 Q 120.808 254.455 117.424 249.703 Q 113.927 244.792 113.372 238.69 Q 112.799 232.393 115.516 226.576 Q 118.317 220.581 123.834 216.754 Q 129.513 212.815 136.499 212.259 Q 143.681 211.687 150.265 214.846 Q 157.027 218.09 161.297 224.373 Q 165.677 230.819 166.234 238.69 Q 166.805 246.758 163.204 254.108 Q 159.517 261.636 152.468 266.349 Q 145.255 271.172 136.499 271.729 Q 127.546 272.299 119.429 268.257 Q 111.135 264.126 105.979 256.311 Q 100.714 248.331 100.156 238.69 Q 99.587 228.852 104.071 219.968 Q 108.645 210.907 117.226 205.308 Q 125.973 199.601 136.499 199.043 Q 136.535 199.041 136.499 199.043" style="fill: rgb(223, 32, 32); paint-order: fill; stroke-dasharray: 8px; stroke-linecap: round; stroke-width: 5.05646px; stroke: rgb(85, 218, 85);" transform="matrix(0.621209, 0, 0, 0.565393, 53.207775, 225.862625)">
          <title>Logo</title>
        </path>
      </g>
      <path d="M 148.713 273.766 Q 148.713 274.908 148.159 275.752 Q 147.606 276.596 146.547 277.053 Q 145.488 277.51 143.976 277.51 Q 143.308 277.51 142.671 277.422 Q 142.033 277.334 141.449 277.163 Q 140.865 276.991 140.337 276.736 L 140.337 274.205 Q 141.251 274.609 142.236 274.935 Q 143.22 275.26 144.187 275.26 Q 144.855 275.26 145.263 275.084 Q 145.672 274.908 145.857 274.601 Q 146.041 274.293 146.041 273.897 Q 146.041 273.414 145.716 273.071 Q 145.391 272.729 144.824 272.43 Q 144.257 272.131 143.545 271.788 Q 143.097 271.577 142.57 271.274 Q 142.042 270.971 141.568 270.531 Q 141.093 270.092 140.79 269.463 Q 140.487 268.835 140.487 267.956 Q 140.487 266.805 141.014 265.987 Q 141.541 265.17 142.521 264.735 Q 143.501 264.3 144.837 264.3 Q 145.839 264.3 146.749 264.533 Q 147.658 264.766 148.652 265.205 L 147.773 267.323 Q 146.885 266.963 146.182 266.765 Q 145.479 266.567 144.749 266.567 Q 144.24 266.567 143.879 266.73 Q 143.519 266.893 143.334 267.187 Q 143.15 267.481 143.15 267.868 Q 143.15 268.325 143.418 268.637 Q 143.686 268.949 144.226 269.239 Q 144.767 269.529 145.575 269.916 Q 146.56 270.382 147.259 270.887 Q 147.957 271.393 148.335 272.074 Q 148.713 272.755 148.713 273.766 Z" transform="matrix(1, 0, 0, 1, 55.55901, 91.018478)" style="fill: rgb(0, 42, 255); white-space: pre; filter: url(#gaussian-blur-filter-1); opacity: 0.25;"/>
      <path d="M 159.754 272.403 Q 159.754 273.634 159.424 274.583 Q 159.094 275.532 158.466 276.187 Q 157.838 276.842 156.954 277.176 Q 156.071 277.51 154.964 277.51 Q 153.926 277.51 153.061 277.176 Q 152.195 276.842 151.558 276.187 Q 150.921 275.532 150.573 274.583 Q 150.226 273.634 150.226 272.403 Q 150.226 270.769 150.806 269.635 Q 151.386 268.501 152.459 267.912 Q 153.531 267.323 155.016 267.323 Q 156.396 267.323 157.464 267.912 Q 158.532 268.501 159.143 269.635 Q 159.754 270.769 159.754 272.403 Z M 152.96 272.403 Q 152.96 273.37 153.171 274.029 Q 153.382 274.689 153.83 275.022 Q 154.278 275.356 154.999 275.356 Q 155.711 275.356 156.154 275.022 Q 156.598 274.689 156.805 274.029 Q 157.011 273.37 157.011 272.403 Q 157.011 271.428 156.805 270.782 Q 156.598 270.136 156.15 269.811 Q 155.702 269.485 154.981 269.485 Q 153.918 269.485 153.439 270.215 Q 152.96 270.944 152.96 272.403 Z" transform="matrix(1, 0, 0, 1, 55.55901, 91.018478)" style="fill: rgb(0, 42, 255); white-space: pre; filter: url(#gaussian-blur-filter-1); opacity: 0.25;"/>
      <path d="M 167.397 269.521 L 165.076 269.521 L 165.076 277.334 L 162.396 277.334 L 162.396 269.521 L 160.919 269.521 L 160.919 268.229 L 162.396 267.508 L 162.396 266.787 Q 162.396 265.53 162.822 264.832 Q 163.248 264.133 164.026 263.847 Q 164.804 263.562 165.867 263.562 Q 166.649 263.562 167.291 263.689 Q 167.933 263.816 168.337 263.975 L 167.651 265.943 Q 167.344 265.847 166.983 265.768 Q 166.623 265.689 166.157 265.689 Q 165.595 265.689 165.336 266.027 Q 165.076 266.365 165.076 266.893 L 165.076 267.508 L 167.397 267.508 Z" transform="matrix(1, 0, 0, 1, 55.55901, 91.018478)" style="fill: rgb(0, 42, 255); white-space: pre; filter: url(#gaussian-blur-filter-1); opacity: 0.25;"/>
      <path d="M 173.058 275.374 Q 173.497 275.374 173.915 275.286 Q 174.332 275.198 174.745 275.066 L 174.745 277.062 Q 174.315 277.255 173.678 277.382 Q 173.04 277.51 172.285 277.51 Q 171.406 277.51 170.707 277.224 Q 170.008 276.939 169.608 276.231 Q 169.208 275.523 169.208 274.258 L 169.208 269.521 L 167.925 269.521 L 167.925 268.387 L 169.402 267.49 L 170.175 265.416 L 171.889 265.416 L 171.889 267.508 L 174.64 267.508 L 174.64 269.521 L 171.889 269.521 L 171.889 274.258 Q 171.889 274.82 172.21 275.097 Q 172.531 275.374 173.058 275.374 Z" transform="matrix(1, 0, 0, 1, 55.55901, 91.018478)" style="fill: rgb(0, 42, 255); white-space: pre; filter: url(#gaussian-blur-filter-1); opacity: 0.25;"/>
      <path d="M 184.808 277.334 L 184.052 273.897 Q 183.991 273.59 183.85 272.988 Q 183.71 272.386 183.547 271.696 Q 183.384 271.006 183.248 270.417 Q 183.112 269.828 183.05 269.556 L 182.971 269.556 Q 182.91 269.828 182.778 270.417 Q 182.646 271.006 182.484 271.7 Q 182.321 272.395 182.18 273.005 Q 182.04 273.616 181.969 273.933 L 181.178 277.334 L 178.296 277.334 L 175.501 267.508 L 178.173 267.508 L 179.306 271.858 Q 179.421 272.315 179.526 272.944 Q 179.632 273.572 179.715 274.157 Q 179.798 274.741 179.842 275.084 L 179.913 275.084 Q 179.93 274.829 179.987 274.407 Q 180.045 273.985 180.119 273.533 Q 180.194 273.08 180.26 272.715 Q 180.326 272.351 180.361 272.219 L 181.574 267.508 L 184.527 267.508 L 185.678 272.219 Q 185.74 272.474 185.841 273.027 Q 185.942 273.581 186.021 274.166 Q 186.1 274.75 186.109 275.084 L 186.179 275.084 Q 186.215 274.785 186.302 274.196 Q 186.39 273.607 186.509 272.961 Q 186.628 272.315 186.751 271.858 L 187.928 267.508 L 190.556 267.508 L 187.726 277.334 Z" transform="matrix(1, 0, 0, 1, 55.55901, 91.018478)" style="fill: rgb(0, 42, 255); white-space: pre; filter: url(#gaussian-blur-filter-1); opacity: 0.25;"/>
      <path d="M 196.163 267.306 Q 198.141 267.306 199.196 268.167 Q 200.25 269.028 200.25 270.786 L 200.25 277.334 L 198.378 277.334 L 197.86 275.998 L 197.789 275.998 Q 197.367 276.525 196.928 276.859 Q 196.489 277.193 195.917 277.352 Q 195.346 277.51 194.529 277.51 Q 193.658 277.51 192.969 277.176 Q 192.279 276.842 191.883 276.152 Q 191.488 275.462 191.488 274.398 Q 191.488 272.834 192.586 272.091 Q 193.685 271.349 195.882 271.27 L 197.587 271.217 L 197.587 270.786 Q 197.587 270.013 197.183 269.652 Q 196.779 269.292 196.058 269.292 Q 195.346 269.292 194.66 269.494 Q 193.975 269.696 193.289 270.004 L 192.402 268.193 Q 193.184 267.78 194.155 267.543 Q 195.126 267.306 196.163 267.306 Z M 197.587 272.781 L 196.55 272.816 Q 195.249 272.852 194.744 273.282 Q 194.239 273.713 194.239 274.416 Q 194.239 275.031 194.599 275.291 Q 194.959 275.55 195.539 275.55 Q 196.401 275.55 196.994 275.04 Q 197.587 274.53 197.587 273.59 Z" transform="matrix(1, 0, 0, 1, 55.55901, 91.018478)" style="fill: rgb(0, 42, 255); white-space: pre; filter: url(#gaussian-blur-filter-1); opacity: 0.25;"/>
      <path d="M 208.482 267.323 Q 208.684 267.323 208.952 267.345 Q 209.22 267.367 209.387 267.402 L 209.185 269.916 Q 209.053 269.872 208.812 269.85 Q 208.57 269.828 208.394 269.828 Q 207.876 269.828 207.388 269.96 Q 206.9 270.092 206.513 270.386 Q 206.127 270.681 205.903 271.16 Q 205.678 271.639 205.678 272.333 L 205.678 277.334 L 202.998 277.334 L 202.998 267.508 L 205.028 267.508 L 205.424 269.16 L 205.555 269.16 Q 205.845 268.659 206.28 268.242 Q 206.715 267.824 207.274 267.574 Q 207.832 267.323 208.482 267.323 Z" transform="matrix(1, 0, 0, 1, 55.55901, 91.018478)" style="fill: rgb(0, 42, 255); white-space: pre; filter: url(#gaussian-blur-filter-1); opacity: 0.25;"/>
      <path d="M 215.222 267.323 Q 216.584 267.323 217.568 267.846 Q 218.553 268.369 219.089 269.362 Q 219.625 270.355 219.625 271.788 L 219.625 273.089 L 213.288 273.089 Q 213.332 274.223 213.969 274.869 Q 214.606 275.515 215.74 275.515 Q 216.681 275.515 217.463 275.321 Q 218.245 275.128 219.071 274.741 L 219.071 276.815 Q 218.342 277.176 217.546 277.343 Q 216.751 277.51 215.617 277.51 Q 214.141 277.51 213.002 276.965 Q 211.864 276.42 211.218 275.304 Q 210.572 274.188 210.572 272.491 Q 210.572 270.769 211.157 269.622 Q 211.741 268.475 212.787 267.899 Q 213.833 267.323 215.222 267.323 Z M 215.239 269.23 Q 214.457 269.23 213.943 269.731 Q 213.429 270.232 213.35 271.305 L 217.111 271.305 Q 217.103 270.707 216.896 270.241 Q 216.689 269.775 216.281 269.503 Q 215.872 269.23 215.239 269.23 Z" transform="matrix(1, 0, 0, 1, 55.55901, 91.018478)" style="fill: rgb(0, 42, 255); white-space: pre; filter: url(#gaussian-blur-filter-1); opacity: 0.25;"/>
      <path d="M 234.079 277.334 L 226.678 277.334 L 226.678 264.484 L 234.079 264.484 L 234.079 266.717 L 229.403 266.717 L 229.403 269.538 L 233.753 269.538 L 233.753 271.771 L 229.403 271.771 L 229.403 275.084 L 234.079 275.084 Z" transform="matrix(1, 0, 0, 1, 55.55901, 91.018478)" style="fill: rgb(0, 42, 255); white-space: pre; filter: url(#gaussian-blur-filter-1); opacity: 0.25;"/>
      <path d="M 242.127 267.323 Q 243.7 267.323 244.658 268.18 Q 245.616 269.037 245.616 270.927 L 245.616 277.334 L 242.936 277.334 L 242.936 271.595 Q 242.936 270.54 242.553 270.004 Q 242.171 269.468 241.353 269.468 Q 240.123 269.468 239.675 270.303 Q 239.227 271.138 239.227 272.711 L 239.227 277.334 L 236.546 277.334 L 236.546 267.508 L 238.594 267.508 L 238.954 268.765 L 239.103 268.765 Q 239.42 268.255 239.89 267.939 Q 240.36 267.622 240.936 267.473 Q 241.512 267.323 242.127 267.323 Z" transform="matrix(1, 0, 0, 1, 55.55901, 91.018478)" style="fill: rgb(0, 42, 255); white-space: pre; filter: url(#gaussian-blur-filter-1); opacity: 0.25;"/>
      <path d="M 251.248 281.658 Q 249.192 281.658 248.106 280.942 Q 247.021 280.226 247.021 278.934 Q 247.021 278.046 247.575 277.448 Q 248.128 276.851 249.201 276.596 Q 248.788 276.42 248.48 276.02 Q 248.172 275.62 248.172 275.172 Q 248.172 274.609 248.497 274.236 Q 248.823 273.862 249.438 273.502 Q 248.664 273.168 248.212 272.43 Q 247.759 271.691 247.759 270.689 Q 247.759 269.617 248.229 268.866 Q 248.7 268.114 249.601 267.719 Q 250.501 267.323 251.793 267.323 Q 252.066 267.323 252.426 267.358 Q 252.787 267.394 253.09 267.438 Q 253.393 267.481 253.498 267.508 L 256.926 267.508 L 256.926 268.87 L 255.388 269.266 Q 255.599 269.591 255.705 269.96 Q 255.81 270.329 255.81 270.742 Q 255.81 272.324 254.707 273.208 Q 253.604 274.091 251.644 274.091 Q 251.178 274.064 250.765 274.021 Q 250.563 274.179 250.457 274.355 Q 250.352 274.53 250.352 274.724 Q 250.352 274.917 250.515 275.044 Q 250.677 275.172 251.007 275.238 Q 251.336 275.304 251.829 275.304 L 253.498 275.304 Q 255.116 275.304 255.964 275.998 Q 256.812 276.692 256.812 278.037 Q 256.812 279.76 255.375 280.709 Q 253.938 281.658 251.248 281.658 Z M 251.363 279.909 Q 252.321 279.909 253.011 279.729 Q 253.701 279.549 254.07 279.219 Q 254.439 278.89 254.439 278.433 Q 254.439 278.064 254.224 277.848 Q 254.008 277.633 253.573 277.545 Q 253.138 277.457 252.461 277.457 L 251.073 277.457 Q 250.58 277.457 250.189 277.615 Q 249.798 277.773 249.57 278.059 Q 249.341 278.345 249.341 278.723 Q 249.341 279.276 249.873 279.593 Q 250.405 279.909 251.363 279.909 Z M 251.793 272.456 Q 252.549 272.456 252.901 271.99 Q 253.252 271.524 253.252 270.725 Q 253.252 269.837 252.888 269.393 Q 252.523 268.949 251.793 268.949 Q 251.055 268.949 250.686 269.393 Q 250.317 269.837 250.317 270.725 Q 250.317 271.524 250.682 271.99 Q 251.046 272.456 251.793 272.456 Z" transform="matrix(1, 0, 0, 1, 55.55901, 91.018478)" style="fill: rgb(0, 42, 255); white-space: pre; filter: url(#gaussian-blur-filter-1); opacity: 0.25;"/>
      <path d="M 261.212 267.508 L 261.212 277.334 L 258.531 277.334 L 258.531 267.508 Z M 259.876 263.658 Q 260.473 263.658 260.904 263.935 Q 261.335 264.212 261.335 264.968 Q 261.335 265.715 260.904 266.001 Q 260.473 266.286 259.876 266.286 Q 259.269 266.286 258.843 266.001 Q 258.417 265.715 258.417 264.968 Q 258.417 264.212 258.843 263.935 Q 259.269 263.658 259.876 263.658 Z" transform="matrix(1, 0, 0, 1, 55.55901, 91.018478)" style="fill: rgb(0, 42, 255); white-space: pre; filter: url(#gaussian-blur-filter-1); opacity: 0.25;"/>
      <path d="M 269.612 267.323 Q 271.186 267.323 272.144 268.18 Q 273.102 269.037 273.102 270.927 L 273.102 277.334 L 270.421 277.334 L 270.421 271.595 Q 270.421 270.54 270.039 270.004 Q 269.656 269.468 268.839 269.468 Q 267.608 269.468 267.16 270.303 Q 266.712 271.138 266.712 272.711 L 266.712 277.334 L 264.031 277.334 L 264.031 267.508 L 266.079 267.508 L 266.439 268.765 L 266.589 268.765 Q 266.905 268.255 267.375 267.939 Q 267.846 267.622 268.421 267.473 Q 268.997 267.323 269.612 267.323 Z" transform="matrix(1, 0, 0, 1, 55.55901, 91.018478)" style="fill: rgb(0, 42, 255); white-space: pre; filter: url(#gaussian-blur-filter-1); opacity: 0.25;"/>
      <path d="M 279.896 267.323 Q 281.258 267.323 282.243 267.846 Q 283.227 268.369 283.763 269.362 Q 284.299 270.355 284.299 271.788 L 284.299 273.089 L 277.962 273.089 Q 278.006 274.223 278.644 274.869 Q 279.281 275.515 280.415 275.515 Q 281.355 275.515 282.137 275.321 Q 282.919 275.128 283.746 274.741 L 283.746 276.815 Q 283.016 277.176 282.221 277.343 Q 281.425 277.51 280.291 277.51 Q 278.815 277.51 277.677 276.965 Q 276.539 276.42 275.893 275.304 Q 275.247 274.188 275.247 272.491 Q 275.247 270.769 275.831 269.622 Q 276.415 268.475 277.461 267.899 Q 278.507 267.323 279.896 267.323 Z M 279.914 269.23 Q 279.131 269.23 278.617 269.731 Q 278.103 270.232 278.024 271.305 L 281.786 271.305 Q 281.777 270.707 281.57 270.241 Q 281.364 269.775 280.955 269.503 Q 280.546 269.23 279.914 269.23 Z" transform="matrix(1, 0, 0, 1, 55.55901, 91.018478)" style="fill: rgb(0, 42, 255); white-space: pre; filter: url(#gaussian-blur-filter-1); opacity: 0.25;"/>
      <path d="M 290.537 267.323 Q 291.899 267.323 292.884 267.846 Q 293.868 268.369 294.404 269.362 Q 294.94 270.355 294.94 271.788 L 294.94 273.089 L 288.603 273.089 Q 288.647 274.223 289.285 274.869 Q 289.922 275.515 291.056 275.515 Q 291.996 275.515 292.778 275.321 Q 293.56 275.128 294.387 274.741 L 294.387 276.815 Q 293.657 277.176 292.862 277.343 Q 292.066 277.51 290.932 277.51 Q 289.456 277.51 288.318 276.965 Q 287.18 276.42 286.534 275.304 Q 285.888 274.188 285.888 272.491 Q 285.888 270.769 286.472 269.622 Q 287.057 268.475 288.102 267.899 Q 289.148 267.323 290.537 267.323 Z M 290.555 269.23 Q 289.772 269.23 289.258 269.731 Q 288.744 270.232 288.665 271.305 L 292.427 271.305 Q 292.418 270.707 292.211 270.241 Q 292.005 269.775 291.596 269.503 Q 291.187 269.23 290.555 269.23 Z" transform="matrix(1, 0, 0, 1, 55.55901, 91.018478)" style="fill: rgb(0, 42, 255); white-space: pre; filter: url(#gaussian-blur-filter-1); opacity: 0.25;"/>
      <path d="M 302.595 267.323 Q 302.797 267.323 303.065 267.345 Q 303.333 267.367 303.5 267.402 L 303.298 269.916 Q 303.166 269.872 302.925 269.85 Q 302.683 269.828 302.507 269.828 Q 301.989 269.828 301.501 269.96 Q 301.013 270.092 300.626 270.386 Q 300.24 270.681 300.015 271.16 Q 299.791 271.639 299.791 272.333 L 299.791 277.334 L 297.111 277.334 L 297.111 267.508 L 299.141 267.508 L 299.536 269.16 L 299.668 269.16 Q 299.958 268.659 300.393 268.242 Q 300.828 267.824 301.387 267.574 Q 301.945 267.323 302.595 267.323 Z" transform="matrix(1, 0, 0, 1, 55.55901, 91.018478)" style="fill: rgb(0, 42, 255); white-space: pre; filter: url(#gaussian-blur-filter-1); opacity: 0.25;"/>
      <path d="M 198.829 385.503 Q 201.316 385.503 202.463 386.497 Q 203.61 387.49 203.61 389.318 Q 203.61 390.144 203.346 390.887 Q 203.083 391.629 202.489 392.196 Q 201.896 392.763 200.929 393.093 Q 199.962 393.422 198.556 393.422 L 197.088 393.422 L 197.088 398.353 L 195.287 398.353 L 195.287 385.503 Z M 198.688 387.015 L 197.088 387.015 L 197.088 391.902 L 198.363 391.902 Q 199.479 391.902 200.235 391.651 Q 200.991 391.401 201.377 390.847 Q 201.764 390.293 201.764 389.388 Q 201.764 388.193 201.017 387.604 Q 200.27 387.015 198.688 387.015 Z" style="white-space: pre; filter: url(#gaussian-blur-filter-1); opacity: 0.25;"/>
      <path d="M 209.714 388.5 Q 211.507 388.5 212.394 389.296 Q 213.282 390.091 213.282 391.805 L 213.282 398.353 L 212.017 398.353 L 211.674 396.947 L 211.603 396.947 Q 211.199 397.474 210.76 397.826 Q 210.32 398.177 209.745 398.353 Q 209.169 398.529 208.343 398.529 Q 207.464 398.529 206.778 398.212 Q 206.093 397.896 205.702 397.259 Q 205.311 396.622 205.311 395.637 Q 205.311 394.161 206.444 393.396 Q 207.578 392.631 209.881 392.561 L 211.551 392.491 L 211.551 391.946 Q 211.551 390.812 211.045 390.346 Q 210.54 389.88 209.635 389.88 Q 208.888 389.88 208.202 390.096 Q 207.517 390.311 206.884 390.61 L 206.321 389.327 Q 207.007 388.975 207.881 388.738 Q 208.756 388.5 209.714 388.5 Z M 211.533 393.651 L 210.18 393.712 Q 208.501 393.774 207.82 394.27 Q 207.139 394.767 207.139 395.655 Q 207.139 396.428 207.604 396.789 Q 208.07 397.149 208.835 397.149 Q 210.013 397.149 210.773 396.485 Q 211.533 395.822 211.533 394.521 Z" style="white-space: pre; filter: url(#gaussian-blur-filter-1); opacity: 0.25;"/>
      <path d="M 214.739 388.667 L 216.646 388.667 L 218.702 394.249 Q 218.861 394.679 218.997 395.088 Q 219.133 395.497 219.234 395.879 Q 219.335 396.261 219.397 396.63 L 219.458 396.63 Q 219.564 396.182 219.757 395.54 Q 219.951 394.899 220.179 394.24 L 222.148 388.667 L 224.046 388.667 L 219.863 399.724 Q 219.52 400.647 219.032 401.311 Q 218.544 401.974 217.876 402.33 Q 217.208 402.686 216.294 402.686 Q 215.872 402.686 215.552 402.638 Q 215.231 402.589 215.002 402.528 L 215.002 401.122 Q 215.196 401.165 215.473 401.201 Q 215.749 401.236 216.048 401.236 Q 216.602 401.236 217.002 401.02 Q 217.402 400.805 217.687 400.41 Q 217.973 400.014 218.166 399.487 L 218.606 398.344 Z" style="white-space: pre; filter: url(#gaussian-blur-filter-1); opacity: 0.25;"/>
      <path d="M 229.219 391.656 L 232.454 385.503 L 234.387 385.503 L 230.116 393.361 L 230.116 398.353 L 228.314 398.353 L 228.314 393.44 L 224.034 385.503 L 226.003 385.503 Z" style="white-space: pre; filter: url(#gaussian-blur-filter-1); opacity: 0.25;"/>
      <path d="M 244.36 393.493 Q 244.36 394.688 244.048 395.624 Q 243.736 396.56 243.143 397.206 Q 242.55 397.852 241.715 398.19 Q 240.88 398.529 239.825 398.529 Q 238.841 398.529 238.019 398.19 Q 237.197 397.852 236.6 397.206 Q 236.002 396.56 235.677 395.624 Q 235.352 394.688 235.352 393.493 Q 235.352 391.902 235.897 390.781 Q 236.442 389.661 237.457 389.076 Q 238.472 388.492 239.878 388.492 Q 241.214 388.492 242.225 389.081 Q 243.235 389.669 243.798 390.786 Q 244.36 391.902 244.36 393.493 Z M 237.162 393.493 Q 237.162 394.609 237.448 395.413 Q 237.734 396.217 238.327 396.648 Q 238.92 397.079 239.86 397.079 Q 240.783 397.079 241.381 396.648 Q 241.979 396.217 242.26 395.413 Q 242.541 394.609 242.541 393.493 Q 242.541 392.385 242.26 391.594 Q 241.979 390.803 241.385 390.381 Q 240.792 389.959 239.843 389.959 Q 238.454 389.959 237.808 390.887 Q 237.162 391.814 237.162 393.493 Z" style="white-space: pre; filter: url(#gaussian-blur-filter-1); opacity: 0.25;"/>
      <path d="M 255.014 388.667 L 255.014 398.353 L 253.599 398.353 L 253.353 397.026 L 253.256 397.026 Q 252.958 397.527 252.483 397.861 Q 252.008 398.195 251.419 398.362 Q 250.831 398.529 250.171 398.529 Q 249.055 398.529 248.277 398.16 Q 247.5 397.79 247.1 397.013 Q 246.7 396.235 246.7 395.004 L 246.7 388.667 L 248.475 388.667 L 248.475 394.758 Q 248.475 395.927 248.98 396.507 Q 249.486 397.087 250.523 397.087 Q 251.534 397.087 252.127 396.687 Q 252.72 396.288 252.98 395.519 Q 253.239 394.749 253.239 393.633 L 253.239 388.667 Z" style="white-space: pre; filter: url(#gaussian-blur-filter-1); opacity: 0.25;"/>
      <path d="M 258.242 398.353 L 258.242 385.503 L 260.044 385.503 L 260.044 396.789 L 265.625 396.789 L 265.625 398.353 Z" style="white-space: pre; filter: url(#gaussian-blur-filter-1); opacity: 0.25;"/>
      <path d="M 269.383 388.667 L 269.383 398.353 L 267.617 398.353 L 267.617 388.667 Z M 268.513 385.002 Q 268.935 385.002 269.238 385.249 Q 269.541 385.495 269.541 386.048 Q 269.541 386.602 269.238 386.853 Q 268.935 387.103 268.513 387.103 Q 268.082 387.103 267.788 386.853 Q 267.493 386.602 267.493 386.048 Q 267.493 385.495 267.788 385.249 Q 268.082 385.002 268.513 385.002 Z" style="white-space: pre; filter: url(#gaussian-blur-filter-1); opacity: 0.25;"/>
      <path d="M 275.757 397.096 Q 276.135 397.096 276.522 397.03 Q 276.909 396.964 277.19 396.859 L 277.19 398.212 Q 276.891 398.344 276.395 398.436 Q 275.898 398.529 275.379 398.529 Q 274.588 398.529 273.947 398.256 Q 273.305 397.984 272.923 397.325 Q 272.541 396.665 272.541 395.497 L 272.541 390.03 L 271.196 390.03 L 271.196 389.212 L 272.602 388.562 L 273.226 386.47 L 274.316 386.47 L 274.316 388.667 L 277.12 388.667 L 277.12 390.03 L 274.316 390.03 L 274.316 395.47 Q 274.316 396.288 274.707 396.692 Q 275.098 397.096 275.757 397.096 Z" style="white-space: pre; filter: url(#gaussian-blur-filter-1); opacity: 0.25;"/>
      <path d="M 282.523 397.096 Q 282.901 397.096 283.288 397.03 Q 283.675 396.964 283.956 396.859 L 283.956 398.212 Q 283.657 398.344 283.16 398.436 Q 282.664 398.529 282.145 398.529 Q 281.354 398.529 280.713 398.256 Q 280.071 397.984 279.689 397.325 Q 279.306 396.665 279.306 395.497 L 279.306 390.03 L 277.962 390.03 L 277.962 389.212 L 279.368 388.562 L 279.992 386.47 L 281.082 386.47 L 281.082 388.667 L 283.886 388.667 L 283.886 390.03 L 281.082 390.03 L 281.082 395.47 Q 281.082 396.288 281.473 396.692 Q 281.864 397.096 282.523 397.096 Z" style="white-space: pre; filter: url(#gaussian-blur-filter-1); opacity: 0.25;"/>
      <path d="M 287.689 398.353 L 285.914 398.353 L 285.914 384.677 L 287.689 384.677 Z" style="white-space: pre; filter: url(#gaussian-blur-filter-1); opacity: 0.25;"/>
      <path d="M 294.492 388.492 Q 295.758 388.492 296.663 389.032 Q 297.569 389.573 298.052 390.557 Q 298.535 391.541 298.535 392.877 L 298.535 393.879 L 291.961 393.879 Q 291.988 395.435 292.761 396.266 Q 293.534 397.096 294.932 397.096 Q 295.855 397.096 296.575 396.92 Q 297.296 396.745 298.07 396.402 L 298.07 397.887 Q 297.34 398.221 296.606 398.375 Q 295.872 398.529 294.853 398.529 Q 293.447 398.529 292.387 397.966 Q 291.328 397.404 290.739 396.301 Q 290.151 395.198 290.151 393.581 Q 290.151 391.981 290.687 390.843 Q 291.223 389.705 292.198 389.098 Q 293.174 388.492 294.492 388.492 Z M 294.484 389.863 Q 293.411 389.863 292.761 390.561 Q 292.111 391.26 291.996 392.561 L 296.76 392.561 Q 296.751 391.761 296.505 391.155 Q 296.259 390.548 295.762 390.206 Q 295.266 389.863 294.484 389.863 Z" style="white-space: pre; filter: url(#gaussian-blur-filter-1); opacity: 0.25;"/>
      <path d="M 305.822 398.353 L 305.822 385.503 L 307.624 385.503 L 307.624 398.353 Z" style="white-space: pre; filter: url(#gaussian-blur-filter-1); opacity: 0.25;"/>
      <path d="M 315.685 388.492 Q 317.363 388.492 318.264 389.335 Q 319.165 390.179 319.165 392.042 L 319.165 398.353 L 317.416 398.353 L 317.416 392.28 Q 317.416 391.12 316.906 390.535 Q 316.396 389.951 315.342 389.951 Q 313.839 389.951 313.237 390.838 Q 312.635 391.726 312.635 393.414 L 312.635 398.353 L 310.868 398.353 L 310.868 388.667 L 312.266 388.667 L 312.521 390.03 L 312.617 390.03 Q 312.925 389.52 313.399 389.177 Q 313.874 388.834 314.458 388.663 Q 315.043 388.492 315.685 388.492 Z" style="white-space: pre; filter: url(#gaussian-blur-filter-1); opacity: 0.25;"/>
      <path d="M 325.997 398.529 Q 324.661 398.529 323.659 397.993 Q 322.657 397.457 322.107 396.353 Q 321.558 395.25 321.558 393.563 Q 321.558 391.805 322.147 390.685 Q 322.736 389.564 323.777 389.028 Q 324.819 388.492 326.164 388.492 Q 326.955 388.492 327.644 388.65 Q 328.334 388.808 328.8 389.045 L 328.273 390.478 Q 327.781 390.285 327.214 390.135 Q 326.647 389.986 326.137 389.986 Q 325.206 389.986 324.595 390.395 Q 323.984 390.803 323.676 391.594 Q 323.369 392.385 323.369 393.545 Q 323.369 394.67 323.672 395.448 Q 323.975 396.226 324.568 396.63 Q 325.162 397.035 326.049 397.035 Q 326.831 397.035 327.456 396.859 Q 328.08 396.683 328.607 396.411 L 328.607 397.966 Q 328.097 398.248 327.482 398.388 Q 326.867 398.529 325.997 398.529 Z" style="white-space: pre; filter: url(#gaussian-blur-filter-1); opacity: 0.25;"/>
      <path d="M 330.614 397.351 Q 330.614 396.683 330.952 396.406 Q 331.291 396.129 331.774 396.129 Q 332.266 396.129 332.609 396.406 Q 332.952 396.683 332.952 397.351 Q 332.952 398.001 332.609 398.3 Q 332.266 398.599 331.774 398.599 Q 331.291 398.599 330.952 398.3 Q 330.614 398.001 330.614 397.351 Z" style="white-space: pre; filter: url(#gaussian-blur-filter-1); opacity: 0.25;"/>
      <g style="" transform="matrix(1, 0, 0, 1, -0.000992, -0.000488)">
        <title>Blocked Job Button</title>
        <rect style="stroke: rgb(255, 255, 255); fill: rgba(255, 255, 255, 0.7);" x="209.092" y="347.827" width="136.122" height="60.182" rx="10" ry="10">
          <title>Container</title>
        </rect>
        <path d="M 227.856 361.594 Q 229.79 361.594 230.682 362.366 Q 231.574 363.139 231.574 364.561 Q 231.574 365.203 231.369 365.781 Q 231.164 366.359 230.703 366.799 Q 230.241 367.24 229.49 367.497 Q 228.738 367.753 227.644 367.753 L 226.502 367.753 L 226.502 371.588 L 225.101 371.588 L 225.101 361.594 Z M 227.746 362.77 L 226.502 362.77 L 226.502 366.57 L 227.493 366.57 Q 228.362 366.57 228.949 366.376 Q 229.537 366.181 229.838 365.75 Q 230.139 365.319 230.139 364.615 Q 230.139 363.686 229.558 363.228 Q 228.977 362.77 227.746 362.77 Z" style="white-space: pre;"/>
        <path d="M 236.315 363.925 Q 237.71 363.925 238.4 364.544 Q 239.09 365.162 239.09 366.495 L 239.09 371.588 L 238.106 371.588 L 237.839 370.494 L 237.785 370.494 Q 237.47 370.904 237.129 371.178 Q 236.787 371.451 236.339 371.588 Q 235.891 371.725 235.249 371.725 Q 234.565 371.725 234.032 371.479 Q 233.499 371.233 233.194 370.737 Q 232.89 370.241 232.89 369.476 Q 232.89 368.327 233.772 367.733 Q 234.654 367.138 236.445 367.083 L 237.744 367.028 L 237.744 366.605 Q 237.744 365.723 237.351 365.36 Q 236.958 364.998 236.254 364.998 Q 235.672 364.998 235.139 365.166 Q 234.606 365.333 234.114 365.566 L 233.676 364.568 Q 234.21 364.294 234.89 364.109 Q 235.57 363.925 236.315 363.925 Z M 237.73 367.931 L 236.677 367.979 Q 235.372 368.026 234.842 368.413 Q 234.312 368.799 234.312 369.489 Q 234.312 370.091 234.674 370.371 Q 235.037 370.651 235.631 370.651 Q 236.547 370.651 237.139 370.135 Q 237.73 369.619 237.73 368.608 Z" style="white-space: pre;"/>
        <path d="M 240.228 364.055 L 241.712 364.055 L 243.311 368.396 Q 243.434 368.731 243.54 369.048 Q 243.646 369.366 243.725 369.664 Q 243.804 369.961 243.851 370.248 L 243.899 370.248 Q 243.981 369.9 244.132 369.401 Q 244.282 368.901 244.46 368.389 L 245.991 364.055 L 247.468 364.055 L 244.214 372.654 Q 243.947 373.372 243.568 373.888 Q 243.188 374.404 242.669 374.681 Q 242.149 374.958 241.438 374.958 Q 241.11 374.958 240.861 374.921 Q 240.611 374.883 240.434 374.835 L 240.434 373.741 Q 240.584 373.776 240.799 373.803 Q 241.015 373.83 241.247 373.83 Q 241.678 373.83 241.989 373.663 Q 242.3 373.495 242.522 373.188 Q 242.744 372.88 242.894 372.47 L 243.236 371.581 Z" style="white-space: pre;"/>
        <path d="M 251.498 366.379 L 254.014 361.594 L 255.518 361.594 L 252.195 367.705 L 252.195 371.588 L 250.794 371.588 L 250.794 367.767 L 247.465 361.594 L 248.996 361.594 Z" style="white-space: pre;"/>
        <path d="M 263.264 367.808 Q 263.264 368.737 263.021 369.465 Q 262.779 370.193 262.317 370.696 Q 261.856 371.198 261.207 371.462 Q 260.557 371.725 259.737 371.725 Q 258.971 371.725 258.332 371.462 Q 257.693 371.198 257.228 370.696 Q 256.763 370.193 256.51 369.465 Q 256.257 368.737 256.257 367.808 Q 256.257 366.57 256.681 365.699 Q 257.105 364.827 257.895 364.373 Q 258.684 363.918 259.778 363.918 Q 260.817 363.918 261.603 364.376 Q 262.389 364.834 262.827 365.702 Q 263.264 366.57 263.264 367.808 Z M 257.666 367.808 Q 257.666 368.676 257.888 369.301 Q 258.11 369.927 258.571 370.262 Q 259.033 370.597 259.764 370.597 Q 260.482 370.597 260.947 370.262 Q 261.412 369.927 261.63 369.301 Q 261.849 368.676 261.849 367.808 Q 261.849 366.946 261.63 366.331 Q 261.412 365.716 260.95 365.388 Q 260.489 365.06 259.75 365.06 Q 258.67 365.06 258.168 365.781 Q 257.666 366.502 257.666 367.808 Z" style="white-space: pre;"/>
        <path d="M 271.549 364.055 L 271.549 371.588 L 270.448 371.588 L 270.257 370.556 L 270.181 370.556 Q 269.949 370.945 269.58 371.205 Q 269.211 371.465 268.753 371.595 Q 268.295 371.725 267.782 371.725 Q 266.914 371.725 266.309 371.438 Q 265.704 371.151 265.393 370.546 Q 265.082 369.941 265.082 368.984 L 265.082 364.055 L 266.463 364.055 L 266.463 368.792 Q 266.463 369.701 266.856 370.152 Q 267.249 370.604 268.055 370.604 Q 268.842 370.604 269.303 370.293 Q 269.764 369.982 269.966 369.383 Q 270.168 368.785 270.168 367.917 L 270.168 364.055 Z" style="white-space: pre;"/>
        <path d="M 274.056 371.588 L 274.056 361.594 L 275.457 361.594 L 275.457 370.371 L 279.798 370.371 L 279.798 371.588 Z" style="white-space: pre;"/>
        <path d="M 282.712 364.055 L 282.712 371.588 L 281.338 371.588 L 281.338 364.055 Z M 282.036 361.204 Q 282.364 361.204 282.6 361.396 Q 282.835 361.587 282.835 362.018 Q 282.835 362.448 282.6 362.643 Q 282.364 362.838 282.036 362.838 Q 281.701 362.838 281.472 362.643 Q 281.243 362.448 281.243 362.018 Q 281.243 361.587 281.472 361.396 Q 281.701 361.204 282.036 361.204 Z" style="white-space: pre;"/>
        <path d="M 287.682 370.61 Q 287.976 370.61 288.277 370.559 Q 288.578 370.508 288.796 370.426 L 288.796 371.479 Q 288.564 371.581 288.178 371.653 Q 287.792 371.725 287.388 371.725 Q 286.773 371.725 286.274 371.513 Q 285.775 371.301 285.478 370.788 Q 285.18 370.276 285.18 369.366 L 285.18 365.114 L 284.134 365.114 L 284.134 364.479 L 285.228 363.973 L 285.713 362.346 L 286.561 362.346 L 286.561 364.055 L 288.742 364.055 L 288.742 365.114 L 286.561 365.114 L 286.561 369.346 Q 286.561 369.982 286.865 370.296 Q 287.169 370.61 287.682 370.61 Z" style="white-space: pre;"/>
        <path d="M 292.948 370.61 Q 293.242 370.61 293.543 370.559 Q 293.844 370.508 294.062 370.426 L 294.062 371.479 Q 293.83 371.581 293.444 371.653 Q 293.057 371.725 292.654 371.725 Q 292.039 371.725 291.54 371.513 Q 291.041 371.301 290.743 370.788 Q 290.446 370.276 290.446 369.366 L 290.446 365.114 L 289.4 365.114 L 289.4 364.479 L 290.494 363.973 L 290.979 362.346 L 291.827 362.346 L 291.827 364.055 L 294.008 364.055 L 294.008 365.114 L 291.827 365.114 L 291.827 369.346 Q 291.827 369.982 292.131 370.296 Q 292.435 370.61 292.948 370.61 Z" style="white-space: pre;"/>
        <path d="M 296.954 371.588 L 295.573 371.588 L 295.573 360.951 L 296.954 360.951 Z" style="white-space: pre;"/>
        <path d="M 302.245 363.918 Q 303.23 363.918 303.934 364.339 Q 304.638 364.759 305.014 365.525 Q 305.39 366.29 305.39 367.329 L 305.39 368.109 L 300.276 368.109 Q 300.297 369.318 300.899 369.964 Q 301.5 370.61 302.587 370.61 Q 303.305 370.61 303.865 370.474 Q 304.426 370.337 305.027 370.07 L 305.027 371.226 Q 304.46 371.485 303.889 371.605 Q 303.318 371.725 302.526 371.725 Q 301.432 371.725 300.608 371.287 Q 299.784 370.85 299.326 369.992 Q 298.868 369.134 298.868 367.876 Q 298.868 366.632 299.285 365.747 Q 299.702 364.861 300.461 364.39 Q 301.22 363.918 302.245 363.918 Z M 302.238 364.984 Q 301.404 364.984 300.899 365.528 Q 300.393 366.071 300.304 367.083 L 304.009 367.083 Q 304.002 366.461 303.811 365.989 Q 303.619 365.518 303.233 365.251 Q 302.847 364.984 302.238 364.984 Z" style="white-space: pre;"/>
        <path d="M 311.057 371.588 L 311.057 361.594 L 312.459 361.594 L 312.459 371.588 Z" style="white-space: pre;"/>
        <path d="M 318.726 363.918 Q 320.032 363.918 320.733 364.574 Q 321.433 365.231 321.433 366.68 L 321.433 371.588 L 320.073 371.588 L 320.073 366.864 Q 320.073 365.962 319.676 365.507 Q 319.28 365.053 318.46 365.053 Q 317.291 365.053 316.822 365.743 Q 316.354 366.434 316.354 367.746 L 316.354 371.588 L 314.98 371.588 L 314.98 364.055 L 316.067 364.055 L 316.265 365.114 L 316.341 365.114 Q 316.58 364.718 316.949 364.451 Q 317.318 364.185 317.773 364.051 Q 318.227 363.918 318.726 363.918 Z" style="white-space: pre;"/>
        <path d="M 326.743 371.725 Q 325.704 371.725 324.925 371.308 Q 324.146 370.891 323.718 370.033 Q 323.291 369.175 323.291 367.862 Q 323.291 366.495 323.749 365.624 Q 324.207 364.752 325.017 364.335 Q 325.827 363.918 326.873 363.918 Q 327.488 363.918 328.025 364.041 Q 328.562 364.164 328.924 364.349 L 328.514 365.463 Q 328.131 365.313 327.69 365.196 Q 327.249 365.08 326.853 365.08 Q 326.128 365.08 325.653 365.398 Q 325.178 365.716 324.939 366.331 Q 324.699 366.946 324.699 367.849 Q 324.699 368.724 324.935 369.329 Q 325.171 369.934 325.632 370.248 Q 326.094 370.563 326.784 370.563 Q 327.393 370.563 327.878 370.426 Q 328.363 370.289 328.773 370.077 L 328.773 371.287 Q 328.377 371.506 327.898 371.615 Q 327.42 371.725 326.743 371.725 Z" style="white-space: pre;"/>
        <path d="M 330.345 370.809 Q 330.345 370.289 330.608 370.074 Q 330.871 369.859 331.247 369.859 Q 331.63 369.859 331.897 370.074 Q 332.163 370.289 332.163 370.809 Q 332.163 371.315 331.897 371.547 Q 331.63 371.779 331.247 371.779 Q 330.871 371.779 330.608 371.547 Q 330.345 371.315 330.345 370.809 Z" style="white-space: pre;"/>
        <g transform="matrix(1, 0, 0, 1, -23.606514, 0.821675)">
          <title>Indicator</title>
          <rect style="fill: rgb(128, 128, 128);" x="275.552" y="376.563" width="50.416" height="19.218" rx="9" ry="9">
            <title>Container</title>
          </rect>
          <path d="M 288.205 390.805 L 287.004 390.805 L 287.004 386.85 L 282.78 386.85 L 282.78 390.805 L 281.578 390.805 L 281.578 382.239 L 282.78 382.239 L 282.78 385.813 L 287.004 385.813 L 287.004 382.239 L 288.205 382.239 Z" style="fill: rgb(255, 255, 255); white-space: pre;"/>
          <path d="M 291.532 384.348 L 291.532 390.805 L 290.354 390.805 L 290.354 384.348 Z M 290.952 381.905 Q 291.233 381.905 291.435 382.069 Q 291.637 382.233 291.637 382.602 Q 291.637 382.971 291.435 383.138 Q 291.233 383.305 290.952 383.305 Q 290.665 383.305 290.468 383.138 Q 290.272 382.971 290.272 382.602 Q 290.272 382.233 290.468 382.069 Q 290.665 381.905 290.952 381.905 Z" style="fill: rgb(255, 255, 255); white-space: pre;"/>
          <path d="M 295.759 390.922 Q 294.575 390.922 293.869 390.084 Q 293.163 389.246 293.163 387.6 Q 293.163 385.936 293.881 385.083 Q 294.598 384.231 295.788 384.231 Q 296.286 384.231 296.661 384.366 Q 297.036 384.5 297.308 384.723 Q 297.581 384.946 297.762 385.227 L 297.833 385.227 Q 297.803 385.045 297.774 384.717 Q 297.745 384.389 297.745 384.143 L 297.745 381.688 L 298.923 381.688 L 298.923 390.805 L 297.991 390.805 L 297.798 389.909 L 297.745 389.909 Q 297.569 390.19 297.297 390.421 Q 297.024 390.653 296.646 390.787 Q 296.268 390.922 295.759 390.922 Z M 296.034 389.961 Q 296.989 389.961 297.385 389.41 Q 297.78 388.86 297.786 387.776 L 297.786 387.594 Q 297.786 386.44 297.408 385.822 Q 297.03 385.203 296.022 385.203 Q 295.202 385.203 294.786 385.845 Q 294.37 386.487 294.37 387.623 Q 294.37 388.748 294.786 389.355 Q 295.202 389.961 296.034 389.961 Z" style="fill: rgb(255, 255, 255); white-space: pre;"/>
          <path d="M 303.165 390.922 Q 301.982 390.922 301.275 390.084 Q 300.569 389.246 300.569 387.6 Q 300.569 385.936 301.287 385.083 Q 302.005 384.231 303.194 384.231 Q 303.692 384.231 304.067 384.366 Q 304.442 384.5 304.715 384.723 Q 304.987 384.946 305.169 385.227 L 305.239 385.227 Q 305.21 385.045 305.181 384.717 Q 305.151 384.389 305.151 384.143 L 305.151 381.688 L 306.329 381.688 L 306.329 390.805 L 305.398 390.805 L 305.204 389.909 L 305.151 389.909 Q 304.976 390.19 304.703 390.421 Q 304.431 390.653 304.053 390.787 Q 303.675 390.922 303.165 390.922 Z M 303.44 389.961 Q 304.396 389.961 304.791 389.41 Q 305.187 388.86 305.192 387.776 L 305.192 387.594 Q 305.192 386.44 304.815 385.822 Q 304.437 385.203 303.429 385.203 Q 302.608 385.203 302.192 385.845 Q 301.776 386.487 301.776 387.623 Q 301.776 388.748 302.192 389.355 Q 302.608 389.961 303.44 389.961 Z" style="fill: rgb(255, 255, 255); white-space: pre;"/>
          <path d="M 310.87 384.231 Q 311.714 384.231 312.318 384.591 Q 312.921 384.951 313.243 385.608 Q 313.566 386.264 313.566 387.155 L 313.566 387.823 L 309.183 387.823 Q 309.201 388.86 309.716 389.413 Q 310.232 389.967 311.163 389.967 Q 311.779 389.967 312.259 389.85 Q 312.74 389.733 313.255 389.504 L 313.255 390.494 Q 312.769 390.717 312.28 390.82 Q 311.79 390.922 311.111 390.922 Q 310.173 390.922 309.467 390.547 Q 308.761 390.172 308.368 389.437 Q 307.976 388.701 307.976 387.623 Q 307.976 386.557 308.333 385.798 Q 308.691 385.039 309.341 384.635 Q 309.992 384.231 310.87 384.231 Z M 310.865 385.145 Q 310.15 385.145 309.716 385.611 Q 309.283 386.076 309.206 386.944 L 312.382 386.944 Q 312.376 386.41 312.212 386.006 Q 312.048 385.602 311.717 385.373 Q 311.386 385.145 310.865 385.145 Z" style="fill: rgb(255, 255, 255); white-space: pre;"/>
          <path d="M 318.363 384.231 Q 319.482 384.231 320.083 384.793 Q 320.683 385.356 320.683 386.598 L 320.683 390.805 L 319.517 390.805 L 319.517 386.756 Q 319.517 385.983 319.177 385.593 Q 318.838 385.203 318.134 385.203 Q 317.132 385.203 316.731 385.795 Q 316.33 386.387 316.33 387.512 L 316.33 390.805 L 315.152 390.805 L 315.152 384.348 L 316.084 384.348 L 316.254 385.256 L 316.318 385.256 Q 316.523 384.916 316.839 384.688 Q 317.156 384.459 317.546 384.345 Q 317.935 384.231 318.363 384.231 Z" style="fill: rgb(255, 255, 255); white-space: pre;"/>
        </g>
      </g>
    </g>
    <g transform="matrix(1, 0, 0, 1, 443.96106, -3)">
      <title>Clicking Cursor</title>
      <path d="M 566.004 509.676 L 568.496 515.45 L 573.903 512.244 L 572.527 518.381 L 578.785 518.968 L 574.067 523.124 L 578.785 527.28 L 572.527 527.867 L 573.903 534.004 L 568.496 530.798 L 566.004 536.572 L 563.512 530.798 L 558.105 534.004 L 559.481 527.867 L 553.223 527.28 L 557.941 523.124 L 553.223 518.968 L 559.481 518.381 L 558.105 512.244 L 563.512 515.45 Z" style="stroke-width: 2px; fill: rgb(255, 255, 0); stroke: rgb(255, 128, 0);">
        <title>Click</title>
      </path>
      <g transform="matrix(2.541284, 0, 0, 2.541284, 550.954773, 521.297974)" style="filter: url(#drop-shadow-filter-0);">
        <title>Cursor</title>
        <g transform="matrix(.23944 0 0 .23944 94.337 75.208)">
          <path d="m-368.99-226.1v-9h-4v-8h-4v-8h-4v-9h-5v-4h-4v-8h9v4h4v12h4v-54h8v38h4v-17h9v17h4v-13h8v17h4v-13h5v5h4v29h-4v12h-5v9h-33z" fill="#fefefe" style=""/>
          <path d="m-372.99-222.1v-13h-4v-8h-4v-8h-5v-9h-4v-4h-4v-12h13v4h4v-38h4v-4h8v4h4v17h9v4h12v4h9v4h4v5h4v29h-4v12h-4v13h-42zm37-4v-9h5v-12h4v-29h-4v-5h-5v13h-4v-17h-8v13h-4v-17h-9v17h-4v-38h-8v54h-4v-12h-4v-4h-9v8h4v4h5v9h4v8h4v8h4v9h33z" style=""/>
        </g>
      </g>
    </g>
  </g>
</svg>