<?xml version="1.0" encoding="utf-8"?>
<svg viewBox="0 0 1280 800" xmlns="http://www.w3.org/2000/svg">
  <defs>
    <filter id="outline-filter-2" color-interpolation-filters="sRGB" x="-500%" y="-500%" width="1000%" height="1000%">
      <feMorphology in="SourceAlpha" result="dilated" operator="dilate" radius="1"/>
      <feFlood flood-color="rgba(0,0,0,1)" result="flood"/>
      <feComposite in="flood" in2="dilated" operator="in" result="outline"/>
      <feMerge>
        <feMergeNode in="outline"/>
        <feMergeNode in="SourceGraphic"/>
      </feMerge>
    </filter>
    <filter id="outline-filter-1" color-interpolation-filters="sRGB" x="-500%" y="-500%" width="1000%" height="1000%">
      <feMorphology in="SourceAlpha" result="dilated" operator="dilate" radius="0"/>
      <feFlood flood-color="rgba(255,255,255,1)" result="flood"/>
      <feComposite in="flood" in2="dilated" operator="in" result="outline"/>
      <feMerge>
        <feMergeNode in="outline"/>
        <feMergeNode in="SourceGraphic"/>
      </feMerge>
    </filter>
    <mask id="mask-2">
      <polygon style="fill: rgb(255, 255, 255);" points="91 -41 -44 -41 -44 94">
        <title>briefcase-2-mask</title>
      </polygon>
    </mask>
    <clipPath id="clip-5">
      <path style="stroke-width: 3px; fill: rgb(255, 255, 0); stroke: rgb(0, 0, 0); stroke-opacity: 0; stroke-linejoin: round; stroke-linecap: round; pointer-events: none;" d="M 214.768 255.253 C 208.387 241.371 147.803 231.913 146.804 234.787 C 122.672 296.86 217.521 311.741 214.768 255.253 Z">
        <title>Left Eye Clip</title>
      </path>
    </clipPath>
    <clipPath id="clip-6">
      <path style="stroke-width: 3px; fill: rgb(255, 255, 0); stroke: rgb(0, 0, 0); stroke-opacity: 0; stroke-linejoin: round; stroke-linecap: round; pointer-events: none;" d="M 285.049 249.847 L 333.339 223.346 C 388.849 270.474 281.291 335.727 285.049 249.847 Z">
        <title>Right Eye Clip</title>
      </path>
    </clipPath>
    <mask id="mask-3">
      <polygon style="fill: rgb(255, 255, 255);" points="-44 94 91 94 91 -41">
        <title>briefcase-3-mask</title>
      </polygon>
    </mask>
    <filter id="saturate-filter-0" color-interpolation-filters="sRGB" x="-500%" y="-500%" width="1000%" height="1000%">
      <feColorMatrix type="saturate" values="0"/>
    </filter>
    <clipPath id="clip-7">
      <path style="stroke-width: 3px; fill: rgb(255, 255, 0); stroke: rgb(0, 0, 0); stroke-opacity: 0; stroke-linejoin: round; stroke-linecap: round; pointer-events: none;" d="M 214.768 255.253 C 208.387 241.371 147.803 231.913 146.804 234.787 C 122.672 296.86 217.521 311.741 214.768 255.253 Z">
        <title>Left Eye Clip</title>
      </path>
    </clipPath>
    <clipPath id="clip-8">
      <path style="stroke-width: 3px; fill: rgb(255, 255, 0); stroke: rgb(0, 0, 0); stroke-opacity: 0; stroke-linejoin: round; stroke-linecap: round; pointer-events: none;" d="M 285.049 249.847 L 333.339 223.346 C 388.849 270.474 281.291 335.727 285.049 249.847 Z">
        <title>Right Eye Clip</title>
      </path>
    </clipPath>
    <filter id="outline-filter-0" color-interpolation-filters="sRGB" x="-500%" y="-500%" width="1000%" height="1000%">
      <feMorphology in="SourceAlpha" result="dilated" operator="dilate" radius="10"/>
      <feFlood flood-color="rgba(0,0,0,1)" result="flood"/>
      <feComposite in="flood" in2="dilated" operator="in" result="outline"/>
      <feMerge>
        <feMergeNode in="outline"/>
        <feMergeNode in="SourceGraphic"/>
      </feMerge>
    </filter>
    <filter id="filter-1" color-interpolation-filters="sRGB" x="-500%" y="-500%" width="1000%" height="1000%">
      <feMorphology in="SourceAlpha" result="dilated" operator="dilate" radius="0"/>
      <feFlood flood-color="rgba(255,255,255,1)" result="flood"/>
      <feComposite in="flood" in2="dilated" operator="in" result="outline"/>
      <feMerge>
        <feMergeNode in="outline"/>
        <feMergeNode in="SourceGraphic"/>
      </feMerge>
    </filter>
    <mask id="mask-1">
      <polygon style="fill: rgb(255, 255, 255);" points="91 -41 -44 -41 -44 94">
        <title>briefcase-2-mask</title>
      </polygon>
    </mask>
    <clipPath id="clip-1">
      <path style="stroke-width: 3px; fill: rgb(255, 255, 0); stroke: rgb(0, 0, 0); stroke-opacity: 0; stroke-linejoin: round; stroke-linecap: round; pointer-events: none;" d="M 214.768 255.253 C 208.387 241.371 147.803 231.913 146.804 234.787 C 122.672 296.86 217.521 311.741 214.768 255.253 Z">
        <title>Left Eye Clip</title>
      </path>
    </clipPath>
    <clipPath id="clip-2">
      <path style="stroke-width: 3px; fill: rgb(255, 255, 0); stroke: rgb(0, 0, 0); stroke-opacity: 0; stroke-linejoin: round; stroke-linecap: round; pointer-events: none;" d="M 285.049 249.847 L 333.339 223.346 C 388.849 270.474 281.291 335.727 285.049 249.847 Z">
        <title>Right Eye Clip</title>
      </path>
    </clipPath>
    <mask id="mask-4">
      <polygon style="fill: rgb(255, 255, 255);" points="-44 94 91 94 91 -41">
        <title>briefcase-3-mask</title>
      </polygon>
    </mask>
    <filter id="filter-2" color-interpolation-filters="sRGB" x="-500%" y="-500%" width="1000%" height="1000%">
      <feColorMatrix type="saturate" values="0"/>
    </filter>
    <clipPath id="clip-3">
      <path style="stroke-width: 3px; fill: rgb(255, 255, 0); stroke: rgb(0, 0, 0); stroke-opacity: 0; stroke-linejoin: round; stroke-linecap: round; pointer-events: none;" d="M 214.768 255.253 C 208.387 241.371 147.803 231.913 146.804 234.787 C 122.672 296.86 217.521 311.741 214.768 255.253 Z">
        <title>Left Eye Clip</title>
      </path>
    </clipPath>
    <clipPath id="clip-4">
      <path style="stroke-width: 3px; fill: rgb(255, 255, 0); stroke: rgb(0, 0, 0); stroke-opacity: 0; stroke-linejoin: round; stroke-linecap: round; pointer-events: none;" d="M 285.049 249.847 L 333.339 223.346 C 388.849 270.474 281.291 335.727 285.049 249.847 Z">
        <title>Right Eye Clip</title>
      </path>
    </clipPath>
    <filter id="drop-shadow-filter-0" color-interpolation-filters="sRGB" x="-500%" y="-500%" width="1000%" height="1000%">
      <feGaussianBlur in="SourceAlpha" stdDeviation="4"/>
      <feOffset dx="0" dy="0"/>
      <feComponentTransfer result="offsetblur">
        <feFuncA id="spread-ctrl" type="linear" slope="2"/>
      </feComponentTransfer>
      <feFlood flood-color="rgba(0,0,0,0.3)"/>
      <feComposite in2="offsetblur" operator="in"/>
      <feMerge>
        <feMergeNode/>
        <feMergeNode in="SourceGraphic"/>
      </feMerge>
    </filter>
  </defs>
  <rect width="1280" height="800" style="">
    <title>Background</title>
  </rect>
  <g>
    <title>Description</title>
    <rect x="640" width="640" height="680" style="fill: none;" y="120">
      <title>Text Box</title>
    </rect>
    <path d="M 527.494 171.605 Q 532.108 171.605 535.123 172.728 Q 538.139 173.851 539.616 176.146 Q 541.093 178.441 541.093 181.981 Q 541.093 184.617 540.116 186.473 Q 539.14 188.328 537.553 189.549 Q 535.966 190.77 534.159 191.502 L 544.291 207.298 L 537.675 207.298 L 529.057 192.991 L 523.319 192.991 L 523.319 207.298 L 517.46 207.298 L 517.46 171.605 Z M 527.103 176.487 L 523.319 176.487 L 523.319 188.157 L 527.372 188.157 Q 531.449 188.157 533.292 186.644 Q 535.136 185.13 535.136 182.176 Q 535.136 179.075 533.17 177.781 Q 531.205 176.487 527.103 176.487 Z" transform="matrix(1, 0, 0, 1, 254.086914, 234.617432)" style="fill: rgb(255, 255, 255); white-space: pre;"/>
    <path d="M 559.562 179.759 Q 563.176 179.759 565.764 181.248 Q 568.351 182.737 569.743 185.472 Q 571.135 188.206 571.135 192.015 L 571.135 195.091 L 553.093 195.091 Q 553.19 199.022 555.204 201.146 Q 557.219 203.27 560.856 203.27 Q 563.444 203.27 565.507 202.769 Q 567.57 202.269 569.767 201.292 L 569.767 205.955 Q 567.741 206.907 565.641 207.347 Q 563.542 207.786 560.612 207.786 Q 556.633 207.786 553.618 206.236 Q 550.602 204.686 548.906 201.61 Q 547.209 198.533 547.209 193.968 Q 547.209 189.427 548.747 186.253 Q 550.285 183.079 553.068 181.419 Q 555.851 179.759 559.562 179.759 Z M 559.562 184.08 Q 556.852 184.08 555.18 185.838 Q 553.508 187.596 553.215 190.989 L 565.519 190.989 Q 565.495 188.963 564.848 187.401 Q 564.201 185.838 562.895 184.959 Q 561.589 184.08 559.562 184.08 Z" transform="matrix(1, 0, 0, 1, 254.086914, 234.617432)" style="fill: rgb(255, 255, 255); white-space: pre;"/>
    <path d="M 595.772 199.583 Q 595.772 202.244 594.478 204.075 Q 593.184 205.906 590.706 206.846 Q 588.228 207.786 584.64 207.786 Q 581.807 207.786 579.769 207.383 Q 577.73 206.981 575.924 206.151 L 575.924 201.194 Q 577.852 202.098 580.257 202.757 Q 582.662 203.416 584.81 203.416 Q 587.642 203.416 588.888 202.525 Q 590.133 201.634 590.133 200.145 Q 590.133 199.266 589.632 198.57 Q 589.132 197.874 587.777 197.13 Q 586.422 196.385 583.809 195.335 Q 581.246 194.31 579.488 193.284 Q 577.73 192.259 576.827 190.806 Q 575.924 189.354 575.924 187.083 Q 575.924 183.494 578.768 181.627 Q 581.612 179.759 586.3 179.759 Q 588.79 179.759 590.999 180.259 Q 593.209 180.76 595.333 181.712 L 593.526 186.033 Q 591.695 185.228 589.852 184.703 Q 588.009 184.178 586.104 184.178 Q 583.883 184.178 582.723 184.861 Q 581.563 185.545 581.563 186.815 Q 581.563 187.767 582.125 188.426 Q 582.686 189.085 584.066 189.744 Q 585.445 190.403 587.911 191.38 Q 590.328 192.308 592.098 193.321 Q 593.868 194.334 594.82 195.799 Q 595.772 197.264 595.772 199.583 Z" transform="matrix(1, 0, 0, 1, 254.086914, 234.617432)" style="fill: rgb(255, 255, 255); white-space: pre;"/>
    <path d="M 612.719 179.759 Q 616.332 179.759 618.92 181.248 Q 621.508 182.737 622.899 185.472 Q 624.291 188.206 624.291 192.015 L 624.291 195.091 L 606.249 195.091 Q 606.347 199.022 608.361 201.146 Q 610.375 203.27 614.013 203.27 Q 616.6 203.27 618.663 202.769 Q 620.726 202.269 622.924 201.292 L 622.924 205.955 Q 620.897 206.907 618.798 207.347 Q 616.698 207.786 613.768 207.786 Q 609.789 207.786 606.774 206.236 Q 603.759 204.686 602.062 201.61 Q 600.365 198.533 600.365 193.968 Q 600.365 189.427 601.903 186.253 Q 603.441 183.079 606.224 181.419 Q 609.008 179.759 612.719 179.759 Z M 612.719 184.08 Q 610.009 184.08 608.336 185.838 Q 606.664 187.596 606.371 190.989 L 618.676 190.989 Q 618.651 188.963 618.004 187.401 Q 617.357 185.838 616.051 184.959 Q 614.745 184.08 612.719 184.08 Z" transform="matrix(1, 0, 0, 1, 254.086914, 234.617432)" style="fill: rgb(255, 255, 255); white-space: pre;"/>
    <path d="M 640.823 203.148 Q 641.946 203.148 643.045 202.94 Q 644.143 202.733 645.047 202.44 L 645.047 206.785 Q 644.095 207.2 642.581 207.493 Q 641.067 207.786 639.432 207.786 Q 637.137 207.786 635.306 207.017 Q 633.474 206.248 632.4 204.368 Q 631.326 202.488 631.326 199.168 L 631.326 184.642 L 627.64 184.642 L 627.64 182.078 L 631.595 180.052 L 633.474 174.266 L 637.088 174.266 L 637.088 180.272 L 644.827 180.272 L 644.827 184.642 L 637.088 184.642 L 637.088 199.095 Q 637.088 201.146 638.113 202.147 Q 639.139 203.148 640.823 203.148 Z" transform="matrix(1, 0, 0, 1, 254.086914, 234.617432)" style="fill: rgb(255, 255, 255); white-space: pre;"/>
    <path d="M 674.11 179.759 Q 679.237 179.759 681.862 182.029 Q 684.486 184.3 684.486 189.11 L 684.486 207.298 L 680.409 207.298 L 679.31 203.465 L 679.115 203.465 Q 677.968 204.93 676.747 205.882 Q 675.526 206.834 673.927 207.31 Q 672.328 207.786 670.033 207.786 Q 667.616 207.786 665.712 206.895 Q 663.807 206.004 662.709 204.173 Q 661.61 202.342 661.61 199.534 Q 661.61 195.36 664.723 193.26 Q 667.836 191.16 674.135 190.941 L 678.822 190.77 L 678.822 189.354 Q 678.822 186.546 677.516 185.35 Q 676.21 184.153 673.842 184.153 Q 671.815 184.153 669.911 184.739 Q 668.007 185.325 666.2 186.18 L 664.345 182.127 Q 666.322 181.077 668.849 180.418 Q 671.376 179.759 674.11 179.759 Z M 678.798 194.383 L 675.307 194.505 Q 671.01 194.652 669.276 195.97 Q 667.543 197.288 667.543 199.583 Q 667.543 201.585 668.739 202.501 Q 669.935 203.416 671.889 203.416 Q 674.867 203.416 676.832 201.719 Q 678.798 200.023 678.798 196.727 Z" transform="matrix(1, 0, 0, 1, 254.086914, 234.617432)" style="fill: rgb(255, 255, 255); white-space: pre;"/>
    <path d="M 698.292 207.298 L 692.53 207.298 L 692.53 169.31 L 698.292 169.31 Z" transform="matrix(1, 0, 0, 1, 254.086914, 234.617432)" style="fill: rgb(255, 255, 255); white-space: pre;"/>
    <path d="M 712.229 207.298 L 706.468 207.298 L 706.468 169.31 L 712.229 169.31 Z" transform="matrix(1, 0, 0, 1, 254.086914, 234.617432)" style="fill: rgb(255, 255, 255); white-space: pre;"/>
    <path d="M 739.151 207.298 L 733.39 207.298 L 733.39 169.31 L 739.151 169.31 Z" transform="matrix(1, 0, 0, 1, 254.086914, 234.617432)" style="fill: rgb(255, 255, 255); white-space: pre;"/>
    <path d="M 753.08 180.272 L 753.08 207.298 L 747.343 207.298 L 747.343 180.272 Z M 750.248 169.92 Q 751.566 169.92 752.531 170.628 Q 753.495 171.336 753.495 173.069 Q 753.495 174.778 752.531 175.499 Q 751.566 176.219 750.248 176.219 Q 748.881 176.219 747.941 175.499 Q 747.001 174.778 747.001 173.069 Q 747.001 171.336 747.941 170.628 Q 748.881 169.92 750.248 169.92 Z" transform="matrix(1, 0, 0, 1, 254.086914, 234.617432)" style="fill: rgb(255, 255, 255); white-space: pre;"/>
    <path d="M 779.444 199.583 Q 779.444 202.244 778.15 204.075 Q 776.856 205.906 774.378 206.846 Q 771.9 207.786 768.311 207.786 Q 765.479 207.786 763.441 207.383 Q 761.402 206.981 759.596 206.151 L 759.596 201.194 Q 761.524 202.098 763.929 202.757 Q 766.334 203.416 768.482 203.416 Q 771.314 203.416 772.559 202.525 Q 773.805 201.634 773.805 200.145 Q 773.805 199.266 773.304 198.57 Q 772.804 197.874 771.449 197.13 Q 770.094 196.385 767.481 195.335 Q 764.918 194.31 763.16 193.284 Q 761.402 192.259 760.499 190.806 Q 759.596 189.354 759.596 187.083 Q 759.596 183.494 762.44 181.627 Q 765.284 179.759 769.972 179.759 Q 772.462 179.759 774.671 180.259 Q 776.881 180.76 779.005 181.712 L 777.198 186.033 Q 775.367 185.228 773.524 184.703 Q 771.681 184.178 769.776 184.178 Q 767.555 184.178 766.395 184.861 Q 765.235 185.545 765.235 186.815 Q 765.235 187.767 765.797 188.426 Q 766.358 189.085 767.738 189.744 Q 769.117 190.403 771.583 191.38 Q 774 192.308 775.77 193.321 Q 777.54 194.334 778.492 195.799 Q 779.444 197.264 779.444 199.583 Z" transform="matrix(1, 0, 0, 1, 254.086914, 234.617432)" style="fill: rgb(255, 255, 255); white-space: pre;"/>
    <path d="M 795.682 203.148 Q 796.806 203.148 797.904 202.94 Q 799.003 202.733 799.906 202.44 L 799.906 206.785 Q 798.954 207.2 797.44 207.493 Q 795.927 207.786 794.291 207.786 Q 791.996 207.786 790.165 207.017 Q 788.334 206.248 787.26 204.368 Q 786.185 202.488 786.185 199.168 L 786.185 184.642 L 782.499 184.642 L 782.499 182.078 L 786.454 180.052 L 788.334 174.266 L 791.947 174.266 L 791.947 180.272 L 799.686 180.272 L 799.686 184.642 L 791.947 184.642 L 791.947 199.095 Q 791.947 201.146 792.973 202.147 Q 793.998 203.148 795.682 203.148 Z" transform="matrix(1, 0, 0, 1, 254.086914, 234.617432)" style="fill: rgb(255, 255, 255); white-space: pre;"/>
    <path d="M 811.127 180.272 L 811.127 207.298 L 805.39 207.298 L 805.39 180.272 Z M 808.295 169.92 Q 809.613 169.92 810.578 170.628 Q 811.542 171.336 811.542 173.069 Q 811.542 174.778 810.578 175.499 Q 809.613 176.219 808.295 176.219 Q 806.928 176.219 805.988 175.499 Q 805.048 174.778 805.048 173.069 Q 805.048 171.336 805.988 170.628 Q 806.928 169.92 808.295 169.92 Z" transform="matrix(1, 0, 0, 1, 254.086914, 234.617432)" style="fill: rgb(255, 255, 255); white-space: pre;"/>
    <path d="M 833.414 179.759 Q 837.979 179.759 840.531 182.115 Q 843.082 184.471 843.082 189.671 L 843.082 207.298 L 837.345 207.298 L 837.345 190.745 Q 837.345 187.596 836.051 186.021 Q 834.757 184.446 832.047 184.446 Q 828.116 184.446 826.59 186.863 Q 825.064 189.28 825.064 193.87 L 825.064 207.298 L 819.327 207.298 L 819.327 180.272 L 823.795 180.272 L 824.6 183.934 L 824.918 183.934 Q 825.797 182.518 827.103 181.602 Q 828.409 180.687 830.033 180.223 Q 831.656 179.759 833.414 179.759 Z" transform="matrix(1, 0, 0, 1, 254.086914, 234.617432)" style="fill: rgb(255, 255, 255); white-space: pre;"/>
    <path d="M 858.807 219.31 Q 853.314 219.31 850.385 217.332 Q 847.455 215.355 847.455 211.79 Q 847.455 209.3 849.017 207.579 Q 850.58 205.858 853.485 205.198 Q 852.387 204.71 851.593 203.673 Q 850.8 202.635 850.8 201.365 Q 850.8 199.852 851.654 198.777 Q 852.509 197.703 854.218 196.702 Q 852.094 195.799 850.812 193.76 Q 849.53 191.722 849.53 188.963 Q 849.53 186.033 850.775 183.97 Q 852.02 181.907 854.413 180.821 Q 856.806 179.735 860.199 179.735 Q 860.932 179.735 861.798 179.82 Q 862.665 179.905 863.41 180.015 Q 864.154 180.125 864.545 180.247 L 873.895 180.247 L 873.895 183.445 L 869.306 184.3 Q 869.965 185.228 870.355 186.412 Q 870.746 187.596 870.746 188.987 Q 870.746 193.187 867.853 195.591 Q 864.96 197.996 859.882 197.996 Q 858.661 197.947 857.514 197.801 Q 856.635 198.338 856.171 198.985 Q 855.707 199.632 855.707 200.438 Q 855.707 201.097 856.171 201.5 Q 856.635 201.902 857.55 202.098 Q 858.466 202.293 859.784 202.293 L 864.447 202.293 Q 868.891 202.293 871.234 204.173 Q 873.578 206.053 873.578 209.691 Q 873.578 214.305 869.769 216.807 Q 865.961 219.31 858.807 219.31 Z M 859.027 215.281 Q 862.03 215.281 864.081 214.695 Q 866.132 214.11 867.182 213.023 Q 868.231 211.937 868.231 210.447 Q 868.231 209.129 867.572 208.421 Q 866.913 207.713 865.595 207.444 Q 864.276 207.176 862.323 207.176 L 858.075 207.176 Q 856.488 207.176 855.267 207.676 Q 854.047 208.177 853.375 209.129 Q 852.704 210.081 852.704 211.424 Q 852.704 213.279 854.352 214.28 Q 856 215.281 859.027 215.281 Z M 860.15 194.236 Q 862.665 194.236 863.886 192.857 Q 865.106 191.478 865.106 188.963 Q 865.106 186.229 863.849 184.861 Q 862.592 183.494 860.126 183.494 Q 857.709 183.494 856.452 184.886 Q 855.194 186.277 855.194 189.012 Q 855.194 191.478 856.452 192.857 Q 857.709 194.236 860.15 194.236 Z" transform="matrix(1, 0, 0, 1, 254.086914, 234.617432)" style="fill: rgb(255, 255, 255); white-space: pre;"/>
    <path d="M 896.975 199.583 Q 896.975 202.244 895.682 204.075 Q 894.388 205.906 891.91 206.846 Q 889.432 207.786 885.843 207.786 Q 883.011 207.786 880.972 207.383 Q 878.933 206.981 877.127 206.151 L 877.127 201.194 Q 879.056 202.098 881.46 202.757 Q 883.865 203.416 886.014 203.416 Q 888.846 203.416 890.091 202.525 Q 891.336 201.634 891.336 200.145 Q 891.336 199.266 890.835 198.57 Q 890.335 197.874 888.98 197.13 Q 887.625 196.385 885.013 195.335 Q 882.449 194.31 880.691 193.284 Q 878.933 192.259 878.03 190.806 Q 877.127 189.354 877.127 187.083 Q 877.127 183.494 879.971 181.627 Q 882.815 179.759 887.503 179.759 Q 889.993 179.759 892.203 180.259 Q 894.412 180.76 896.536 181.712 L 894.729 186.033 Q 892.898 185.228 891.055 184.703 Q 889.212 184.178 887.307 184.178 Q 885.086 184.178 883.926 184.861 Q 882.766 185.545 882.766 186.815 Q 882.766 187.767 883.328 188.426 Q 883.89 189.085 885.269 189.744 Q 886.648 190.403 889.114 191.38 Q 891.531 192.308 893.301 193.321 Q 895.071 194.334 896.023 195.799 Q 896.975 197.264 896.975 199.583 Z" transform="matrix(1, 0, 0, 1, 254.086914, 234.617432)" style="fill: rgb(255, 255, 255); white-space: pre;"/>
    <path d="M 540.148 282.274 L 536.73 269.7 Q 536.486 268.773 536.144 267.454 Q 535.803 266.136 535.461 264.732 Q 535.119 263.328 534.838 262.132 Q 534.557 260.936 534.411 260.277 L 534.216 260.277 Q 534.094 260.936 533.825 262.132 Q 533.557 263.328 533.215 264.744 Q 532.873 266.16 532.543 267.503 Q 532.214 268.846 531.945 269.798 L 528.356 282.274 L 522.057 282.274 L 514.489 255.247 L 520.3 255.247 L 523.815 268.675 Q 524.157 270.042 524.487 271.629 Q 524.816 273.216 525.06 274.656 Q 525.305 276.097 525.427 277.025 L 525.622 277.025 Q 525.72 276.365 525.891 275.352 Q 526.061 274.339 526.281 273.228 Q 526.501 272.117 526.721 271.129 Q 526.94 270.14 527.136 269.529 L 531.286 255.247 L 537.56 255.247 L 541.54 269.529 Q 541.808 270.457 542.126 271.861 Q 542.443 273.265 542.7 274.669 Q 542.956 276.072 543.029 277 L 543.224 277 Q 543.322 276.17 543.578 274.742 Q 543.835 273.314 544.177 271.69 Q 544.518 270.067 544.885 268.675 L 548.474 255.247 L 554.186 255.247 L 546.569 282.274 Z" transform="matrix(1, 0, 0, 1, 254.086914, 234.617432)" style="fill: rgb(255, 255, 255); white-space: pre;"/>
    <path d="M 564.557 255.272 L 564.557 282.298 L 558.819 282.298 L 558.819 255.272 Z M 561.724 244.92 Q 563.043 244.92 564.007 245.628 Q 564.972 246.336 564.972 248.069 Q 564.972 249.778 564.007 250.499 Q 563.043 251.219 561.724 251.219 Q 560.357 251.219 559.417 250.499 Q 558.477 249.778 558.477 248.069 Q 558.477 246.336 559.417 245.628 Q 560.357 244.92 561.724 244.92 Z" transform="matrix(1, 0, 0, 1, 254.086914, 234.617432)" style="fill: rgb(255, 255, 255); white-space: pre;"/>
    <path d="M 582.815 278.148 Q 583.938 278.148 585.037 277.94 Q 586.136 277.733 587.039 277.44 L 587.039 281.785 Q 586.087 282.2 584.573 282.493 Q 583.059 282.786 581.424 282.786 Q 579.129 282.786 577.298 282.017 Q 575.467 281.248 574.392 279.368 Q 573.318 277.488 573.318 274.168 L 573.318 259.642 L 569.632 259.642 L 569.632 257.078 L 573.587 255.052 L 575.467 249.266 L 579.08 249.266 L 579.08 255.272 L 586.819 255.272 L 586.819 259.642 L 579.08 259.642 L 579.08 274.095 Q 579.08 276.146 580.105 277.147 Q 581.131 278.148 582.815 278.148 Z" transform="matrix(1, 0, 0, 1, 254.086914, 234.617432)" style="fill: rgb(255, 255, 255); white-space: pre;"/>
    <path d="M 598.275 244.31 L 598.275 253.856 Q 598.275 255.345 598.19 256.761 Q 598.104 258.177 598.007 258.958 L 598.324 258.958 Q 599.179 257.542 600.424 256.627 Q 601.669 255.711 603.219 255.247 Q 604.769 254.783 606.527 254.783 Q 609.628 254.783 611.801 255.821 Q 613.974 256.859 615.133 259.031 Q 616.293 261.204 616.293 264.671 L 616.293 282.298 L 610.556 282.298 L 610.556 265.745 Q 610.556 262.596 609.262 261.021 Q 607.968 259.446 605.258 259.446 Q 602.645 259.446 601.12 260.533 Q 599.594 261.619 598.934 263.731 Q 598.275 265.843 598.275 268.87 L 598.275 282.298 L 592.538 282.298 L 592.538 244.31 Z" transform="matrix(1, 0, 0, 1, 254.086914, 234.617432)" style="fill: rgb(255, 255, 255); white-space: pre;"/>
    <path d="M 634.578 294.31 Q 633.308 294.31 632.161 294.127 Q 631.014 293.944 630.232 293.699 L 630.232 289.11 Q 631.062 289.354 631.844 289.476 Q 632.625 289.598 633.626 289.598 Q 635.213 289.598 636.25 288.719 Q 637.288 287.84 637.288 285.374 L 637.288 255.272 L 643.025 255.272 L 643.025 285.887 Q 643.025 288.353 642.159 290.257 Q 641.292 292.161 639.424 293.236 Q 637.557 294.31 634.578 294.31 Z M 636.946 248.069 Q 636.946 246.336 637.886 245.628 Q 638.826 244.92 640.193 244.92 Q 641.512 244.92 642.476 245.628 Q 643.44 246.336 643.44 248.069 Q 643.44 249.778 642.476 250.499 Q 641.512 251.219 640.193 251.219 Q 638.826 251.219 637.886 250.499 Q 636.946 249.778 636.946 248.069 Z" transform="matrix(1, 0, 0, 1, 254.086914, 234.617432)" style="fill: rgb(255, 255, 255); white-space: pre;"/>
    <path d="M 674.785 255.272 L 674.785 282.298 L 670.268 282.298 L 669.487 278.66 L 669.17 278.66 Q 668.315 280.052 666.997 280.967 Q 665.679 281.883 664.067 282.335 Q 662.456 282.786 660.674 282.786 Q 657.622 282.786 655.461 281.749 Q 653.301 280.711 652.153 278.538 Q 651.006 276.365 651.006 272.923 L 651.006 255.272 L 656.767 255.272 L 656.767 271.849 Q 656.767 274.998 658.049 276.561 Q 659.331 278.123 662.041 278.123 Q 664.653 278.123 666.191 277.049 Q 667.729 275.975 668.376 273.875 Q 669.023 271.776 669.023 268.724 L 669.023 255.272 Z" transform="matrix(1, 0, 0, 1, 254.086914, 234.617432)" style="fill: rgb(255, 255, 255); white-space: pre;"/>
    <path d="M 701.155 274.583 Q 701.155 277.244 699.861 279.075 Q 698.567 280.906 696.089 281.846 Q 693.611 282.786 690.022 282.786 Q 687.19 282.786 685.152 282.383 Q 683.113 281.981 681.307 281.151 L 681.307 276.194 Q 683.235 277.098 685.64 277.757 Q 688.045 278.416 690.193 278.416 Q 693.025 278.416 694.27 277.525 Q 695.516 276.634 695.516 275.145 Q 695.516 274.266 695.015 273.57 Q 694.515 272.874 693.16 272.13 Q 691.805 271.385 689.192 270.335 Q 686.629 269.31 684.871 268.284 Q 683.113 267.259 682.21 265.806 Q 681.307 264.354 681.307 262.083 Q 681.307 258.494 684.151 256.627 Q 686.995 254.759 691.682 254.759 Q 694.173 254.759 696.382 255.259 Q 698.592 255.76 700.716 256.712 L 698.909 261.033 Q 697.078 260.228 695.235 259.703 Q 693.391 259.178 691.487 259.178 Q 689.266 259.178 688.106 259.861 Q 686.946 260.545 686.946 261.815 Q 686.946 262.767 687.508 263.426 Q 688.069 264.085 689.449 264.744 Q 690.828 265.403 693.294 266.38 Q 695.711 267.308 697.481 268.321 Q 699.251 269.334 700.203 270.799 Q 701.155 272.264 701.155 274.583 Z" transform="matrix(1, 0, 0, 1, 254.086914, 234.617432)" style="fill: rgb(255, 255, 255); white-space: pre;"/>
    <path d="M 717.393 278.148 Q 718.516 278.148 719.615 277.94 Q 720.714 277.733 721.617 277.44 L 721.617 281.785 Q 720.665 282.2 719.151 282.493 Q 717.638 282.786 716.002 282.786 Q 713.707 282.786 711.876 282.017 Q 710.045 281.248 708.971 279.368 Q 707.896 277.488 707.896 274.168 L 707.896 259.642 L 704.21 259.642 L 704.21 257.078 L 708.165 255.052 L 710.045 249.266 L 713.658 249.266 L 713.658 255.272 L 721.397 255.272 L 721.397 259.642 L 713.658 259.642 L 713.658 274.095 Q 713.658 276.146 714.683 277.147 Q 715.709 278.148 717.393 278.148 Z" transform="matrix(1, 0, 0, 1, 254.086914, 234.617432)" style="fill: rgb(255, 255, 255); white-space: pre;"/>
    <path d="M 750.681 254.759 Q 755.807 254.759 758.432 257.029 Q 761.057 259.3 761.057 264.11 L 761.057 282.298 L 756.979 282.298 L 755.881 278.465 L 755.685 278.465 Q 754.538 279.93 753.317 280.882 Q 752.097 281.834 750.497 282.31 Q 748.898 282.786 746.603 282.786 Q 744.186 282.786 742.282 281.895 Q 740.378 281.004 739.279 279.173 Q 738.181 277.342 738.181 274.534 Q 738.181 270.36 741.293 268.26 Q 744.406 266.16 750.705 265.941 L 755.392 265.77 L 755.392 264.354 Q 755.392 261.546 754.086 260.35 Q 752.78 259.153 750.412 259.153 Q 748.386 259.153 746.481 259.739 Q 744.577 260.325 742.77 261.18 L 740.915 257.127 Q 742.892 256.077 745.419 255.418 Q 747.946 254.759 750.681 254.759 Z M 755.368 269.383 L 751.877 269.505 Q 747.58 269.652 745.847 270.97 Q 744.113 272.288 744.113 274.583 Q 744.113 276.585 745.309 277.501 Q 746.506 278.416 748.459 278.416 Q 751.437 278.416 753.403 276.719 Q 755.368 275.023 755.368 271.727 Z" transform="matrix(1, 0, 0, 1, 254.086914, 234.617432)" style="fill: rgb(255, 255, 255); white-space: pre;"/>
    <path d="M 792.974 282.786 Q 789.141 282.786 786.333 281.297 Q 783.525 279.808 782.012 276.732 Q 780.498 273.655 780.498 268.919 Q 780.498 263.987 782.158 260.862 Q 783.818 257.737 786.76 256.248 Q 789.702 254.759 793.511 254.759 Q 795.928 254.759 797.893 255.235 Q 799.858 255.711 801.225 256.395 L 799.516 260.985 Q 798.027 260.374 796.465 259.959 Q 794.902 259.544 793.462 259.544 Q 791.094 259.544 789.519 260.594 Q 787.944 261.644 787.175 263.719 Q 786.406 265.794 786.406 268.87 Q 786.406 271.849 787.187 273.887 Q 787.969 275.926 789.507 276.964 Q 791.045 278.001 793.291 278.001 Q 795.513 278.001 797.27 277.464 Q 799.028 276.927 800.591 276.072 L 800.591 281.053 Q 799.053 281.932 797.295 282.359 Q 795.537 282.786 792.974 282.786 Z" transform="matrix(1, 0, 0, 1, 254.086914, 234.617432)" style="fill: rgb(255, 255, 255); white-space: pre;"/>
    <path d="M 812.675 282.298 L 806.913 282.298 L 806.913 244.31 L 812.675 244.31 Z" transform="matrix(1, 0, 0, 1, 254.086914, 234.617432)" style="fill: rgb(255, 255, 255); white-space: pre;"/>
    <path d="M 826.588 255.272 L 826.588 282.298 L 820.85 282.298 L 820.85 255.272 Z M 823.756 244.92 Q 825.074 244.92 826.038 245.628 Q 827.003 246.336 827.003 248.069 Q 827.003 249.778 826.038 250.499 Q 825.074 251.219 823.756 251.219 Q 822.389 251.219 821.449 250.499 Q 820.509 249.778 820.509 248.069 Q 820.509 246.336 821.449 245.628 Q 822.389 244.92 823.756 244.92 Z" transform="matrix(1, 0, 0, 1, 254.086914, 234.617432)" style="fill: rgb(255, 255, 255); white-space: pre;"/>
    <path d="M 845.677 282.786 Q 841.844 282.786 839.036 281.297 Q 836.228 279.808 834.715 276.732 Q 833.201 273.655 833.201 268.919 Q 833.201 263.987 834.861 260.862 Q 836.521 257.737 839.463 256.248 Q 842.405 254.759 846.214 254.759 Q 848.631 254.759 850.596 255.235 Q 852.561 255.711 853.929 256.395 L 852.22 260.985 Q 850.73 260.374 849.168 259.959 Q 847.605 259.544 846.165 259.544 Q 843.797 259.544 842.222 260.594 Q 840.647 261.644 839.878 263.719 Q 839.109 265.794 839.109 268.87 Q 839.109 271.849 839.891 273.887 Q 840.672 275.926 842.21 276.964 Q 843.748 278.001 845.994 278.001 Q 848.216 278.001 849.974 277.464 Q 851.731 276.927 853.294 276.072 L 853.294 281.053 Q 851.756 281.932 849.998 282.359 Q 848.24 282.786 845.677 282.786 Z" transform="matrix(1, 0, 0, 1, 254.086914, 234.617432)" style="fill: rgb(255, 255, 255); white-space: pre;"/>
    <path d="M 865.353 244.31 L 865.353 262.669 Q 865.353 263.914 865.256 265.391 Q 865.158 266.868 865.06 268.162 L 865.182 268.162 Q 865.817 267.308 866.708 266.16 Q 867.599 265.013 868.405 264.158 L 876.657 255.272 L 883.249 255.272 L 872.433 266.893 L 883.957 282.298 L 877.219 282.298 L 868.576 270.433 L 865.353 273.192 L 865.353 282.298 L 859.616 282.298 L 859.616 244.31 Z" transform="matrix(1, 0, 0, 1, 254.086914, 234.617432)" style="fill: rgb(255, 255, 255); white-space: pre;"/>
    <path d="M 887.427 279.271 Q 887.427 277.269 888.464 276.451 Q 889.502 275.633 890.991 275.633 Q 892.48 275.633 893.542 276.451 Q 894.604 277.269 894.604 279.271 Q 894.604 281.224 893.542 282.09 Q 892.48 282.957 890.991 282.957 Q 889.502 282.957 888.464 282.09 Q 887.427 281.224 887.427 279.271 Z" transform="matrix(1, 0, 0, 1, 254.086914, 234.617432)" style="fill: rgb(255, 255, 255); white-space: pre;"/>
  </g>
  <g transform="matrix(1, 0, 0, 1, -170, 0)">
    <title>Browser</title>
    <g>
      <title>Window</title>
      <path style="fill: rgb(230, 230, 230); stroke-width: 4px;" d="M 170 120 H 780 A 30 30 0 0 1 810 150 V 800 H 170 V 120 Z">
        <title>Container</title>
      </path>
      <path style="fill: rgb(179, 179, 179);" d="M 170 120 H 780 A 30 30 0 0 1 810 150 V 195 H 170 V 120 Z">
        <title>Top</title>
      </path>
    </g>
    <g style="">
      <title>Toolbar</title>
      <rect y="195" width="640" height="75" style="stroke-width: 4px; fill: rgb(204, 204, 204);" x="170">
        <title>Container</title>
      </rect>
      <path d="M 751.758 247.5 C 751.132 247.5 750.601 247.281 750.165 246.843 C 749.727 246.406 749.508 245.874 749.508 245.25 C 749.508 244.624 749.727 244.093 750.165 243.657 C 750.601 243.219 751.132 243 751.758 243 C 752.382 243 752.914 243.219 753.352 243.657 C 753.789 244.093 754.008 244.624 754.008 245.25 C 754.008 245.874 753.789 246.406 753.352 246.843 C 752.914 247.281 752.382 247.5 751.758 247.5 Z M 751.758 234.75 C 751.132 234.75 750.601 234.531 750.165 234.093 C 749.727 233.656 749.508 233.124 749.508 232.5 C 749.508 231.874 749.727 231.343 750.165 230.907 C 750.601 230.469 751.132 230.25 751.758 230.25 C 752.382 230.25 752.914 230.469 753.352 230.907 C 753.789 231.343 754.008 231.874 754.008 232.5 C 754.008 233.124 753.789 233.656 753.352 234.093 C 752.914 234.531 752.382 234.75 751.758 234.75 Z M 751.758 222 C 751.132 222 750.601 221.781 750.165 221.343 C 749.727 220.906 749.508 220.374 749.508 219.75 C 749.508 219.124 749.727 218.593 750.165 218.157 C 750.601 217.719 751.132 217.5 751.758 217.5 C 752.382 217.5 752.914 217.719 753.352 218.157 C 753.789 218.593 754.008 219.124 754.008 219.75 C 754.008 220.374 753.789 220.906 753.352 221.343 C 752.914 221.781 752.382 222 751.758 222 Z" style="filter: url(#outline-filter-2);">
        <title>Vertical Dots</title>
      </path>
      <path d="M 667.62 250 L 659.812 250 C 659.095 250 658.466 249.724 657.928 249.17 C 657.389 248.616 657.12 247.951 657.12 247.174 L 657.12 239.275 C 658.437 239.126 659.566 238.609 660.508 237.727 C 661.45 236.845 661.921 235.76 661.921 234.475 C 661.921 233.188 661.45 232.103 660.508 231.221 C 659.566 230.339 658.437 229.823 657.12 229.674 L 657.12 221.775 C 657.12 221.087 657.389 220.467 657.928 219.913 C 658.466 219.359 659.095 219.083 659.812 219.083 L 667.709 219.083 C 668.039 217.887 668.607 216.907 669.415 216.145 C 670.222 215.382 671.225 215 672.421 215 C 673.588 215 674.636 215.382 675.562 216.145 C 676.491 216.907 677.118 217.887 677.446 219.083 L 685.345 219.083 C 686.033 219.083 686.654 219.359 687.207 219.913 C 687.761 220.467 688.037 221.087 688.037 221.775 L 688.037 229.674 C 689.234 230.003 690.213 230.63 690.975 231.558 C 691.738 232.484 692.12 233.532 692.12 234.699 C 692.12 235.895 691.738 236.898 690.975 237.705 C 690.213 238.513 689.234 239.081 688.037 239.411 L 688.037 247.308 C 688.037 248.025 687.761 248.654 687.207 249.192 C 686.654 249.731 686.033 250 685.345 250 L 677.537 250 C 677.388 248.564 676.819 247.405 675.832 246.523 C 674.845 245.641 673.708 245.199 672.421 245.199 C 671.285 245.199 670.238 245.641 669.281 246.523 C 668.323 247.405 667.77 248.564 667.62 250 Z">
        <title>Puzzle Piece</title>
      </path>
      <g transform="matrix(1, 0, 0, 1, 0, 2.5)">
        <title>Selected Hide-N-Seek Icon</title>
        <circle cx="577.731" cy="230" r="30" style="stroke: rgb(204, 204, 204); fill: rgb(179, 179, 179);">
          <title>Selection Indicator</title>
        </circle>
        <g style="" transform="matrix(0.486111, 0, 0, 0.486111, 566.3078, 219.494141)">
          <title>Hide-N-Seek-Icon</title>
          <path d="M -7.098 57.612 C -8.539 57.612 -9.8 57.045 -10.88 55.906 C -11.962 54.77 -12.5 53.442 -12.5 51.928 L -12.5 6.455 C -12.5 4.938 -11.962 3.61 -10.88 2.475 C -9.8 1.338 -8.539 0.768 -7.098 0.768 L 9.099 0.768 L 9.099 -8.704 C 9.099 -10.218 9.642 -11.546 10.718 -12.682 C 11.8 -13.821 13.06 -14.388 14.5 -14.388 L 32.5 -14.388 C 33.94 -14.388 35.2 -13.821 36.282 -12.682 C 37.358 -11.546 37.901 -10.218 37.901 -8.704 L 37.901 0.768 L 54.098 0.768 C 55.539 0.768 56.8 1.338 57.88 2.475 C 58.959 3.61 59.5 4.938 59.5 6.455 L 59.5 51.928 C 59.5 53.442 58.959 54.77 57.88 55.906 C 56.8 57.045 55.539 57.612 54.098 57.612 L -7.098 57.612 Z M 14.5 0.768 L 32.5 0.768 L 32.5 -8.704 L 14.5 -8.704 L 14.5 0.768 Z" style="paint-order: fill; stroke-width: 4px; stroke: rgb(0, 0, 0); filter: url(#outline-filter-1);">
            <title>briefcase-prevent-seam</title>
          </path>
          <path style="stroke-width: 3px; stroke-opacity: 0; stroke-linejoin: round; stroke-linecap: round; stroke: rgb(186, 218, 85);" d="M 13.695 42.728 C 5.181 42.499 -3.487 32.43 6.373 21.353 C 6.698 20.47 6.794 10.524 6.976 10.524 C 7.198 8.708 13.103 17.207 14.013 18.549 C 20.212 14.327 30.345 15.734 32.993 18.791 C 33.473 18.235 37.132 12.96 38.22 12.071 C 39.939 11.881 39.247 22.507 39.427 22.32 C 47.744 26.516 47.201 40.995 34.919 42.728">
            <title>head-prevent-seam</title>
          </path>
          <g style="mask: url(#mask-2);">
            <title>briefcase-upper-left</title>
            <path d="M -7.098 57.612 C -8.539 57.612 -9.8 57.045 -10.88 55.906 C -11.962 54.77 -12.5 53.442 -12.5 51.928 L -12.5 6.455 C -12.5 4.938 -11.962 3.61 -10.88 2.475 C -9.8 1.338 -8.539 0.768 -7.098 0.768 L 9.099 0.768 L 9.099 -8.704 C 9.099 -10.218 9.642 -11.546 10.718 -12.682 C 11.8 -13.821 13.06 -14.388 14.5 -14.388 L 32.5 -14.388 C 33.94 -14.388 35.2 -13.821 36.282 -12.682 C 37.358 -11.546 37.901 -10.218 37.901 -8.704 L 37.901 0.768 L 54.098 0.768 C 55.539 0.768 56.8 1.338 57.88 2.475 C 58.959 3.61 59.5 4.938 59.5 6.455 L 59.5 51.928 C 59.5 53.442 58.959 54.77 57.88 55.906 C 56.8 57.045 55.539 57.612 54.098 57.612 L -7.098 57.612 Z M 14.5 0.768 L 32.5 0.768 L 32.5 -8.704 L 14.5 -8.704 L 14.5 0.768 Z" style="stroke: rgb(0, 0, 0); fill: rgb(217, 168, 118);">
              <title>briefcase</title>
            </path>
            <g style="" transform="matrix(0.104132, 0, 0, 0.104132, -2.532993, -0.637008)">
              <title>Charm</title>
              <path style="stroke-width: 3px; stroke-opacity: 0; stroke-linejoin: round; stroke-linecap: round; pointer-events: none; stroke: rgb(186, 218, 85);" d="M 155.839 416.452 C 74.076 414.246 -9.163 317.554 85.521 211.184 C 88.642 202.702 89.567 107.184 91.313 107.184 C 93.447 89.745 150.151 171.369 158.89 184.258 C 218.415 143.708 315.724 157.224 341.157 186.578 C 345.771 181.239 380.902 130.582 391.357 122.043 C 407.86 120.218 401.213 222.267 402.943 220.47 C 482.816 260.759 477.595 399.802 359.651 416.452">
                <title>Head</title>
              </path>
              <g style="clip-path: url(#clip-5);">
                <title>Left Eye</title>
                <path style="stroke-width: 3px; stroke-opacity: 0; stroke-linejoin: round; stroke-linecap: round; pointer-events: none; fill: rgb(217, 217, 118);" d="M 214.768 255.253 C 208.387 241.371 147.803 231.913 146.804 234.787 C 122.672 296.86 217.521 311.741 214.768 255.253 Z">
                  <title>Left Eye Outer</title>
                </path>
                <path style="fill: black; stroke-width: 3px; stroke-linejoin: round; stroke-linecap: round; pointer-events: none; stroke: rgb(0, 0, 0);" d="M 169.232 238.541 C 164.496 240.806 158.937 268.553 168.383 274.458 C 181.214 279.697 208.634 252.081 198.524 245.975 C 194.377 243.919 170.2 237.767 169.232 238.541 Z">
                  <title>Left Eye Pupil</title>
                </path>
              </g>
            </g>
          </g>
          <g style="mask: url(#mask-3);">
            <title>briefcase-lower-right</title>
            <path d="M -7.098 57.612 C -8.539 57.612 -9.8 57.045 -10.88 55.906 C -11.962 54.77 -12.5 53.442 -12.5 51.928 L -12.5 6.455 C -12.5 4.938 -11.962 3.61 -10.88 2.475 C -9.8 1.338 -8.539 0.768 -7.098 0.768 L 9.099 0.768 L 9.099 -8.704 C 9.099 -10.218 9.642 -11.546 10.718 -12.682 C 11.8 -13.821 13.06 -14.388 14.5 -14.388 L 32.5 -14.388 C 33.94 -14.388 35.2 -13.821 36.282 -12.682 C 37.358 -11.546 37.901 -10.218 37.901 -8.704 L 37.901 0.768 L 54.098 0.768 C 55.539 0.768 56.8 1.338 57.88 2.475 C 58.959 3.61 59.5 4.938 59.5 6.455 L 59.5 51.928 C 59.5 53.442 58.959 54.77 57.88 55.906 C 56.8 57.045 55.539 57.612 54.098 57.612 L -7.098 57.612 Z M 14.5 0.768 L 32.5 0.768 L 32.5 -8.704 L 14.5 -8.704 L 14.5 0.768 Z" style="stroke: rgb(0, 0, 0);">
              <title>briefcase</title>
            </path>
          </g>
        </g>
      </g>
    </g>
    <g transform="matrix(1, 0, 0, 1, 0, -11)">
      <title>Popup</title>
      <rect style="fill: rgb(244, 222, 182); stroke-width: 0px; filter: url(#outline-filter-0);" x="214.428" y="300.12" width="375.257" height="452.557" rx="20" ry="20">
        <title>Container</title>
      </rect>
      <g style="" transform="matrix(2.207734, 0, 0, 2.207734, 350.174744, 373.868134)">
        <title>Hide-N-Seek-Icon</title>
        <path d="M -7.098 57.612 C -8.539 57.612 -9.8 57.045 -10.88 55.906 C -11.962 54.77 -12.5 53.442 -12.5 51.928 L -12.5 6.455 C -12.5 4.938 -11.962 3.61 -10.88 2.475 C -9.8 1.338 -8.539 0.768 -7.098 0.768 L 9.099 0.768 L 9.099 -8.704 C 9.099 -10.218 9.642 -11.546 10.718 -12.682 C 11.8 -13.821 13.06 -14.388 14.5 -14.388 L 32.5 -14.388 C 33.94 -14.388 35.2 -13.821 36.282 -12.682 C 37.358 -11.546 37.901 -10.218 37.901 -8.704 L 37.901 0.768 L 54.098 0.768 C 55.539 0.768 56.8 1.338 57.88 2.475 C 58.959 3.61 59.5 4.938 59.5 6.455 L 59.5 51.928 C 59.5 53.442 58.959 54.77 57.88 55.906 C 56.8 57.045 55.539 57.612 54.098 57.612 L -7.098 57.612 Z M 14.5 0.768 L 32.5 0.768 L 32.5 -8.704 L 14.5 -8.704 L 14.5 0.768 Z" style="paint-order: fill; stroke-width: 4px; stroke: rgb(0, 0, 0); filter: url(#filter-1);">
          <title>briefcase-prevent-seam</title>
        </path>
        <path style="stroke-width: 3px; stroke-opacity: 0; stroke-linejoin: round; stroke-linecap: round; stroke: rgb(186, 218, 85);" d="M 13.695 42.728 C 5.181 42.499 -3.487 32.43 6.373 21.353 C 6.698 20.47 6.794 10.524 6.976 10.524 C 7.198 8.708 13.103 17.207 14.013 18.549 C 20.212 14.327 30.345 15.734 32.993 18.791 C 33.473 18.235 37.132 12.96 38.22 12.071 C 39.939 11.881 39.247 22.507 39.427 22.32 C 47.744 26.516 47.201 40.995 34.919 42.728">
          <title>head-prevent-seam</title>
        </path>
        <g style="mask: url(#mask-1);">
          <title>briefcase-upper-left</title>
          <path d="M -7.098 57.612 C -8.539 57.612 -9.8 57.045 -10.88 55.906 C -11.962 54.77 -12.5 53.442 -12.5 51.928 L -12.5 6.455 C -12.5 4.938 -11.962 3.61 -10.88 2.475 C -9.8 1.338 -8.539 0.768 -7.098 0.768 L 9.099 0.768 L 9.099 -8.704 C 9.099 -10.218 9.642 -11.546 10.718 -12.682 C 11.8 -13.821 13.06 -14.388 14.5 -14.388 L 32.5 -14.388 C 33.94 -14.388 35.2 -13.821 36.282 -12.682 C 37.358 -11.546 37.901 -10.218 37.901 -8.704 L 37.901 0.768 L 54.098 0.768 C 55.539 0.768 56.8 1.338 57.88 2.475 C 58.959 3.61 59.5 4.938 59.5 6.455 L 59.5 51.928 C 59.5 53.442 58.959 54.77 57.88 55.906 C 56.8 57.045 55.539 57.612 54.098 57.612 L -7.098 57.612 Z M 14.5 0.768 L 32.5 0.768 L 32.5 -8.704 L 14.5 -8.704 L 14.5 0.768 Z" style="stroke: rgb(0, 0, 0); fill: rgb(217, 168, 118);">
            <title>briefcase</title>
          </path>
          <g style="" transform="matrix(0.104132, 0, 0, 0.104132, -2.532993, -0.637008)">
            <title>Charm</title>
            <path style="stroke-width: 3px; stroke-opacity: 0; stroke-linejoin: round; stroke-linecap: round; pointer-events: none; stroke: rgb(186, 218, 85);" d="M 155.839 416.452 C 74.076 414.246 -9.163 317.554 85.521 211.184 C 88.642 202.702 89.567 107.184 91.313 107.184 C 93.447 89.745 150.151 171.369 158.89 184.258 C 218.415 143.708 315.724 157.224 341.157 186.578 C 345.771 181.239 380.902 130.582 391.357 122.043 C 407.86 120.218 401.213 222.267 402.943 220.47 C 482.816 260.759 477.595 399.802 359.651 416.452">
              <title>Head</title>
            </path>
            <g style="clip-path: url(#clip-1);">
              <title>Left Eye</title>
              <path style="stroke-width: 3px; stroke-opacity: 0; stroke-linejoin: round; stroke-linecap: round; pointer-events: none; fill: rgb(217, 217, 118);" d="M 214.768 255.253 C 208.387 241.371 147.803 231.913 146.804 234.787 C 122.672 296.86 217.521 311.741 214.768 255.253 Z">
                <title>Left Eye Outer</title>
              </path>
              <path style="fill: black; stroke-width: 3px; stroke-linejoin: round; stroke-linecap: round; pointer-events: none; stroke: rgb(0, 0, 0);" d="M 169.232 238.541 C 164.496 240.806 158.937 268.553 168.383 274.458 C 181.214 279.697 208.634 252.081 198.524 245.975 C 194.377 243.919 170.2 237.767 169.232 238.541 Z">
                <title>Left Eye Pupil</title>
              </path>
            </g>
          </g>
        </g>
        <g style="mask: url(#mask-4);">
          <title>briefcase-lower-right</title>
          <path d="M -7.098 57.612 C -8.539 57.612 -9.8 57.045 -10.88 55.906 C -11.962 54.77 -12.5 53.442 -12.5 51.928 L -12.5 6.455 C -12.5 4.938 -11.962 3.61 -10.88 2.475 C -9.8 1.338 -8.539 0.768 -7.098 0.768 L 9.099 0.768 L 9.099 -8.704 C 9.099 -10.218 9.642 -11.546 10.718 -12.682 C 11.8 -13.821 13.06 -14.388 14.5 -14.388 L 32.5 -14.388 C 33.94 -14.388 35.2 -13.821 36.282 -12.682 C 37.358 -11.546 37.901 -10.218 37.901 -8.704 L 37.901 0.768 L 54.098 0.768 C 55.539 0.768 56.8 1.338 57.88 2.475 C 58.959 3.61 59.5 4.938 59.5 6.455 L 59.5 51.928 C 59.5 53.442 58.959 54.77 57.88 55.906 C 56.8 57.045 55.539 57.612 54.098 57.612 L -7.098 57.612 Z M 14.5 0.768 L 32.5 0.768 L 32.5 -8.704 L 14.5 -8.704 L 14.5 0.768 Z" style="stroke: rgb(0, 0, 0);">
            <title>briefcase</title>
          </path>
        </g>
      </g>
      <path d="M 344.974 536.089 L 341.353 536.089 L 341.353 528.694 L 334.568 528.694 L 334.568 536.089 L 330.935 536.089 L 330.935 518.956 L 334.568 518.956 L 334.568 525.671 L 341.353 525.671 L 341.353 518.956 L 344.974 518.956 Z" style="fill: rgb(51, 51, 51); white-space: pre;"/>
      <path d="M 352.588 522.987 L 352.588 536.089 L 349.013 536.089 L 349.013 522.987 Z M 350.806 517.855 Q 351.603 517.855 352.177 518.224 Q 352.752 518.593 352.752 519.601 Q 352.752 520.597 352.177 520.978 Q 351.603 521.359 350.806 521.359 Q 349.998 521.359 349.429 520.978 Q 348.861 520.597 348.861 519.601 Q 348.861 518.593 349.429 518.224 Q 349.998 517.855 350.806 517.855 Z" style="fill: rgb(51, 51, 51); white-space: pre;"/>
      <path d="M 360.49 536.323 Q 358.299 536.323 356.922 534.607 Q 355.545 532.89 355.545 529.562 Q 355.545 526.198 356.939 524.47 Q 358.334 522.741 360.584 522.741 Q 361.521 522.741 362.236 522.999 Q 362.951 523.257 363.472 523.691 Q 363.994 524.124 364.357 524.663 L 364.474 524.663 Q 364.404 524.288 364.304 523.556 Q 364.205 522.823 364.205 522.05 L 364.205 517.855 L 367.791 517.855 L 367.791 536.089 L 365.049 536.089 L 364.357 534.39 L 364.205 534.39 Q 363.865 534.929 363.355 535.368 Q 362.845 535.808 362.142 536.066 Q 361.439 536.323 360.49 536.323 Z M 361.744 533.476 Q 363.209 533.476 363.812 532.603 Q 364.416 531.73 364.451 529.972 L 364.451 529.585 Q 364.451 527.675 363.865 526.661 Q 363.279 525.648 361.685 525.648 Q 360.502 525.648 359.834 526.667 Q 359.166 527.687 359.166 529.609 Q 359.166 531.53 359.84 532.503 Q 360.513 533.476 361.744 533.476 Z" style="fill: rgb(51, 51, 51); white-space: pre;"/>
      <path d="M 376.931 522.741 Q 378.748 522.741 380.06 523.439 Q 381.373 524.136 382.088 525.46 Q 382.802 526.784 382.802 528.694 L 382.802 530.429 L 374.353 530.429 Q 374.412 531.941 375.261 532.802 Q 376.111 533.663 377.623 533.663 Q 378.877 533.663 379.92 533.405 Q 380.963 533.148 382.064 532.632 L 382.064 535.398 Q 381.091 535.878 380.031 536.101 Q 378.97 536.323 377.459 536.323 Q 375.49 536.323 373.972 535.597 Q 372.455 534.87 371.593 533.382 Q 370.732 531.894 370.732 529.632 Q 370.732 527.335 371.511 525.806 Q 372.291 524.276 373.685 523.509 Q 375.08 522.741 376.931 522.741 Z M 376.955 525.284 Q 375.912 525.284 375.226 525.952 Q 374.541 526.62 374.435 528.05 L 379.451 528.05 Q 379.439 527.253 379.164 526.632 Q 378.888 526.011 378.343 525.648 Q 377.799 525.284 376.955 525.284 Z" style="fill: rgb(51, 51, 51); white-space: pre;"/>
      <path d="M 399.377 522.741 Q 401.474 522.741 402.752 523.884 Q 404.029 525.026 404.029 527.546 L 404.029 536.089 L 400.455 536.089 L 400.455 528.437 Q 400.455 527.03 399.945 526.316 Q 399.435 525.601 398.345 525.601 Q 396.705 525.601 396.107 526.714 Q 395.509 527.827 395.509 529.925 L 395.509 536.089 L 391.935 536.089 L 391.935 522.987 L 394.666 522.987 L 395.146 524.663 L 395.345 524.663 Q 395.767 523.984 396.394 523.562 Q 397.021 523.14 397.789 522.941 Q 398.556 522.741 399.377 522.741 Z" style="fill: rgb(51, 51, 51); white-space: pre;"/>
      <path d="M 410.67 518.956 L 410.189 525.144 L 407.881 525.144 L 407.4 518.956 Z" style="fill: rgb(51, 51, 51); white-space: pre;"/>
      <path d="M 430.72 531.331 Q 430.72 532.855 429.982 533.98 Q 429.244 535.105 427.832 535.714 Q 426.42 536.323 424.404 536.323 Q 423.513 536.323 422.664 536.206 Q 421.814 536.089 421.035 535.86 Q 420.256 535.632 419.552 535.292 L 419.552 531.917 Q 420.771 532.456 422.084 532.89 Q 423.396 533.323 424.685 533.323 Q 425.576 533.323 426.121 533.089 Q 426.666 532.855 426.912 532.444 Q 427.158 532.034 427.158 531.507 Q 427.158 530.862 426.724 530.405 Q 426.291 529.948 425.535 529.55 Q 424.779 529.151 423.83 528.694 Q 423.232 528.413 422.529 528.009 Q 421.826 527.605 421.193 527.019 Q 420.56 526.433 420.156 525.595 Q 419.752 524.757 419.752 523.585 Q 419.752 522.05 420.455 520.96 Q 421.158 519.87 422.465 519.29 Q 423.771 518.71 425.552 518.71 Q 426.888 518.71 428.101 519.021 Q 429.314 519.331 430.638 519.917 L 429.466 522.741 Q 428.283 522.261 427.345 521.997 Q 426.408 521.734 425.435 521.734 Q 424.756 521.734 424.275 521.95 Q 423.795 522.167 423.549 522.56 Q 423.302 522.952 423.302 523.468 Q 423.302 524.077 423.66 524.493 Q 424.017 524.909 424.738 525.296 Q 425.459 525.683 426.537 526.198 Q 427.849 526.819 428.781 527.493 Q 429.713 528.167 430.216 529.075 Q 430.72 529.984 430.72 531.331 Z" style="fill: rgb(51, 51, 51); white-space: pre;"/>
      <path d="M 438.947 522.741 Q 440.763 522.741 442.076 523.439 Q 443.388 524.136 444.103 525.46 Q 444.818 526.784 444.818 528.694 L 444.818 530.429 L 436.369 530.429 Q 436.427 531.941 437.277 532.802 Q 438.127 533.663 439.638 533.663 Q 440.892 533.663 441.935 533.405 Q 442.978 533.148 444.08 532.632 L 444.08 535.398 Q 443.107 535.878 442.047 536.101 Q 440.986 536.323 439.474 536.323 Q 437.506 536.323 435.988 535.597 Q 434.47 534.87 433.609 533.382 Q 432.748 531.894 432.748 529.632 Q 432.748 527.335 433.527 525.806 Q 434.306 524.276 435.701 523.509 Q 437.095 522.741 438.947 522.741 Z M 438.97 525.284 Q 437.927 525.284 437.242 525.952 Q 436.556 526.62 436.451 528.05 L 441.466 528.05 Q 441.455 527.253 441.179 526.632 Q 440.904 526.011 440.359 525.648 Q 439.814 525.284 438.97 525.284 Z" style="fill: rgb(51, 51, 51); white-space: pre;"/>
      <path d="M 453.134 522.741 Q 454.951 522.741 456.263 523.439 Q 457.576 524.136 458.291 525.46 Q 459.006 526.784 459.006 528.694 L 459.006 530.429 L 450.556 530.429 Q 450.615 531.941 451.465 532.802 Q 452.314 533.663 453.826 533.663 Q 455.08 533.663 456.123 533.405 Q 457.166 533.148 458.267 532.632 L 458.267 535.398 Q 457.295 535.878 456.234 536.101 Q 455.174 536.323 453.662 536.323 Q 451.693 536.323 450.175 535.597 Q 448.658 534.87 447.797 533.382 Q 446.935 531.894 446.935 529.632 Q 446.935 527.335 447.715 525.806 Q 448.494 524.276 449.888 523.509 Q 451.283 522.741 453.134 522.741 Z M 453.158 525.284 Q 452.115 525.284 451.429 525.952 Q 450.744 526.62 450.638 528.05 L 455.654 528.05 Q 455.642 527.253 455.367 526.632 Q 455.091 526.011 454.547 525.648 Q 454.002 525.284 453.158 525.284 Z" style="fill: rgb(51, 51, 51); white-space: pre;"/>
      <path d="M 465.478 517.855 L 465.478 526.011 Q 465.478 526.749 465.42 527.487 Q 465.361 528.226 465.291 528.964 L 465.338 528.964 Q 465.701 528.448 466.082 527.944 Q 466.463 527.441 466.896 526.972 L 470.564 522.987 L 474.595 522.987 L 469.392 528.671 L 474.912 536.089 L 470.787 536.089 L 467.013 530.78 L 465.478 532.011 L 465.478 536.089 L 461.904 536.089 L 461.904 517.855 Z" style="fill: rgb(51, 51, 51); white-space: pre;"/>
      <g style="">
        <title>Unhide All Jobs</title>
        <rect style="fill: rgb(216, 169, 123);" x="232.738" y="581.136" width="338.637" height="153.169" rx="20" ry="20">
          <title>Container</title>
        </rect>
        <g transform="matrix(1.812327, 0, 0, 1.812327, 326.935547, 599.928162)" style="">
          <title>LinkedIn Logo</title>
          <polygon class="st0" points="0 3.1 3.2 3.1 3.2 14.9 9.2 14.9 9.2 17.9 0 17.9" style="fill: rgb(10, 102, 194);"/>
          <path class="st0" d="m10.7 7.9h3.1v10h-3.1v-10zm1.5-5c1 0 1.8 0.8 1.8 1.8s-0.8 1.8-1.8 1.8-1.8-0.8-1.8-1.8 0.8-1.8 1.8-1.8" style="fill: rgb(10, 102, 194);"/>
          <polygon class="st0" points="26.8 3.1 29.9 3.1 29.9 11.9 33.4 7.9 37.2 7.9 33.2 12.5 37.2 17.9 33.3 17.9 29.9 12.9 29.9 12.9 29.9 17.9 26.8 17.9" style="fill: rgb(10, 102, 194);"/>
          <path class="st0" d="m15.5 7.9h3v1.4c0.6-1 1.7-1.7 2.9-1.6 3.2 0 3.7 2.1 3.7 4.8v5.5h-3.1v-5c0-1.2 0-2.7-1.6-2.7s-1.9 1.3-1.9 2.6v5h-3.1v-10z" style="fill: rgb(10, 102, 194);"/>
          <path class="st0" d="m43.8 11.7c0-1-0.8-1.9-1.8-1.9h-0.1c-1.1-0.1-2.1 0.8-2.2 1.9h4.1zm2.6 4.5c-1 1.3-2.6 2-4.3 2-3.1 0-5.6-2.1-5.6-5.3s2.5-5.3 5.6-5.3c2.9 0 4.7 2.1 4.7 5.3v1h-7.2c0.2 1.1 1.2 2 2.3 2 0.9 0 1.7-0.5 2.2-1.2l2.3 1.5z" style="fill: rgb(10, 102, 194);"/>
          <path class="st0" d="m53.4 10.3c-1.6 0-2.5 1-2.5 2.6s0.9 2.6 2.5 2.6 2.5-1 2.5-2.6-0.9-2.6-2.5-2.6m5.4 7.6h-2.9v-1.3c-0.7 1-1.9 1.6-3.1 1.6-3 0-5-2.2-5-5.2 0-2.8 1.7-5.4 4.6-5.4 1.3 0 2.5 0.4 3.2 1.3v-5.8h3.1l0.1 14.8z" style="fill: rgb(10, 102, 194);"/>
          <path class="st0" d="m81.3 0h-17.9c-0.8 0-1.5 0.7-1.6 1.5v18c0 0.8 0.7 1.5 1.6 1.5h17.9c0.8 0 1.5-0.7 1.6-1.5v-18c0-0.8-0.7-1.5-1.6-1.5zm-13.2 17.9h-3.1v-10h3.1v10zm-1.6-11.4c-1 0-1.8-0.8-1.8-1.8s0.8-1.8 1.8-1.8 1.8 0.8 1.8 1.8-0.8 1.8-1.8 1.8zm13.3 11.4h-3.1v-4.9c0-1.2 0-2.7-1.6-2.7s-1.9 1.3-1.9 2.6v5h-3.1v-10h3v1.4c0.6-1 1.7-1.7 2.9-1.6 3.2 0 3.7 2.1 3.7 4.8l0.1 5.4z" style="fill: rgb(10, 102, 194);"/>
        </g>
        <g style="" transform="matrix(1, 0, 0, 1, 0.151941, 0)">
          <title>Unhide All Jobs Button</title>
          <rect style="pointer-events: auto; fill: rgb(179, 0, 0);" x="251.387" y="656.034" width="188.659" height="59.657" rx="10" ry="10">
            <title>Container</title>
          </rect>
          <path d="M 300.085 680.563 L 300.085 687.954 Q 300.085 689.157 299.589 690.102 Q 299.093 691.047 298.093 691.594 Q 297.093 692.141 295.577 692.141 Q 293.429 692.141 292.3 690.989 Q 291.171 689.837 291.171 687.922 L 291.171 680.563 L 292.78 680.563 L 292.78 687.86 Q 292.78 689.305 293.503 690.04 Q 294.226 690.774 295.655 690.774 Q 296.64 690.774 297.265 690.419 Q 297.89 690.063 298.19 689.411 Q 298.491 688.758 298.491 687.86 L 298.491 680.563 Z" style="fill: rgb(255, 255, 255); white-space: pre;"/>
          <path d="M 307.132 683.219 Q 308.624 683.219 309.425 683.969 Q 310.226 684.719 310.226 686.376 L 310.226 691.985 L 308.671 691.985 L 308.671 686.587 Q 308.671 685.555 308.218 685.036 Q 307.765 684.516 306.827 684.516 Q 305.491 684.516 304.956 685.305 Q 304.421 686.094 304.421 687.594 L 304.421 691.985 L 302.851 691.985 L 302.851 683.376 L 304.093 683.376 L 304.319 684.587 L 304.405 684.587 Q 304.679 684.133 305.101 683.829 Q 305.522 683.524 306.042 683.372 Q 306.561 683.219 307.132 683.219 Z" style="fill: rgb(255, 255, 255); white-space: pre;"/>
          <path d="M 314.421 679.829 L 314.421 683.172 Q 314.421 683.571 314.397 683.954 Q 314.374 684.337 314.343 684.594 L 314.436 684.594 Q 314.71 684.141 315.112 683.84 Q 315.515 683.54 316.026 683.387 Q 316.538 683.235 317.108 683.235 Q 318.116 683.235 318.811 683.563 Q 319.507 683.891 319.866 684.583 Q 320.226 685.274 320.226 686.376 L 320.226 691.985 L 318.671 691.985 L 318.671 686.587 Q 318.671 685.555 318.218 685.036 Q 317.765 684.516 316.827 684.516 Q 315.936 684.516 315.405 684.872 Q 314.874 685.227 314.647 685.915 Q 314.421 686.602 314.421 687.602 L 314.421 691.985 L 312.851 691.985 L 312.851 679.829 Z" style="fill: rgb(255, 255, 255); white-space: pre;"/>
          <path d="M 324.405 683.376 L 324.405 691.985 L 322.835 691.985 L 322.835 683.376 Z M 323.632 680.118 Q 324.007 680.118 324.276 680.337 Q 324.546 680.555 324.546 681.047 Q 324.546 681.54 324.276 681.762 Q 324.007 681.985 323.632 681.985 Q 323.249 681.985 322.987 681.762 Q 322.726 681.54 322.726 681.047 Q 322.726 680.555 322.987 680.337 Q 323.249 680.118 323.632 680.118 Z" style="fill: rgb(255, 255, 255); white-space: pre;"/>
          <path d="M 330.061 692.141 Q 328.483 692.141 327.542 691.024 Q 326.601 689.907 326.601 687.712 Q 326.601 685.493 327.558 684.356 Q 328.515 683.219 330.101 683.219 Q 330.765 683.219 331.265 683.399 Q 331.765 683.579 332.128 683.876 Q 332.491 684.172 332.733 684.547 L 332.827 684.547 Q 332.788 684.305 332.749 683.868 Q 332.71 683.43 332.71 683.102 L 332.71 679.829 L 334.28 679.829 L 334.28 691.985 L 333.038 691.985 L 332.78 690.79 L 332.71 690.79 Q 332.476 691.165 332.112 691.473 Q 331.749 691.782 331.245 691.962 Q 330.741 692.141 330.061 692.141 Z M 330.429 690.86 Q 331.702 690.86 332.229 690.126 Q 332.757 689.391 332.765 687.946 L 332.765 687.704 Q 332.765 686.165 332.261 685.34 Q 331.757 684.516 330.413 684.516 Q 329.319 684.516 328.765 685.372 Q 328.21 686.227 328.21 687.743 Q 328.21 689.243 328.765 690.051 Q 329.319 690.86 330.429 690.86 Z" style="fill: rgb(255, 255, 255); white-space: pre;"/>
          <path d="M 340.335 683.219 Q 341.46 683.219 342.265 683.7 Q 343.069 684.18 343.499 685.055 Q 343.929 685.93 343.929 687.118 L 343.929 688.008 L 338.085 688.008 Q 338.108 689.391 338.796 690.13 Q 339.483 690.868 340.726 690.868 Q 341.546 690.868 342.186 690.712 Q 342.827 690.555 343.515 690.251 L 343.515 691.571 Q 342.866 691.868 342.214 692.005 Q 341.561 692.141 340.655 692.141 Q 339.405 692.141 338.464 691.641 Q 337.522 691.141 336.999 690.161 Q 336.476 689.18 336.476 687.743 Q 336.476 686.321 336.952 685.309 Q 337.429 684.297 338.296 683.758 Q 339.163 683.219 340.335 683.219 Z M 340.327 684.438 Q 339.374 684.438 338.796 685.059 Q 338.218 685.68 338.116 686.837 L 342.351 686.837 Q 342.343 686.126 342.124 685.587 Q 341.905 685.047 341.464 684.743 Q 341.022 684.438 340.327 684.438 Z" style="fill: rgb(255, 255, 255); white-space: pre;"/>
          <path d="M 357.546 691.985 L 356.28 688.587 L 351.804 688.587 L 350.554 691.985 L 348.89 691.985 L 353.249 680.516 L 354.89 680.516 L 359.226 691.985 Z M 355.835 687.196 L 354.632 683.829 Q 354.577 683.657 354.464 683.313 Q 354.351 682.969 354.237 682.602 Q 354.124 682.235 354.054 681.993 Q 353.976 682.313 353.874 682.669 Q 353.772 683.024 353.675 683.333 Q 353.577 683.641 353.515 683.829 L 352.296 687.196 Z" style="fill: rgb(255, 255, 255); white-space: pre;"/>
          <path d="M 362.147 691.985 L 360.569 691.985 L 360.569 679.829 L 362.147 679.829 Z" style="fill: rgb(255, 255, 255); white-space: pre;"/>
          <path d="M 366.397 691.985 L 364.819 691.985 L 364.819 679.829 L 366.397 679.829 Z" style="fill: rgb(255, 255, 255); white-space: pre;"/>
          <path d="M 371.89 695.079 Q 371.476 695.079 371.163 695.024 Q 370.851 694.969 370.632 694.883 L 370.632 693.532 Q 370.882 693.602 371.171 693.649 Q 371.46 693.696 371.788 693.696 Q 372.226 693.696 372.585 693.524 Q 372.944 693.352 373.155 692.93 Q 373.366 692.508 373.366 691.758 L 373.366 680.563 L 374.976 680.563 L 374.976 691.68 Q 374.976 692.844 374.597 693.598 Q 374.218 694.352 373.522 694.715 Q 372.827 695.079 371.89 695.079 Z" style="fill: rgb(255, 255, 255); white-space: pre;"/>
          <path d="M 385.296 687.665 Q 385.296 688.727 385.019 689.559 Q 384.741 690.391 384.214 690.965 Q 383.686 691.54 382.944 691.84 Q 382.202 692.141 381.265 692.141 Q 380.39 692.141 379.659 691.84 Q 378.929 691.54 378.397 690.965 Q 377.866 690.391 377.577 689.559 Q 377.288 688.727 377.288 687.665 Q 377.288 686.251 377.772 685.255 Q 378.257 684.258 379.159 683.739 Q 380.061 683.219 381.311 683.219 Q 382.499 683.219 383.397 683.743 Q 384.296 684.266 384.796 685.258 Q 385.296 686.251 385.296 687.665 Z M 378.897 687.665 Q 378.897 688.657 379.151 689.372 Q 379.405 690.087 379.933 690.469 Q 380.46 690.852 381.296 690.852 Q 382.116 690.852 382.647 690.469 Q 383.179 690.087 383.429 689.372 Q 383.679 688.657 383.679 687.665 Q 383.679 686.68 383.429 685.977 Q 383.179 685.274 382.651 684.899 Q 382.124 684.524 381.28 684.524 Q 380.046 684.524 379.472 685.348 Q 378.897 686.172 378.897 687.665 Z" style="fill: rgb(255, 255, 255); white-space: pre;"/>
          <path d="M 389.046 679.829 L 389.046 682.813 Q 389.046 683.329 389.019 683.821 Q 388.991 684.313 388.968 684.579 L 389.046 684.579 Q 389.397 684.016 390.042 683.622 Q 390.686 683.227 391.702 683.227 Q 393.272 683.227 394.218 684.348 Q 395.163 685.469 395.163 687.672 Q 395.163 689.126 394.729 690.126 Q 394.296 691.126 393.511 691.633 Q 392.726 692.141 391.663 692.141 Q 390.655 692.141 390.03 691.77 Q 389.405 691.399 389.054 690.883 L 388.936 690.883 L 388.64 691.985 L 387.476 691.985 L 387.476 679.829 Z M 391.351 684.516 Q 390.499 684.516 389.995 684.852 Q 389.491 685.188 389.272 685.868 Q 389.054 686.547 389.046 687.579 L 389.046 687.696 Q 389.046 689.227 389.546 690.04 Q 390.046 690.852 391.358 690.852 Q 392.436 690.852 392.995 690.024 Q 393.554 689.196 393.554 687.657 Q 393.554 686.094 392.999 685.305 Q 392.444 684.516 391.351 684.516 Z" style="fill: rgb(255, 255, 255); white-space: pre;"/>
          <path d="M 403.03 689.579 Q 403.03 690.415 402.62 690.989 Q 402.21 691.563 401.429 691.852 Q 400.647 692.141 399.554 692.141 Q 398.647 692.141 397.991 692.005 Q 397.335 691.868 396.804 691.61 L 396.804 690.219 Q 397.374 690.493 398.124 690.704 Q 398.874 690.915 399.593 690.915 Q 400.601 690.915 401.05 690.594 Q 401.499 690.274 401.499 689.727 Q 401.499 689.407 401.319 689.161 Q 401.14 688.915 400.69 688.669 Q 400.241 688.422 399.405 688.102 Q 398.585 687.782 398.003 687.462 Q 397.421 687.141 397.116 686.688 Q 396.811 686.235 396.811 685.516 Q 396.811 684.399 397.706 683.809 Q 398.601 683.219 400.069 683.219 Q 400.851 683.219 401.542 683.376 Q 402.233 683.532 402.866 683.813 L 402.358 685.024 Q 401.796 684.782 401.202 684.622 Q 400.608 684.462 399.991 684.462 Q 399.186 684.462 398.761 684.719 Q 398.335 684.977 398.335 685.43 Q 398.335 685.782 398.534 686.016 Q 398.733 686.251 399.202 686.473 Q 399.671 686.696 400.468 687.001 Q 401.257 687.297 401.831 687.618 Q 402.405 687.938 402.718 688.399 Q 403.03 688.86 403.03 689.579 Z" style="fill: rgb(255, 255, 255); white-space: pre;"/>
        </g>
        <g transform="matrix(1, 0, 0, 1, -33.203941, 0)" style="opacity: 0.1;">
          <title>Undo Button</title>
          <rect style="pointer-events: auto; fill: rgb(77, 77, 77);" x="491.778" y="656.034" width="94" height="59.669" rx="10" ry="10">
            <title>Container</title>
          </rect>
          <path d="M 528.668 680.569 L 528.668 687.96 Q 528.668 689.163 528.172 690.108 Q 527.676 691.054 526.676 691.6 Q 525.676 692.147 524.16 692.147 Q 522.012 692.147 520.883 690.995 Q 519.754 689.843 519.754 687.929 L 519.754 680.569 L 521.363 680.569 L 521.363 687.866 Q 521.363 689.311 522.086 690.046 Q 522.809 690.78 524.238 690.78 Q 525.223 690.78 525.848 690.425 Q 526.473 690.069 526.773 689.417 Q 527.074 688.764 527.074 687.866 L 527.074 680.569 Z" style="fill: rgb(255, 255, 255); white-space: pre;"/>
          <path d="M 535.715 683.225 Q 537.207 683.225 538.008 683.975 Q 538.809 684.725 538.809 686.382 L 538.809 691.991 L 537.254 691.991 L 537.254 686.593 Q 537.254 685.561 536.801 685.042 Q 536.348 684.522 535.41 684.522 Q 534.074 684.522 533.539 685.311 Q 533.004 686.1 533.004 687.6 L 533.004 691.991 L 531.434 691.991 L 531.434 683.382 L 532.676 683.382 L 532.902 684.593 L 532.988 684.593 Q 533.262 684.139 533.684 683.835 Q 534.105 683.53 534.625 683.378 Q 535.144 683.225 535.715 683.225 Z" style="fill: rgb(255, 255, 255); white-space: pre;"/>
          <path d="M 544.41 692.147 Q 542.832 692.147 541.891 691.03 Q 540.949 689.913 540.949 687.718 Q 540.949 685.499 541.906 684.362 Q 542.863 683.225 544.449 683.225 Q 545.113 683.225 545.613 683.405 Q 546.113 683.585 546.477 683.882 Q 546.84 684.179 547.082 684.554 L 547.176 684.554 Q 547.137 684.311 547.098 683.874 Q 547.059 683.436 547.059 683.108 L 547.059 679.835 L 548.629 679.835 L 548.629 691.991 L 547.387 691.991 L 547.129 690.796 L 547.059 690.796 Q 546.824 691.171 546.461 691.479 Q 546.098 691.788 545.594 691.968 Q 545.09 692.147 544.41 692.147 Z M 544.777 690.866 Q 546.051 690.866 546.578 690.132 Q 547.105 689.397 547.113 687.952 L 547.113 687.71 Q 547.113 686.171 546.609 685.346 Q 546.105 684.522 544.762 684.522 Q 543.668 684.522 543.113 685.378 Q 542.559 686.233 542.559 687.749 Q 542.559 689.249 543.113 690.057 Q 543.668 690.866 544.777 690.866 Z" style="fill: rgb(255, 255, 255); white-space: pre;"/>
          <path d="M 558.832 687.671 Q 558.832 688.733 558.555 689.565 Q 558.277 690.397 557.75 690.971 Q 557.223 691.546 556.48 691.846 Q 555.738 692.147 554.801 692.147 Q 553.926 692.147 553.195 691.846 Q 552.465 691.546 551.934 690.971 Q 551.402 690.397 551.113 689.565 Q 550.824 688.733 550.824 687.671 Q 550.824 686.257 551.309 685.261 Q 551.793 684.264 552.695 683.745 Q 553.598 683.225 554.848 683.225 Q 556.035 683.225 556.934 683.749 Q 557.832 684.272 558.332 685.264 Q 558.832 686.257 558.832 687.671 Z M 552.434 687.671 Q 552.434 688.663 552.687 689.378 Q 552.941 690.093 553.469 690.475 Q 553.996 690.858 554.832 690.858 Q 555.652 690.858 556.184 690.475 Q 556.715 690.093 556.965 689.378 Q 557.215 688.663 557.215 687.671 Q 557.215 686.686 556.965 685.983 Q 556.715 685.28 556.187 684.905 Q 555.66 684.53 554.816 684.53 Q 553.582 684.53 553.008 685.354 Q 552.434 686.179 552.434 687.671 Z" style="fill: rgb(255, 255, 255); white-space: pre;"/>
        </g>
      </g>
      <g transform="matrix(2.541284, 0, 0, 2.541284, 399.882263, 693.701538)" style="filter: url(#drop-shadow-filter-0);">
        <title>Cursor</title>
        <g transform="matrix(.23944 0 0 .23944 94.337 75.208)">
          <path d="m-368.99-226.1v-9h-4v-8h-4v-8h-4v-9h-5v-4h-4v-8h9v4h4v12h4v-54h8v38h4v-17h9v17h4v-13h8v17h4v-13h5v5h4v29h-4v12h-5v9h-33z" fill="#fefefe" style=""/>
          <path d="m-372.99-222.1v-13h-4v-8h-4v-8h-5v-9h-4v-4h-4v-12h13v4h4v-38h4v-4h8v4h4v17h9v4h12v4h9v4h4v5h4v29h-4v12h-4v13h-42zm37-4v-9h5v-12h4v-29h-4v-5h-5v13h-4v-17h-8v13h-4v-17h-9v17h-4v-38h-8v54h-4v-12h-4v-4h-9v8h4v4h5v9h4v8h4v8h4v9h33z" style=""/>
        </g>
      </g>
    </g>
  </g>
</svg>