<?xml version="1.0" encoding="utf-8"?>
<svg viewBox="211.286 426.7 690 948.437" xmlns="http://www.w3.org/2000/svg">
  <defs>
    <filter id="filter-3" color-interpolation-filters="sRGB" x="-500%" y="-500%" width="1000%" height="1000%">
      <feMorphology in="SourceAlpha" result="dilated" operator="dilate" radius="1"/>
      <feFlood flood-color="rgba(0,0,0,1)" result="flood"/>
      <feComposite in="flood" in2="dilated" operator="in" result="outline"/>
      <feMerge>
        <feMergeNode in="outline"/>
        <feMergeNode in="SourceGraphic"/>
      </feMerge>
    </filter>
    <filter id="filter-4" color-interpolation-filters="sRGB" x="-500%" y="-500%" width="1000%" height="1000%">
      <feMorphology in="SourceAlpha" result="dilated" operator="dilate" radius="0"/>
      <feFlood flood-color="rgba(255,255,255,1)" result="flood"/>
      <feComposite in="flood" in2="dilated" operator="in" result="outline"/>
      <feMerge>
        <feMergeNode in="outline"/>
        <feMergeNode in="SourceGraphic"/>
      </feMerge>
    </filter>
    <mask id="mask-5">
      <polygon style="fill: rgb(255, 255, 255);" points="91 -41 -44 -41 -44 94">
        <title>briefcase-2-mask</title>
      </polygon>
    </mask>
    <clipPath id="clip-9">
      <path style="stroke-width: 3px; fill: rgb(255, 255, 0); stroke: rgb(0, 0, 0); stroke-opacity: 0; stroke-linejoin: round; stroke-linecap: round; pointer-events: none;" d="M 214.768 255.253 C 208.387 241.371 147.803 231.913 146.804 234.787 C 122.672 296.86 217.521 311.741 214.768 255.253 Z">
        <title>Left Eye Clip</title>
      </path>
    </clipPath>
    <clipPath id="clip-10">
      <path style="stroke-width: 3px; fill: rgb(255, 255, 0); stroke: rgb(0, 0, 0); stroke-opacity: 0; stroke-linejoin: round; stroke-linecap: round; pointer-events: none;" d="M 285.049 249.847 L 333.339 223.346 C 388.849 270.474 281.291 335.727 285.049 249.847 Z">
        <title>Right Eye Clip</title>
      </path>
    </clipPath>
    <mask id="mask-6">
      <polygon style="fill: rgb(255, 255, 255);" points="-44 94 91 94 91 -41">
        <title>briefcase-3-mask</title>
      </polygon>
    </mask>
    <filter id="filter-5" color-interpolation-filters="sRGB" x="-500%" y="-500%" width="1000%" height="1000%">
      <feColorMatrix type="saturate" values="0"/>
    </filter>
    <clipPath id="clip-11">
      <path style="stroke-width: 3px; fill: rgb(255, 255, 0); stroke: rgb(0, 0, 0); stroke-opacity: 0; stroke-linejoin: round; stroke-linecap: round; pointer-events: none;" d="M 214.768 255.253 C 208.387 241.371 147.803 231.913 146.804 234.787 C 122.672 296.86 217.521 311.741 214.768 255.253 Z">
        <title>Left Eye Clip</title>
      </path>
    </clipPath>
    <clipPath id="clip-12">
      <path style="stroke-width: 3px; fill: rgb(255, 255, 0); stroke: rgb(0, 0, 0); stroke-opacity: 0; stroke-linejoin: round; stroke-linecap: round; pointer-events: none;" d="M 285.049 249.847 L 333.339 223.346 C 388.849 270.474 281.291 335.727 285.049 249.847 Z">
        <title>Right Eye Clip</title>
      </path>
    </clipPath>
    <filter id="filter-6" color-interpolation-filters="sRGB" x="-500%" y="-500%" width="1000%" height="1000%">
      <feMorphology in="SourceAlpha" result="dilated" operator="dilate" radius="10"/>
      <feFlood flood-color="rgba(0,0,0,1)" result="flood"/>
      <feComposite in="flood" in2="dilated" operator="in" result="outline"/>
      <feMerge>
        <feMergeNode in="outline"/>
        <feMergeNode in="SourceGraphic"/>
      </feMerge>
    </filter>
    <filter id="filter-7" color-interpolation-filters="sRGB" x="-500%" y="-500%" width="1000%" height="1000%">
      <feMorphology in="SourceAlpha" result="dilated" operator="dilate" radius="0"/>
      <feFlood flood-color="rgba(255,255,255,1)" result="flood"/>
      <feComposite in="flood" in2="dilated" operator="in" result="outline"/>
      <feMerge>
        <feMergeNode in="outline"/>
        <feMergeNode in="SourceGraphic"/>
      </feMerge>
    </filter>
    <mask id="mask-7">
      <polygon style="fill: rgb(255, 255, 255);" points="91 -41 -44 -41 -44 94">
        <title>briefcase-2-mask</title>
      </polygon>
    </mask>
    <clipPath id="clip-13">
      <path style="stroke-width: 3px; fill: rgb(255, 255, 0); stroke: rgb(0, 0, 0); stroke-opacity: 0; stroke-linejoin: round; stroke-linecap: round; pointer-events: none;" d="M 214.768 255.253 C 208.387 241.371 147.803 231.913 146.804 234.787 C 122.672 296.86 217.521 311.741 214.768 255.253 Z">
        <title>Left Eye Clip</title>
      </path>
    </clipPath>
    <clipPath id="clip-14">
      <path style="stroke-width: 3px; fill: rgb(255, 255, 0); stroke: rgb(0, 0, 0); stroke-opacity: 0; stroke-linejoin: round; stroke-linecap: round; pointer-events: none;" d="M 285.049 249.847 L 333.339 223.346 C 388.849 270.474 281.291 335.727 285.049 249.847 Z">
        <title>Right Eye Clip</title>
      </path>
    </clipPath>
    <mask id="mask-8">
      <polygon style="fill: rgb(255, 255, 255);" points="-44 94 91 94 91 -41">
        <title>briefcase-3-mask</title>
      </polygon>
    </mask>
    <filter id="filter-8" color-interpolation-filters="sRGB" x="-500%" y="-500%" width="1000%" height="1000%">
      <feColorMatrix type="saturate" values="0"/>
    </filter>
    <clipPath id="clip-15">
      <path style="stroke-width: 3px; fill: rgb(255, 255, 0); stroke: rgb(0, 0, 0); stroke-opacity: 0; stroke-linejoin: round; stroke-linecap: round; pointer-events: none;" d="M 214.768 255.253 C 208.387 241.371 147.803 231.913 146.804 234.787 C 122.672 296.86 217.521 311.741 214.768 255.253 Z">
        <title>Left Eye Clip</title>
      </path>
    </clipPath>
    <clipPath id="clip-16">
      <path style="stroke-width: 3px; fill: rgb(255, 255, 0); stroke: rgb(0, 0, 0); stroke-opacity: 0; stroke-linejoin: round; stroke-linecap: round; pointer-events: none;" d="M 285.049 249.847 L 333.339 223.346 C 388.849 270.474 281.291 335.727 285.049 249.847 Z">
        <title>Right Eye Clip</title>
      </path>
    </clipPath>
    <clipPath id="clip-0">
      <rect style="" x="254.542" y="631.573" width="298.753" height="159.187" rx="19.971" ry="19.971">
        <title>Mask</title>
      </rect>
    </clipPath>
    <filter id="filter-9" color-interpolation-filters="sRGB" x="-500%" y="-500%" width="1000%" height="1000%">
      <feGaussianBlur in="SourceAlpha" stdDeviation="4"/>
      <feOffset dx="0" dy="0"/>
      <feComponentTransfer result="offsetblur">
        <feFuncA id="feFuncA-1" type="linear" slope="2"/>
      </feComponentTransfer>
      <feFlood flood-color="rgba(0,0,0,0.3)"/>
      <feComposite in2="offsetblur" operator="in"/>
      <feMerge>
        <feMergeNode/>
        <feMergeNode in="SourceGraphic"/>
      </feMerge>
    </filter>
  </defs>
  <rect style="fill: rgb(245, 221, 178);" x="211.286" y="426.7" width="690" height="948.437">
    <title>Background</title>
  </rect>
  <g transform="matrix(1, 0, 0, 1, 66.285995, 331.700012)">
    <title>Browser</title>
    <g>
      <title>Window</title>
      <rect style="fill: rgb(230, 230, 230); stroke-width: 4px;" x="170" y="120" width="640" height="898.437" rx="30" ry="30">
        <title>Container</title>
      </rect>
      <path style="fill: rgb(179, 179, 179);" d="M 200 120 H 780 A 30 30 0 0 1 810 150 V 195 H 170 V 150 A 30 30 0 0 1 200 120 Z">
        <title>Top</title>
      </path>
    </g>
    <g style="">
      <title>Toolbar</title>
      <rect y="195" width="640" height="75" style="stroke-width: 4px; fill: rgb(204, 204, 204);" x="170">
        <title>Container</title>
      </rect>
      <path d="M 751.758 247.5 C 751.132 247.5 750.601 247.281 750.165 246.843 C 749.727 246.406 749.508 245.874 749.508 245.25 C 749.508 244.624 749.727 244.093 750.165 243.657 C 750.601 243.219 751.132 243 751.758 243 C 752.382 243 752.914 243.219 753.352 243.657 C 753.789 244.093 754.008 244.624 754.008 245.25 C 754.008 245.874 753.789 246.406 753.352 246.843 C 752.914 247.281 752.382 247.5 751.758 247.5 Z M 751.758 234.75 C 751.132 234.75 750.601 234.531 750.165 234.093 C 749.727 233.656 749.508 233.124 749.508 232.5 C 749.508 231.874 749.727 231.343 750.165 230.907 C 750.601 230.469 751.132 230.25 751.758 230.25 C 752.382 230.25 752.914 230.469 753.352 230.907 C 753.789 231.343 754.008 231.874 754.008 232.5 C 754.008 233.124 753.789 233.656 753.352 234.093 C 752.914 234.531 752.382 234.75 751.758 234.75 Z M 751.758 222 C 751.132 222 750.601 221.781 750.165 221.343 C 749.727 220.906 749.508 220.374 749.508 219.75 C 749.508 219.124 749.727 218.593 750.165 218.157 C 750.601 217.719 751.132 217.5 751.758 217.5 C 752.382 217.5 752.914 217.719 753.352 218.157 C 753.789 218.593 754.008 219.124 754.008 219.75 C 754.008 220.374 753.789 220.906 753.352 221.343 C 752.914 221.781 752.382 222 751.758 222 Z" style="filter: url(#filter-3);">
        <title>Vertical Dots</title>
      </path>
      <path d="M 667.62 250 L 659.812 250 C 659.095 250 658.466 249.724 657.928 249.17 C 657.389 248.616 657.12 247.951 657.12 247.174 L 657.12 239.275 C 658.437 239.126 659.566 238.609 660.508 237.727 C 661.45 236.845 661.921 235.76 661.921 234.475 C 661.921 233.188 661.45 232.103 660.508 231.221 C 659.566 230.339 658.437 229.823 657.12 229.674 L 657.12 221.775 C 657.12 221.087 657.389 220.467 657.928 219.913 C 658.466 219.359 659.095 219.083 659.812 219.083 L 667.709 219.083 C 668.039 217.887 668.607 216.907 669.415 216.145 C 670.222 215.382 671.225 215 672.421 215 C 673.588 215 674.636 215.382 675.562 216.145 C 676.491 216.907 677.118 217.887 677.446 219.083 L 685.345 219.083 C 686.033 219.083 686.654 219.359 687.207 219.913 C 687.761 220.467 688.037 221.087 688.037 221.775 L 688.037 229.674 C 689.234 230.003 690.213 230.63 690.975 231.558 C 691.738 232.484 692.12 233.532 692.12 234.699 C 692.12 235.895 691.738 236.898 690.975 237.705 C 690.213 238.513 689.234 239.081 688.037 239.411 L 688.037 247.308 C 688.037 248.025 687.761 248.654 687.207 249.192 C 686.654 249.731 686.033 250 685.345 250 L 677.537 250 C 677.388 248.564 676.819 247.405 675.832 246.523 C 674.845 245.641 673.708 245.199 672.421 245.199 C 671.285 245.199 670.238 245.641 669.281 246.523 C 668.323 247.405 667.77 248.564 667.62 250 Z">
        <title>Puzzle Piece</title>
      </path>
      <g transform="matrix(1, 0, 0, 1, 0, 2.5)">
        <title>Selected Hide-N-Seek Icon</title>
        <circle cx="577.731" cy="230" r="30" style="stroke: rgb(204, 204, 204); fill: rgb(179, 179, 179);">
          <title>Selection Indicator</title>
        </circle>
        <g style="" transform="matrix(0.486111, 0, 0, 0.486111, 566.3078, 219.494141)">
          <title>Hide-N-Seek-Icon</title>
          <path d="M -7.098 57.612 C -8.539 57.612 -9.8 57.045 -10.88 55.906 C -11.962 54.77 -12.5 53.442 -12.5 51.928 L -12.5 6.455 C -12.5 4.938 -11.962 3.61 -10.88 2.475 C -9.8 1.338 -8.539 0.768 -7.098 0.768 L 9.099 0.768 L 9.099 -8.704 C 9.099 -10.218 9.642 -11.546 10.718 -12.682 C 11.8 -13.821 13.06 -14.388 14.5 -14.388 L 32.5 -14.388 C 33.94 -14.388 35.2 -13.821 36.282 -12.682 C 37.358 -11.546 37.901 -10.218 37.901 -8.704 L 37.901 0.768 L 54.098 0.768 C 55.539 0.768 56.8 1.338 57.88 2.475 C 58.959 3.61 59.5 4.938 59.5 6.455 L 59.5 51.928 C 59.5 53.442 58.959 54.77 57.88 55.906 C 56.8 57.045 55.539 57.612 54.098 57.612 L -7.098 57.612 Z M 14.5 0.768 L 32.5 0.768 L 32.5 -8.704 L 14.5 -8.704 L 14.5 0.768 Z" style="paint-order: fill; stroke-width: 4px; stroke: rgb(0, 0, 0); filter: url(#filter-4);">
            <title>briefcase-prevent-seam</title>
          </path>
          <path style="stroke-width: 3px; stroke-opacity: 0; stroke-linejoin: round; stroke-linecap: round; stroke: rgb(186, 218, 85);" d="M 13.695 42.728 C 5.181 42.499 -3.487 32.43 6.373 21.353 C 6.698 20.47 6.794 10.524 6.976 10.524 C 7.198 8.708 13.103 17.207 14.013 18.549 C 20.212 14.327 30.345 15.734 32.993 18.791 C 33.473 18.235 37.132 12.96 38.22 12.071 C 39.939 11.881 39.247 22.507 39.427 22.32 C 47.744 26.516 47.201 40.995 34.919 42.728">
            <title>head-prevent-seam</title>
          </path>
          <g style="mask: url(#mask-5);">
            <title>briefcase-upper-left</title>
            <path d="M -7.098 57.612 C -8.539 57.612 -9.8 57.045 -10.88 55.906 C -11.962 54.77 -12.5 53.442 -12.5 51.928 L -12.5 6.455 C -12.5 4.938 -11.962 3.61 -10.88 2.475 C -9.8 1.338 -8.539 0.768 -7.098 0.768 L 9.099 0.768 L 9.099 -8.704 C 9.099 -10.218 9.642 -11.546 10.718 -12.682 C 11.8 -13.821 13.06 -14.388 14.5 -14.388 L 32.5 -14.388 C 33.94 -14.388 35.2 -13.821 36.282 -12.682 C 37.358 -11.546 37.901 -10.218 37.901 -8.704 L 37.901 0.768 L 54.098 0.768 C 55.539 0.768 56.8 1.338 57.88 2.475 C 58.959 3.61 59.5 4.938 59.5 6.455 L 59.5 51.928 C 59.5 53.442 58.959 54.77 57.88 55.906 C 56.8 57.045 55.539 57.612 54.098 57.612 L -7.098 57.612 Z M 14.5 0.768 L 32.5 0.768 L 32.5 -8.704 L 14.5 -8.704 L 14.5 0.768 Z" style="stroke: rgb(0, 0, 0); fill: rgb(217, 168, 118);">
              <title>briefcase</title>
            </path>
            <g style="" transform="matrix(0.104132, 0, 0, 0.104132, -2.532993, -0.637008)">
              <title>Charm</title>
              <path style="stroke-width: 3px; stroke-opacity: 0; stroke-linejoin: round; stroke-linecap: round; pointer-events: none; stroke: rgb(186, 218, 85);" d="M 155.839 416.452 C 74.076 414.246 -9.163 317.554 85.521 211.184 C 88.642 202.702 89.567 107.184 91.313 107.184 C 93.447 89.745 150.151 171.369 158.89 184.258 C 218.415 143.708 315.724 157.224 341.157 186.578 C 345.771 181.239 380.902 130.582 391.357 122.043 C 407.86 120.218 401.213 222.267 402.943 220.47 C 482.816 260.759 477.595 399.802 359.651 416.452">
                <title>Head</title>
              </path>
              <g style="clip-path: url(#clip-9);">
                <title>Left Eye</title>
                <path style="stroke-width: 3px; stroke-opacity: 0; stroke-linejoin: round; stroke-linecap: round; pointer-events: none; fill: rgb(217, 217, 118);" d="M 214.768 255.253 C 208.387 241.371 147.803 231.913 146.804 234.787 C 122.672 296.86 217.521 311.741 214.768 255.253 Z">
                  <title>Left Eye Outer</title>
                </path>
                <path style="fill: black; stroke-width: 3px; stroke-linejoin: round; stroke-linecap: round; pointer-events: none; stroke: rgb(0, 0, 0);" d="M 169.232 238.541 C 164.496 240.806 158.937 268.553 168.383 274.458 C 181.214 279.697 208.634 252.081 198.524 245.975 C 194.377 243.919 170.2 237.767 169.232 238.541 Z">
                  <title>Left Eye Pupil</title>
                </path>
              </g>
            </g>
          </g>
          <g style="mask: url(#mask-6);">
            <title>briefcase-lower-right</title>
            <path d="M -7.098 57.612 C -8.539 57.612 -9.8 57.045 -10.88 55.906 C -11.962 54.77 -12.5 53.442 -12.5 51.928 L -12.5 6.455 C -12.5 4.938 -11.962 3.61 -10.88 2.475 C -9.8 1.338 -8.539 0.768 -7.098 0.768 L 9.099 0.768 L 9.099 -8.704 C 9.099 -10.218 9.642 -11.546 10.718 -12.682 C 11.8 -13.821 13.06 -14.388 14.5 -14.388 L 32.5 -14.388 C 33.94 -14.388 35.2 -13.821 36.282 -12.682 C 37.358 -11.546 37.901 -10.218 37.901 -8.704 L 37.901 0.768 L 54.098 0.768 C 55.539 0.768 56.8 1.338 57.88 2.475 C 58.959 3.61 59.5 4.938 59.5 6.455 L 59.5 51.928 C 59.5 53.442 58.959 54.77 57.88 55.906 C 56.8 57.045 55.539 57.612 54.098 57.612 L -7.098 57.612 Z M 14.5 0.768 L 32.5 0.768 L 32.5 -8.704 L 14.5 -8.704 L 14.5 0.768 Z" style="stroke: rgb(0, 0, 0);">
              <title>briefcase</title>
            </path>
          </g>
        </g>
        <g>
          <title>Badge</title>
          <rect style="stroke: rgb(51, 51, 51); fill: rgb(255, 128, 128); stroke-width: 2px;" x="580.858" y="233.25" width="30.29" height="30.29" rx="5" ry="5">
            <title>Container</title>
          </rect>
          <path d="M 601.117 253.401 L 599.183 253.401 L 599.183 256.536 L 596.918 256.536 L 596.918 253.401 L 590.424 253.401 L 590.424 251.663 L 596.947 242.22 L 599.183 242.22 L 599.183 251.497 L 601.117 251.497 Z M 596.918 251.497 L 596.918 247.952 Q 596.918 247.513 596.932 247.058 Q 596.947 246.604 596.967 246.184 Q 596.986 245.765 597.006 245.408 Q 597.025 245.052 597.035 244.817 L 596.957 244.817 Q 596.771 245.208 596.547 245.613 Q 596.322 246.018 596.068 246.399 L 592.553 251.497 Z" style="fill: rgb(51, 51, 51); white-space: pre;"/>
        </g>
      </g>
    </g>
    <g transform="matrix(1, 0, 0, 1, 0, -11)" style="">
      <title>Popup</title>
      <rect style="stroke-width: 0px; filter: url(#filter-6); fill: rgb(245, 221, 178);" x="217.927" y="300.308" width="371.982" height="681.033" rx="20" ry="20">
        <title>Container</title>
      </rect>
      <g style="" transform="matrix(2.207734, 0, 0, 2.207734, 352.036255, 354.868134)">
        <title>Hide-N-Seek-Icon</title>
        <path d="M -7.098 57.612 C -8.539 57.612 -9.8 57.045 -10.88 55.906 C -11.962 54.77 -12.5 53.442 -12.5 51.928 L -12.5 6.455 C -12.5 4.938 -11.962 3.61 -10.88 2.475 C -9.8 1.338 -8.539 0.768 -7.098 0.768 L 9.099 0.768 L 9.099 -8.704 C 9.099 -10.218 9.642 -11.546 10.718 -12.682 C 11.8 -13.821 13.06 -14.388 14.5 -14.388 L 32.5 -14.388 C 33.94 -14.388 35.2 -13.821 36.282 -12.682 C 37.358 -11.546 37.901 -10.218 37.901 -8.704 L 37.901 0.768 L 54.098 0.768 C 55.539 0.768 56.8 1.338 57.88 2.475 C 58.959 3.61 59.5 4.938 59.5 6.455 L 59.5 51.928 C 59.5 53.442 58.959 54.77 57.88 55.906 C 56.8 57.045 55.539 57.612 54.098 57.612 L -7.098 57.612 Z M 14.5 0.768 L 32.5 0.768 L 32.5 -8.704 L 14.5 -8.704 L 14.5 0.768 Z" style="paint-order: fill; stroke-width: 4px; stroke: rgb(0, 0, 0); filter: url(#filter-7);">
          <title>briefcase-prevent-seam</title>
        </path>
        <path style="stroke-width: 3px; stroke-opacity: 0; stroke-linejoin: round; stroke-linecap: round; stroke: rgb(186, 218, 85);" d="M 13.695 42.728 C 5.181 42.499 -3.487 32.43 6.373 21.353 C 6.698 20.47 6.794 10.524 6.976 10.524 C 7.198 8.708 13.103 17.207 14.013 18.549 C 20.212 14.327 30.345 15.734 32.993 18.791 C 33.473 18.235 37.132 12.96 38.22 12.071 C 39.939 11.881 39.247 22.507 39.427 22.32 C 47.744 26.516 47.201 40.995 34.919 42.728">
          <title>head-prevent-seam</title>
        </path>
        <g style="mask: url(#mask-7);">
          <title>briefcase-upper-left</title>
          <path d="M -7.098 57.612 C -8.539 57.612 -9.8 57.045 -10.88 55.906 C -11.962 54.77 -12.5 53.442 -12.5 51.928 L -12.5 6.455 C -12.5 4.938 -11.962 3.61 -10.88 2.475 C -9.8 1.338 -8.539 0.768 -7.098 0.768 L 9.099 0.768 L 9.099 -8.704 C 9.099 -10.218 9.642 -11.546 10.718 -12.682 C 11.8 -13.821 13.06 -14.388 14.5 -14.388 L 32.5 -14.388 C 33.94 -14.388 35.2 -13.821 36.282 -12.682 C 37.358 -11.546 37.901 -10.218 37.901 -8.704 L 37.901 0.768 L 54.098 0.768 C 55.539 0.768 56.8 1.338 57.88 2.475 C 58.959 3.61 59.5 4.938 59.5 6.455 L 59.5 51.928 C 59.5 53.442 58.959 54.77 57.88 55.906 C 56.8 57.045 55.539 57.612 54.098 57.612 L -7.098 57.612 Z M 14.5 0.768 L 32.5 0.768 L 32.5 -8.704 L 14.5 -8.704 L 14.5 0.768 Z" style="stroke: rgb(0, 0, 0); fill: rgb(217, 168, 118);">
            <title>briefcase</title>
          </path>
          <g style="" transform="matrix(0.104132, 0, 0, 0.104132, -2.532993, -0.637008)">
            <title>Charm</title>
            <path style="stroke-width: 3px; stroke-opacity: 0; stroke-linejoin: round; stroke-linecap: round; pointer-events: none; stroke: rgb(186, 218, 85);" d="M 155.839 416.452 C 74.076 414.246 -9.163 317.554 85.521 211.184 C 88.642 202.702 89.567 107.184 91.313 107.184 C 93.447 89.745 150.151 171.369 158.89 184.258 C 218.415 143.708 315.724 157.224 341.157 186.578 C 345.771 181.239 380.902 130.582 391.357 122.043 C 407.86 120.218 401.213 222.267 402.943 220.47 C 482.816 260.759 477.595 399.802 359.651 416.452">
              <title>Head</title>
            </path>
            <g style="clip-path: url(#clip-13);">
              <title>Left Eye</title>
              <path style="stroke-width: 3px; stroke-opacity: 0; stroke-linejoin: round; stroke-linecap: round; pointer-events: none; fill: rgb(217, 217, 118);" d="M 214.768 255.253 C 208.387 241.371 147.803 231.913 146.804 234.787 C 122.672 296.86 217.521 311.741 214.768 255.253 Z">
                <title>Left Eye Outer</title>
              </path>
              <path style="fill: black; stroke-width: 3px; stroke-linejoin: round; stroke-linecap: round; pointer-events: none; stroke: rgb(0, 0, 0);" d="M 169.232 238.541 C 164.496 240.806 158.937 268.553 168.383 274.458 C 181.214 279.697 208.634 252.081 198.524 245.975 C 194.377 243.919 170.2 237.767 169.232 238.541 Z">
                <title>Left Eye Pupil</title>
              </path>
            </g>
          </g>
        </g>
        <g style="mask: url(#mask-8);">
          <title>briefcase-lower-right</title>
          <path d="M -7.098 57.612 C -8.539 57.612 -9.8 57.045 -10.88 55.906 C -11.962 54.77 -12.5 53.442 -12.5 51.928 L -12.5 6.455 C -12.5 4.938 -11.962 3.61 -10.88 2.475 C -9.8 1.338 -8.539 0.768 -7.098 0.768 L 9.099 0.768 L 9.099 -8.704 C 9.099 -10.218 9.642 -11.546 10.718 -12.682 C 11.8 -13.821 13.06 -14.388 14.5 -14.388 L 32.5 -14.388 C 33.94 -14.388 35.2 -13.821 36.282 -12.682 C 37.358 -11.546 37.901 -10.218 37.901 -8.704 L 37.901 0.768 L 54.098 0.768 C 55.539 0.768 56.8 1.338 57.88 2.475 C 58.959 3.61 59.5 4.938 59.5 6.455 L 59.5 51.928 C 59.5 53.442 58.959 54.77 57.88 55.906 C 56.8 57.045 55.539 57.612 54.098 57.612 L -7.098 57.612 Z M 14.5 0.768 L 32.5 0.768 L 32.5 -8.704 L 14.5 -8.704 L 14.5 0.768 Z" style="stroke: rgb(0, 0, 0);">
            <title>briefcase</title>
          </path>
        </g>
      </g>
      <path d="M 346.679 526.089 L 343.058 526.089 L 343.058 518.694 L 336.273 518.694 L 336.273 526.089 L 332.64 526.089 L 332.64 508.956 L 336.273 508.956 L 336.273 515.671 L 343.058 515.671 L 343.058 508.956 L 346.679 508.956 Z" style="fill: rgb(51, 51, 51); white-space: pre;"/>
      <path d="M 354.277 512.987 L 354.277 526.089 L 350.703 526.089 L 350.703 512.987 Z M 352.496 507.855 Q 353.293 507.855 353.867 508.224 Q 354.441 508.593 354.441 509.601 Q 354.441 510.597 353.867 510.978 Q 353.293 511.359 352.496 511.359 Q 351.687 511.359 351.119 510.978 Q 350.551 510.597 350.551 509.601 Q 350.551 508.593 351.119 508.224 Q 351.687 507.855 352.496 507.855 Z" style="fill: rgb(51, 51, 51); white-space: pre;"/>
      <path d="M 362.18 526.323 Q 359.988 526.323 358.611 524.607 Q 357.234 522.89 357.234 519.562 Q 357.234 516.198 358.629 514.47 Q 360.023 512.741 362.273 512.741 Q 363.211 512.741 363.926 512.999 Q 364.641 513.257 365.162 513.691 Q 365.684 514.124 366.047 514.663 L 366.164 514.663 Q 366.094 514.288 365.994 513.556 Q 365.895 512.823 365.895 512.05 L 365.895 507.855 L 369.48 507.855 L 369.48 526.089 L 366.738 526.089 L 366.047 524.39 L 365.895 524.39 Q 365.555 524.929 365.045 525.368 Q 364.535 525.808 363.832 526.066 Q 363.129 526.323 362.18 526.323 Z M 363.434 523.476 Q 364.898 523.476 365.502 522.603 Q 366.105 521.73 366.141 519.972 L 366.141 519.585 Q 366.141 517.675 365.555 516.661 Q 364.969 515.648 363.375 515.648 Q 362.191 515.648 361.523 516.667 Q 360.855 517.687 360.855 519.609 Q 360.855 521.53 361.529 522.503 Q 362.203 523.476 363.434 523.476 Z" style="fill: rgb(51, 51, 51); white-space: pre;"/>
      <path d="M 378.606 512.741 Q 380.422 512.741 381.735 513.439 Q 383.047 514.136 383.762 515.46 Q 384.477 516.784 384.477 518.694 L 384.477 520.429 L 376.028 520.429 Q 376.086 521.941 376.936 522.802 Q 377.785 523.663 379.297 523.663 Q 380.551 523.663 381.594 523.405 Q 382.637 523.148 383.739 522.632 L 383.739 525.398 Q 382.766 525.878 381.705 526.101 Q 380.645 526.323 379.133 526.323 Q 377.164 526.323 375.647 525.597 Q 374.129 524.87 373.268 523.382 Q 372.407 521.894 372.407 519.632 Q 372.407 517.335 373.186 515.806 Q 373.965 514.276 375.36 513.509 Q 376.754 512.741 378.606 512.741 Z M 378.629 515.284 Q 377.586 515.284 376.901 515.952 Q 376.215 516.62 376.11 518.05 L 381.125 518.05 Q 381.114 517.253 380.838 516.632 Q 380.563 516.011 380.018 515.648 Q 379.473 515.284 378.629 515.284 Z" style="fill: rgb(51, 51, 51); white-space: pre;"/>
      <path d="M 401.051 512.741 Q 403.149 512.741 404.426 513.884 Q 405.704 515.026 405.704 517.546 L 405.704 526.089 L 402.13 526.089 L 402.13 518.437 Q 402.13 517.03 401.62 516.316 Q 401.11 515.601 400.02 515.601 Q 398.38 515.601 397.782 516.714 Q 397.184 517.827 397.184 519.925 L 397.184 526.089 L 393.61 526.089 L 393.61 512.987 L 396.34 512.987 L 396.821 514.663 L 397.02 514.663 Q 397.442 513.984 398.069 513.562 Q 398.696 513.14 399.464 512.941 Q 400.231 512.741 401.051 512.741 Z" style="fill: rgb(51, 51, 51); white-space: pre;"/>
      <path d="M 412.329 508.956 L 411.849 515.144 L 409.54 515.144 L 409.059 508.956 Z" style="fill: rgb(51, 51, 51); white-space: pre;"/>
      <path d="M 432.396 521.331 Q 432.396 522.855 431.657 523.98 Q 430.919 525.105 429.507 525.714 Q 428.095 526.323 426.079 526.323 Q 425.189 526.323 424.339 526.206 Q 423.489 526.089 422.71 525.86 Q 421.931 525.632 421.228 525.292 L 421.228 521.917 Q 422.446 522.456 423.759 522.89 Q 425.071 523.323 426.36 523.323 Q 427.251 523.323 427.796 523.089 Q 428.341 522.855 428.587 522.444 Q 428.833 522.034 428.833 521.507 Q 428.833 520.862 428.4 520.405 Q 427.966 519.948 427.21 519.55 Q 426.454 519.151 425.505 518.694 Q 424.907 518.413 424.204 518.009 Q 423.501 517.605 422.868 517.019 Q 422.235 516.433 421.831 515.595 Q 421.427 514.757 421.427 513.585 Q 421.427 512.05 422.13 510.96 Q 422.833 509.87 424.14 509.29 Q 425.446 508.71 427.228 508.71 Q 428.564 508.71 429.776 509.021 Q 430.989 509.331 432.314 509.917 L 431.142 512.741 Q 429.958 512.261 429.021 511.997 Q 428.083 511.734 427.11 511.734 Q 426.431 511.734 425.95 511.95 Q 425.47 512.167 425.224 512.56 Q 424.978 512.952 424.978 513.468 Q 424.978 514.077 425.335 514.493 Q 425.692 514.909 426.413 515.296 Q 427.134 515.683 428.212 516.198 Q 429.525 516.819 430.456 517.493 Q 431.388 518.167 431.892 519.075 Q 432.396 519.984 432.396 521.331 Z" style="fill: rgb(51, 51, 51); white-space: pre;"/>
      <path d="M 440.622 512.741 Q 442.439 512.741 443.751 513.439 Q 445.064 514.136 445.779 515.46 Q 446.493 516.784 446.493 518.694 L 446.493 520.429 L 438.044 520.429 Q 438.103 521.941 438.952 522.802 Q 439.802 523.663 441.314 523.663 Q 442.568 523.663 443.611 523.405 Q 444.654 523.148 445.755 522.632 L 445.755 525.398 Q 444.783 525.878 443.722 526.101 Q 442.661 526.323 441.15 526.323 Q 439.181 526.323 437.663 525.597 Q 436.146 524.87 435.284 523.382 Q 434.423 521.894 434.423 519.632 Q 434.423 517.335 435.202 515.806 Q 435.982 514.276 437.376 513.509 Q 438.771 512.741 440.622 512.741 Z M 440.646 515.284 Q 439.603 515.284 438.917 515.952 Q 438.232 516.62 438.126 518.05 L 443.142 518.05 Q 443.13 517.253 442.855 516.632 Q 442.579 516.011 442.034 515.648 Q 441.49 515.284 440.646 515.284 Z" style="fill: rgb(51, 51, 51); white-space: pre;"/>
      <path d="M 454.794 512.741 Q 456.611 512.741 457.923 513.439 Q 459.236 514.136 459.951 515.46 Q 460.666 516.784 460.666 518.694 L 460.666 520.429 L 452.216 520.429 Q 452.275 521.941 453.125 522.802 Q 453.974 523.663 455.486 523.663 Q 456.74 523.663 457.783 523.405 Q 458.826 523.148 459.927 522.632 L 459.927 525.398 Q 458.955 525.878 457.894 526.101 Q 456.834 526.323 455.322 526.323 Q 453.353 526.323 451.835 525.597 Q 450.318 524.87 449.457 523.382 Q 448.595 521.894 448.595 519.632 Q 448.595 517.335 449.375 515.806 Q 450.154 514.276 451.548 513.509 Q 452.943 512.741 454.794 512.741 Z M 454.818 515.284 Q 453.775 515.284 453.089 515.952 Q 452.404 516.62 452.298 518.05 L 457.314 518.05 Q 457.302 517.253 457.027 516.632 Q 456.751 516.011 456.207 515.648 Q 455.662 515.284 454.818 515.284 Z" style="fill: rgb(51, 51, 51); white-space: pre;"/>
      <path d="M 467.138 507.855 L 467.138 516.011 Q 467.138 516.749 467.08 517.487 Q 467.021 518.226 466.951 518.964 L 466.998 518.964 Q 467.361 518.448 467.742 517.944 Q 468.123 517.441 468.556 516.972 L 472.224 512.987 L 476.256 512.987 L 471.053 518.671 L 476.572 526.089 L 472.447 526.089 L 468.674 520.78 L 467.138 522.011 L 467.138 526.089 L 463.564 526.089 L 463.564 507.855 Z" style="fill: rgb(51, 51, 51); white-space: pre;"/>
      <g style="" transform="matrix(1, 0, 0, 1.002947, -0.000488, -1.638952)">
        <title>Options Panel</title>
        <rect style="fill: rgb(217, 168, 118);" x="235.93" y="556.136" width="335.977" height="406.221" rx="20" ry="20">
          <title>Container</title>
        </rect>
        <g transform="matrix(1.812327, 0, 0, 1.812327, 328.797546, 574.741455)" style="">
          <title>LinkedIn Logo</title>
          <polygon class="st0" points="0 3.1 3.2 3.1 3.2 14.9 9.2 14.9 9.2 17.9 0 17.9" style="fill: rgb(10, 102, 194);"/>
          <path class="st0" d="m10.7 7.9h3.1v10h-3.1v-10zm1.5-5c1 0 1.8 0.8 1.8 1.8s-0.8 1.8-1.8 1.8-1.8-0.8-1.8-1.8 0.8-1.8 1.8-1.8" style="fill: rgb(10, 102, 194);"/>
          <polygon class="st0" points="26.8 3.1 29.9 3.1 29.9 11.9 33.4 7.9 37.2 7.9 33.2 12.5 37.2 17.9 33.3 17.9 29.9 12.9 29.9 12.9 29.9 17.9 26.8 17.9" style="fill: rgb(10, 102, 194);"/>
          <path class="st0" d="m15.5 7.9h3v1.4c0.6-1 1.7-1.7 2.9-1.6 3.2 0 3.7 2.1 3.7 4.8v5.5h-3.1v-5c0-1.2 0-2.7-1.6-2.7s-1.9 1.3-1.9 2.6v5h-3.1v-10z" style="fill: rgb(10, 102, 194);"/>
          <path class="st0" d="m43.8 11.7c0-1-0.8-1.9-1.8-1.9h-0.1c-1.1-0.1-2.1 0.8-2.2 1.9h4.1zm2.6 4.5c-1 1.3-2.6 2-4.3 2-3.1 0-5.6-2.1-5.6-5.3s2.5-5.3 5.6-5.3c2.9 0 4.7 2.1 4.7 5.3v1h-7.2c0.2 1.1 1.2 2 2.3 2 0.9 0 1.7-0.5 2.2-1.2l2.3 1.5z" style="fill: rgb(10, 102, 194);"/>
          <path class="st0" d="m53.4 10.3c-1.6 0-2.5 1-2.5 2.6s0.9 2.6 2.5 2.6 2.5-1 2.5-2.6-0.9-2.6-2.5-2.6m5.4 7.6h-2.9v-1.3c-0.7 1-1.9 1.6-3.1 1.6-3 0-5-2.2-5-5.2 0-2.8 1.7-5.4 4.6-5.4 1.3 0 2.5 0.4 3.2 1.3v-5.8h3.1l0.1 14.8z" style="fill: rgb(10, 102, 194);"/>
          <path class="st0" d="m81.3 0h-17.9c-0.8 0-1.5 0.7-1.6 1.5v18c0 0.8 0.7 1.5 1.6 1.5h17.9c0.8 0 1.5-0.7 1.6-1.5v-18c0-0.8-0.7-1.5-1.6-1.5zm-13.2 17.9h-3.1v-10h3.1v10zm-1.6-11.4c-1 0-1.8-0.8-1.8-1.8s0.8-1.8 1.8-1.8 1.8 0.8 1.8 1.8-0.8 1.8-1.8 1.8zm13.3 11.4h-3.1v-4.9c0-1.2 0-2.7-1.6-2.7s-1.9 1.3-1.9 2.6v5h-3.1v-10h3v1.4c0.6-1 1.7-1.7 2.9-1.6 3.2 0 3.7 2.1 3.7 4.8l0.1 5.4z" style="fill: rgb(10, 102, 194);"/>
        </g>
        <g transform="matrix(1, 0, 0, 1, -0.000015, -0.259925)">
          <title>Hidden Jobs List</title>
          <rect style="fill: rgba(255, 255, 255, 0.1);" x="254.542" y="631.573" width="298.753" height="159.187" rx="19.971" ry="19.971">
            <title>Container</title>
          </rect>
          <g transform="matrix(1, 0, 0, 1, -28.220989, 10.204979)">
            <title>Expand Collapse Button</title>
            <rect style="fill: rgba(0, 0, 0, 0.2);" x="293.398" y="686.306" width="18.606" height="29.311" rx="9.286" ry="9.286">
              <title>Container</title>
            </rect>
            <g transform="matrix(1.155613, 0, 0, 1.155613, -89.190308, -118.841255)" style="">
              <title>Icon</title>
              <g class=".top-half" transform="matrix(1, 0, 0, 0.997062, 327.113556, 697.394897)">
                <title>Top</title>
                <path d="M 8.225 8.325 C 8.042 8.142 7.95 7.9 7.95 7.6 C 7.95 7.3 8.042 7.058 8.225 6.875 L 11.3 3.8 C 11.4 3.7 11.508 3.629 11.625 3.587 C 11.742 3.546 11.867 3.525 12 3.525 C 12.133 3.525 12.263 3.546 12.388 3.587 C 12.513 3.629 12.617 3.7 12.7 3.8 L 15.8 6.9 C 15.983 7.083 16.071 7.321 16.062 7.612 C 16.054 7.904 15.958 8.142 15.775 8.325 C 15.592 8.508 15.35 8.6 15.05 8.6 C 14.75 8.6 14.508 8.508 14.325 8.325 L 12 6 L 9.65 8.35 C 9.467 8.533 9.229 8.621 8.938 8.613 C 8.646 8.604 8.408 8.508 8.225 8.325 L 8.225 8.325 Z" style="fill: rgba(0, 0, 0, 0.5);"/>
              </g>
              <g class=".bottom-half" transform="matrix(1, 0, 0, 0.997062, 327.113556, 697.394897)">
                <title>Bottom</title>
                <path d="M 12 20.575 C 11.867 20.575 11.742 20.55 11.625 20.5 C 11.508 20.45 11.4 20.383 11.3 20.3 L 8.225 17.225 C 8.042 17.042 7.95 16.8 7.95 16.5 C 7.95 16.2 8.042 15.958 8.225 15.775 C 8.408 15.592 8.65 15.5 8.95 15.5 C 9.25 15.5 9.492 15.592 9.675 15.775 L 12 18.1 L 14.35 15.75 C 14.533 15.567 14.771 15.479 15.062 15.488 C 15.354 15.496 15.592 15.592 15.775 15.775 C 15.958 15.958 16.05 16.2 16.05 16.5 C 16.05 16.8 15.958 17.042 15.775 17.225 L 12.7 20.3 C 12.617 20.383 12.513 20.45 12.388 20.5 C 12.263 20.55 12.133 20.575 12 20.575 Z" style="fill: rgba(0, 0, 0, 0.5);"/>
              </g>
            </g>
          </g>
          <g transform="matrix(1, 0, 0, 1, -0.054001, 0.821892)">
            <title>Hidden Jobs</title>
            <g>
              <title>Hidden Job 1</title>
              <rect style="fill: rgba(255, 255, 0, 0.3);" x="293.94" y="639.662" width="220.065" height="41.323" rx="19.971" ry="19.971">
                <title>Container</title>
              </rect>
              <path d="M 1741.854 1019.483 Q 1750.761 1019.483 1754.869 1023.04 Q 1758.976 1026.597 1758.976 1033.143 Q 1758.976 1036.102 1758.032 1038.762 Q 1757.088 1041.421 1754.963 1043.452 Q 1752.839 1045.482 1749.376 1046.662 Q 1745.914 1047.842 1740.878 1047.842 L 1735.622 1047.842 L 1735.622 1065.5 L 1729.169 1065.5 L 1729.169 1019.483 Z M 1741.35 1024.897 L 1735.622 1024.897 L 1735.622 1042.397 L 1740.186 1042.397 Q 1744.183 1042.397 1746.89 1041.5 Q 1749.597 1040.603 1750.982 1038.62 Q 1752.367 1036.637 1752.367 1033.395 Q 1752.367 1029.115 1749.691 1027.006 Q 1747.016 1024.897 1741.35 1024.897 Z" transform="matrix(0.248986, 0, 0, 0.248255, -62.492039, 401.996765)"/>
              <path d="M 1784.224 1030.185 Q 1785.168 1030.185 1786.27 1030.295 Q 1787.371 1030.405 1788.158 1030.562 L 1787.497 1036.448 Q 1786.742 1036.259 1785.75 1036.134 Q 1784.759 1036.008 1783.909 1036.008 Q 1781.895 1036.008 1780.069 1036.763 Q 1778.243 1037.519 1776.858 1038.951 Q 1775.474 1040.383 1774.687 1042.444 Q 1773.9 1044.506 1773.9 1047.15 L 1773.9 1065.5 L 1767.542 1065.5 L 1767.542 1030.814 L 1772.641 1030.814 L 1773.396 1037.078 L 1773.679 1037.078 Q 1774.75 1035.189 1776.276 1033.616 Q 1777.803 1032.042 1779.801 1031.113 Q 1781.8 1030.185 1784.224 1030.185 Z" transform="matrix(0.248986, 0, 0, 0.248255, -62.492039, 401.996765)"/>
              <path d="M 1824.9 1048.094 Q 1824.9 1052.375 1823.783 1055.727 Q 1822.665 1059.079 1820.541 1061.392 Q 1818.416 1063.706 1815.426 1064.918 Q 1812.436 1066.13 1808.659 1066.13 Q 1805.134 1066.13 1802.191 1064.918 Q 1799.248 1063.706 1797.107 1061.392 Q 1794.967 1059.079 1793.803 1055.727 Q 1792.638 1052.375 1792.638 1048.094 Q 1792.638 1042.397 1794.589 1038.384 Q 1796.541 1034.371 1800.176 1032.278 Q 1803.812 1030.185 1808.848 1030.185 Q 1813.632 1030.185 1817.252 1032.294 Q 1820.871 1034.402 1822.886 1038.4 Q 1824.9 1042.397 1824.9 1048.094 Z M 1799.122 1048.094 Q 1799.122 1052.092 1800.145 1054.972 Q 1801.168 1057.852 1803.292 1059.394 Q 1805.417 1060.936 1808.785 1060.936 Q 1812.09 1060.936 1814.23 1059.394 Q 1816.37 1057.852 1817.377 1054.972 Q 1818.385 1052.092 1818.385 1048.094 Q 1818.385 1044.128 1817.377 1041.296 Q 1816.37 1038.463 1814.246 1036.952 Q 1812.121 1035.441 1808.722 1035.441 Q 1803.749 1035.441 1801.435 1038.762 Q 1799.122 1042.082 1799.122 1048.094 Z" transform="matrix(0.248986, 0, 0, 0.248255, -62.492039, 401.996765)"/>
              <path d="M 1872.055 1030.185 Q 1877.815 1030.185 1880.758 1033.191 Q 1883.7 1036.197 1883.7 1042.806 L 1883.7 1065.5 L 1877.437 1065.5 L 1877.437 1043.593 Q 1877.437 1039.501 1875.753 1037.456 Q 1874.069 1035.41 1870.733 1035.41 Q 1866.011 1035.41 1863.918 1038.258 Q 1861.825 1041.107 1861.825 1046.615 L 1861.825 1065.5 L 1855.53 1065.5 L 1855.53 1043.593 Q 1855.53 1040.855 1854.775 1039.045 Q 1854.019 1037.235 1852.54 1036.322 Q 1851.061 1035.41 1848.794 1035.41 Q 1845.552 1035.41 1843.617 1036.81 Q 1841.681 1038.211 1840.815 1040.949 Q 1839.95 1043.688 1839.95 1047.654 L 1839.95 1065.5 L 1833.623 1065.5 L 1833.623 1030.814 L 1838.628 1030.814 L 1839.541 1035.599 L 1839.887 1035.599 Q 1840.926 1033.804 1842.515 1032.608 Q 1844.105 1031.412 1846.056 1030.799 Q 1848.008 1030.185 1850.179 1030.185 Q 1854.082 1030.185 1856.758 1031.601 Q 1859.433 1033.018 1860.692 1035.913 L 1861.101 1035.913 Q 1862.769 1032.986 1865.712 1031.585 Q 1868.655 1030.185 1872.055 1030.185 Z" transform="matrix(0.248986, 0, 0, 0.248255, -62.492039, 401.996765)"/>
              <path d="M 1924.493 1048.094 Q 1924.493 1052.375 1923.376 1055.727 Q 1922.258 1059.079 1920.134 1061.392 Q 1918.009 1063.706 1915.019 1064.918 Q 1912.029 1066.13 1908.252 1066.13 Q 1904.727 1066.13 1901.784 1064.918 Q 1898.841 1063.706 1896.7 1061.392 Q 1894.56 1059.079 1893.395 1055.727 Q 1892.231 1052.375 1892.231 1048.094 Q 1892.231 1042.397 1894.182 1038.384 Q 1896.134 1034.371 1899.769 1032.278 Q 1903.405 1030.185 1908.441 1030.185 Q 1913.225 1030.185 1916.844 1032.294 Q 1920.464 1034.402 1922.479 1038.4 Q 1924.493 1042.397 1924.493 1048.094 Z M 1898.715 1048.094 Q 1898.715 1052.092 1899.738 1054.972 Q 1900.761 1057.852 1902.885 1059.394 Q 1905.01 1060.936 1908.378 1060.936 Q 1911.683 1060.936 1913.823 1059.394 Q 1915.963 1057.852 1916.97 1054.972 Q 1917.978 1052.092 1917.978 1048.094 Q 1917.978 1044.128 1916.97 1041.296 Q 1915.963 1038.463 1913.839 1036.952 Q 1911.714 1035.441 1908.315 1035.441 Q 1903.342 1035.441 1901.028 1038.762 Q 1898.715 1042.082 1898.715 1048.094 Z" transform="matrix(0.248986, 0, 0, 0.248255, -62.492039, 401.996765)"/>
              <path d="M 1945.303 1060.999 Q 1946.656 1060.999 1948.041 1060.763 Q 1949.426 1060.527 1950.433 1060.149 L 1950.433 1064.996 Q 1949.363 1065.469 1947.585 1065.799 Q 1945.806 1066.13 1943.949 1066.13 Q 1941.117 1066.13 1938.819 1065.154 Q 1936.521 1064.178 1935.152 1061.817 Q 1933.783 1059.457 1933.783 1055.271 L 1933.783 1035.693 L 1928.967 1035.693 L 1928.967 1032.766 L 1934.003 1030.437 L 1936.238 1022.945 L 1940.141 1022.945 L 1940.141 1030.814 L 1950.181 1030.814 L 1950.181 1035.693 L 1940.141 1035.693 L 1940.141 1055.176 Q 1940.141 1058.103 1941.541 1059.551 Q 1942.942 1060.999 1945.303 1060.999 Z" transform="matrix(0.248986, 0, 0, 0.248255, -62.492039, 401.996765)"/>
              <path d="M 1971.037 1030.185 Q 1975.57 1030.185 1978.811 1032.121 Q 1982.053 1034.056 1983.785 1037.581 Q 1985.516 1041.107 1985.516 1045.891 L 1985.516 1049.479 L 1961.972 1049.479 Q 1962.067 1055.05 1964.836 1058.025 Q 1967.606 1060.999 1972.611 1060.999 Q 1975.916 1060.999 1978.497 1060.37 Q 1981.078 1059.74 1983.847 1058.512 L 1983.847 1063.832 Q 1981.235 1065.028 1978.607 1065.579 Q 1975.979 1066.13 1972.328 1066.13 Q 1967.292 1066.13 1963.499 1064.115 Q 1959.706 1062.101 1957.597 1058.151 Q 1955.488 1054.2 1955.488 1048.409 Q 1955.488 1042.68 1957.408 1038.604 Q 1959.328 1034.528 1962.822 1032.357 Q 1966.316 1030.185 1971.037 1030.185 Z M 1971.006 1035.095 Q 1967.166 1035.095 1964.836 1037.597 Q 1962.507 1040.099 1962.098 1044.758 L 1979.158 1044.758 Q 1979.126 1041.894 1978.245 1039.722 Q 1977.364 1037.55 1975.585 1036.322 Q 1973.807 1035.095 1971.006 1035.095 Z" transform="matrix(0.248986, 0, 0, 0.248255, -62.492039, 401.996765)"/>
              <path d="M 2006.081 1066.13 Q 1999.723 1066.13 1995.93 1061.629 Q 1992.138 1057.128 1992.138 1048.283 Q 1992.138 1039.344 1995.993 1034.764 Q 1999.849 1030.185 2006.238 1030.185 Q 2008.914 1030.185 2010.928 1030.909 Q 2012.943 1031.633 2014.406 1032.829 Q 2015.87 1034.025 2016.846 1035.536 L 2017.223 1035.536 Q 2017.066 1034.56 2016.909 1032.797 Q 2016.751 1031.035 2016.751 1029.713 L 2016.751 1016.525 L 2023.078 1016.525 L 2023.078 1065.5 L 2018.073 1065.5 L 2017.035 1060.684 L 2016.751 1060.684 Q 2015.807 1062.195 2014.343 1063.438 Q 2012.88 1064.682 2010.85 1065.406 Q 2008.819 1066.13 2006.081 1066.13 Z M 2007.56 1060.968 Q 2012.691 1060.968 2014.816 1058.009 Q 2016.94 1055.05 2016.972 1049.227 L 2016.972 1048.252 Q 2016.972 1042.051 2014.941 1038.73 Q 2012.911 1035.41 2007.498 1035.41 Q 2003.091 1035.41 2000.856 1038.856 Q 1998.621 1042.303 1998.621 1048.409 Q 1998.621 1054.452 2000.856 1057.71 Q 2003.091 1060.968 2007.56 1060.968 Z" transform="matrix(0.248986, 0, 0, 0.248255, -62.492039, 401.996765)"/>
              <path d="M 488.372 665.154 C 488.598 665.379 488.869 665.491 489.189 665.491 C 489.508 665.491 489.78 665.379 490.005 665.154 L 493.217 661.952 L 496.429 665.154 C 496.654 665.379 496.926 665.491 497.245 665.491 C 497.565 665.491 497.846 665.379 498.091 665.154 C 498.316 664.911 498.425 664.63 498.415 664.312 C 498.406 663.994 498.288 663.722 498.062 663.498 L 494.879 660.324 L 498.091 657.122 C 498.316 656.897 498.429 656.626 498.429 656.307 C 498.429 655.989 498.316 655.707 498.091 655.464 C 497.846 655.24 497.565 655.127 497.245 655.127 C 496.926 655.127 496.654 655.24 496.429 655.464 L 493.217 658.666 L 489.977 655.436 C 489.77 655.23 489.508 655.127 489.189 655.127 C 488.869 655.127 488.598 655.24 488.372 655.464 C 488.146 655.689 488.034 655.96 488.034 656.28 C 488.034 656.597 488.146 656.869 488.372 657.094 L 491.583 660.324 L 488.343 663.555 C 488.136 663.76 488.034 664.023 488.034 664.34 C 488.034 664.658 488.146 664.93 488.372 665.154 Z M 493.217 671.559 C 491.658 671.559 490.193 671.264 488.822 670.674 C 487.451 670.085 486.258 669.284 485.244 668.273 C 484.23 667.263 483.427 666.073 482.836 664.706 C 482.245 663.338 481.948 661.878 481.948 660.324 C 481.948 658.769 482.245 657.309 482.836 655.941 C 483.427 654.574 484.23 653.386 485.244 652.374 C 486.258 651.363 487.451 650.562 488.822 649.972 C 490.193 649.383 491.658 649.088 493.217 649.088 C 494.776 649.088 496.241 649.383 497.612 649.972 C 498.983 650.562 500.176 651.363 501.19 652.374 C 502.204 653.386 503.007 654.574 503.598 655.941 C 504.189 657.309 504.486 658.769 504.486 660.324 C 504.486 661.878 504.189 663.338 503.598 664.706 C 503.007 666.073 502.204 667.263 501.19 668.273 C 500.176 669.284 498.983 670.085 497.612 670.674 C 496.241 671.264 494.776 671.559 493.217 671.559 Z" style=""/>
            </g>
            <g transform="matrix(1, 0, 0, 1, 0, 50.021118)">
              <title>Hidden Job 2</title>
              <rect style="fill: rgba(255, 255, 255, 0.3);" x="293.94" y="639.662" width="220.065" height="41.323" rx="19.971" ry="19.971">
                <title>Container</title>
              </rect>
              <path d="M 1741.854 1019.483 Q 1750.761 1019.483 1754.869 1023.04 Q 1758.976 1026.597 1758.976 1033.143 Q 1758.976 1036.102 1758.032 1038.762 Q 1757.088 1041.421 1754.963 1043.452 Q 1752.839 1045.482 1749.376 1046.662 Q 1745.914 1047.842 1740.878 1047.842 L 1735.622 1047.842 L 1735.622 1065.5 L 1729.169 1065.5 L 1729.169 1019.483 Z M 1741.35 1024.897 L 1735.622 1024.897 L 1735.622 1042.397 L 1740.186 1042.397 Q 1744.183 1042.397 1746.89 1041.5 Q 1749.597 1040.603 1750.982 1038.62 Q 1752.367 1036.637 1752.367 1033.395 Q 1752.367 1029.115 1749.691 1027.006 Q 1747.016 1024.897 1741.35 1024.897 Z" transform="matrix(0.248986, 0, 0, 0.248255, -86.226395, 401.996765)" style="white-space: pre;"/>
              <path d="M 1780.824 1030.216 Q 1787.245 1030.216 1790.424 1033.065 Q 1793.603 1035.913 1793.603 1042.051 L 1793.603 1065.5 L 1789.071 1065.5 L 1787.843 1060.464 L 1787.592 1060.464 Q 1786.144 1062.352 1784.57 1063.611 Q 1782.996 1064.87 1780.935 1065.5 Q 1778.873 1066.13 1775.914 1066.13 Q 1772.767 1066.13 1770.312 1064.996 Q 1767.857 1063.863 1766.456 1061.581 Q 1765.055 1059.299 1765.055 1055.774 Q 1765.055 1050.486 1769.116 1047.748 Q 1773.176 1045.01 1781.422 1044.758 L 1787.403 1044.506 L 1787.403 1042.555 Q 1787.403 1038.494 1785.593 1036.826 Q 1783.783 1035.158 1780.541 1035.158 Q 1777.866 1035.158 1775.411 1035.929 Q 1772.956 1036.7 1770.689 1037.77 L 1768.675 1033.175 Q 1771.13 1031.916 1774.262 1031.066 Q 1777.394 1030.216 1780.824 1030.216 Z M 1787.34 1048.661 L 1782.493 1048.881 Q 1776.481 1049.101 1774.041 1050.88 Q 1771.602 1052.658 1771.602 1055.837 Q 1771.602 1058.607 1773.27 1059.897 Q 1774.938 1061.188 1777.677 1061.188 Q 1781.895 1061.188 1784.617 1058.812 Q 1787.34 1056.435 1787.34 1051.777 Z" transform="matrix(0.248986, 0, 0, 0.248255, -86.226395, 401.996765)" style="white-space: pre;"/>
              <path d="M 1798.809 1030.814 L 1805.639 1030.814 L 1813.004 1050.801 Q 1813.571 1052.343 1814.059 1053.807 Q 1814.547 1055.271 1814.909 1056.64 Q 1815.27 1058.009 1815.491 1059.331 L 1815.711 1059.331 Q 1816.089 1057.726 1816.781 1055.428 Q 1817.474 1053.13 1818.292 1050.77 L 1825.343 1030.814 L 1832.141 1030.814 L 1817.159 1070.41 Q 1815.931 1073.715 1814.185 1076.091 Q 1812.438 1078.468 1810.046 1079.743 Q 1807.653 1081.017 1804.38 1081.017 Q 1802.869 1081.017 1801.72 1080.844 Q 1800.572 1080.671 1799.753 1080.451 L 1799.753 1075.415 Q 1800.446 1075.572 1801.437 1075.698 Q 1802.429 1075.824 1803.499 1075.824 Q 1805.482 1075.824 1806.914 1075.053 Q 1808.346 1074.282 1809.369 1072.865 Q 1810.392 1071.449 1811.084 1069.56 L 1812.658 1065.469 Z" transform="matrix(0.248986, 0, 0, 0.248255, -86.226395, 401.996765)" style="white-space: pre;"/>
              <path d="M 1850.702 1041.516 L 1862.285 1019.483 L 1869.21 1019.483 L 1853.913 1047.622 L 1853.913 1065.5 L 1847.46 1065.5 L 1847.46 1047.905 L 1832.132 1019.483 L 1839.182 1019.483 Z" transform="matrix(0.248986, 0, 0, 0.248255, -86.226395, 401.996765)" style="white-space: pre;"/>
              <path d="M 1904.851 1048.094 Q 1904.851 1052.375 1903.733 1055.727 Q 1902.616 1059.079 1900.491 1061.392 Q 1898.367 1063.706 1895.376 1064.918 Q 1892.386 1066.13 1888.609 1066.13 Q 1885.084 1066.13 1882.141 1064.918 Q 1879.198 1063.706 1877.058 1061.392 Q 1874.918 1059.079 1873.753 1055.727 Q 1872.588 1052.375 1872.588 1048.094 Q 1872.588 1042.397 1874.54 1038.384 Q 1876.491 1034.371 1880.127 1032.278 Q 1883.762 1030.185 1888.798 1030.185 Q 1893.582 1030.185 1897.202 1032.294 Q 1900.822 1034.402 1902.836 1038.4 Q 1904.851 1042.397 1904.851 1048.094 Z M 1879.072 1048.094 Q 1879.072 1052.092 1880.095 1054.972 Q 1881.118 1057.852 1883.243 1059.394 Q 1885.367 1060.936 1888.735 1060.936 Q 1892.04 1060.936 1894.18 1059.394 Q 1896.321 1057.852 1897.328 1054.972 Q 1898.335 1052.092 1898.335 1048.094 Q 1898.335 1044.128 1897.328 1041.296 Q 1896.321 1038.463 1894.196 1036.952 Q 1892.072 1035.441 1888.672 1035.441 Q 1883.699 1035.441 1881.386 1038.762 Q 1879.072 1042.082 1879.072 1048.094 Z" transform="matrix(0.248986, 0, 0, 0.248255, -86.226395, 401.996765)" style="white-space: pre;"/>
              <path d="M 1943.035 1030.814 L 1943.035 1065.5 L 1937.967 1065.5 L 1937.086 1060.747 L 1936.74 1060.747 Q 1935.669 1062.541 1933.97 1063.737 Q 1932.27 1064.933 1930.161 1065.531 Q 1928.052 1066.13 1925.692 1066.13 Q 1921.694 1066.13 1918.909 1064.808 Q 1916.123 1063.486 1914.691 1060.7 Q 1913.259 1057.914 1913.259 1053.508 L 1913.259 1030.814 L 1919.617 1030.814 L 1919.617 1052.627 Q 1919.617 1056.813 1921.427 1058.89 Q 1923.237 1060.968 1926.951 1060.968 Q 1930.57 1060.968 1932.695 1059.535 Q 1934.82 1058.103 1935.748 1055.349 Q 1936.677 1052.595 1936.677 1048.598 L 1936.677 1030.814 Z" transform="matrix(0.248986, 0, 0, 0.248255, -86.226395, 401.996765)" style="white-space: pre;"/>
              <path d="M 1954.587 1065.5 L 1954.587 1019.483 L 1961.039 1019.483 L 1961.039 1059.897 L 1981.026 1059.897 L 1981.026 1065.5 Z" transform="matrix(0.248986, 0, 0, 0.248255, -86.226395, 401.996765)" style="white-space: pre;"/>
              <path d="M 1994.454 1030.814 L 1994.454 1065.5 L 1988.127 1065.5 L 1988.127 1030.814 Z M 1991.338 1017.689 Q 1992.849 1017.689 1993.934 1018.57 Q 1995.02 1019.452 1995.02 1021.435 Q 1995.02 1023.418 1993.934 1024.315 Q 1992.849 1025.212 1991.338 1025.212 Q 1989.795 1025.212 1988.741 1024.315 Q 1987.687 1023.418 1987.687 1021.435 Q 1987.687 1019.452 1988.741 1018.57 Q 1989.795 1017.689 1991.338 1017.689 Z" transform="matrix(0.248986, 0, 0, 0.248255, -86.226395, 401.996765)" style="white-space: pre;"/>
              <path d="M 2017.346 1060.999 Q 2018.699 1060.999 2020.084 1060.763 Q 2021.469 1060.527 2022.476 1060.149 L 2022.476 1064.996 Q 2021.406 1065.469 2019.628 1065.799 Q 2017.85 1066.13 2015.993 1066.13 Q 2013.16 1066.13 2010.862 1065.154 Q 2008.564 1064.178 2007.195 1061.817 Q 2005.826 1059.457 2005.826 1055.271 L 2005.826 1035.693 L 2001.01 1035.693 L 2001.01 1032.766 L 2006.046 1030.437 L 2008.281 1022.945 L 2012.184 1022.945 L 2012.184 1030.814 L 2022.225 1030.814 L 2022.225 1035.693 L 2012.184 1035.693 L 2012.184 1055.176 Q 2012.184 1058.103 2013.585 1059.551 Q 2014.985 1060.999 2017.346 1060.999 Z" transform="matrix(0.248986, 0, 0, 0.248255, -86.226395, 401.996765)" style="white-space: pre;"/>
              <path d="M 2041.57 1060.999 Q 2042.923 1060.999 2044.308 1060.763 Q 2045.693 1060.527 2046.7 1060.149 L 2046.7 1064.996 Q 2045.63 1065.469 2043.852 1065.799 Q 2042.073 1066.13 2040.216 1066.13 Q 2037.383 1066.13 2035.086 1065.154 Q 2032.788 1064.178 2031.419 1061.817 Q 2030.05 1059.457 2030.05 1055.271 L 2030.05 1035.693 L 2025.234 1035.693 L 2025.234 1032.766 L 2030.27 1030.437 L 2032.505 1022.945 L 2036.408 1022.945 L 2036.408 1030.814 L 2046.448 1030.814 L 2046.448 1035.693 L 2036.408 1035.693 L 2036.408 1055.176 Q 2036.408 1058.103 2037.808 1059.551 Q 2039.209 1060.999 2041.57 1060.999 Z" transform="matrix(0.248986, 0, 0, 0.248255, -86.226395, 401.996765)" style="white-space: pre;"/>
              <path d="M 2060.065 1065.5 L 2053.707 1065.5 L 2053.707 1016.525 L 2060.065 1016.525 Z" transform="matrix(0.248986, 0, 0, 0.248255, -86.226395, 401.996765)" style="white-space: pre;"/>
              <path d="M 2084.436 1030.185 Q 2088.969 1030.185 2092.211 1032.121 Q 2095.452 1034.056 2097.184 1037.581 Q 2098.915 1041.107 2098.915 1045.891 L 2098.915 1049.479 L 2075.371 1049.479 Q 2075.466 1055.05 2078.235 1058.025 Q 2081.005 1060.999 2086.01 1060.999 Q 2089.315 1060.999 2091.896 1060.37 Q 2094.477 1059.74 2097.247 1058.512 L 2097.247 1063.832 Q 2094.634 1065.028 2092.006 1065.579 Q 2089.378 1066.13 2085.727 1066.13 Q 2080.691 1066.13 2076.898 1064.115 Q 2073.105 1062.101 2070.996 1058.151 Q 2068.887 1054.2 2068.887 1048.409 Q 2068.887 1042.68 2070.807 1038.604 Q 2072.727 1034.528 2076.221 1032.357 Q 2079.715 1030.185 2084.436 1030.185 Z M 2084.405 1035.095 Q 2080.565 1035.095 2078.235 1037.597 Q 2075.906 1040.099 2075.497 1044.758 L 2092.557 1044.758 Q 2092.525 1041.894 2091.644 1039.722 Q 2090.763 1037.55 2088.984 1036.322 Q 2087.206 1035.095 2084.405 1035.095 Z" transform="matrix(0.248986, 0, 0, 0.248255, -86.226395, 401.996765)" style="white-space: pre;"/>
              <path d="M 2124.968 1065.5 L 2124.968 1019.483 L 2131.42 1019.483 L 2131.42 1065.5 Z" transform="matrix(0.248986, 0, 0, 0.248255, -86.226395, 401.996765)" style="white-space: pre;"/>
              <path d="M 2160.256 1030.185 Q 2166.268 1030.185 2169.494 1033.206 Q 2172.72 1036.228 2172.72 1042.901 L 2172.72 1065.5 L 2166.457 1065.5 L 2166.457 1043.751 Q 2166.457 1039.596 2164.631 1037.503 Q 2162.806 1035.41 2159.029 1035.41 Q 2153.646 1035.41 2151.49 1038.589 Q 2149.334 1041.768 2149.334 1047.811 L 2149.334 1065.5 L 2143.008 1065.5 L 2143.008 1030.814 L 2148.012 1030.814 L 2148.925 1035.693 L 2149.271 1035.693 Q 2150.373 1033.867 2152.073 1032.64 Q 2153.772 1031.412 2155.865 1030.799 Q 2157.958 1030.185 2160.256 1030.185 Z" transform="matrix(0.248986, 0, 0, 0.248255, -86.226395, 401.996765)" style="white-space: pre;"/>
              <path d="M 2197.24 1066.13 Q 2192.456 1066.13 2188.868 1064.21 Q 2185.28 1062.29 2183.313 1058.339 Q 2181.345 1054.389 2181.345 1048.346 Q 2181.345 1042.051 2183.454 1038.038 Q 2185.563 1034.025 2189.293 1032.105 Q 2193.023 1030.185 2197.838 1030.185 Q 2200.671 1030.185 2203.142 1030.751 Q 2205.613 1031.318 2207.281 1032.168 L 2205.392 1037.298 Q 2203.63 1036.606 2201.6 1036.071 Q 2199.57 1035.536 2197.744 1035.536 Q 2194.408 1035.536 2192.22 1036.999 Q 2190.033 1038.463 2188.931 1041.296 Q 2187.829 1044.128 2187.829 1048.283 Q 2187.829 1052.312 2188.915 1055.097 Q 2190.001 1057.883 2192.126 1059.331 Q 2194.25 1060.779 2197.429 1060.779 Q 2200.231 1060.779 2202.465 1060.149 Q 2204.7 1059.52 2206.588 1058.544 L 2206.588 1064.115 Q 2204.763 1065.122 2202.56 1065.626 Q 2200.356 1066.13 2197.24 1066.13 Z" transform="matrix(0.248986, 0, 0, 0.248255, -86.226395, 401.996765)" style="white-space: pre;"/>
              <path d="M 2213.762 1061.912 Q 2213.762 1059.52 2214.974 1058.528 Q 2216.185 1057.537 2217.916 1057.537 Q 2219.679 1057.537 2220.907 1058.528 Q 2222.134 1059.52 2222.134 1061.912 Q 2222.134 1064.241 2220.907 1065.311 Q 2219.679 1066.381 2217.916 1066.381 Q 2216.185 1066.381 2214.974 1065.311 Q 2213.762 1064.241 2213.762 1061.912 Z" transform="matrix(0.248986, 0, 0, 0.248255, -86.226395, 401.996765)" style="white-space: pre;"/>
              <path d="M 488.372 665.154 C 488.598 665.379 488.869 665.491 489.189 665.491 C 489.508 665.491 489.78 665.379 490.005 665.154 L 493.217 661.952 L 496.429 665.154 C 496.654 665.379 496.926 665.491 497.245 665.491 C 497.565 665.491 497.846 665.379 498.091 665.154 C 498.316 664.911 498.425 664.63 498.415 664.312 C 498.406 663.994 498.288 663.722 498.062 663.498 L 494.879 660.324 L 498.091 657.122 C 498.316 656.897 498.429 656.626 498.429 656.307 C 498.429 655.989 498.316 655.707 498.091 655.464 C 497.846 655.24 497.565 655.127 497.245 655.127 C 496.926 655.127 496.654 655.24 496.429 655.464 L 493.217 658.666 L 489.977 655.436 C 489.77 655.23 489.508 655.127 489.189 655.127 C 488.869 655.127 488.598 655.24 488.372 655.464 C 488.146 655.689 488.034 655.96 488.034 656.28 C 488.034 656.597 488.146 656.869 488.372 657.094 L 491.583 660.324 L 488.343 663.555 C 488.136 663.76 488.034 664.023 488.034 664.34 C 488.034 664.658 488.146 664.93 488.372 665.154 Z M 493.217 671.559 C 491.658 671.559 490.193 671.264 488.822 670.674 C 487.451 670.085 486.258 669.284 485.244 668.273 C 484.23 667.263 483.427 666.073 482.836 664.706 C 482.245 663.338 481.948 661.878 481.948 660.324 C 481.948 658.769 482.245 657.309 482.836 655.941 C 483.427 654.574 484.23 653.386 485.244 652.374 C 486.258 651.363 487.451 650.562 488.822 649.972 C 490.193 649.383 491.658 649.088 493.217 649.088 C 494.776 649.088 496.241 649.383 497.612 649.972 C 498.983 650.562 500.176 651.363 501.19 652.374 C 502.204 653.386 503.007 654.574 503.598 655.941 C 504.189 657.309 504.486 658.769 504.486 660.324 C 504.486 661.878 504.189 663.338 503.598 664.706 C 503.007 666.073 502.204 667.263 501.19 668.273 C 500.176 669.284 498.983 670.085 497.612 670.674 C 496.241 671.264 494.776 671.559 493.217 671.559 Z" style=""/>
            </g>
            <g transform="matrix(1, 0, 0, 1, 0, 100.042236)">
              <title>Hidden Job 3</title>
              <rect style="fill: rgba(255, 255, 255, 0.3);" x="293.94" y="639.662" width="220.065" height="41.323" rx="19.971" ry="19.971">
                <title>Container</title>
              </rect>
              <path d="M 1741.854 1019.483 Q 1747.677 1019.483 1751.469 1020.915 Q 1755.262 1022.347 1757.119 1025.259 Q 1758.976 1028.17 1758.976 1032.64 Q 1758.976 1036.165 1757.686 1038.589 Q 1756.395 1041.012 1754.302 1042.555 Q 1752.209 1044.097 1749.817 1044.978 L 1762.69 1065.5 L 1755.294 1065.5 L 1744.089 1046.678 L 1735.622 1046.678 L 1735.622 1065.5 L 1729.169 1065.5 L 1729.169 1019.483 Z M 1741.445 1024.96 L 1735.622 1024.96 L 1735.622 1041.296 L 1741.885 1041.296 Q 1747.33 1041.296 1749.849 1039.171 Q 1752.367 1037.046 1752.367 1032.892 Q 1752.367 1028.58 1749.691 1026.77 Q 1747.016 1024.96 1741.445 1024.96 Z" transform="matrix(0.248986, 0, 0, 0.248255, -84.203972, 402.30127)" style="white-space: pre;"/>
              <path d="M 1782.394 1030.185 Q 1786.927 1030.185 1790.169 1032.121 Q 1793.411 1034.056 1795.142 1037.581 Q 1796.873 1041.107 1796.873 1045.891 L 1796.873 1049.479 L 1773.329 1049.479 Q 1773.424 1055.05 1776.194 1058.025 Q 1778.963 1060.999 1783.968 1060.999 Q 1787.273 1060.999 1789.854 1060.37 Q 1792.435 1059.74 1795.205 1058.512 L 1795.205 1063.832 Q 1792.592 1065.028 1789.964 1065.579 Q 1787.336 1066.13 1783.685 1066.13 Q 1778.649 1066.13 1774.856 1064.115 Q 1771.063 1062.101 1768.954 1058.151 Q 1766.845 1054.2 1766.845 1048.409 Q 1766.845 1042.68 1768.765 1038.604 Q 1770.685 1034.528 1774.179 1032.357 Q 1777.673 1030.185 1782.394 1030.185 Z M 1782.363 1035.095 Q 1778.523 1035.095 1776.194 1037.597 Q 1773.864 1040.099 1773.455 1044.758 L 1790.515 1044.758 Q 1790.483 1041.894 1789.602 1039.722 Q 1788.721 1037.55 1786.942 1036.322 Q 1785.164 1035.095 1782.363 1035.095 Z" transform="matrix(0.248986, 0, 0, 0.248255, -84.203972, 402.30127)" style="white-space: pre;"/>
              <path d="M 1822.506 1030.185 Q 1828.832 1030.185 1832.625 1034.67 Q 1836.418 1039.155 1836.418 1048.063 Q 1836.418 1053.98 1834.671 1057.993 Q 1832.924 1062.006 1829.761 1064.068 Q 1826.597 1066.13 1822.348 1066.13 Q 1819.673 1066.13 1817.659 1065.421 Q 1815.644 1064.713 1814.212 1063.533 Q 1812.78 1062.352 1811.804 1060.999 L 1811.395 1060.999 Q 1811.521 1062.227 1811.662 1063.848 Q 1811.804 1065.469 1811.804 1066.759 L 1811.804 1080.923 L 1805.446 1080.923 L 1805.446 1030.814 L 1810.64 1030.814 L 1811.489 1035.787 L 1811.804 1035.787 Q 1812.78 1034.245 1814.212 1032.97 Q 1815.644 1031.696 1817.69 1030.94 Q 1819.736 1030.185 1822.506 1030.185 Z M 1821.058 1035.41 Q 1817.721 1035.41 1815.723 1036.716 Q 1813.724 1038.022 1812.796 1040.603 Q 1811.867 1043.184 1811.804 1047.087 L 1811.804 1048.094 Q 1811.804 1052.249 1812.685 1055.097 Q 1813.567 1057.946 1815.613 1059.441 Q 1817.659 1060.936 1821.121 1060.936 Q 1824.079 1060.936 1826.047 1059.331 Q 1828.014 1057.726 1828.974 1054.798 Q 1829.934 1051.871 1829.934 1048 Q 1829.934 1042.114 1827.762 1038.762 Q 1825.59 1035.41 1821.058 1035.41 Z" transform="matrix(0.248986, 0, 0, 0.248255, -84.203972, 402.30127)" style="white-space: pre;"/>
              <path d="M 1851.591 1065.5 L 1845.233 1065.5 L 1845.233 1016.525 L 1851.591 1016.525 Z" transform="matrix(0.248986, 0, 0, 0.248255, -84.203972, 402.30127)" style="white-space: pre;"/>
              <path d="M 1875.585 1030.216 Q 1882.006 1030.216 1885.185 1033.065 Q 1888.364 1035.913 1888.364 1042.051 L 1888.364 1065.5 L 1883.832 1065.5 L 1882.604 1060.464 L 1882.352 1060.464 Q 1880.904 1062.352 1879.331 1063.611 Q 1877.757 1064.87 1875.695 1065.5 Q 1873.634 1066.13 1870.675 1066.13 Q 1867.527 1066.13 1865.072 1064.996 Q 1862.617 1063.863 1861.217 1061.581 Q 1859.816 1059.299 1859.816 1055.774 Q 1859.816 1050.486 1863.876 1047.748 Q 1867.937 1045.01 1876.183 1044.758 L 1882.163 1044.506 L 1882.163 1042.555 Q 1882.163 1038.494 1880.354 1036.826 Q 1878.544 1035.158 1875.302 1035.158 Q 1872.626 1035.158 1870.171 1035.929 Q 1867.716 1036.7 1865.45 1037.77 L 1863.436 1033.175 Q 1865.891 1031.916 1869.023 1031.066 Q 1872.154 1030.216 1875.585 1030.216 Z M 1882.1 1048.661 L 1877.253 1048.881 Q 1871.242 1049.101 1868.802 1050.88 Q 1866.363 1052.658 1866.363 1055.837 Q 1866.363 1058.607 1868.031 1059.897 Q 1869.699 1061.188 1872.438 1061.188 Q 1876.655 1061.188 1879.378 1058.812 Q 1882.1 1056.435 1882.1 1051.777 Z" transform="matrix(0.248986, 0, 0, 0.248255, -84.203972, 402.30127)" style="white-space: pre;"/>
              <path d="M 1912.833 1066.13 Q 1908.048 1066.13 1904.46 1064.21 Q 1900.872 1062.29 1898.905 1058.339 Q 1896.938 1054.389 1896.938 1048.346 Q 1896.938 1042.051 1899.046 1038.038 Q 1901.155 1034.025 1904.885 1032.105 Q 1908.615 1030.185 1913.431 1030.185 Q 1916.263 1030.185 1918.734 1030.751 Q 1921.205 1031.318 1922.873 1032.168 L 1920.985 1037.298 Q 1919.222 1036.606 1917.192 1036.071 Q 1915.162 1035.536 1913.336 1035.536 Q 1910 1035.536 1907.812 1036.999 Q 1905.625 1038.463 1904.523 1041.296 Q 1903.421 1044.128 1903.421 1048.283 Q 1903.421 1052.312 1904.507 1055.097 Q 1905.593 1057.883 1907.718 1059.331 Q 1909.842 1060.779 1913.021 1060.779 Q 1915.823 1060.779 1918.057 1060.149 Q 1920.292 1059.52 1922.181 1058.544 L 1922.181 1064.115 Q 1920.355 1065.122 1918.152 1065.626 Q 1915.949 1066.13 1912.833 1066.13 Z" transform="matrix(0.248986, 0, 0, 0.248255, -84.203972, 402.30127)" style="white-space: pre;"/>
              <path d="M 1943.927 1030.185 Q 1948.459 1030.185 1951.701 1032.121 Q 1954.943 1034.056 1956.674 1037.581 Q 1958.405 1041.107 1958.405 1045.891 L 1958.405 1049.479 L 1934.862 1049.479 Q 1934.956 1055.05 1937.726 1058.025 Q 1940.496 1060.999 1945.5 1060.999 Q 1948.805 1060.999 1951.386 1060.37 Q 1953.967 1059.74 1956.737 1058.512 L 1956.737 1063.832 Q 1954.125 1065.028 1951.497 1065.579 Q 1948.868 1066.13 1945.217 1066.13 Q 1940.181 1066.13 1936.388 1064.115 Q 1932.596 1062.101 1930.487 1058.151 Q 1928.378 1054.2 1928.378 1048.409 Q 1928.378 1042.68 1930.298 1038.604 Q 1932.218 1034.528 1935.712 1032.357 Q 1939.205 1030.185 1943.927 1030.185 Z M 1943.895 1035.095 Q 1940.055 1035.095 1937.726 1037.597 Q 1935.397 1040.099 1934.988 1044.758 L 1952.047 1044.758 Q 1952.016 1041.894 1951.135 1039.722 Q 1950.253 1037.55 1948.475 1036.322 Q 1946.697 1035.095 1943.895 1035.095 Z" transform="matrix(0.248986, 0, 0, 0.248255, -84.203972, 402.30127)" style="white-space: pre;"/>
              <path d="M 1964.02 1050.927 L 1964.02 1045.45 L 1979.947 1045.45 L 1979.947 1050.927 Z" transform="matrix(0.248986, 0, 0, 0.248255, -84.203972, 402.30127)" style="white-space: pre;"/>
              <path d="M 2023.947 1019.483 L 2023.947 1049.259 Q 2023.947 1054.106 2021.949 1057.914 Q 2019.95 1061.723 2015.921 1063.926 Q 2011.892 1066.13 2005.786 1066.13 Q 1997.131 1066.13 1992.582 1061.487 Q 1988.034 1056.844 1988.034 1049.133 L 1988.034 1019.483 L 1994.518 1019.483 L 1994.518 1048.881 Q 1994.518 1054.704 1997.43 1057.663 Q 2000.341 1060.621 2006.101 1060.621 Q 2010.067 1060.621 2012.585 1059.189 Q 2015.103 1057.757 2016.315 1055.129 Q 2017.526 1052.501 2017.526 1048.881 L 2017.526 1019.483 Z" transform="matrix(0.248986, 0, 0, 0.248255, -84.203972, 402.30127)" style="white-space: pre;"/>
              <path d="M 2032.172 1050.927 L 2032.172 1045.45 L 2048.099 1045.45 L 2048.099 1050.927 Z" transform="matrix(0.248986, 0, 0, 0.248255, -84.203972, 402.30127)" style="white-space: pre;"/>
              <path d="M 2082.909 1053.13 Q 2082.909 1057.222 2080.879 1060.133 Q 2078.849 1063.045 2075.166 1064.587 Q 2071.483 1066.13 2066.416 1066.13 Q 2063.866 1066.13 2061.553 1065.862 Q 2059.24 1065.594 2057.257 1065.091 Q 2055.274 1064.587 2053.668 1063.832 L 2053.668 1057.726 Q 2056.281 1058.796 2059.712 1059.724 Q 2063.143 1060.653 2066.794 1060.653 Q 2069.973 1060.653 2072.129 1059.787 Q 2074.285 1058.922 2075.386 1057.348 Q 2076.488 1055.774 2076.488 1053.571 Q 2076.488 1051.368 2075.418 1049.873 Q 2074.348 1048.377 2072.034 1047.118 Q 2069.721 1045.859 2065.975 1044.443 Q 2063.363 1043.499 2061.223 1042.287 Q 2059.082 1041.075 2057.524 1039.501 Q 2055.966 1037.928 2055.116 1035.803 Q 2054.267 1033.679 2054.267 1030.909 Q 2054.267 1027.1 2056.139 1024.393 Q 2058.012 1021.686 2061.38 1020.254 Q 2064.748 1018.822 2069.186 1018.822 Q 2072.837 1018.822 2076 1019.546 Q 2079.163 1020.27 2082.028 1021.529 L 2079.982 1026.88 Q 2077.306 1025.778 2074.6 1025.086 Q 2071.893 1024.393 2068.997 1024.393 Q 2066.322 1024.393 2064.48 1025.18 Q 2062.639 1025.967 2061.679 1027.415 Q 2060.719 1028.863 2060.719 1030.846 Q 2060.719 1033.08 2061.726 1034.56 Q 2062.733 1036.039 2064.905 1037.235 Q 2067.077 1038.431 2070.571 1039.785 Q 2074.505 1041.296 2077.259 1042.995 Q 2080.013 1044.695 2081.461 1047.087 Q 2082.909 1049.479 2082.909 1053.13 Z" transform="matrix(0.248986, 0, 0, 0.248255, -84.203972, 402.30127)" style="white-space: pre;"/>
              <path d="M 2121.482 1048.094 Q 2121.482 1052.375 2120.365 1055.727 Q 2119.248 1059.079 2117.123 1061.392 Q 2114.999 1063.706 2112.008 1064.918 Q 2109.018 1066.13 2105.241 1066.13 Q 2101.716 1066.13 2098.773 1064.918 Q 2095.83 1063.706 2093.69 1061.392 Q 2091.55 1059.079 2090.385 1055.727 Q 2089.22 1052.375 2089.22 1048.094 Q 2089.22 1042.397 2091.172 1038.384 Q 2093.123 1034.371 2096.759 1032.278 Q 2100.394 1030.185 2105.43 1030.185 Q 2110.214 1030.185 2113.834 1032.294 Q 2117.454 1034.402 2119.468 1038.4 Q 2121.482 1042.397 2121.482 1048.094 Z M 2095.704 1048.094 Q 2095.704 1052.092 2096.727 1054.972 Q 2097.75 1057.852 2099.875 1059.394 Q 2101.999 1060.936 2105.367 1060.936 Q 2108.672 1060.936 2110.812 1059.394 Q 2112.953 1057.852 2113.96 1054.972 Q 2114.967 1052.092 2114.967 1048.094 Q 2114.967 1044.128 2113.96 1041.296 Q 2112.953 1038.463 2110.828 1036.952 Q 2108.704 1035.441 2105.304 1035.441 Q 2100.331 1035.441 2098.018 1038.762 Q 2095.704 1042.082 2095.704 1048.094 Z" transform="matrix(0.248986, 0, 0, 0.248255, -84.203972, 402.30127)" style="white-space: pre;"/>
              <path d="M 2160.516 1048.094 Q 2160.516 1052.375 2159.399 1055.727 Q 2158.281 1059.079 2156.157 1061.392 Q 2154.032 1063.706 2151.042 1064.918 Q 2148.052 1066.13 2144.275 1066.13 Q 2140.75 1066.13 2137.807 1064.918 Q 2134.864 1063.706 2132.724 1061.392 Q 2130.583 1059.079 2129.419 1055.727 Q 2128.254 1052.375 2128.254 1048.094 Q 2128.254 1042.397 2130.206 1038.384 Q 2132.157 1034.371 2135.792 1032.278 Q 2139.428 1030.185 2144.464 1030.185 Q 2149.248 1030.185 2152.868 1032.294 Q 2156.487 1034.402 2158.502 1038.4 Q 2160.516 1042.397 2160.516 1048.094 Z M 2134.738 1048.094 Q 2134.738 1052.092 2135.761 1054.972 Q 2136.784 1057.852 2138.908 1059.394 Q 2141.033 1060.936 2144.401 1060.936 Q 2147.706 1060.936 2149.846 1059.394 Q 2151.986 1057.852 2152.994 1054.972 Q 2154.001 1052.092 2154.001 1048.094 Q 2154.001 1044.128 2152.994 1041.296 Q 2151.986 1038.463 2149.862 1036.952 Q 2147.737 1035.441 2144.338 1035.441 Q 2139.365 1035.441 2137.051 1038.762 Q 2134.738 1042.082 2134.738 1048.094 Z" transform="matrix(0.248986, 0, 0, 0.248255, -84.203972, 402.30127)" style="white-space: pre;"/>
              <path d="M 2186.551 1030.185 Q 2192.562 1030.185 2195.789 1033.206 Q 2199.015 1036.228 2199.015 1042.901 L 2199.015 1065.5 L 2192.751 1065.5 L 2192.751 1043.751 Q 2192.751 1039.596 2190.926 1037.503 Q 2189.1 1035.41 2185.323 1035.41 Q 2179.941 1035.41 2177.785 1038.589 Q 2175.629 1041.768 2175.629 1047.811 L 2175.629 1065.5 L 2169.302 1065.5 L 2169.302 1030.814 L 2174.307 1030.814 L 2175.22 1035.693 L 2175.566 1035.693 Q 2176.667 1033.867 2178.367 1032.64 Q 2180.067 1031.412 2182.16 1030.799 Q 2184.253 1030.185 2186.551 1030.185 Z" transform="matrix(0.248986, 0, 0, 0.248255, -84.203972, 402.30127)" style="white-space: pre;"/>
              <path d="M 488.372 665.154 C 488.598 665.379 488.869 665.491 489.189 665.491 C 489.508 665.491 489.78 665.379 490.005 665.154 L 493.217 661.952 L 496.429 665.154 C 496.654 665.379 496.926 665.491 497.245 665.491 C 497.565 665.491 497.846 665.379 498.091 665.154 C 498.316 664.911 498.425 664.63 498.415 664.312 C 498.406 663.994 498.288 663.722 498.062 663.498 L 494.879 660.324 L 498.091 657.122 C 498.316 656.897 498.429 656.626 498.429 656.307 C 498.429 655.989 498.316 655.707 498.091 655.464 C 497.846 655.24 497.565 655.127 497.245 655.127 C 496.926 655.127 496.654 655.24 496.429 655.464 L 493.217 658.666 L 489.977 655.436 C 489.77 655.23 489.508 655.127 489.189 655.127 C 488.869 655.127 488.598 655.24 488.372 655.464 C 488.146 655.689 488.034 655.96 488.034 656.28 C 488.034 656.597 488.146 656.869 488.372 657.094 L 491.583 660.324 L 488.343 663.555 C 488.136 663.76 488.034 664.023 488.034 664.34 C 488.034 664.658 488.146 664.93 488.372 665.154 Z M 493.217 671.559 C 491.658 671.559 490.193 671.264 488.822 670.674 C 487.451 670.085 486.258 669.284 485.244 668.273 C 484.23 667.263 483.427 666.073 482.836 664.706 C 482.245 663.338 481.948 661.878 481.948 660.324 C 481.948 658.769 482.245 657.309 482.836 655.941 C 483.427 654.574 484.23 653.386 485.244 652.374 C 486.258 651.363 487.451 650.562 488.822 649.972 C 490.193 649.383 491.658 649.088 493.217 649.088 C 494.776 649.088 496.241 649.383 497.612 649.972 C 498.983 650.562 500.176 651.363 501.19 652.374 C 502.204 653.386 503.007 654.574 503.598 655.941 C 504.189 657.309 504.486 658.769 504.486 660.324 C 504.486 661.878 504.189 663.338 503.598 664.706 C 503.007 666.073 502.204 667.263 501.19 668.273 C 500.176 669.284 498.983 670.085 497.612 670.674 C 496.241 671.264 494.776 671.559 493.217 671.559 Z" style=""/>
            </g>
          </g>
          <g style="clip-path: url(#clip-0);">
            <title>Scrollbar</title>
            <path style="fill: rgba(0, 0, 0, 0.5);" d="M 541.696 631.573 H 547.504 A 5.791 5.791 0 0 1 553.295 637.364 V 746.003 A 5.791 5.791 0 0 1 547.504 751.794 H 546.689 A 4.993 4.993 0 0 1 541.696 746.801 V 631.573 Z">
              <title>Thumb</title>
            </path>
            <rect x="541.696" y="631.573" width="11.599" height="159.187" style="fill: rgba(0, 0, 0, 0.2);">
              <title>Track</title>
            </rect>
          </g>
        </g>
        <g transform="matrix(1, 0, 0, 1, -0.000015, 0.000008)">
          <title>Unhide All Jobs and Undo Buttons</title>
          <g style="" transform="matrix(1, 0, 0, 1, 0.151715, 78.073044)">
            <title>Unhide All Jobs Button</title>
            <rect style="fill: rgb(179, 0, 0);" x="254.39" y="730.374" width="186.911" height="58.827" rx="10" ry="10">
              <title>Container</title>
            </rect>
            <path d="M 302.949 754.564 L 302.949 761.955 Q 302.949 763.158 302.453 764.103 Q 301.957 765.049 300.957 765.595 Q 299.957 766.142 298.441 766.142 Q 296.293 766.142 295.164 764.99 Q 294.035 763.838 294.035 761.924 L 294.035 754.564 L 295.644 754.564 L 295.644 761.861 Q 295.644 763.306 296.367 764.041 Q 297.09 764.775 298.519 764.775 Q 299.504 764.775 300.129 764.42 Q 300.754 764.064 301.054 763.412 Q 301.355 762.759 301.355 761.861 L 301.355 754.564 Z" style="fill: rgb(255, 255, 255); white-space: pre;"/>
            <path d="M 309.994 757.22 Q 311.486 757.22 312.287 757.97 Q 313.088 758.72 313.088 760.377 L 313.088 765.986 L 311.533 765.986 L 311.533 760.588 Q 311.533 759.556 311.08 759.037 Q 310.627 758.517 309.69 758.517 Q 308.354 758.517 307.819 759.306 Q 307.283 760.095 307.283 761.595 L 307.283 765.986 L 305.713 765.986 L 305.713 757.377 L 306.955 757.377 L 307.182 758.588 L 307.268 758.588 Q 307.541 758.134 307.963 757.83 Q 308.385 757.525 308.904 757.373 Q 309.424 757.22 309.994 757.22 Z" style="fill: rgb(255, 255, 255); white-space: pre;"/>
            <path d="M 317.269 753.83 L 317.269 757.174 Q 317.269 757.572 317.245 757.955 Q 317.222 758.338 317.191 758.595 L 317.284 758.595 Q 317.558 758.142 317.96 757.841 Q 318.363 757.541 318.874 757.388 Q 319.386 757.236 319.956 757.236 Q 320.964 757.236 321.659 757.564 Q 322.355 757.892 322.714 758.584 Q 323.073 759.275 323.073 760.377 L 323.073 765.986 L 321.519 765.986 L 321.519 760.588 Q 321.519 759.556 321.066 759.037 Q 320.613 758.517 319.675 758.517 Q 318.784 758.517 318.253 758.873 Q 317.722 759.228 317.495 759.916 Q 317.269 760.603 317.269 761.603 L 317.269 765.986 L 315.698 765.986 L 315.698 753.83 Z" style="fill: rgb(255, 255, 255); white-space: pre;"/>
            <path d="M 327.27 757.377 L 327.27 765.986 L 325.7 765.986 L 325.7 757.377 Z M 326.496 754.119 Q 326.871 754.119 327.141 754.338 Q 327.41 754.556 327.41 755.049 Q 327.41 755.541 327.141 755.763 Q 326.871 755.986 326.496 755.986 Q 326.114 755.986 325.852 755.763 Q 325.59 755.541 325.59 755.049 Q 325.59 754.556 325.852 754.338 Q 326.114 754.119 326.496 754.119 Z" style="fill: rgb(255, 255, 255); white-space: pre;"/>
            <path d="M 332.92 766.142 Q 331.342 766.142 330.4 765.025 Q 329.459 763.908 329.459 761.713 Q 329.459 759.494 330.416 758.357 Q 331.373 757.22 332.959 757.22 Q 333.623 757.22 334.123 757.4 Q 334.623 757.58 334.986 757.877 Q 335.35 758.174 335.592 758.549 L 335.686 758.549 Q 335.646 758.306 335.607 757.869 Q 335.568 757.431 335.568 757.103 L 335.568 753.83 L 337.139 753.83 L 337.139 765.986 L 335.896 765.986 L 335.639 764.791 L 335.568 764.791 Q 335.334 765.166 334.971 765.474 Q 334.607 765.783 334.103 765.963 Q 333.6 766.142 332.92 766.142 Z M 333.287 764.861 Q 334.561 764.861 335.088 764.127 Q 335.615 763.392 335.623 761.947 L 335.623 761.705 Q 335.623 760.166 335.119 759.341 Q 334.615 758.517 333.271 758.517 Q 332.178 758.517 331.623 759.373 Q 331.068 760.228 331.068 761.744 Q 331.068 763.244 331.623 764.052 Q 332.178 764.861 333.287 764.861 Z" style="fill: rgb(255, 255, 255); white-space: pre;"/>
            <path d="M 343.195 757.22 Q 344.32 757.22 345.124 757.701 Q 345.929 758.181 346.359 759.056 Q 346.788 759.931 346.788 761.119 L 346.788 762.009 L 340.945 762.009 Q 340.968 763.392 341.655 764.131 Q 342.343 764.869 343.585 764.869 Q 344.405 764.869 345.046 764.713 Q 345.687 764.556 346.374 764.252 L 346.374 765.572 Q 345.726 765.869 345.073 766.006 Q 344.421 766.142 343.515 766.142 Q 342.265 766.142 341.323 765.642 Q 340.382 765.142 339.859 764.162 Q 339.335 763.181 339.335 761.744 Q 339.335 760.322 339.812 759.31 Q 340.288 758.299 341.155 757.759 Q 342.023 757.22 343.195 757.22 Z M 343.187 758.439 Q 342.234 758.439 341.655 759.06 Q 341.077 759.681 340.976 760.838 L 345.21 760.838 Q 345.202 760.127 344.984 759.588 Q 344.765 759.049 344.323 758.744 Q 343.882 758.439 343.187 758.439 Z" style="fill: rgb(255, 255, 255); white-space: pre;"/>
            <path d="M 356.363 757.228 Q 357.956 757.228 358.746 757.935 Q 359.535 758.642 359.535 760.166 L 359.535 765.986 L 358.41 765.986 L 358.105 764.736 L 358.042 764.736 Q 357.683 765.205 357.292 765.517 Q 356.902 765.83 356.39 765.986 Q 355.878 766.142 355.144 766.142 Q 354.363 766.142 353.753 765.861 Q 353.144 765.58 352.796 765.013 Q 352.449 764.447 352.449 763.572 Q 352.449 762.259 353.456 761.58 Q 354.464 760.9 356.511 760.838 L 357.996 760.775 L 357.996 760.291 Q 357.996 759.283 357.546 758.869 Q 357.097 758.455 356.292 758.455 Q 355.628 758.455 355.019 758.646 Q 354.41 758.838 353.847 759.103 L 353.347 757.963 Q 353.956 757.65 354.734 757.439 Q 355.511 757.228 356.363 757.228 Z M 357.98 761.806 L 356.777 761.861 Q 355.285 761.916 354.679 762.357 Q 354.074 762.799 354.074 763.588 Q 354.074 764.275 354.488 764.595 Q 354.902 764.916 355.581 764.916 Q 356.628 764.916 357.304 764.326 Q 357.98 763.736 357.98 762.58 Z" style="fill: rgb(255, 255, 255); white-space: pre;"/>
            <path d="M 363.724 765.986 L 362.146 765.986 L 362.146 753.83 L 363.724 753.83 Z" style="fill: rgb(255, 255, 255); white-space: pre;"/>
            <path d="M 367.984 765.986 L 366.406 765.986 L 366.406 753.83 L 367.984 753.83 Z" style="fill: rgb(255, 255, 255); white-space: pre;"/>
            <path d="M 373.854 769.83 Q 373.456 769.83 373.124 769.771 Q 372.792 769.713 372.55 769.634 L 372.55 768.377 Q 372.808 768.455 373.058 768.494 Q 373.308 768.533 373.62 768.533 Q 374.144 768.533 374.472 768.244 Q 374.8 767.955 374.8 767.174 L 374.8 757.377 L 376.37 757.377 L 376.37 767.236 Q 376.37 768.017 376.108 768.603 Q 375.847 769.189 375.288 769.509 Q 374.729 769.83 373.854 769.83 Z M 374.69 755.049 Q 374.69 754.556 374.952 754.338 Q 375.214 754.119 375.597 754.119 Q 375.972 754.119 376.241 754.338 Q 376.511 754.556 376.511 755.049 Q 376.511 755.541 376.241 755.763 Q 375.972 755.986 375.597 755.986 Q 375.214 755.986 374.952 755.763 Q 374.69 755.541 374.69 755.049 Z" style="fill: rgb(255, 255, 255); white-space: pre;"/>
            <path d="M 386.583 761.666 Q 386.583 762.728 386.305 763.56 Q 386.028 764.392 385.501 764.966 Q 384.973 765.541 384.231 765.841 Q 383.489 766.142 382.551 766.142 Q 381.676 766.142 380.946 765.841 Q 380.215 765.541 379.684 764.966 Q 379.153 764.392 378.864 763.56 Q 378.575 762.728 378.575 761.666 Q 378.575 760.252 379.059 759.256 Q 379.544 758.259 380.446 757.74 Q 381.348 757.22 382.598 757.22 Q 383.786 757.22 384.684 757.744 Q 385.583 758.267 386.083 759.259 Q 386.583 760.252 386.583 761.666 Z M 380.184 761.666 Q 380.184 762.658 380.438 763.373 Q 380.692 764.088 381.219 764.47 Q 381.747 764.853 382.583 764.853 Q 383.403 764.853 383.934 764.47 Q 384.465 764.088 384.715 763.373 Q 384.965 762.658 384.965 761.666 Q 384.965 760.681 384.715 759.978 Q 384.465 759.275 383.938 758.9 Q 383.411 758.525 382.567 758.525 Q 381.333 758.525 380.758 759.349 Q 380.184 760.174 380.184 761.666 Z" style="fill: rgb(255, 255, 255); white-space: pre;"/>
            <path d="M 390.318 753.83 L 390.318 756.814 Q 390.318 757.33 390.291 757.822 Q 390.264 758.314 390.24 758.58 L 390.318 758.58 Q 390.67 758.017 391.315 757.623 Q 391.959 757.228 392.975 757.228 Q 394.545 757.228 395.49 758.349 Q 396.436 759.47 396.436 761.674 Q 396.436 763.127 396.002 764.127 Q 395.568 765.127 394.783 765.634 Q 393.998 766.142 392.936 766.142 Q 391.928 766.142 391.303 765.771 Q 390.678 765.4 390.326 764.884 L 390.209 764.884 L 389.912 765.986 L 388.748 765.986 L 388.748 753.83 Z M 392.623 758.517 Q 391.772 758.517 391.268 758.853 Q 390.764 759.189 390.545 759.869 Q 390.326 760.549 390.318 761.58 L 390.318 761.697 Q 390.318 763.228 390.818 764.041 Q 391.318 764.853 392.631 764.853 Q 393.709 764.853 394.268 764.025 Q 394.826 763.197 394.826 761.658 Q 394.826 760.095 394.272 759.306 Q 393.717 758.517 392.623 758.517 Z" style="fill: rgb(255, 255, 255); white-space: pre;"/>
            <path d="M 404.304 763.58 Q 404.304 764.416 403.894 764.99 Q 403.484 765.564 402.703 765.853 Q 401.921 766.142 400.828 766.142 Q 399.921 766.142 399.265 766.006 Q 398.609 765.869 398.078 765.611 L 398.078 764.22 Q 398.648 764.494 399.398 764.705 Q 400.148 764.916 400.867 764.916 Q 401.874 764.916 402.324 764.595 Q 402.773 764.275 402.773 763.728 Q 402.773 763.408 402.593 763.162 Q 402.413 762.916 401.964 762.67 Q 401.515 762.424 400.679 762.103 Q 399.859 761.783 399.277 761.463 Q 398.695 761.142 398.39 760.689 Q 398.085 760.236 398.085 759.517 Q 398.085 758.4 398.98 757.81 Q 399.874 757.22 401.343 757.22 Q 402.124 757.22 402.816 757.377 Q 403.507 757.533 404.14 757.814 L 403.632 759.025 Q 403.07 758.783 402.476 758.623 Q 401.882 758.463 401.265 758.463 Q 400.46 758.463 400.035 758.72 Q 399.609 758.978 399.609 759.431 Q 399.609 759.783 399.808 760.017 Q 400.007 760.252 400.476 760.474 Q 400.945 760.697 401.742 761.002 Q 402.531 761.299 403.105 761.619 Q 403.679 761.939 403.992 762.4 Q 404.304 762.861 404.304 763.58 Z" style="fill: rgb(255, 255, 255); white-space: pre;"/>
          </g>
          <g transform="matrix(1, 0, 0, 1, -32.48373, 151.273056)" style="opacity: 0.1;">
            <title>Undo Button</title>
            <rect style="pointer-events: auto; fill: rgb(77, 77, 77);" x="491.779" y="657.174" width="94" height="58.827" rx="10" ry="10">
              <title>Container</title>
            </rect>
            <path d="M 528.667 681.364 L 528.667 688.755 Q 528.667 689.958 528.171 690.903 Q 527.675 691.849 526.675 692.395 Q 525.675 692.942 524.159 692.942 Q 522.011 692.942 520.882 691.79 Q 519.753 690.638 519.753 688.724 L 519.753 681.364 L 521.362 681.364 L 521.362 688.661 Q 521.362 690.106 522.085 690.841 Q 522.808 691.575 524.237 691.575 Q 525.222 691.575 525.847 691.22 Q 526.472 690.864 526.772 690.212 Q 527.073 689.56 527.073 688.661 L 527.073 681.364 Z" style="fill: rgb(255, 255, 255); white-space: pre;"/>
            <path d="M 535.712 684.02 Q 537.204 684.02 538.005 684.77 Q 538.806 685.52 538.806 687.177 L 538.806 692.786 L 537.251 692.786 L 537.251 687.388 Q 537.251 686.356 536.798 685.837 Q 536.345 685.317 535.408 685.317 Q 534.072 685.317 533.536 686.106 Q 533.001 686.895 533.001 688.395 L 533.001 692.786 L 531.431 692.786 L 531.431 684.177 L 532.673 684.177 L 532.9 685.388 L 532.986 685.388 Q 533.259 684.935 533.681 684.63 Q 534.103 684.325 534.622 684.173 Q 535.142 684.02 535.712 684.02 Z" style="fill: rgb(255, 255, 255); white-space: pre;"/>
            <path d="M 544.393 692.942 Q 542.815 692.942 541.873 691.825 Q 540.932 690.708 540.932 688.513 Q 540.932 686.294 541.889 685.157 Q 542.846 684.02 544.432 684.02 Q 545.096 684.02 545.596 684.2 Q 546.096 684.38 546.459 684.677 Q 546.823 684.974 547.065 685.349 L 547.159 685.349 Q 547.12 685.106 547.081 684.669 Q 547.041 684.231 547.041 683.903 L 547.041 680.63 L 548.612 680.63 L 548.612 692.786 L 547.37 692.786 L 547.112 691.591 L 547.041 691.591 Q 546.807 691.966 546.444 692.274 Q 546.081 692.583 545.577 692.763 Q 545.073 692.942 544.393 692.942 Z M 544.76 691.661 Q 546.034 691.661 546.561 690.927 Q 547.088 690.192 547.096 688.747 L 547.096 688.505 Q 547.096 686.966 546.592 686.142 Q 546.088 685.317 544.745 685.317 Q 543.651 685.317 543.096 686.173 Q 542.541 687.028 542.541 688.544 Q 542.541 690.044 543.096 690.852 Q 543.651 691.661 544.76 691.661 Z" style="fill: rgb(255, 255, 255); white-space: pre;"/>
            <path d="M 558.816 688.466 Q 558.816 689.528 558.539 690.36 Q 558.261 691.192 557.734 691.767 Q 557.207 692.341 556.465 692.642 Q 555.722 692.942 554.785 692.942 Q 553.91 692.942 553.179 692.642 Q 552.449 692.341 551.918 691.767 Q 551.386 691.192 551.097 690.36 Q 550.808 689.528 550.808 688.466 Q 550.808 687.052 551.293 686.056 Q 551.777 685.06 552.679 684.54 Q 553.582 684.02 554.832 684.02 Q 556.019 684.02 556.918 684.544 Q 557.816 685.067 558.316 686.06 Q 558.816 687.052 558.816 688.466 Z M 552.418 688.466 Q 552.418 689.458 552.672 690.173 Q 552.925 690.888 553.453 691.27 Q 553.98 691.653 554.816 691.653 Q 555.636 691.653 556.168 691.27 Q 556.699 690.888 556.949 690.173 Q 557.199 689.458 557.199 688.466 Q 557.199 687.481 556.949 686.778 Q 556.699 686.075 556.172 685.7 Q 555.644 685.325 554.8 685.325 Q 553.566 685.325 552.992 686.149 Q 552.418 686.974 552.418 688.466 Z" style="fill: rgb(255, 255, 255); white-space: pre;"/>
          </g>
        </g>
        <g style="" transform="matrix(1, 0, 0, 1, 58.202988, 230.649475)">
          <title>Remove Hidden Jobs Button</title>
          <rect style="fill: rgba(255, 255, 255, 0.3);" x="196.339" y="654.275" width="298.753" height="58.827" rx="10" ry="10">
            <title>Container</title>
          </rect>
          <path d="M 241.462 684.067 Q 241.462 685.996 240.751 687.289 Q 240.04 688.582 238.693 689.235 Q 237.345 689.887 235.423 689.887 L 232.29 689.887 L 232.29 678.465 L 235.775 678.465 Q 237.525 678.465 238.798 679.102 Q 240.072 679.739 240.767 680.985 Q 241.462 682.231 241.462 684.067 Z M 239.782 684.114 Q 239.782 682.645 239.306 681.692 Q 238.829 680.739 237.907 680.274 Q 236.986 679.809 235.65 679.809 L 233.892 679.809 L 233.892 688.528 L 235.368 688.528 Q 237.579 688.528 238.681 687.418 Q 239.782 686.309 239.782 684.114 Z" style="white-space: pre;"/>
          <path d="M 251.273 685.567 Q 251.273 686.629 250.996 687.461 Q 250.719 688.293 250.191 688.867 Q 249.664 689.442 248.922 689.742 Q 248.18 690.043 247.242 690.043 Q 246.367 690.043 245.637 689.742 Q 244.906 689.442 244.375 688.867 Q 243.844 688.293 243.555 687.461 Q 243.265 686.629 243.265 685.567 Q 243.265 684.153 243.75 683.157 Q 244.234 682.16 245.137 681.641 Q 246.039 681.121 247.289 681.121 Q 248.476 681.121 249.375 681.645 Q 250.273 682.168 250.773 683.16 Q 251.273 684.153 251.273 685.567 Z M 244.875 685.567 Q 244.875 686.559 245.129 687.274 Q 245.383 687.989 245.91 688.371 Q 246.437 688.754 247.273 688.754 Q 248.094 688.754 248.625 688.371 Q 249.156 687.989 249.406 687.274 Q 249.656 686.559 249.656 685.567 Q 249.656 684.582 249.406 683.879 Q 249.156 683.176 248.629 682.801 Q 248.101 682.426 247.258 682.426 Q 246.023 682.426 245.449 683.25 Q 244.875 684.075 244.875 685.567 Z" style="white-space: pre;"/>
          <path d="M 261.886 681.121 Q 263.378 681.121 264.179 681.871 Q 264.98 682.621 264.98 684.278 L 264.98 689.887 L 263.425 689.887 L 263.425 684.489 Q 263.425 683.457 262.972 682.938 Q 262.519 682.418 261.581 682.418 Q 260.245 682.418 259.71 683.207 Q 259.175 683.996 259.175 685.496 L 259.175 689.887 L 257.605 689.887 L 257.605 681.278 L 258.847 681.278 L 259.073 682.489 L 259.159 682.489 Q 259.433 682.035 259.855 681.731 Q 260.276 681.426 260.796 681.274 Q 261.316 681.121 261.886 681.121 Z" style="white-space: pre;"/>
          <path d="M 275.113 685.567 Q 275.113 686.629 274.836 687.461 Q 274.559 688.293 274.031 688.867 Q 273.504 689.442 272.762 689.742 Q 272.02 690.043 271.082 690.043 Q 270.207 690.043 269.477 689.742 Q 268.746 689.442 268.215 688.867 Q 267.684 688.293 267.395 687.461 Q 267.106 686.629 267.106 685.567 Q 267.106 684.153 267.59 683.157 Q 268.074 682.16 268.977 681.641 Q 269.879 681.121 271.129 681.121 Q 272.317 681.121 273.215 681.645 Q 274.113 682.168 274.613 683.16 Q 275.113 684.153 275.113 685.567 Z M 268.715 685.567 Q 268.715 686.559 268.969 687.274 Q 269.223 687.989 269.75 688.371 Q 270.278 688.754 271.113 688.754 Q 271.934 688.754 272.465 688.371 Q 272.996 687.989 273.246 687.274 Q 273.496 686.559 273.496 685.567 Q 273.496 684.582 273.246 683.879 Q 272.996 683.176 272.469 682.801 Q 271.942 682.426 271.098 682.426 Q 269.863 682.426 269.289 683.25 Q 268.715 684.075 268.715 685.567 Z" style="white-space: pre;"/>
          <path d="M 280.295 688.77 Q 280.631 688.77 280.974 688.711 Q 281.318 688.653 281.568 688.559 L 281.568 689.762 Q 281.302 689.879 280.861 689.961 Q 280.42 690.043 279.959 690.043 Q 279.256 690.043 278.685 689.801 Q 278.115 689.559 277.775 688.973 Q 277.435 688.387 277.435 687.348 L 277.435 682.489 L 276.24 682.489 L 276.24 681.762 L 277.49 681.184 L 278.045 679.325 L 279.013 679.325 L 279.013 681.278 L 281.506 681.278 L 281.506 682.489 L 279.013 682.489 L 279.013 687.325 Q 279.013 688.051 279.361 688.41 Q 279.709 688.77 280.295 688.77 Z" style="white-space: pre;"/>
          <path d="M 290.428 690.043 Q 288.85 690.043 287.909 688.926 Q 286.967 687.809 286.967 685.614 Q 286.967 683.395 287.924 682.258 Q 288.881 681.121 290.467 681.121 Q 291.131 681.121 291.631 681.301 Q 292.131 681.481 292.495 681.778 Q 292.858 682.075 293.1 682.45 L 293.194 682.45 Q 293.155 682.207 293.116 681.77 Q 293.077 681.332 293.077 681.004 L 293.077 677.731 L 294.647 677.731 L 294.647 689.887 L 293.405 689.887 L 293.147 688.692 L 293.077 688.692 Q 292.842 689.067 292.479 689.375 Q 292.116 689.684 291.612 689.864 Q 291.108 690.043 290.428 690.043 Z M 290.795 688.762 Q 292.069 688.762 292.596 688.028 Q 293.124 687.293 293.131 685.848 L 293.131 685.606 Q 293.131 684.067 292.627 683.242 Q 292.124 682.418 290.78 682.418 Q 289.686 682.418 289.131 683.274 Q 288.577 684.129 288.577 685.645 Q 288.577 687.145 289.131 687.953 Q 289.686 688.762 290.795 688.762 Z" style="white-space: pre;"/>
          <path d="M 298.898 681.278 L 298.898 689.887 L 297.328 689.887 L 297.328 681.278 Z M 298.125 678.02 Q 298.5 678.02 298.769 678.239 Q 299.039 678.457 299.039 678.95 Q 299.039 679.442 298.769 679.664 Q 298.5 679.887 298.125 679.887 Q 297.742 679.887 297.48 679.664 Q 297.219 679.442 297.219 678.95 Q 297.219 678.457 297.48 678.239 Q 297.742 678.02 298.125 678.02 Z" style="white-space: pre;"/>
          <path d="M 307.267 687.481 Q 307.267 688.317 306.857 688.891 Q 306.447 689.465 305.665 689.754 Q 304.884 690.043 303.79 690.043 Q 302.884 690.043 302.228 689.907 Q 301.572 689.77 301.04 689.512 L 301.04 688.121 Q 301.611 688.395 302.361 688.606 Q 303.111 688.817 303.829 688.817 Q 304.837 688.817 305.287 688.496 Q 305.736 688.176 305.736 687.629 Q 305.736 687.309 305.556 687.063 Q 305.376 686.817 304.927 686.571 Q 304.478 686.325 303.642 686.004 Q 302.822 685.684 302.24 685.364 Q 301.658 685.043 301.353 684.59 Q 301.048 684.137 301.048 683.418 Q 301.048 682.301 301.943 681.711 Q 302.837 681.121 304.306 681.121 Q 305.087 681.121 305.779 681.278 Q 306.47 681.434 307.103 681.715 L 306.595 682.926 Q 306.033 682.684 305.439 682.524 Q 304.845 682.364 304.228 682.364 Q 303.423 682.364 302.997 682.621 Q 302.572 682.879 302.572 683.332 Q 302.572 683.684 302.771 683.918 Q 302.97 684.153 303.439 684.375 Q 303.908 684.598 304.704 684.903 Q 305.494 685.2 306.068 685.52 Q 306.642 685.84 306.954 686.301 Q 307.267 686.762 307.267 687.481 Z" style="white-space: pre;"/>
          <path d="M 313.529 681.121 Q 315.1 681.121 316.041 682.235 Q 316.982 683.348 316.982 685.559 Q 316.982 687.028 316.549 688.024 Q 316.115 689.02 315.33 689.532 Q 314.545 690.043 313.49 690.043 Q 312.826 690.043 312.326 689.867 Q 311.826 689.692 311.471 689.399 Q 311.115 689.106 310.873 688.77 L 310.771 688.77 Q 310.803 689.075 310.838 689.477 Q 310.873 689.879 310.873 690.2 L 310.873 693.715 L 309.295 693.715 L 309.295 681.278 L 310.584 681.278 L 310.795 682.512 L 310.873 682.512 Q 311.115 682.129 311.471 681.813 Q 311.826 681.496 312.334 681.309 Q 312.842 681.121 313.529 681.121 Z M 313.17 682.418 Q 312.342 682.418 311.846 682.742 Q 311.35 683.067 311.119 683.707 Q 310.889 684.348 310.873 685.317 L 310.873 685.567 Q 310.873 686.598 311.092 687.305 Q 311.31 688.012 311.818 688.383 Q 312.326 688.754 313.185 688.754 Q 313.92 688.754 314.408 688.356 Q 314.896 687.957 315.135 687.231 Q 315.373 686.504 315.373 685.543 Q 315.373 684.082 314.834 683.25 Q 314.295 682.418 313.17 682.418 Z" style="white-space: pre;"/>
          <path d="M 320.734 689.887 L 319.155 689.887 L 319.155 677.731 L 320.734 677.731 Z" style="white-space: pre;"/>
          <path d="M 326.712 681.129 Q 328.305 681.129 329.095 681.836 Q 329.884 682.543 329.884 684.067 L 329.884 689.887 L 328.759 689.887 L 328.454 688.637 L 328.391 688.637 Q 328.032 689.106 327.641 689.418 Q 327.251 689.731 326.739 689.887 Q 326.227 690.043 325.493 690.043 Q 324.712 690.043 324.102 689.762 Q 323.493 689.481 323.145 688.914 Q 322.798 688.348 322.798 687.473 Q 322.798 686.16 323.805 685.481 Q 324.813 684.801 326.86 684.739 L 328.345 684.676 L 328.345 684.192 Q 328.345 683.184 327.895 682.77 Q 327.446 682.356 326.641 682.356 Q 325.977 682.356 325.368 682.547 Q 324.759 682.739 324.196 683.004 L 323.696 681.864 Q 324.305 681.551 325.083 681.34 Q 325.86 681.129 326.712 681.129 Z M 328.329 685.707 L 327.126 685.762 Q 325.634 685.817 325.028 686.258 Q 324.423 686.7 324.423 687.489 Q 324.423 688.176 324.837 688.496 Q 325.251 688.817 325.93 688.817 Q 326.977 688.817 327.653 688.227 Q 328.329 687.637 328.329 686.481 Z" style="white-space: pre;"/>
          <path d="M 331.175 681.278 L 332.87 681.278 L 334.698 686.239 Q 334.839 686.621 334.96 686.985 Q 335.081 687.348 335.171 687.688 Q 335.261 688.028 335.316 688.356 L 335.37 688.356 Q 335.464 687.957 335.636 687.387 Q 335.808 686.817 336.011 686.231 L 337.761 681.278 L 339.448 681.278 L 335.73 691.106 Q 335.425 691.926 334.991 692.516 Q 334.558 693.106 333.964 693.422 Q 333.37 693.739 332.558 693.739 Q 332.183 693.739 331.898 693.696 Q 331.613 693.653 331.409 693.598 L 331.409 692.348 Q 331.581 692.387 331.827 692.418 Q 332.073 692.45 332.339 692.45 Q 332.831 692.45 333.187 692.258 Q 333.542 692.067 333.796 691.715 Q 334.05 691.364 334.222 690.895 L 334.613 689.879 Z" style="white-space: pre;"/>
          <path d="M 346.516 677.731 L 346.516 681.075 Q 346.516 681.473 346.493 681.856 Q 346.469 682.239 346.438 682.496 L 346.532 682.496 Q 346.805 682.043 347.208 681.742 Q 347.61 681.442 348.122 681.289 Q 348.633 681.137 349.204 681.137 Q 350.212 681.137 350.907 681.465 Q 351.602 681.793 351.962 682.485 Q 352.321 683.176 352.321 684.278 L 352.321 689.887 L 350.766 689.887 L 350.766 684.489 Q 350.766 683.457 350.313 682.938 Q 349.86 682.418 348.923 682.418 Q 348.032 682.418 347.501 682.774 Q 346.969 683.129 346.743 683.817 Q 346.516 684.504 346.516 685.504 L 346.516 689.887 L 344.946 689.887 L 344.946 677.731 Z" style="white-space: pre;"/>
          <path d="M 356.502 681.278 L 356.502 689.887 L 354.931 689.887 L 354.931 681.278 Z M 355.728 678.02 Q 356.103 678.02 356.373 678.239 Q 356.642 678.457 356.642 678.95 Q 356.642 679.442 356.373 679.664 Q 356.103 679.887 355.728 679.887 Q 355.345 679.887 355.084 679.664 Q 354.822 679.442 354.822 678.95 Q 354.822 678.457 355.084 678.239 Q 355.345 678.02 355.728 678.02 Z" style="white-space: pre;"/>
          <path d="M 362.152 690.043 Q 360.574 690.043 359.632 688.926 Q 358.691 687.809 358.691 685.614 Q 358.691 683.395 359.648 682.258 Q 360.605 681.121 362.191 681.121 Q 362.855 681.121 363.355 681.301 Q 363.855 681.481 364.218 681.778 Q 364.581 682.075 364.824 682.45 L 364.917 682.45 Q 364.878 682.207 364.839 681.77 Q 364.8 681.332 364.8 681.004 L 364.8 677.731 L 366.371 677.731 L 366.371 689.887 L 365.128 689.887 L 364.871 688.692 L 364.8 688.692 Q 364.566 689.067 364.203 689.375 Q 363.839 689.684 363.335 689.864 Q 362.831 690.043 362.152 690.043 Z M 362.519 688.762 Q 363.792 688.762 364.32 688.028 Q 364.847 687.293 364.855 685.848 L 364.855 685.606 Q 364.855 684.067 364.351 683.242 Q 363.847 682.418 362.503 682.418 Q 361.41 682.418 360.855 683.274 Q 360.3 684.129 360.3 685.645 Q 360.3 687.145 360.855 687.953 Q 361.41 688.762 362.519 688.762 Z" style="white-space: pre;"/>
          <path d="M 372.028 690.043 Q 370.45 690.043 369.508 688.926 Q 368.567 687.809 368.567 685.614 Q 368.567 683.395 369.524 682.258 Q 370.481 681.121 372.067 681.121 Q 372.731 681.121 373.231 681.301 Q 373.731 681.481 374.094 681.778 Q 374.458 682.075 374.7 682.45 L 374.794 682.45 Q 374.755 682.207 374.715 681.77 Q 374.676 681.332 374.676 681.004 L 374.676 677.731 L 376.247 677.731 L 376.247 689.887 L 375.005 689.887 L 374.747 688.692 L 374.676 688.692 Q 374.442 689.067 374.079 689.375 Q 373.715 689.684 373.212 689.864 Q 372.708 690.043 372.028 690.043 Z M 372.395 688.762 Q 373.669 688.762 374.196 688.028 Q 374.723 687.293 374.731 685.848 L 374.731 685.606 Q 374.731 684.067 374.227 683.242 Q 373.723 682.418 372.38 682.418 Q 371.286 682.418 370.731 683.274 Q 370.176 684.129 370.176 685.645 Q 370.176 687.145 370.731 687.953 Q 371.286 688.762 372.395 688.762 Z" style="white-space: pre;"/>
          <path d="M 382.303 681.121 Q 383.428 681.121 384.232 681.602 Q 385.037 682.082 385.467 682.957 Q 385.896 683.832 385.896 685.02 L 385.896 685.91 L 380.053 685.91 Q 380.076 687.293 380.764 688.032 Q 381.451 688.77 382.693 688.77 Q 383.514 688.77 384.154 688.614 Q 384.795 688.457 385.482 688.153 L 385.482 689.473 Q 384.834 689.77 384.182 689.907 Q 383.529 690.043 382.623 690.043 Q 381.373 690.043 380.432 689.543 Q 379.49 689.043 378.967 688.063 Q 378.443 687.082 378.443 685.645 Q 378.443 684.223 378.92 683.211 Q 379.396 682.2 380.264 681.66 Q 381.131 681.121 382.303 681.121 Z M 382.295 682.34 Q 381.342 682.34 380.764 682.961 Q 380.185 683.582 380.084 684.739 L 384.318 684.739 Q 384.31 684.028 384.092 683.489 Q 383.873 682.95 383.432 682.645 Q 382.99 682.34 382.295 682.34 Z" style="white-space: pre;"/>
          <path d="M 392.305 681.121 Q 393.797 681.121 394.598 681.871 Q 395.399 682.621 395.399 684.278 L 395.399 689.887 L 393.844 689.887 L 393.844 684.489 Q 393.844 683.457 393.391 682.938 Q 392.938 682.418 392 682.418 Q 390.664 682.418 390.129 683.207 Q 389.594 683.996 389.594 685.496 L 389.594 689.887 L 388.024 689.887 L 388.024 681.278 L 389.266 681.278 L 389.492 682.489 L 389.578 682.489 Q 389.852 682.035 390.274 681.731 Q 390.696 681.426 391.215 681.274 Q 391.735 681.121 392.305 681.121 Z" style="white-space: pre;"/>
          <path d="M 401.23 693.731 Q 400.831 693.731 400.499 693.672 Q 400.167 693.614 399.925 693.535 L 399.925 692.278 Q 400.183 692.356 400.433 692.395 Q 400.683 692.434 400.995 692.434 Q 401.519 692.434 401.847 692.145 Q 402.175 691.856 402.175 691.075 L 402.175 681.278 L 403.745 681.278 L 403.745 691.137 Q 403.745 691.918 403.484 692.504 Q 403.222 693.09 402.663 693.41 Q 402.105 693.731 401.23 693.731 Z M 402.066 678.95 Q 402.066 678.457 402.327 678.239 Q 402.589 678.02 402.972 678.02 Q 403.347 678.02 403.616 678.239 Q 403.886 678.457 403.886 678.95 Q 403.886 679.442 403.616 679.664 Q 403.347 679.887 402.972 679.887 Q 402.589 679.887 402.327 679.664 Q 402.066 679.442 402.066 678.95 Z" style="white-space: pre;"/>
          <path d="M 413.942 685.567 Q 413.942 686.629 413.665 687.461 Q 413.388 688.293 412.86 688.867 Q 412.333 689.442 411.591 689.742 Q 410.848 690.043 409.911 690.043 Q 409.036 690.043 408.306 689.742 Q 407.575 689.442 407.044 688.867 Q 406.513 688.293 406.223 687.461 Q 405.934 686.629 405.934 685.567 Q 405.934 684.153 406.419 683.157 Q 406.903 682.16 407.806 681.641 Q 408.708 681.121 409.958 681.121 Q 411.145 681.121 412.044 681.645 Q 412.942 682.168 413.442 683.16 Q 413.942 684.153 413.942 685.567 Z M 407.544 685.567 Q 407.544 686.559 407.798 687.274 Q 408.052 687.989 408.579 688.371 Q 409.106 688.754 409.942 688.754 Q 410.763 688.754 411.294 688.371 Q 411.825 687.989 412.075 687.274 Q 412.325 686.559 412.325 685.567 Q 412.325 684.582 412.075 683.879 Q 411.825 683.176 411.298 682.801 Q 410.77 682.426 409.927 682.426 Q 408.692 682.426 408.118 683.25 Q 407.544 684.075 407.544 685.567 Z" style="white-space: pre;"/>
          <path d="M 417.678 677.731 L 417.678 680.715 Q 417.678 681.231 417.651 681.723 Q 417.623 682.215 417.6 682.481 L 417.678 682.481 Q 418.03 681.918 418.674 681.524 Q 419.319 681.129 420.334 681.129 Q 421.905 681.129 422.85 682.25 Q 423.795 683.371 423.795 685.575 Q 423.795 687.028 423.362 688.028 Q 422.928 689.028 422.143 689.535 Q 421.358 690.043 420.295 690.043 Q 419.287 690.043 418.662 689.672 Q 418.037 689.301 417.686 688.785 L 417.569 688.785 L 417.272 689.887 L 416.108 689.887 L 416.108 677.731 Z M 419.983 682.418 Q 419.131 682.418 418.627 682.754 Q 418.123 683.09 417.905 683.77 Q 417.686 684.45 417.678 685.481 L 417.678 685.598 Q 417.678 687.129 418.178 687.942 Q 418.678 688.754 419.991 688.754 Q 421.069 688.754 421.627 687.926 Q 422.186 687.098 422.186 685.559 Q 422.186 683.996 421.631 683.207 Q 421.077 682.418 419.983 682.418 Z" style="white-space: pre;"/>
          <path d="M 431.664 687.481 Q 431.664 688.317 431.254 688.891 Q 430.843 689.465 430.062 689.754 Q 429.281 690.043 428.187 690.043 Q 427.281 690.043 426.625 689.907 Q 425.968 689.77 425.437 689.512 L 425.437 688.121 Q 426.007 688.395 426.757 688.606 Q 427.507 688.817 428.226 688.817 Q 429.234 688.817 429.683 688.496 Q 430.132 688.176 430.132 687.629 Q 430.132 687.309 429.953 687.063 Q 429.773 686.817 429.324 686.571 Q 428.875 686.325 428.039 686.004 Q 427.218 685.684 426.636 685.364 Q 426.054 685.043 425.75 684.59 Q 425.445 684.137 425.445 683.418 Q 425.445 682.301 426.339 681.711 Q 427.234 681.121 428.703 681.121 Q 429.484 681.121 430.175 681.278 Q 430.867 681.434 431.5 681.715 L 430.992 682.926 Q 430.429 682.684 429.836 682.524 Q 429.242 682.364 428.625 682.364 Q 427.82 682.364 427.394 682.621 Q 426.968 682.879 426.968 683.332 Q 426.968 683.684 427.168 683.918 Q 427.367 684.153 427.836 684.375 Q 428.304 684.598 429.101 684.903 Q 429.89 685.2 430.464 685.52 Q 431.039 685.84 431.351 686.301 Q 431.664 686.762 431.664 687.481 Z" style="white-space: pre;"/>
          <rect style="stroke: rgb(128, 128, 128); fill: rgb(255, 255, 255);" x="448.645" y="677.675" width="12.027" height="12.027" rx="2" ry="2">
            <title>Checkbox</title>
          </rect>
        </g>
      </g>
    </g>
  </g>
</svg>