<?xml version="1.0" encoding="utf-8"?>
<svg viewBox="1.196 4.287 42.55 42.55" xmlns="http://www.w3.org/2000/svg">
  <path d="M 22.446 46.837 C 19.513 46.837 16.754 46.279 14.171 45.162 C 11.588 44.045 9.329 42.52 7.396 40.587 C 5.463 38.654 3.946 36.395 2.846 33.812 C 1.746 31.229 1.196 28.454 1.196 25.487 C 1.196 22.587 1.754 19.845 2.871 17.262 C 3.988 14.679 5.504 12.429 7.421 10.512 C 9.338 8.595 11.588 7.079 14.171 5.962 C 16.754 4.845 19.513 4.287 22.446 4.287 C 25.379 4.287 28.138 4.845 30.721 5.962 C 33.304 7.079 35.554 8.595 37.471 10.512 C 39.388 12.429 40.913 14.679 42.046 17.262 C 43.179 19.845 43.746 22.587 43.746 25.487 C 43.746 28.454 43.188 31.229 42.071 33.812 C 40.954 36.395 39.429 38.654 37.496 40.587 C 35.563 42.52 33.304 44.045 30.721 45.162 C 28.138 46.279 25.379 46.837 22.446 46.837 Z M 22.446 42.137 C 27.046 42.137 30.954 40.52 34.171 37.287 C 37.388 34.054 38.996 30.12 38.996 25.487 C 38.996 23.687 38.713 21.937 38.146 20.237 C 37.579 18.537 36.746 16.987 35.646 15.587 L 12.496 38.687 C 13.829 39.887 15.363 40.762 17.096 41.312 C 18.829 41.862 20.613 42.137 22.446 42.137 Z M 9.296 35.437 L 32.346 12.337 C 30.913 11.237 29.363 10.412 27.696 9.862 C 26.029 9.312 24.279 9.037 22.446 9.037 C 17.846 9.037 13.938 10.629 10.721 13.812 C 7.504 16.995 5.896 20.887 5.896 25.487 C 5.896 27.32 6.204 29.087 6.821 30.787 C 7.438 32.487 8.263 34.037 9.296 35.437 Z" style="fill: rgb(255, 0, 0);"/>
</svg>