<?xml version="1.0" encoding="utf-8"?>
<svg viewBox="0 0 1280 800" xmlns="http://www.w3.org/2000/svg" xmlns:bx="https://boxy-svg.com">
  <defs>
    <filter id="saturate-filter-1" color-interpolation-filters="sRGB" x="-500%" y="-500%" width="1000%" height="1000%" bx:preset="saturate 1 0.5">
      <feColorMatrix type="saturate" values="0.5"/>
    </filter>
    <mask id="mask-4">
      <rect x="93.334" y="-435.968" width="367.636" height="116.885" style="fill: url(#gradient-5);" transform="matrix(1, 0, 0, -1, 0, 0)">
        <title>Mask</title>
      </rect>
    </mask>
    <linearGradient gradientUnits="userSpaceOnUse" x1="277.152" y1="109.753" x2="277.152" y2="225.851" id="gradient-5" gradientTransform="matrix(-1.023584, 0, 0, -1.010791, 560.840515, -207.823761)">
      <stop offset="0" style=""/>
      <stop offset="1" style="stop-color: rgb(255, 255, 255);"/>
    </linearGradient>
    <filter id="filter-8" primitiveUnits="objectBoundingBox" color-interpolation-filters="sRGB" x="-500%" y="-500%" width="1000%" height="1000%" bx:preset="spot-light 1 0.5 0.5 1 0.5 0.5 0 15 #ffffff 128 1 2 1">
      <feSpecularLighting result="specular-lighting" lighting-color="#ffffff" specularConstant="1" specularExponent="128">
        <feSpotLight x="0.5" y="0.5" z="1" limitingConeAngle="15" pointsAtX="0.5" pointsAtY="0.5" pointsAtZ="0"/>
      </feSpecularLighting>
      <feDiffuseLighting result="diffuse-lighting" lighting-color="#ffffff" diffuseConstant="2">
        <feSpotLight x="0.5" y="0.5" z="1" limitingConeAngle="15" pointsAtX="0.5" pointsAtY="0.5" pointsAtZ="0"/>
      </feDiffuseLighting>
      <feMerge result="lighting">
        <feMergeNode in="diffuse-lighting"/>
        <feMergeNode in="specular-lighting"/>
      </feMerge>
      <feComposite in="SourceGraphic" in2="lighting" operator="arithmetic" k1="1" k2="1" k3="0" k4="0"/>
    </filter>
    <mask id="mask-5">
      <rect x="93.334" y="319.87" width="367.636" height="116.885" style="fill: url(#gradient-6);">
        <title>Mask</title>
      </rect>
    </mask>
    <linearGradient gradientUnits="userSpaceOnUse" x1="277.152" y1="109.753" x2="277.152" y2="225.851" id="gradient-6" gradientTransform="matrix(-1.023584, 0, 0, -1.010791, 560.840027, 548.013214)">
      <stop offset="0" style=""/>
      <stop offset="1" style="stop-color: rgb(255, 255, 255);"/>
    </linearGradient>
    <style bx:fonts="Open Sans">@import url(https://fonts.googleapis.com/css2?family=Open+Sans%3Aital%2Cwght%400%2C300%3B0%2C400%3B0%2C500%3B0%2C600%3B0%2C700%3B0%2C800%3B1%2C300%3B1%2C400%3B1%2C500%3B1%2C600%3B1%2C700%3B1%2C800&amp;display=swap);</style>
    <filter id="filter-1" color-interpolation-filters="sRGB" x="-500%" y="-500%" width="1000%" height="1000%" bx:preset="saturate 1 0.5">
      <feColorMatrix type="saturate" values="0.5"/>
    </filter>
    <mask id="mask-3">
      <rect x="93.334" y="-435.968" width="367.636" height="116.885" style="fill: url(#gradient-2);" transform="matrix(1, 0, 0, -1, 0, 0)">
        <title>Mask</title>
      </rect>
    </mask>
    <linearGradient gradientUnits="userSpaceOnUse" x1="277.152" y1="109.753" x2="277.152" y2="225.851" id="gradient-2" gradientTransform="matrix(-1.023584, 0, 0, -1.010791, 560.840515, -207.823761)">
      <stop offset="0" style=""/>
      <stop offset="1" style="stop-color: rgb(255, 255, 255);"/>
    </linearGradient>
    <filter id="filter-9" primitiveUnits="objectBoundingBox" color-interpolation-filters="sRGB" x="-500%" y="-500%" width="1000%" height="1000%" bx:preset="spot-light 1 0.5 0.5 1 0.5 0.5 0 15 #ffffff 128 1 2 1">
      <feSpecularLighting result="specular-lighting" lighting-color="#ffffff" specularConstant="1" specularExponent="128">
        <feSpotLight x="0.5" y="0.5" z="1" limitingConeAngle="15" pointsAtX="0.5" pointsAtY="0.5" pointsAtZ="0"/>
      </feSpecularLighting>
      <feDiffuseLighting result="diffuse-lighting" lighting-color="#ffffff" diffuseConstant="2">
        <feSpotLight x="0.5" y="0.5" z="1" limitingConeAngle="15" pointsAtX="0.5" pointsAtY="0.5" pointsAtZ="0"/>
      </feDiffuseLighting>
      <feMerge result="lighting">
        <feMergeNode in="diffuse-lighting"/>
        <feMergeNode in="specular-lighting"/>
      </feMerge>
      <feComposite in="SourceGraphic" in2="lighting" operator="arithmetic" k1="1" k2="1" k3="0" k4="0"/>
    </filter>
    <filter id="filter-11" color-interpolation-filters="sRGB" x="-500%" y="-500%" width="1000%" height="1000%" bx:preset="gaussian-blur 1 10">
      <feGaussianBlur stdDeviation="10 10" edgeMode="none"/>
    </filter>
    <mask id="mask-9">
      <rect x="93.334" y="319.87" width="367.636" height="116.885" style="fill: url(#gradient-3);">
        <title>Mask</title>
      </rect>
    </mask>
    <linearGradient gradientUnits="userSpaceOnUse" x1="277.152" y1="109.753" x2="277.152" y2="225.851" id="gradient-3" gradientTransform="matrix(-1.023584, 0, 0, -1.010791, 560.840027, 548.013214)">
      <stop offset="0" style=""/>
      <stop offset="1" style="stop-color: rgb(255, 255, 255);"/>
    </linearGradient>
    <filter id="filter-12" color-interpolation-filters="sRGB" x="-500%" y="-500%" width="1000%" height="1000%" bx:preset="outline 1 1 rgba(0,0,0,1)">
      <feMorphology in="SourceAlpha" result="dilated" operator="dilate" radius="1"/>
      <feFlood flood-color="rgba(0,0,0,1)" result="flood"/>
      <feComposite in="flood" in2="dilated" operator="in" result="outline"/>
      <feMerge>
        <feMergeNode in="outline"/>
        <feMergeNode in="SourceGraphic"/>
      </feMerge>
    </filter>
    <filter id="filter-13" color-interpolation-filters="sRGB" x="-500%" y="-500%" width="1000%" height="1000%" bx:preset="outline 1 0 rgba(255,255,255,1)">
      <feMorphology in="SourceAlpha" result="dilated" operator="dilate" radius="0"/>
      <feFlood flood-color="rgba(255,255,255,1)" result="flood"/>
      <feComposite in="flood" in2="dilated" operator="in" result="outline"/>
      <feMerge>
        <feMergeNode in="outline"/>
        <feMergeNode in="SourceGraphic"/>
      </feMerge>
    </filter>
    <mask id="mask-1">
      <polygon style="fill: rgb(255, 255, 255);" points="91 -41 -44 -41 -44 94">
        <title>briefcase-2-mask</title>
      </polygon>
    </mask>
    <clipPath id="clip-1">
      <path style="stroke-width: 3px; fill: rgb(255, 255, 0); stroke: rgb(0, 0, 0); stroke-opacity: 0; stroke-linejoin: round; stroke-linecap: round; pointer-events: none;" d="M 214.768 255.253 C 208.387 241.371 147.803 231.913 146.804 234.787 C 122.672 296.86 217.521 311.741 214.768 255.253 Z">
        <title>Left Eye Clip</title>
      </path>
    </clipPath>
    <clipPath id="clip-2">
      <path style="stroke-width: 3px; fill: rgb(255, 255, 0); stroke: rgb(0, 0, 0); stroke-opacity: 0; stroke-linejoin: round; stroke-linecap: round; pointer-events: none;" d="M 285.049 249.847 L 333.339 223.346 C 388.849 270.474 281.291 335.727 285.049 249.847 Z">
        <title>Right Eye Clip</title>
      </path>
    </clipPath>
    <mask id="mask-10">
      <polygon style="fill: rgb(255, 255, 255);" points="-44 94 91 94 91 -41">
        <title>briefcase-3-mask</title>
      </polygon>
    </mask>
    <filter id="filter-14" color-interpolation-filters="sRGB" x="-500%" y="-500%" width="1000%" height="1000%" bx:preset="saturate 1 0">
      <feColorMatrix type="saturate" values="0"/>
    </filter>
    <clipPath id="clip-3">
      <path style="stroke-width: 3px; fill: rgb(255, 255, 0); stroke: rgb(0, 0, 0); stroke-opacity: 0; stroke-linejoin: round; stroke-linecap: round; pointer-events: none;" d="M 214.768 255.253 C 208.387 241.371 147.803 231.913 146.804 234.787 C 122.672 296.86 217.521 311.741 214.768 255.253 Z">
        <title>Left Eye Clip</title>
      </path>
    </clipPath>
    <clipPath id="clip-4">
      <path style="stroke-width: 3px; fill: rgb(255, 255, 0); stroke: rgb(0, 0, 0); stroke-opacity: 0; stroke-linejoin: round; stroke-linecap: round; pointer-events: none;" d="M 285.049 249.847 L 333.339 223.346 C 388.849 270.474 281.291 335.727 285.049 249.847 Z">
        <title>Right Eye Clip</title>
      </path>
    </clipPath>
    <filter id="filter-15" color-interpolation-filters="sRGB" x="-500%" y="-500%" width="1000%" height="1000%" bx:preset="outline 1 10 rgba(0,0,0,1)">
      <feMorphology in="SourceAlpha" result="dilated" operator="dilate" radius="10"/>
      <feFlood flood-color="rgba(0,0,0,1)" result="flood"/>
      <feComposite in="flood" in2="dilated" operator="in" result="outline"/>
      <feMerge>
        <feMergeNode in="outline"/>
        <feMergeNode in="SourceGraphic"/>
      </feMerge>
    </filter>
    <filter id="filter-16" color-interpolation-filters="sRGB" x="-500%" y="-500%" width="1000%" height="1000%" bx:preset="outline 1 0 rgba(255,255,255,1)">
      <feMorphology in="SourceAlpha" result="dilated" operator="dilate" radius="0"/>
      <feFlood flood-color="rgba(255,255,255,1)" result="flood"/>
      <feComposite in="flood" in2="dilated" operator="in" result="outline"/>
      <feMerge>
        <feMergeNode in="outline"/>
        <feMergeNode in="SourceGraphic"/>
      </feMerge>
    </filter>
    <mask id="mask-11">
      <polygon style="fill: rgb(255, 255, 255);" points="91 -41 -44 -41 -44 94">
        <title>briefcase-2-mask</title>
      </polygon>
    </mask>
    <clipPath id="clip-5">
      <path style="stroke-width: 3px; fill: rgb(255, 255, 0); stroke: rgb(0, 0, 0); stroke-opacity: 0; stroke-linejoin: round; stroke-linecap: round; pointer-events: none;" d="M 214.768 255.253 C 208.387 241.371 147.803 231.913 146.804 234.787 C 122.672 296.86 217.521 311.741 214.768 255.253 Z">
        <title>Left Eye Clip</title>
      </path>
    </clipPath>
    <clipPath id="clip-6">
      <path style="stroke-width: 3px; fill: rgb(255, 255, 0); stroke: rgb(0, 0, 0); stroke-opacity: 0; stroke-linejoin: round; stroke-linecap: round; pointer-events: none;" d="M 285.049 249.847 L 333.339 223.346 C 388.849 270.474 281.291 335.727 285.049 249.847 Z">
        <title>Right Eye Clip</title>
      </path>
    </clipPath>
    <mask id="mask-12">
      <polygon style="fill: rgb(255, 255, 255);" points="-44 94 91 94 91 -41">
        <title>briefcase-3-mask</title>
      </polygon>
    </mask>
    <filter id="filter-17" color-interpolation-filters="sRGB" x="-500%" y="-500%" width="1000%" height="1000%" bx:preset="saturate 1 0">
      <feColorMatrix type="saturate" values="0"/>
    </filter>
    <clipPath id="clip-7">
      <path style="stroke-width: 3px; fill: rgb(255, 255, 0); stroke: rgb(0, 0, 0); stroke-opacity: 0; stroke-linejoin: round; stroke-linecap: round; pointer-events: none;" d="M 214.768 255.253 C 208.387 241.371 147.803 231.913 146.804 234.787 C 122.672 296.86 217.521 311.741 214.768 255.253 Z">
        <title>Left Eye Clip</title>
      </path>
    </clipPath>
    <clipPath id="clip-8">
      <path style="stroke-width: 3px; fill: rgb(255, 255, 0); stroke: rgb(0, 0, 0); stroke-opacity: 0; stroke-linejoin: round; stroke-linecap: round; pointer-events: none;" d="M 285.049 249.847 L 333.339 223.346 C 388.849 270.474 281.291 335.727 285.049 249.847 Z">
        <title>Right Eye Clip</title>
      </path>
    </clipPath>
    <clipPath id="clip-0">
      <rect style="" x="254.542" y="631.573" width="298.753" height="159.187" rx="19.971" ry="19.971">
        <title>Mask</title>
      </rect>
    </clipPath>
    <filter id="filter-18" color-interpolation-filters="sRGB" x="-500%" y="-500%" width="1000%" height="1000%" bx:preset="drop-shadow 1 0 0 4 1 rgba(0,0,0,0.3)">
      <feGaussianBlur in="SourceAlpha" stdDeviation="4"/>
      <feOffset dx="0" dy="0"/>
      <feComponentTransfer result="offsetblur">
        <feFuncA id="feFuncA-1" type="linear" slope="2"/>
      </feComponentTransfer>
      <feFlood flood-color="rgba(0,0,0,0.3)"/>
      <feComposite in2="offsetblur" operator="in"/>
      <feMerge>
        <feMergeNode/>
        <feMergeNode in="SourceGraphic"/>
      </feMerge>
    </filter>
  </defs>
  <rect width="1280" height="800" style="">
    <title>Background</title>
  </rect>
  <g transform="matrix(1, 0, 0, 1, 0, 9.999995)">
    <title>Title</title>
    <rect width="761.118" height="262.353" style="fill: none;" x="518.882" y="-10">
      <title>Text Box</title>
    </rect>
    <text style="fill: rgb(255, 255, 255); font-family: &quot;Open Sans&quot;; font-size: 50px; font-weight: 600; text-anchor: middle; white-space: pre;" transform="matrix(1, 0, 0, 1, 391.019409, -1.104431)"><tspan x="510.312" y="103.685">Remove hidden </tspan><tspan x="510.312" dy="1.5em">​</tspan><tspan>jobs from display.</tspan></text>
  </g>
  <g transform="matrix(0.778368, 0, 0, 0.778368, 407.15509, 54.053947)" style="">
    <title>Before and After</title>
    <rect y="160.309" width="1644.468" height="798.038" style="fill: none;" x="-523.089">
      <title>Container</title>
    </rect>
    <g transform="matrix(0.891523, 0, 0, 0.891523, -578.593445, 50.386215)" style="">
      <title>Browser</title>
      <g>
        <title>Window</title>
        <path style="fill: rgb(230, 230, 230); stroke-width: 4px;" d="M 62.259 120 H 780 A 30 30 0 0 1 810 150 V 1018.437 H 62.259 V 120 Z" bx:shape="rect 62.259 120 747.741 898.437 0 30 0 0 1@ac6c8709">
          <title>Container</title>
        </path>
        <path style="fill: rgb(179, 179, 179);" d="M 62.259 120 H 780 A 30 30 0 0 1 810 150 V 195 H 62.259 V 120 Z" bx:shape="rect 62.259 120 747.741 75 0 30 0 0 1@da02e78b">
          <title>Top</title>
        </path>
      </g>
      <g style="">
        <title>Toolbar</title>
        <rect y="195" width="747.741" height="75" style="stroke-width: 4px; fill: rgb(204, 204, 204);" x="62.259">
          <title>Container</title>
        </rect>
        <path d="M 751.758 247.5 C 751.132 247.5 750.601 247.281 750.165 246.843 C 749.727 246.406 749.508 245.874 749.508 245.25 C 749.508 244.624 749.727 244.093 750.165 243.657 C 750.601 243.219 751.132 243 751.758 243 C 752.382 243 752.914 243.219 753.352 243.657 C 753.789 244.093 754.008 244.624 754.008 245.25 C 754.008 245.874 753.789 246.406 753.352 246.843 C 752.914 247.281 752.382 247.5 751.758 247.5 Z M 751.758 234.75 C 751.132 234.75 750.601 234.531 750.165 234.093 C 749.727 233.656 749.508 233.124 749.508 232.5 C 749.508 231.874 749.727 231.343 750.165 230.907 C 750.601 230.469 751.132 230.25 751.758 230.25 C 752.382 230.25 752.914 230.469 753.352 230.907 C 753.789 231.343 754.008 231.874 754.008 232.5 C 754.008 233.124 753.789 233.656 753.352 234.093 C 752.914 234.531 752.382 234.75 751.758 234.75 Z M 751.758 222 C 751.132 222 750.601 221.781 750.165 221.343 C 749.727 220.906 749.508 220.374 749.508 219.75 C 749.508 219.124 749.727 218.593 750.165 218.157 C 750.601 217.719 751.132 217.5 751.758 217.5 C 752.382 217.5 752.914 217.719 753.352 218.157 C 753.789 218.593 754.008 219.124 754.008 219.75 C 754.008 220.374 753.789 220.906 753.352 221.343 C 752.914 221.781 752.382 222 751.758 222 Z" style="filter: url(#filter-12);">
          <title>Vertical Dots</title>
        </path>
        <path d="M 667.62 250 L 659.812 250 C 659.095 250 658.466 249.724 657.928 249.17 C 657.389 248.616 657.12 247.951 657.12 247.174 L 657.12 239.275 C 658.437 239.126 659.566 238.609 660.508 237.727 C 661.45 236.845 661.921 235.76 661.921 234.475 C 661.921 233.188 661.45 232.103 660.508 231.221 C 659.566 230.339 658.437 229.823 657.12 229.674 L 657.12 221.775 C 657.12 221.087 657.389 220.467 657.928 219.913 C 658.466 219.359 659.095 219.083 659.812 219.083 L 667.709 219.083 C 668.039 217.887 668.607 216.907 669.415 216.145 C 670.222 215.382 671.225 215 672.421 215 C 673.588 215 674.636 215.382 675.562 216.145 C 676.491 216.907 677.118 217.887 677.446 219.083 L 685.345 219.083 C 686.033 219.083 686.654 219.359 687.207 219.913 C 687.761 220.467 688.037 221.087 688.037 221.775 L 688.037 229.674 C 689.234 230.003 690.213 230.63 690.975 231.558 C 691.738 232.484 692.12 233.532 692.12 234.699 C 692.12 235.895 691.738 236.898 690.975 237.705 C 690.213 238.513 689.234 239.081 688.037 239.411 L 688.037 247.308 C 688.037 248.025 687.761 248.654 687.207 249.192 C 686.654 249.731 686.033 250 685.345 250 L 677.537 250 C 677.388 248.564 676.819 247.405 675.832 246.523 C 674.845 245.641 673.708 245.199 672.421 245.199 C 671.285 245.199 670.238 245.641 669.281 246.523 C 668.323 247.405 667.77 248.564 667.62 250 Z">
          <title>Puzzle Piece</title>
        </path>
        <g transform="matrix(1, 0, 0, 1, 0, 2.5)">
          <title>Selected Hide-N-Seek Icon</title>
          <circle cx="577.731" cy="230" r="30" style="stroke: rgb(204, 204, 204); fill: rgb(179, 179, 179);">
            <title>Selection Indicator</title>
          </circle>
          <g style="" transform="matrix(0.486111, 0, 0, 0.486111, 566.3078, 219.494141)">
            <title>Hide-N-Seek-Icon</title>
            <path d="M -7.098 57.612 C -8.539 57.612 -9.8 57.045 -10.88 55.906 C -11.962 54.77 -12.5 53.442 -12.5 51.928 L -12.5 6.455 C -12.5 4.938 -11.962 3.61 -10.88 2.475 C -9.8 1.338 -8.539 0.768 -7.098 0.768 L 9.099 0.768 L 9.099 -8.704 C 9.099 -10.218 9.642 -11.546 10.718 -12.682 C 11.8 -13.821 13.06 -14.388 14.5 -14.388 L 32.5 -14.388 C 33.94 -14.388 35.2 -13.821 36.282 -12.682 C 37.358 -11.546 37.901 -10.218 37.901 -8.704 L 37.901 0.768 L 54.098 0.768 C 55.539 0.768 56.8 1.338 57.88 2.475 C 58.959 3.61 59.5 4.938 59.5 6.455 L 59.5 51.928 C 59.5 53.442 58.959 54.77 57.88 55.906 C 56.8 57.045 55.539 57.612 54.098 57.612 L -7.098 57.612 Z M 14.5 0.768 L 32.5 0.768 L 32.5 -8.704 L 14.5 -8.704 L 14.5 0.768 Z" style="paint-order: fill; stroke-width: 4px; stroke: rgb(0, 0, 0); filter: url(#filter-13);">
              <title>briefcase-prevent-seam</title>
            </path>
            <path style="stroke-width: 3px; stroke-opacity: 0; stroke-linejoin: round; stroke-linecap: round; stroke: rgb(186, 218, 85);" d="M 13.695 42.728 C 5.181 42.499 -3.487 32.43 6.373 21.353 C 6.698 20.47 6.794 10.524 6.976 10.524 C 7.198 8.708 13.103 17.207 14.013 18.549 C 20.212 14.327 30.345 15.734 32.993 18.791 C 33.473 18.235 37.132 12.96 38.22 12.071 C 39.939 11.881 39.247 22.507 39.427 22.32 C 47.744 26.516 47.201 40.995 34.919 42.728">
              <title>head-prevent-seam</title>
            </path>
            <g style="mask: url(#mask-1);">
              <title>briefcase-upper-left</title>
              <path d="M -7.098 57.612 C -8.539 57.612 -9.8 57.045 -10.88 55.906 C -11.962 54.77 -12.5 53.442 -12.5 51.928 L -12.5 6.455 C -12.5 4.938 -11.962 3.61 -10.88 2.475 C -9.8 1.338 -8.539 0.768 -7.098 0.768 L 9.099 0.768 L 9.099 -8.704 C 9.099 -10.218 9.642 -11.546 10.718 -12.682 C 11.8 -13.821 13.06 -14.388 14.5 -14.388 L 32.5 -14.388 C 33.94 -14.388 35.2 -13.821 36.282 -12.682 C 37.358 -11.546 37.901 -10.218 37.901 -8.704 L 37.901 0.768 L 54.098 0.768 C 55.539 0.768 56.8 1.338 57.88 2.475 C 58.959 3.61 59.5 4.938 59.5 6.455 L 59.5 51.928 C 59.5 53.442 58.959 54.77 57.88 55.906 C 56.8 57.045 55.539 57.612 54.098 57.612 L -7.098 57.612 Z M 14.5 0.768 L 32.5 0.768 L 32.5 -8.704 L 14.5 -8.704 L 14.5 0.768 Z" style="stroke: rgb(0, 0, 0); fill: rgb(217, 168, 118);">
                <title>briefcase</title>
              </path>
              <g style="" transform="matrix(0.104132, 0, 0, 0.104132, -2.532993, -0.637008)">
                <title>Charm</title>
                <path style="stroke-width: 3px; stroke-opacity: 0; stroke-linejoin: round; stroke-linecap: round; pointer-events: none; stroke: rgb(186, 218, 85);" d="M 155.839 416.452 C 74.076 414.246 -9.163 317.554 85.521 211.184 C 88.642 202.702 89.567 107.184 91.313 107.184 C 93.447 89.745 150.151 171.369 158.89 184.258 C 218.415 143.708 315.724 157.224 341.157 186.578 C 345.771 181.239 380.902 130.582 391.357 122.043 C 407.86 120.218 401.213 222.267 402.943 220.47 C 482.816 260.759 477.595 399.802 359.651 416.452">
                  <title>Head</title>
                </path>
                <g style="clip-path: url(#clip-1);">
                  <title>Left Eye</title>
                  <path style="stroke-width: 3px; stroke-opacity: 0; stroke-linejoin: round; stroke-linecap: round; pointer-events: none; fill: rgb(217, 217, 118);" d="M 214.768 255.253 C 208.387 241.371 147.803 231.913 146.804 234.787 C 122.672 296.86 217.521 311.741 214.768 255.253 Z">
                    <title>Left Eye Outer</title>
                  </path>
                  <path style="fill: black; stroke-width: 3px; stroke-linejoin: round; stroke-linecap: round; pointer-events: none; stroke: rgb(0, 0, 0);" d="M 169.232 238.541 C 164.496 240.806 158.937 268.553 168.383 274.458 C 181.214 279.697 208.634 252.081 198.524 245.975 C 194.377 243.919 170.2 237.767 169.232 238.541 Z">
                    <title>Left Eye Pupil</title>
                  </path>
                </g>
                <g style="pointer-events: none; visibility: hidden; clip-path: url(#clip-2);">
                  <title>Right Eye</title>
                  <path style="stroke-width: 3px; fill: rgb(255, 255, 0); stroke-opacity: 0; stroke-linejoin: round; stroke-linecap: round; stroke: rgb(186, 218, 85);" d="M 285.049 249.847 L 333.339 223.346 C 388.849 270.474 281.291 335.727 285.049 249.847 Z">
                    <title>Right Eye Outer</title>
                  </path>
                  <path style="fill: black; stroke-width: 3px; stroke-linejoin: round; stroke-linecap: round; stroke: rgb(186, 218, 85);" d="M 296.094 245.378 L 314.081 235.588 C 321.11 237.808 327.078 271.989 309.864 276.822 C 292.65 281.657 295.966 247.777 296.094 245.378 Z">
                    <title>Right Eye Pupil</title>
                  </path>
                </g>
                <path style="stroke-width: 3px; fill: rgb(128, 128, 128); stroke-linejoin: round; stroke-linecap: round; pointer-events: none; stroke: rgb(186, 218, 85); visibility: hidden;" d="M 233.32 303.41 C 233.32 302.919 267.736 300.274 267.736 301.963 C 270.98 301.963 267.194 332.711 265.99 332.711 C 262.439 338.218 230.936 307.108 233.32 303.41 Z" transform="matrix(-0.679305, 0.733856, -0.733856, -0.679305, 654.596728, 348.709856)">
                  <title>Nose</title>
                </path>
                <path d="M 217.5 -411.659 L 225 -385.967 L 210 -385.967 L 217.5 -411.659 Z" style="fill: rgb(255, 255, 255); visibility: hidden; stroke: rgb(186, 218, 85);" transform="matrix(1, 0, 0, -1, 0, 0)" class="halloween" bx:shape="triangle 210 -411.659 15 25.692 0.5 0 1@d8234d65">
                  <title>Halloween Left Fang</title>
                </path>
                <path d="M 280.986 -402.974 L 288.486 -377.282 L 273.486 -377.282 L 280.986 -402.974 Z" style="fill: rgb(255, 255, 255); visibility: hidden; stroke: rgb(186, 218, 85);" transform="matrix(1, 0, 0, -1, 0, 0)" class="halloween" bx:shape="triangle 273.486 -402.974 15 25.692 0.5 0 1@027a9276">
                  <title>Halloween Right Fang</title>
                </path>
                <path style="fill: none; stroke-width: 6px; stroke-linejoin: round; stroke-linecap: round; pointer-events: none; stroke: rgb(186, 218, 85); visibility: hidden;" d="M 250.589 336.034 L 252.443 361.372 C 230.077 409.832 166.815 377.88 183.845 340.978">
                  <title>Left Lip</title>
                </path>
                <path style="fill: none; stroke-width: 6px; stroke-linejoin: round; stroke-linecap: round; pointer-events: none; stroke: rgb(186, 218, 85); visibility: hidden;" d="M 252.443 359.518 C 278.217 395.377 308.936 368.31 298.175 353.337">
                  <title>Right Lip</title>
                </path>
                <path style="stroke-width: 6px; stroke-linejoin: round; stroke-linecap: round; fill: rgb(51, 51, 51); pointer-events: none; stroke-opacity: 0; stroke: rgb(186, 218, 85); visibility: hidden;" d="M 144.908 229.028 C 144.908 229.028 222.328 249.598 222.328 249.598">
                  <title>Left Eyelid Chromium</title>
                </path>
                <path style="stroke-width: 6px; stroke-linejoin: round; stroke-linecap: round; fill: rgb(51, 51, 51); pointer-events: none; stroke-opacity: 0; stroke: rgb(186, 218, 85); visibility: hidden;" d="M 278.801 251.337 C 278.801 251.337 339.019 218.997 339.019 218.997">
                  <title>Right Eyelid Chromium</title>
                </path>
              </g>
            </g>
            <g style="mask: url(#mask-10);">
              <title>briefcase-lower-right</title>
              <path d="M -7.098 57.612 C -8.539 57.612 -9.8 57.045 -10.88 55.906 C -11.962 54.77 -12.5 53.442 -12.5 51.928 L -12.5 6.455 C -12.5 4.938 -11.962 3.61 -10.88 2.475 C -9.8 1.338 -8.539 0.768 -7.098 0.768 L 9.099 0.768 L 9.099 -8.704 C 9.099 -10.218 9.642 -11.546 10.718 -12.682 C 11.8 -13.821 13.06 -14.388 14.5 -14.388 L 32.5 -14.388 C 33.94 -14.388 35.2 -13.821 36.282 -12.682 C 37.358 -11.546 37.901 -10.218 37.901 -8.704 L 37.901 0.768 L 54.098 0.768 C 55.539 0.768 56.8 1.338 57.88 2.475 C 58.959 3.61 59.5 4.938 59.5 6.455 L 59.5 51.928 C 59.5 53.442 58.959 54.77 57.88 55.906 C 56.8 57.045 55.539 57.612 54.098 57.612 L -7.098 57.612 Z M 14.5 0.768 L 32.5 0.768 L 32.5 -8.704 L 14.5 -8.704 L 14.5 0.768 Z" style="stroke: rgb(0, 0, 0);">
                <title>briefcase</title>
              </path>
              <g style="opacity: 0; visibility: hidden; filter: url(#filter-14);" transform="matrix(0.104132, 0, 0, 0.104132, -2.532993, -0.637008)">
                <title>Charm</title>
                <path style="stroke-width: 3px; stroke: rgb(0, 0, 0); stroke-opacity: 0; fill: rgb(51, 51, 51); stroke-linejoin: round; stroke-linecap: round; pointer-events: none; visibility: hidden;" d="M 155.839 416.452 C 74.076 414.246 -9.163 317.554 85.521 211.184 C 88.642 202.702 89.567 107.184 91.313 107.184 C 93.447 89.745 150.151 171.369 158.89 184.258 C 218.415 143.708 315.724 157.224 341.157 186.578 C 345.771 181.239 380.902 130.582 391.357 122.043 C 407.86 120.218 401.213 222.267 402.943 220.47 C 482.816 260.759 477.595 399.802 359.651 416.452">
                  <title>Head</title>
                </path>
                <g style="clip-path: url(#clip-3);">
                  <title>Left Eye</title>
                  <path style="stroke-width: 3px; fill: rgb(255, 255, 0); stroke: rgb(0, 0, 0); stroke-opacity: 0; stroke-linejoin: round; stroke-linecap: round; pointer-events: none;" d="M 214.768 255.253 C 208.387 241.371 147.803 231.913 146.804 234.787 C 122.672 296.86 217.521 311.741 214.768 255.253 Z">
                    <title>Left Eye Outer</title>
                  </path>
                  <path style="fill: black; stroke-width: 3px; stroke: black; stroke-linejoin: round; stroke-linecap: round; pointer-events: none;" d="M 169.232 238.541 C 164.496 240.806 158.937 268.553 168.383 274.458 C 181.214 279.697 208.634 252.081 198.524 245.975 C 194.377 243.919 170.2 237.767 169.232 238.541 Z">
                    <title>Left Eye Pupil</title>
                  </path>
                </g>
                <g style="pointer-events: none; clip-path: url(#clip-4);">
                  <title>Right Eye</title>
                  <path style="stroke-width: 3px; fill: rgb(255, 255, 0); stroke: rgb(0, 0, 0); stroke-opacity: 0; stroke-linejoin: round; stroke-linecap: round;" d="M 285.049 249.847 L 333.339 223.346 C 388.849 270.474 281.291 335.727 285.049 249.847 Z">
                    <title>Right Eye Outer</title>
                  </path>
                  <path style="fill: black; stroke-width: 3px; stroke: black; stroke-linejoin: round; stroke-linecap: round;" d="M 296.094 245.378 L 314.081 235.588 C 321.11 237.808 327.078 271.989 309.864 276.822 C 292.65 281.657 295.966 247.777 296.094 245.378 Z">
                    <title>Right Eye Pupil</title>
                  </path>
                </g>
                <path style="stroke-width: 3px; stroke: rgb(128, 128, 128); fill: rgb(128, 128, 128); stroke-linejoin: round; stroke-linecap: round; pointer-events: none;" d="M 233.32 303.41 C 233.32 302.919 267.736 300.274 267.736 301.963 C 270.98 301.963 267.194 332.711 265.99 332.711 C 262.439 338.218 230.936 307.108 233.32 303.41 Z" transform="matrix(-0.679305, 0.733856, -0.733856, -0.679305, 654.596728, 348.709856)">
                  <title>Nose</title>
                </path>
                <path style="fill: none; stroke: rgb(128, 128, 128); stroke-width: 6px; stroke-linejoin: round; stroke-linecap: round; pointer-events: none;" d="M 250.589 336.034 L 252.443 361.372 C 230.077 409.832 166.815 377.88 183.845 340.978">
                  <title>Left Lip</title>
                </path>
                <path style="fill: none; stroke: rgb(128, 128, 128); stroke-width: 6px; stroke-linejoin: round; stroke-linecap: round; pointer-events: none;" d="M 252.443 359.518 C 278.217 395.377 308.936 368.31 298.175 353.337">
                  <title>Right Lip</title>
                </path>
                <path style="stroke-width: 6px; stroke-linejoin: round; stroke: rgb(128, 128, 128); stroke-linecap: round; fill: rgb(51, 51, 51); pointer-events: none; stroke-opacity: 0;" d="M 144.908 229.028 C 144.908 229.028 222.328 249.598 222.328 249.598">
                  <title>Left Eyelid Chromium</title>
                </path>
                <path style="stroke-width: 6px; stroke-linejoin: round; stroke: rgb(128, 128, 128); stroke-linecap: round; fill: rgb(51, 51, 51); pointer-events: none; stroke-opacity: 0;" d="M 278.801 251.337 C 278.801 251.337 339.019 218.997 339.019 218.997">
                  <title>Right Eyelid Chromium</title>
                </path>
              </g>
            </g>
          </g>
          <g>
            <title>Badge</title>
            <rect style="stroke: rgb(51, 51, 51); fill: rgb(255, 128, 128); stroke-width: 2px;" x="580.858" y="233.25" width="30.29" height="30.29" rx="5" ry="5">
              <title>Container</title>
            </rect>
            <text style="fill: rgb(51, 51, 51); font-family: &quot;Open Sans&quot;; font-size: 20px; font-weight: 600; white-space: pre;" x="590.033" y="256.536">4</text>
          </g>
        </g>
      </g>
      <g transform="matrix(1, 0, 0, 1, 0, -11)" style="">
        <title>Popup</title>
        <rect style="stroke-width: 0px; fill: rgb(245, 221, 178); filter: url(#filter-15);" x="217.927" y="300.308" width="371.982" height="681.033" rx="20" ry="20">
          <title>Container</title>
        </rect>
        <g style="" transform="matrix(2.207734, 0, 0, 2.207734, 352.036255, 354.868134)">
          <title>Hide-N-Seek-Icon</title>
          <path d="M -7.098 57.612 C -8.539 57.612 -9.8 57.045 -10.88 55.906 C -11.962 54.77 -12.5 53.442 -12.5 51.928 L -12.5 6.455 C -12.5 4.938 -11.962 3.61 -10.88 2.475 C -9.8 1.338 -8.539 0.768 -7.098 0.768 L 9.099 0.768 L 9.099 -8.704 C 9.099 -10.218 9.642 -11.546 10.718 -12.682 C 11.8 -13.821 13.06 -14.388 14.5 -14.388 L 32.5 -14.388 C 33.94 -14.388 35.2 -13.821 36.282 -12.682 C 37.358 -11.546 37.901 -10.218 37.901 -8.704 L 37.901 0.768 L 54.098 0.768 C 55.539 0.768 56.8 1.338 57.88 2.475 C 58.959 3.61 59.5 4.938 59.5 6.455 L 59.5 51.928 C 59.5 53.442 58.959 54.77 57.88 55.906 C 56.8 57.045 55.539 57.612 54.098 57.612 L -7.098 57.612 Z M 14.5 0.768 L 32.5 0.768 L 32.5 -8.704 L 14.5 -8.704 L 14.5 0.768 Z" style="paint-order: fill; stroke-width: 4px; stroke: rgb(0, 0, 0); filter: url(#filter-16);">
            <title>briefcase-prevent-seam</title>
          </path>
          <path style="stroke-width: 3px; stroke-opacity: 0; stroke-linejoin: round; stroke-linecap: round; stroke: rgb(186, 218, 85);" d="M 13.695 42.728 C 5.181 42.499 -3.487 32.43 6.373 21.353 C 6.698 20.47 6.794 10.524 6.976 10.524 C 7.198 8.708 13.103 17.207 14.013 18.549 C 20.212 14.327 30.345 15.734 32.993 18.791 C 33.473 18.235 37.132 12.96 38.22 12.071 C 39.939 11.881 39.247 22.507 39.427 22.32 C 47.744 26.516 47.201 40.995 34.919 42.728">
            <title>head-prevent-seam</title>
          </path>
          <g style="mask: url(#mask-11);">
            <title>briefcase-upper-left</title>
            <path d="M -7.098 57.612 C -8.539 57.612 -9.8 57.045 -10.88 55.906 C -11.962 54.77 -12.5 53.442 -12.5 51.928 L -12.5 6.455 C -12.5 4.938 -11.962 3.61 -10.88 2.475 C -9.8 1.338 -8.539 0.768 -7.098 0.768 L 9.099 0.768 L 9.099 -8.704 C 9.099 -10.218 9.642 -11.546 10.718 -12.682 C 11.8 -13.821 13.06 -14.388 14.5 -14.388 L 32.5 -14.388 C 33.94 -14.388 35.2 -13.821 36.282 -12.682 C 37.358 -11.546 37.901 -10.218 37.901 -8.704 L 37.901 0.768 L 54.098 0.768 C 55.539 0.768 56.8 1.338 57.88 2.475 C 58.959 3.61 59.5 4.938 59.5 6.455 L 59.5 51.928 C 59.5 53.442 58.959 54.77 57.88 55.906 C 56.8 57.045 55.539 57.612 54.098 57.612 L -7.098 57.612 Z M 14.5 0.768 L 32.5 0.768 L 32.5 -8.704 L 14.5 -8.704 L 14.5 0.768 Z" style="stroke: rgb(0, 0, 0); fill: rgb(217, 168, 118);">
              <title>briefcase</title>
            </path>
            <g style="" transform="matrix(0.104132, 0, 0, 0.104132, -2.532993, -0.637008)">
              <title>Charm</title>
              <path style="stroke-width: 3px; stroke-opacity: 0; stroke-linejoin: round; stroke-linecap: round; pointer-events: none; stroke: rgb(186, 218, 85);" d="M 155.839 416.452 C 74.076 414.246 -9.163 317.554 85.521 211.184 C 88.642 202.702 89.567 107.184 91.313 107.184 C 93.447 89.745 150.151 171.369 158.89 184.258 C 218.415 143.708 315.724 157.224 341.157 186.578 C 345.771 181.239 380.902 130.582 391.357 122.043 C 407.86 120.218 401.213 222.267 402.943 220.47 C 482.816 260.759 477.595 399.802 359.651 416.452">
                <title>Head</title>
              </path>
              <g style="clip-path: url(#clip-5);">
                <title>Left Eye</title>
                <path style="stroke-width: 3px; stroke-opacity: 0; stroke-linejoin: round; stroke-linecap: round; pointer-events: none; fill: rgb(217, 217, 118);" d="M 214.768 255.253 C 208.387 241.371 147.803 231.913 146.804 234.787 C 122.672 296.86 217.521 311.741 214.768 255.253 Z">
                  <title>Left Eye Outer</title>
                </path>
                <path style="fill: black; stroke-width: 3px; stroke-linejoin: round; stroke-linecap: round; pointer-events: none; stroke: rgb(0, 0, 0);" d="M 169.232 238.541 C 164.496 240.806 158.937 268.553 168.383 274.458 C 181.214 279.697 208.634 252.081 198.524 245.975 C 194.377 243.919 170.2 237.767 169.232 238.541 Z">
                  <title>Left Eye Pupil</title>
                </path>
              </g>
              <g style="pointer-events: none; visibility: hidden; clip-path: url(#clip-6);">
                <title>Right Eye</title>
                <path style="stroke-width: 3px; fill: rgb(255, 255, 0); stroke-opacity: 0; stroke-linejoin: round; stroke-linecap: round; stroke: rgb(186, 218, 85);" d="M 285.049 249.847 L 333.339 223.346 C 388.849 270.474 281.291 335.727 285.049 249.847 Z">
                  <title>Right Eye Outer</title>
                </path>
                <path style="fill: black; stroke-width: 3px; stroke-linejoin: round; stroke-linecap: round; stroke: rgb(186, 218, 85);" d="M 296.094 245.378 L 314.081 235.588 C 321.11 237.808 327.078 271.989 309.864 276.822 C 292.65 281.657 295.966 247.777 296.094 245.378 Z">
                  <title>Right Eye Pupil</title>
                </path>
              </g>
              <path style="stroke-width: 3px; fill: rgb(128, 128, 128); stroke-linejoin: round; stroke-linecap: round; pointer-events: none; stroke: rgb(186, 218, 85); visibility: hidden;" d="M 233.32 303.41 C 233.32 302.919 267.736 300.274 267.736 301.963 C 270.98 301.963 267.194 332.711 265.99 332.711 C 262.439 338.218 230.936 307.108 233.32 303.41 Z" transform="matrix(-0.679305, 0.733856, -0.733856, -0.679305, 654.596728, 348.709856)">
                <title>Nose</title>
              </path>
              <path d="M 217.5 -411.659 L 225 -385.967 L 210 -385.967 L 217.5 -411.659 Z" style="fill: rgb(255, 255, 255); visibility: hidden; stroke: rgb(186, 218, 85);" transform="matrix(1, 0, 0, -1, 0, 0)" class="halloween" bx:shape="triangle 210 -411.659 15 25.692 0.5 0 1@d8234d65">
                <title>Halloween Left Fang</title>
              </path>
              <path d="M 280.986 -402.974 L 288.486 -377.282 L 273.486 -377.282 L 280.986 -402.974 Z" style="fill: rgb(255, 255, 255); visibility: hidden; stroke: rgb(186, 218, 85);" transform="matrix(1, 0, 0, -1, 0, 0)" class="halloween" bx:shape="triangle 273.486 -402.974 15 25.692 0.5 0 1@027a9276">
                <title>Halloween Right Fang</title>
              </path>
              <path style="fill: none; stroke-width: 6px; stroke-linejoin: round; stroke-linecap: round; pointer-events: none; stroke: rgb(186, 218, 85); visibility: hidden;" d="M 250.589 336.034 L 252.443 361.372 C 230.077 409.832 166.815 377.88 183.845 340.978">
                <title>Left Lip</title>
              </path>
              <path style="fill: none; stroke-width: 6px; stroke-linejoin: round; stroke-linecap: round; pointer-events: none; stroke: rgb(186, 218, 85); visibility: hidden;" d="M 252.443 359.518 C 278.217 395.377 308.936 368.31 298.175 353.337">
                <title>Right Lip</title>
              </path>
              <path style="stroke-width: 6px; stroke-linejoin: round; stroke-linecap: round; fill: rgb(51, 51, 51); pointer-events: none; stroke-opacity: 0; stroke: rgb(186, 218, 85); visibility: hidden;" d="M 144.908 229.028 C 144.908 229.028 222.328 249.598 222.328 249.598">
                <title>Left Eyelid Chromium</title>
              </path>
              <path style="stroke-width: 6px; stroke-linejoin: round; stroke-linecap: round; fill: rgb(51, 51, 51); pointer-events: none; stroke-opacity: 0; stroke: rgb(186, 218, 85); visibility: hidden;" d="M 278.801 251.337 C 278.801 251.337 339.019 218.997 339.019 218.997">
                <title>Right Eyelid Chromium</title>
              </path>
            </g>
          </g>
          <g style="mask: url(#mask-12);">
            <title>briefcase-lower-right</title>
            <path d="M -7.098 57.612 C -8.539 57.612 -9.8 57.045 -10.88 55.906 C -11.962 54.77 -12.5 53.442 -12.5 51.928 L -12.5 6.455 C -12.5 4.938 -11.962 3.61 -10.88 2.475 C -9.8 1.338 -8.539 0.768 -7.098 0.768 L 9.099 0.768 L 9.099 -8.704 C 9.099 -10.218 9.642 -11.546 10.718 -12.682 C 11.8 -13.821 13.06 -14.388 14.5 -14.388 L 32.5 -14.388 C 33.94 -14.388 35.2 -13.821 36.282 -12.682 C 37.358 -11.546 37.901 -10.218 37.901 -8.704 L 37.901 0.768 L 54.098 0.768 C 55.539 0.768 56.8 1.338 57.88 2.475 C 58.959 3.61 59.5 4.938 59.5 6.455 L 59.5 51.928 C 59.5 53.442 58.959 54.77 57.88 55.906 C 56.8 57.045 55.539 57.612 54.098 57.612 L -7.098 57.612 Z M 14.5 0.768 L 32.5 0.768 L 32.5 -8.704 L 14.5 -8.704 L 14.5 0.768 Z" style="stroke: rgb(0, 0, 0);">
              <title>briefcase</title>
            </path>
            <g style="opacity: 0; visibility: hidden; filter: url(#filter-17);" transform="matrix(0.104132, 0, 0, 0.104132, -2.532993, -0.637008)">
              <title>Charm</title>
              <path style="stroke-width: 3px; stroke: rgb(0, 0, 0); stroke-opacity: 0; fill: rgb(51, 51, 51); stroke-linejoin: round; stroke-linecap: round; pointer-events: none; visibility: hidden;" d="M 155.839 416.452 C 74.076 414.246 -9.163 317.554 85.521 211.184 C 88.642 202.702 89.567 107.184 91.313 107.184 C 93.447 89.745 150.151 171.369 158.89 184.258 C 218.415 143.708 315.724 157.224 341.157 186.578 C 345.771 181.239 380.902 130.582 391.357 122.043 C 407.86 120.218 401.213 222.267 402.943 220.47 C 482.816 260.759 477.595 399.802 359.651 416.452">
                <title>Head</title>
              </path>
              <g style="clip-path: url(#clip-7);">
                <title>Left Eye</title>
                <path style="stroke-width: 3px; fill: rgb(255, 255, 0); stroke: rgb(0, 0, 0); stroke-opacity: 0; stroke-linejoin: round; stroke-linecap: round; pointer-events: none;" d="M 214.768 255.253 C 208.387 241.371 147.803 231.913 146.804 234.787 C 122.672 296.86 217.521 311.741 214.768 255.253 Z">
                  <title>Left Eye Outer</title>
                </path>
                <path style="fill: black; stroke-width: 3px; stroke: black; stroke-linejoin: round; stroke-linecap: round; pointer-events: none;" d="M 169.232 238.541 C 164.496 240.806 158.937 268.553 168.383 274.458 C 181.214 279.697 208.634 252.081 198.524 245.975 C 194.377 243.919 170.2 237.767 169.232 238.541 Z">
                  <title>Left Eye Pupil</title>
                </path>
              </g>
              <g style="pointer-events: none; clip-path: url(#clip-8);">
                <title>Right Eye</title>
                <path style="stroke-width: 3px; fill: rgb(255, 255, 0); stroke: rgb(0, 0, 0); stroke-opacity: 0; stroke-linejoin: round; stroke-linecap: round;" d="M 285.049 249.847 L 333.339 223.346 C 388.849 270.474 281.291 335.727 285.049 249.847 Z">
                  <title>Right Eye Outer</title>
                </path>
                <path style="fill: black; stroke-width: 3px; stroke: black; stroke-linejoin: round; stroke-linecap: round;" d="M 296.094 245.378 L 314.081 235.588 C 321.11 237.808 327.078 271.989 309.864 276.822 C 292.65 281.657 295.966 247.777 296.094 245.378 Z">
                  <title>Right Eye Pupil</title>
                </path>
              </g>
              <path style="stroke-width: 3px; stroke: rgb(128, 128, 128); fill: rgb(128, 128, 128); stroke-linejoin: round; stroke-linecap: round; pointer-events: none;" d="M 233.32 303.41 C 233.32 302.919 267.736 300.274 267.736 301.963 C 270.98 301.963 267.194 332.711 265.99 332.711 C 262.439 338.218 230.936 307.108 233.32 303.41 Z" transform="matrix(-0.679305, 0.733856, -0.733856, -0.679305, 654.596728, 348.709856)">
                <title>Nose</title>
              </path>
              <path style="fill: none; stroke: rgb(128, 128, 128); stroke-width: 6px; stroke-linejoin: round; stroke-linecap: round; pointer-events: none;" d="M 250.589 336.034 L 252.443 361.372 C 230.077 409.832 166.815 377.88 183.845 340.978">
                <title>Left Lip</title>
              </path>
              <path style="fill: none; stroke: rgb(128, 128, 128); stroke-width: 6px; stroke-linejoin: round; stroke-linecap: round; pointer-events: none;" d="M 252.443 359.518 C 278.217 395.377 308.936 368.31 298.175 353.337">
                <title>Right Lip</title>
              </path>
              <path style="stroke-width: 6px; stroke-linejoin: round; stroke: rgb(128, 128, 128); stroke-linecap: round; fill: rgb(51, 51, 51); pointer-events: none; stroke-opacity: 0;" d="M 144.908 229.028 C 144.908 229.028 222.328 249.598 222.328 249.598">
                <title>Left Eyelid Chromium</title>
              </path>
              <path style="stroke-width: 6px; stroke-linejoin: round; stroke: rgb(128, 128, 128); stroke-linecap: round; fill: rgb(51, 51, 51); pointer-events: none; stroke-opacity: 0;" d="M 278.801 251.337 C 278.801 251.337 339.019 218.997 339.019 218.997">
                <title>Right Eyelid Chromium</title>
              </path>
            </g>
          </g>
        </g>
        <text style="fill: rgb(51, 51, 51); font-family: &quot;Open Sans&quot;; font-size: 24px; font-weight: 700; white-space: pre;" x="330.484" y="526.089"><title>Hide n' Seek</title>Hide n' Seek</text>
        <g style="" transform="matrix(1, 0, 0, 1.002947, -0.000488, -1.638952)">
          <title>Options Panel</title>
          <rect style="fill: rgb(217, 168, 118);" x="235.93" y="556.136" width="335.977" height="406.221" rx="20" ry="20">
            <title>Container</title>
          </rect>
          <g transform="matrix(1.812327, 0, 0, 1.812327, 328.797546, 574.741455)" style="">
            <title>LinkedIn Logo</title>
            <polygon class="st0" points="0 3.1 3.2 3.1 3.2 14.9 9.2 14.9 9.2 17.9 0 17.9" style="fill: rgb(10, 102, 194);"/>
            <path class="st0" d="m10.7 7.9h3.1v10h-3.1v-10zm1.5-5c1 0 1.8 0.8 1.8 1.8s-0.8 1.8-1.8 1.8-1.8-0.8-1.8-1.8 0.8-1.8 1.8-1.8" style="fill: rgb(10, 102, 194);"/>
            <polygon class="st0" points="26.8 3.1 29.9 3.1 29.9 11.9 33.4 7.9 37.2 7.9 33.2 12.5 37.2 17.9 33.3 17.9 29.9 12.9 29.9 12.9 29.9 17.9 26.8 17.9" style="fill: rgb(10, 102, 194);"/>
            <path class="st0" d="m15.5 7.9h3v1.4c0.6-1 1.7-1.7 2.9-1.6 3.2 0 3.7 2.1 3.7 4.8v5.5h-3.1v-5c0-1.2 0-2.7-1.6-2.7s-1.9 1.3-1.9 2.6v5h-3.1v-10z" style="fill: rgb(10, 102, 194);"/>
            <path class="st0" d="m43.8 11.7c0-1-0.8-1.9-1.8-1.9h-0.1c-1.1-0.1-2.1 0.8-2.2 1.9h4.1zm2.6 4.5c-1 1.3-2.6 2-4.3 2-3.1 0-5.6-2.1-5.6-5.3s2.5-5.3 5.6-5.3c2.9 0 4.7 2.1 4.7 5.3v1h-7.2c0.2 1.1 1.2 2 2.3 2 0.9 0 1.7-0.5 2.2-1.2l2.3 1.5z" style="fill: rgb(10, 102, 194);"/>
            <path class="st0" d="m53.4 10.3c-1.6 0-2.5 1-2.5 2.6s0.9 2.6 2.5 2.6 2.5-1 2.5-2.6-0.9-2.6-2.5-2.6m5.4 7.6h-2.9v-1.3c-0.7 1-1.9 1.6-3.1 1.6-3 0-5-2.2-5-5.2 0-2.8 1.7-5.4 4.6-5.4 1.3 0 2.5 0.4 3.2 1.3v-5.8h3.1l0.1 14.8z" style="fill: rgb(10, 102, 194);"/>
            <path class="st0" d="m81.3 0h-17.9c-0.8 0-1.5 0.7-1.6 1.5v18c0 0.8 0.7 1.5 1.6 1.5h17.9c0.8 0 1.5-0.7 1.6-1.5v-18c0-0.8-0.7-1.5-1.6-1.5zm-13.2 17.9h-3.1v-10h3.1v10zm-1.6-11.4c-1 0-1.8-0.8-1.8-1.8s0.8-1.8 1.8-1.8 1.8 0.8 1.8 1.8-0.8 1.8-1.8 1.8zm13.3 11.4h-3.1v-4.9c0-1.2 0-2.7-1.6-2.7s-1.9 1.3-1.9 2.6v5h-3.1v-10h3v1.4c0.6-1 1.7-1.7 2.9-1.6 3.2 0 3.7 2.1 3.7 4.8l0.1 5.4z" style="fill: rgb(10, 102, 194);"/>
          </g>
          <g transform="matrix(1, 0, 0, 1, -0.000015, -0.259925)">
            <title>Hidden Jobs List</title>
            <rect style="fill: rgba(255, 255, 255, 0.1);" x="254.542" y="631.573" width="298.753" height="159.187" rx="19.971" ry="19.971">
              <title>Container</title>
            </rect>
            <g transform="matrix(1, 0, 0, 1, -28.220989, 10.204979)">
              <title>Expand Collapse Button</title>
              <rect style="fill: rgba(0, 0, 0, 0.2);" x="293.398" y="686.306" width="18.606" height="29.311" rx="9.286" ry="9.286">
                <title>Container</title>
              </rect>
              <g transform="matrix(1.155613, 0, 0, 1.155613, -89.190308, -118.841255)" style="">
                <title>Icon</title>
                <g class=".top-half" transform="matrix(1, 0, 0, 0.997062, 327.113556, 697.394897)">
                  <title>Top</title>
                  <path d="M 8.225 8.325 C 8.042 8.142 7.95 7.9 7.95 7.6 C 7.95 7.3 8.042 7.058 8.225 6.875 L 11.3 3.8 C 11.4 3.7 11.508 3.629 11.625 3.587 C 11.742 3.546 11.867 3.525 12 3.525 C 12.133 3.525 12.263 3.546 12.388 3.587 C 12.513 3.629 12.617 3.7 12.7 3.8 L 15.8 6.9 C 15.983 7.083 16.071 7.321 16.062 7.612 C 16.054 7.904 15.958 8.142 15.775 8.325 C 15.592 8.508 15.35 8.6 15.05 8.6 C 14.75 8.6 14.508 8.508 14.325 8.325 L 12 6 L 9.65 8.35 C 9.467 8.533 9.229 8.621 8.938 8.613 C 8.646 8.604 8.408 8.508 8.225 8.325 L 8.225 8.325 Z" style="fill: rgba(0, 0, 0, 0.5);"/>
                </g>
                <g class=".bottom-half" transform="matrix(1, 0, 0, 0.997062, 327.113556, 697.394897)">
                  <title>Bottom</title>
                  <path d="M 12 20.575 C 11.867 20.575 11.742 20.55 11.625 20.5 C 11.508 20.45 11.4 20.383 11.3 20.3 L 8.225 17.225 C 8.042 17.042 7.95 16.8 7.95 16.5 C 7.95 16.2 8.042 15.958 8.225 15.775 C 8.408 15.592 8.65 15.5 8.95 15.5 C 9.25 15.5 9.492 15.592 9.675 15.775 L 12 18.1 L 14.35 15.75 C 14.533 15.567 14.771 15.479 15.062 15.488 C 15.354 15.496 15.592 15.592 15.775 15.775 C 15.958 15.958 16.05 16.2 16.05 16.5 C 16.05 16.8 15.958 17.042 15.775 17.225 L 12.7 20.3 C 12.617 20.383 12.513 20.45 12.388 20.5 C 12.263 20.55 12.133 20.575 12 20.575 Z" style="fill: rgba(0, 0, 0, 0.5);"/>
                </g>
              </g>
            </g>
            <g transform="matrix(1, 0, 0, 1, -0.054001, 0.821892)">
              <title>Hidden Jobs</title>
              <g>
                <title>Hidden Job 1</title>
                <rect style="fill: rgba(255, 255, 0, 0.3);" x="293.94" y="639.662" width="220.065" height="41.323" rx="19.971" ry="19.971">
                  <title>Container</title>
                </rect>
                <text style="font-family: &quot;Open Sans&quot;; font-size: 64.4613px; white-space: pre;" transform="matrix(0.248986, 0, 0, 0.248255, -62.492039, 401.996765)" x="1723" y="1065.5">Promoted</text>
                <path d="M 488.372 665.154 C 488.598 665.379 488.869 665.491 489.189 665.491 C 489.508 665.491 489.78 665.379 490.005 665.154 L 493.217 661.952 L 496.429 665.154 C 496.654 665.379 496.926 665.491 497.245 665.491 C 497.565 665.491 497.846 665.379 498.091 665.154 C 498.316 664.911 498.425 664.63 498.415 664.312 C 498.406 663.994 498.288 663.722 498.062 663.498 L 494.879 660.324 L 498.091 657.122 C 498.316 656.897 498.429 656.626 498.429 656.307 C 498.429 655.989 498.316 655.707 498.091 655.464 C 497.846 655.24 497.565 655.127 497.245 655.127 C 496.926 655.127 496.654 655.24 496.429 655.464 L 493.217 658.666 L 489.977 655.436 C 489.77 655.23 489.508 655.127 489.189 655.127 C 488.869 655.127 488.598 655.24 488.372 655.464 C 488.146 655.689 488.034 655.96 488.034 656.28 C 488.034 656.597 488.146 656.869 488.372 657.094 L 491.583 660.324 L 488.343 663.555 C 488.136 663.76 488.034 664.023 488.034 664.34 C 488.034 664.658 488.146 664.93 488.372 665.154 Z M 493.217 671.559 C 491.658 671.559 490.193 671.264 488.822 670.674 C 487.451 670.085 486.258 669.284 485.244 668.273 C 484.23 667.263 483.427 666.073 482.836 664.706 C 482.245 663.338 481.948 661.878 481.948 660.324 C 481.948 658.769 482.245 657.309 482.836 655.941 C 483.427 654.574 484.23 653.386 485.244 652.374 C 486.258 651.363 487.451 650.562 488.822 649.972 C 490.193 649.383 491.658 649.088 493.217 649.088 C 494.776 649.088 496.241 649.383 497.612 649.972 C 498.983 650.562 500.176 651.363 501.19 652.374 C 502.204 653.386 503.007 654.574 503.598 655.941 C 504.189 657.309 504.486 658.769 504.486 660.324 C 504.486 661.878 504.189 663.338 503.598 664.706 C 503.007 666.073 502.204 667.263 501.19 668.273 C 500.176 669.284 498.983 670.085 497.612 670.674 C 496.241 671.264 494.776 671.559 493.217 671.559 Z" style=""/>
              </g>
              <g transform="matrix(1, 0, 0, 1, 0, 50.021118)">
                <title>Hidden Job 2</title>
                <rect style="fill: rgba(255, 255, 255, 0.3);" x="293.94" y="639.662" width="220.065" height="41.323" rx="19.971" ry="19.971">
                  <title>Container</title>
                </rect>
                <text style="font-family: &quot;Open Sans&quot;; font-size: 64.4613px; white-space: pre;" transform="matrix(0.248986, 0, 0, 0.248255, -86.226395, 401.996765)" x="1723" y="1065.5">PayYouLittle Inc.</text>
                <path d="M 488.372 665.154 C 488.598 665.379 488.869 665.491 489.189 665.491 C 489.508 665.491 489.78 665.379 490.005 665.154 L 493.217 661.952 L 496.429 665.154 C 496.654 665.379 496.926 665.491 497.245 665.491 C 497.565 665.491 497.846 665.379 498.091 665.154 C 498.316 664.911 498.425 664.63 498.415 664.312 C 498.406 663.994 498.288 663.722 498.062 663.498 L 494.879 660.324 L 498.091 657.122 C 498.316 656.897 498.429 656.626 498.429 656.307 C 498.429 655.989 498.316 655.707 498.091 655.464 C 497.846 655.24 497.565 655.127 497.245 655.127 C 496.926 655.127 496.654 655.24 496.429 655.464 L 493.217 658.666 L 489.977 655.436 C 489.77 655.23 489.508 655.127 489.189 655.127 C 488.869 655.127 488.598 655.24 488.372 655.464 C 488.146 655.689 488.034 655.96 488.034 656.28 C 488.034 656.597 488.146 656.869 488.372 657.094 L 491.583 660.324 L 488.343 663.555 C 488.136 663.76 488.034 664.023 488.034 664.34 C 488.034 664.658 488.146 664.93 488.372 665.154 Z M 493.217 671.559 C 491.658 671.559 490.193 671.264 488.822 670.674 C 487.451 670.085 486.258 669.284 485.244 668.273 C 484.23 667.263 483.427 666.073 482.836 664.706 C 482.245 663.338 481.948 661.878 481.948 660.324 C 481.948 658.769 482.245 657.309 482.836 655.941 C 483.427 654.574 484.23 653.386 485.244 652.374 C 486.258 651.363 487.451 650.562 488.822 649.972 C 490.193 649.383 491.658 649.088 493.217 649.088 C 494.776 649.088 496.241 649.383 497.612 649.972 C 498.983 650.562 500.176 651.363 501.19 652.374 C 502.204 653.386 503.007 654.574 503.598 655.941 C 504.189 657.309 504.486 658.769 504.486 660.324 C 504.486 661.878 504.189 663.338 503.598 664.706 C 503.007 666.073 502.204 667.263 501.19 668.273 C 500.176 669.284 498.983 670.085 497.612 670.674 C 496.241 671.264 494.776 671.559 493.217 671.559 Z" style=""/>
              </g>
              <g transform="matrix(1, 0, 0, 1, 0, 100.042236)">
                <title>Hidden Job 3</title>
                <rect style="fill: rgba(255, 255, 255, 0.3);" x="293.94" y="639.662" width="220.065" height="41.323" rx="19.971" ry="19.971">
                  <title>Container</title>
                </rect>
                <text style="font-family: &quot;Open Sans&quot;; font-size: 64.4613px; white-space: pre;" transform="matrix(0.248986, 0, 0, 0.248255, -84.221336, 402.321259)" x="1723" y="1065.5">Replace-U-Soon</text>
                <path d="M 488.372 665.154 C 488.598 665.379 488.869 665.491 489.189 665.491 C 489.508 665.491 489.78 665.379 490.005 665.154 L 493.217 661.952 L 496.429 665.154 C 496.654 665.379 496.926 665.491 497.245 665.491 C 497.565 665.491 497.846 665.379 498.091 665.154 C 498.316 664.911 498.425 664.63 498.415 664.312 C 498.406 663.994 498.288 663.722 498.062 663.498 L 494.879 660.324 L 498.091 657.122 C 498.316 656.897 498.429 656.626 498.429 656.307 C 498.429 655.989 498.316 655.707 498.091 655.464 C 497.846 655.24 497.565 655.127 497.245 655.127 C 496.926 655.127 496.654 655.24 496.429 655.464 L 493.217 658.666 L 489.977 655.436 C 489.77 655.23 489.508 655.127 489.189 655.127 C 488.869 655.127 488.598 655.24 488.372 655.464 C 488.146 655.689 488.034 655.96 488.034 656.28 C 488.034 656.597 488.146 656.869 488.372 657.094 L 491.583 660.324 L 488.343 663.555 C 488.136 663.76 488.034 664.023 488.034 664.34 C 488.034 664.658 488.146 664.93 488.372 665.154 Z M 493.217 671.559 C 491.658 671.559 490.193 671.264 488.822 670.674 C 487.451 670.085 486.258 669.284 485.244 668.273 C 484.23 667.263 483.427 666.073 482.836 664.706 C 482.245 663.338 481.948 661.878 481.948 660.324 C 481.948 658.769 482.245 657.309 482.836 655.941 C 483.427 654.574 484.23 653.386 485.244 652.374 C 486.258 651.363 487.451 650.562 488.822 649.972 C 490.193 649.383 491.658 649.088 493.217 649.088 C 494.776 649.088 496.241 649.383 497.612 649.972 C 498.983 650.562 500.176 651.363 501.19 652.374 C 502.204 653.386 503.007 654.574 503.598 655.941 C 504.189 657.309 504.486 658.769 504.486 660.324 C 504.486 661.878 504.189 663.338 503.598 664.706 C 503.007 666.073 502.204 667.263 501.19 668.273 C 500.176 669.284 498.983 670.085 497.612 670.674 C 496.241 671.264 494.776 671.559 493.217 671.559 Z" style=""/>
              </g>
            </g>
            <g style="clip-path: url(#clip-0);">
              <title>Scrollbar</title>
              <path style="fill: rgba(0, 0, 0, 0.5);" d="M 541.696 631.573 H 547.504 A 5.791 5.791 0 0 1 553.295 637.364 V 746.003 A 5.791 5.791 0 0 1 547.504 751.794 H 546.689 A 4.993 4.993 0 0 1 541.696 746.801 V 631.573 Z" bx:shape="rect 541.696 631.573 11.599 120.221 0 5.791 5.791 4.993 1@dff63429">
                <title>Thumb</title>
              </path>
              <rect x="541.696" y="631.573" width="11.599" height="159.187" style="fill: rgba(0, 0, 0, 0.2);">
                <title>Track</title>
              </rect>
            </g>
          </g>
          <g transform="matrix(1, 0, 0, 1, -0.000015, 0.000008)">
            <title>Unhide All Jobs and Undo Buttons</title>
            <g style="" transform="matrix(1, 0, 0, 1, 0.151715, 78.073044)">
              <title>Unhide All Jobs Button</title>
              <rect style="fill: rgb(179, 0, 0);" x="254.39" y="730.374" width="186.911" height="58.827" rx="10" ry="10">
                <title>Container</title>
              </rect>
              <text style="fill: rgb(255, 255, 255); font-family: &quot;Open Sans&quot;; font-size: 16px; white-space: pre;" x="292.613" y="765.986">Unhide all jobs</text>
            </g>
            <g transform="matrix(1, 0, 0, 1, -32.48373, 151.273056)" style="opacity: 0.1;">
              <title>Undo Button</title>
              <rect style="pointer-events: auto; fill: rgb(77, 77, 77);" x="491.779" y="657.174" width="94" height="58.827" rx="10" ry="10">
                <title>Container</title>
              </rect>
              <text style="fill: rgb(255, 255, 255); font-family: &quot;Open Sans&quot;; font-size: 16px; white-space: pre;" x="518.331" y="692.786"><title>Text</title>Undo</text>
            </g>
          </g>
          <g style="" transform="matrix(1, 0, 0, 1, 58.202988, 230.649475)">
            <title>Remove Hidden Jobs Button</title>
            <rect style="fill: rgba(255, 255, 255, 0.6);" x="196.339" y="654.275" width="298.753" height="58.827" rx="10" ry="10">
              <title>Container</title>
            </rect>
            <text style="font-family: &quot;Open Sans&quot;; font-size: 16px; white-space: pre;" x="230.759" y="689.887">Do not display hidden jobs</text>
            <rect style="stroke: rgb(128, 128, 128); fill: rgb(255, 255, 255);" x="448.645" y="677.675" width="12.027" height="12.027" rx="2" ry="2">
              <title>Checkbox</title>
            </rect>
          </g>
        </g>
        <g transform="matrix(1, 0, 0, 1, -69.754135, 406.728943)" style="">
          <title>Clicking Cursor</title>
          <path d="M 566.004 509.676 L 568.496 515.45 L 573.903 512.244 L 572.527 518.381 L 578.785 518.968 L 574.067 523.124 L 578.785 527.28 L 572.527 527.867 L 573.903 534.004 L 568.496 530.798 L 566.004 536.572 L 563.512 530.798 L 558.105 534.004 L 559.481 527.867 L 553.223 527.28 L 557.941 523.124 L 553.223 518.968 L 559.481 518.381 L 558.105 512.244 L 563.512 515.45 Z" style="stroke-width: 2px; fill: rgb(255, 255, 0); stroke: rgb(255, 128, 0);" bx:shape="star 566.004 523.124 13.439 13.448 0.6 10 1@c9701c42">
            <title>Click</title>
          </path>
          <g transform="matrix(2.541284, 0, 0, 2.541284, 550.954773, 521.297974)" style="filter: url(#filter-18);">
            <title>Cursor</title>
            <g transform="matrix(.23944 0 0 .23944 94.337 75.208)">
              <path d="m-368.99-226.1v-9h-4v-8h-4v-8h-4v-9h-5v-4h-4v-8h9v4h4v12h4v-54h8v38h4v-17h9v17h4v-13h8v17h4v-13h5v5h4v29h-4v12h-5v9h-33z" fill="#fefefe" style=""/>
              <path d="m-372.99-222.1v-13h-4v-8h-4v-8h-5v-9h-4v-4h-4v-12h13v4h4v-38h4v-4h8v4h4v17h9v4h12v4h9v4h4v5h4v29h-4v12h-4v13h-42zm37-4v-9h5v-12h4v-29h-4v-5h-5v13h-4v-17h-8v13h-4v-17h-9v17h-4v-38h-8v54h-4v-12h-4v-4h-9v8h4v4h5v9h4v8h4v8h4v9h33z" style=""/>
            </g>
          </g>
        </g>
      </g>
    </g>
    <path d="M 156.387 546.353 H 176.942 L 176.942 527.177 L 210.988 557.858 L 176.942 588.539 L 176.942 569.363 H 156.387 V 546.353 Z" style="fill: rgb(223, 32, 32);" bx:shape="arrow 156.387 527.177 54.601 61.362 23.01 34.046 0 1@e77cfb18"/>
    <g transform="matrix(1, 0, 0, 1, 126.981277, 157.85762)">
      <title>Before</title>
      <g transform="matrix(1, 0, 0, 1, 0, -210.115509)" style="filter: url(#filter-1); mask: url(#mask-3);">
        <title>Job Ad</title>
        <rect x="96.854" y="319.868" width="360.596" height="116.099" style="fill: rgb(230, 230, 230); stroke: rgb(179, 179, 179);">
          <title>Container</title>
        </rect>
        <g transform="matrix(1, 0, 0, 1, 10, 18.941498)">
          <title>Company Logo</title>
          <rect x="106.854" y="329.868" width="58.216" height="58.216" style="">
            <title>Container</title>
          </rect>
          <path style="fill: rgb(115, 115, 115); filter: url(#filter-9);" transform="matrix(0.23, 0, 0, 0.23, 22.48218, 281.605499)" d="M 482.989 247 L 505.011 247 L 509.658 280.634 A 58.5 58.5 0 0 1 522.785 286.072 L 549.854 265.575 L 565.425 281.146 L 544.928 308.215 A 58.5 58.5 0 0 1 550.366 321.342 L 584 325.989 L 584 348.011 L 550.366 352.658 A 58.5 58.5 0 0 1 544.928 365.785 L 565.425 392.854 L 549.854 408.425 L 522.785 387.928 A 58.5 58.5 0 0 1 509.658 393.366 L 505.011 427 L 482.989 427 L 478.342 393.366 A 58.5 58.5 0 0 1 465.215 387.928 L 438.146 408.425 L 422.575 392.854 L 443.072 365.785 A 58.5 58.5 0 0 1 437.634 352.658 L 404 348.011 L 404 325.989 L 437.634 321.342 A 58.5 58.5 0 0 1 443.072 308.215 L 422.575 281.146 L 438.146 265.575 L 465.215 286.072 A 58.5 58.5 0 0 1 478.342 280.634 Z M 494 310 A 27 27 0 0 0 494 364 A 27 27 0 0 0 494 310" bx:shape="cog 494 337 27 58.5 90 0.38 8 1@0ee9e527">
            <title>Logo</title>
          </path>
        </g>
        <text style="fill: rgb(0, 42, 255); font-family: &quot;Open Sans&quot;; font-size: 18px; font-weight: 700; white-space: pre;" transform="matrix(1, 0, 0, 1, 55.55901, 91.018478)"><title>Job Title</title><tspan x="139.511" y="277.334">Frontend Developer</tspan><tspan x="139.51100158691406" dy="1em">​</tspan></text>
        <text style="font-family: &quot;Open Sans&quot;; font-size: 18px; white-space: pre;" x="193.564" y="398.353"><title>Company Name</title>Generic Inc.</text>
        <g transform="matrix(1.155068, 0, 0, 1.155068, -321.793549, -84.109703)">
          <title>Block Button</title>
          <circle style="fill: rgba(128, 128, 128, 0.25);" cx="640" cy="400" r="17.315">
            <title>Container</title>
          </circle>
          <path d="M 639.989 409.23 C 638.717 409.23 637.52 408.989 636.399 408.504 C 635.278 408.02 634.299 407.358 633.46 406.519 C 632.621 405.68 631.963 404.7 631.486 403.579 C 631.009 402.459 630.77 401.255 630.77 399.968 C 630.77 398.709 631.013 397.52 631.497 396.399 C 631.982 395.278 632.639 394.303 633.47 393.47 C 634.303 392.639 635.278 391.982 636.399 391.497 C 637.52 391.013 638.717 390.77 639.989 390.77 C 641.263 390.77 642.459 391.013 643.579 391.497 C 644.7 391.982 645.677 392.639 646.508 393.47 C 647.34 394.303 648.002 395.278 648.493 396.399 C 648.984 397.52 649.23 398.709 649.23 399.968 C 649.23 401.255 648.988 402.459 648.504 403.579 C 648.02 404.7 647.358 405.68 646.519 406.519 C 645.68 407.358 644.7 408.02 643.579 408.504 C 642.459 408.989 641.263 409.23 639.989 409.23 Z M 639.989 407.192 C 641.985 407.192 643.681 406.49 645.077 405.087 C 646.472 403.685 647.169 401.978 647.169 399.968 C 647.169 399.187 647.047 398.427 646.801 397.69 C 646.555 396.952 646.193 396.28 645.716 395.673 L 635.673 405.694 C 636.251 406.215 636.917 406.594 637.668 406.834 C 638.42 407.072 639.194 407.192 639.989 407.192 Z M 634.284 404.284 L 644.284 394.263 C 643.663 393.785 642.99 393.427 642.267 393.188 C 641.545 392.951 640.785 392.831 639.989 392.831 C 637.994 392.831 636.298 393.522 634.902 394.902 C 633.506 396.283 632.809 397.972 632.809 399.968 C 632.809 400.763 632.942 401.529 633.21 402.267 C 633.478 403.005 633.836 403.677 634.284 404.284 Z" style="fill: rgb(255, 0, 0);">
            <title>Icon</title>
          </path>
        </g>
      </g>
      <g transform="matrix(1, 0, 0, 1, 0, -94.01651)" style="">
        <title>Job Ad</title>
        <rect x="96.854" y="319.868" width="360.596" height="116.099" style="fill: rgb(230, 230, 230); stroke: rgb(179, 179, 179);">
          <title>Container</title>
        </rect>
        <g transform="matrix(1, 0, 0, 1, 10, 18.941498)">
          <title>Company Logo</title>
          <rect x="106.854" y="329.868" width="58.216" height="58.216" style="">
            <title>Container</title>
          </rect>
          <path d="M 135.952 358.981 m -20.55 0 a 20.55 20.55 0 1 0 41.1 0 a 20.55 20.55 0 1 0 -41.1 0 Z M 135.952 358.981 m -10.275 0 a 10.275 10.275 0 0 1 20.55 0 a 10.275 10.275 0 0 1 -20.55 0 Z" style="paint-order: fill; stroke: rgb(255, 255, 0); fill: none; stroke-width: 4px;" bx:shape="ring 135.952 358.981 10.275 10.275 20.55 20.55 1@df57ffaf"/>
        </g>
        <text style="fill: rgb(0, 42, 255); font-family: &quot;Open Sans&quot;; font-size: 18px; font-weight: 700; white-space: pre;" transform="matrix(1, 0, 0, 1, 55.55901, 91.018478)"><title>Job Title</title><tspan x="139.511" y="277.334">Web Developer</tspan><tspan x="139.51100158691406" dy="1em">​</tspan></text>
        <text style="font-family: &quot;Open Sans&quot;; font-size: 18px; white-space: pre;" x="193.564" y="398.353"><title>Company Name</title>WeAreFamily Inc.</text>
        <g transform="matrix(1.155068, 0, 0, 1.155068, -321.793549, -84.109703)">
          <title>Block Button</title>
          <circle style="fill: rgba(128, 128, 128, 0.25);" cx="640" cy="400" r="17.315">
            <title>Container</title>
          </circle>
          <path d="M 639.989 409.23 C 638.717 409.23 637.52 408.989 636.399 408.504 C 635.278 408.02 634.299 407.358 633.46 406.519 C 632.621 405.68 631.963 404.7 631.486 403.579 C 631.009 402.459 630.77 401.255 630.77 399.968 C 630.77 398.709 631.013 397.52 631.497 396.399 C 631.982 395.278 632.639 394.303 633.47 393.47 C 634.303 392.639 635.278 391.982 636.399 391.497 C 637.52 391.013 638.717 390.77 639.989 390.77 C 641.263 390.77 642.459 391.013 643.579 391.497 C 644.7 391.982 645.677 392.639 646.508 393.47 C 647.34 394.303 648.002 395.278 648.493 396.399 C 648.984 397.52 649.23 398.709 649.23 399.968 C 649.23 401.255 648.988 402.459 648.504 403.579 C 648.02 404.7 647.358 405.68 646.519 406.519 C 645.68 407.358 644.7 408.02 643.579 408.504 C 642.459 408.989 641.263 409.23 639.989 409.23 Z M 639.989 407.192 C 641.985 407.192 643.681 406.49 645.077 405.087 C 646.472 403.685 647.169 401.978 647.169 399.968 C 647.169 399.187 647.047 398.427 646.801 397.69 C 646.555 396.952 646.193 396.28 645.716 395.673 L 635.673 405.694 C 636.251 406.215 636.917 406.594 637.668 406.834 C 638.42 407.072 639.194 407.192 639.989 407.192 Z M 634.284 404.284 L 644.284 394.263 C 643.663 393.785 642.99 393.427 642.267 393.188 C 641.545 392.951 640.785 392.831 639.989 392.831 C 637.994 392.831 636.298 393.522 634.902 394.902 C 633.506 396.283 632.809 397.972 632.809 399.968 C 632.809 400.763 632.942 401.529 633.21 402.267 C 633.478 403.005 633.836 403.677 634.284 404.284 Z" style="fill: rgb(255, 0, 0);">
            <title>Icon</title>
          </path>
        </g>
      </g>
      <g transform="matrix(1, 0, 0, 1, 0, 22.082489)">
        <title>Job Ad</title>
        <rect x="96.854" y="319.868" width="360.596" height="116.099" style="stroke: rgb(179, 179, 179); fill: rgb(128, 128, 128);">
          <title>Container</title>
        </rect>
        <g transform="matrix(1, 0, 0, 1, 10, 18.941498)" style="opacity: 0.25; filter: url(#filter-11);">
          <title>Company Logo</title>
          <rect x="106.854" y="329.868" width="58.216" height="58.216" style="">
            <title>Container</title>
          </rect>
          <path d="M 136.499 238.69 Q 136.499 238.085 137.05 237.736 Q 137.638 237.364 138.407 237.589 Q 139.261 237.839 139.803 238.69 Q 140.412 239.646 140.314 240.893 Q 140.205 242.286 139.252 243.459 Q 138.197 244.757 136.499 245.298 Q 134.637 245.891 132.644 245.366 Q 130.48 244.797 128.869 243.095 Q 127.133 241.261 126.587 238.69 Q 126.003 235.937 126.961 233.183 Q 127.981 230.252 130.442 228.199 Q 133.048 226.024 136.499 225.474 Q 140.139 224.895 143.657 226.291 Q 147.355 227.758 149.852 230.981 Q 152.467 234.356 153.019 238.69 Q 153.595 243.216 151.759 247.5 Q 149.847 251.963 145.86 254.904 Q 141.717 257.96 136.499 258.513 Q 131.087 259.088 126.037 256.811 Q 120.808 254.455 117.424 249.703 Q 113.927 244.792 113.372 238.69 Q 112.799 232.393 115.516 226.576 Q 118.317 220.581 123.834 216.754 Q 129.513 212.815 136.499 212.259 Q 143.681 211.687 150.265 214.846 Q 157.027 218.09 161.297 224.373 Q 165.677 230.819 166.234 238.69 Q 166.805 246.758 163.204 254.108 Q 159.517 261.636 152.468 266.349 Q 145.255 271.172 136.499 271.729 Q 127.546 272.299 119.429 268.257 Q 111.135 264.126 105.979 256.311 Q 100.714 248.331 100.156 238.69 Q 99.587 228.852 104.071 219.968 Q 108.645 210.907 117.226 205.308 Q 125.973 199.601 136.499 199.043 Q 136.535 199.041 136.499 199.043" style="fill: rgb(223, 32, 32); paint-order: fill; stroke-dasharray: 8px; stroke-linecap: round; stroke-width: 5.05646px; stroke: rgb(85, 218, 85);" transform="matrix(0.621209, 0, 0, 0.565393, 53.207775, 225.862625)" bx:shape="spiral 136.499 238.69 0 39.647 0 1080 1@746db35f">
            <title>Logo</title>
          </path>
        </g>
        <text style="fill: rgb(0, 42, 255); font-family: &quot;Open Sans&quot;; font-size: 18px; font-weight: 700; white-space: pre; opacity: 0.25; filter: url(#filter-11);" transform="matrix(1, 0, 0, 1, 55.55901, 91.018478)"><title>Job Title</title><tspan x="139.511" y="277.334">Software Engineer</tspan><tspan x="139.51100158691406" dy="1em">​</tspan></text>
        <text style="font-family: &quot;Open Sans&quot;; font-size: 18px; white-space: pre; opacity: 0.25; filter: url(#filter-11);" x="193.564" y="398.353"><title>Company Name</title>PayYouLittle Inc.</text>
        <g style="" transform="matrix(1, 0, 0, 1, -0.000992, -0.000488)">
          <title>Blocked Job Button</title>
          <rect style="stroke: rgb(255, 255, 255); fill: rgb(255, 255, 255);" x="209.092" y="347.827" width="136.122" height="60.182" rx="10" ry="10">
            <title>Container</title>
          </rect>
          <text style="font-family: &quot;Open Sans&quot;; font-size: 14px; white-space: pre;" x="223.761" y="371.588"><title>Company Name</title>PayYouLittle Inc.</text>
          <g transform="matrix(1, 0, 0, 1, -23.606514, 0.821675)">
            <title>Indicator</title>
            <rect style="fill: rgb(128, 128, 128);" x="275.552" y="376.563" width="50.416" height="19.218" rx="9" ry="9">
              <title>Container</title>
            </rect>
            <text style="fill: rgb(255, 255, 255); font-family: &quot;Open Sans&quot;; font-size: 12px; white-space: pre;" x="280.43" y="390.805">Hidden</text>
          </g>
        </g>
      </g>
      <g transform="matrix(1, 0, 0, 1, 0, 138.181488)" style="">
        <title>Job Ad</title>
        <rect x="96.854" y="319.868" width="360.596" height="116.099" style="fill: rgb(230, 230, 230); stroke: rgb(179, 179, 179);">
          <title>Container</title>
        </rect>
        <g transform="matrix(1, 0, 0, 1, 10, 18.941498)">
          <title>Company Logo</title>
          <rect x="106.854" y="329.868" width="58.216" height="58.216" style="">
            <title>Container</title>
          </rect>
          <path d="M 135.951 338.419 L 141.031 353.786 L 156.5 354.117 L 144.171 363.946 L 148.651 379.518 L 135.951 370.226 L 123.251 379.518 L 127.731 363.946 L 115.402 354.117 L 130.871 353.786 Z" style="stroke-linejoin: round; fill: rgb(0, 213, 255); stroke-width: 3px;" bx:shape="star 135.951 361.138 21.607 22.719 0.4 5 1@b065aade"/>
        </g>
        <text style="fill: rgb(0, 42, 255); font-family: &quot;Open Sans&quot;; font-size: 18px; font-weight: 700; white-space: pre;" transform="matrix(1, 0, 0, 1, 55.55901, 91.018478)"><title>Job Title</title><tspan x="139.511" y="277.334">Software Developer</tspan><tspan x="139.51100158691406" dy="1em">​</tspan></text>
        <text style="font-family: &quot;Open Sans&quot;; font-size: 18px; white-space: pre;" x="193.564" y="398.353"><title>Company Name</title>Grind-U-Down Inc.</text>
        <g transform="matrix(1.155068, 0, 0, 1.155068, -321.793549, -84.109703)">
          <title>Block Button</title>
          <circle style="fill: rgba(128, 128, 128, 0.25);" cx="640" cy="400" r="17.315">
            <title>Container</title>
          </circle>
          <path d="M 639.989 409.23 C 638.717 409.23 637.52 408.989 636.399 408.504 C 635.278 408.02 634.299 407.358 633.46 406.519 C 632.621 405.68 631.963 404.7 631.486 403.579 C 631.009 402.459 630.77 401.255 630.77 399.968 C 630.77 398.709 631.013 397.52 631.497 396.399 C 631.982 395.278 632.639 394.303 633.47 393.47 C 634.303 392.639 635.278 391.982 636.399 391.497 C 637.52 391.013 638.717 390.77 639.989 390.77 C 641.263 390.77 642.459 391.013 643.579 391.497 C 644.7 391.982 645.677 392.639 646.508 393.47 C 647.34 394.303 648.002 395.278 648.493 396.399 C 648.984 397.52 649.23 398.709 649.23 399.968 C 649.23 401.255 648.988 402.459 648.504 403.579 C 648.02 404.7 647.358 405.68 646.519 406.519 C 645.68 407.358 644.7 408.02 643.579 408.504 C 642.459 408.989 641.263 409.23 639.989 409.23 Z M 639.989 407.192 C 641.985 407.192 643.681 406.49 645.077 405.087 C 646.472 403.685 647.169 401.978 647.169 399.968 C 647.169 399.187 647.047 398.427 646.801 397.69 C 646.555 396.952 646.193 396.28 645.716 395.673 L 635.673 405.694 C 636.251 406.215 636.917 406.594 637.668 406.834 C 638.42 407.072 639.194 407.192 639.989 407.192 Z M 634.284 404.284 L 644.284 394.263 C 643.663 393.785 642.99 393.427 642.267 393.188 C 641.545 392.951 640.785 392.831 639.989 392.831 C 637.994 392.831 636.298 393.522 634.902 394.902 C 633.506 396.283 632.809 397.972 632.809 399.968 C 632.809 400.763 632.942 401.529 633.21 402.267 C 633.478 403.005 633.836 403.677 634.284 404.284 Z" style="fill: rgb(255, 0, 0);">
            <title>Icon</title>
          </path>
        </g>
      </g>
      <g transform="matrix(1, 0, 0, 1, 0, 254.280487)" style="filter: url(#filter-1); mask: url(#mask-9);">
        <title>Job Ad</title>
        <rect x="96.854" y="319.868" width="360.596" height="116.099" style="fill: rgb(230, 230, 230); stroke: rgb(179, 179, 179);">
          <title>Container</title>
        </rect>
        <g transform="matrix(1, 0, 0, 1, 10, 18.941498)">
          <title>Company Logo</title>
          <rect x="106.854" y="329.868" width="58.216" height="58.216" style="">
            <title>Container</title>
          </rect>
          <g transform="matrix(1, 0, 0, 1, -0.000002, 0.000013)">
            <title>Logo</title>
            <path d="M 122.387 338.408 H 149.537 V 338.408 H 156.53 V 365.558 H 149.537 V 379.544 H 122.387 V 365.558 H 115.394 V 338.408 H 122.387 Z" style="fill: rgb(128, 128, 128);" bx:shape="cross 115.394 338.408 41.136 41.136 27.15 27.15 0.33 1@2a3a7213"/>
            <rect x="124.866" y="347.129" width="7.153" height="7.153" style=""/>
            <rect x="139.904" y="347.129" width="7.153" height="7.153" style=""/>
          </g>
        </g>
        <text style="fill: rgb(0, 42, 255); font-family: &quot;Open Sans&quot;; font-size: 18px; font-weight: 700; white-space: pre;" transform="matrix(1, 0, 0, 1, 55.55901, 91.018478)"><title>Job Title</title><tspan x="139.511" y="277.334">UI Developer</tspan><tspan x="139.51100158691406" dy="1em">​</tspan></text>
        <text style="font-family: &quot;Open Sans&quot;; font-size: 18px; white-space: pre;" x="193.564" y="398.353">Small Business Inc.</text>
        <g transform="matrix(1.155068, 0, 0, 1.155068, -321.793549, -84.109703)">
          <title>Block Button</title>
          <circle style="fill: rgba(128, 128, 128, 0.25);" cx="640" cy="400" r="17.315">
            <title>Container</title>
          </circle>
          <path d="M 639.989 409.23 C 638.717 409.23 637.52 408.989 636.399 408.504 C 635.278 408.02 634.299 407.358 633.46 406.519 C 632.621 405.68 631.963 404.7 631.486 403.579 C 631.009 402.459 630.77 401.255 630.77 399.968 C 630.77 398.709 631.013 397.52 631.497 396.399 C 631.982 395.278 632.639 394.303 633.47 393.47 C 634.303 392.639 635.278 391.982 636.399 391.497 C 637.52 391.013 638.717 390.77 639.989 390.77 C 641.263 390.77 642.459 391.013 643.579 391.497 C 644.7 391.982 645.677 392.639 646.508 393.47 C 647.34 394.303 648.002 395.278 648.493 396.399 C 648.984 397.52 649.23 398.709 649.23 399.968 C 649.23 401.255 648.988 402.459 648.504 403.579 C 648.02 404.7 647.358 405.68 646.519 406.519 C 645.68 407.358 644.7 408.02 643.579 408.504 C 642.459 408.989 641.263 409.23 639.989 409.23 Z M 639.989 407.192 C 641.985 407.192 643.681 406.49 645.077 405.087 C 646.472 403.685 647.169 401.978 647.169 399.968 C 647.169 399.187 647.047 398.427 646.801 397.69 C 646.555 396.952 646.193 396.28 645.716 395.673 L 635.673 405.694 C 636.251 406.215 636.917 406.594 637.668 406.834 C 638.42 407.072 639.194 407.192 639.989 407.192 Z M 634.284 404.284 L 644.284 394.263 C 643.663 393.785 642.99 393.427 642.267 393.188 C 641.545 392.951 640.785 392.831 639.989 392.831 C 637.994 392.831 636.298 393.522 634.902 394.902 C 633.506 396.283 632.809 397.972 632.809 399.968 C 632.809 400.763 632.942 401.529 633.21 402.267 C 633.478 403.005 633.836 403.677 634.284 404.284 Z" style="fill: rgb(255, 0, 0);">
            <title>Icon</title>
          </path>
        </g>
      </g>
    </g>
    <path d="M 597.279 546.353 H 617.834 L 617.834 527.177 L 651.88 557.858 L 617.834 588.539 L 617.834 569.363 H 597.279 V 546.353 Z" style="fill: rgb(223, 32, 32);" bx:shape="arrow 597.279 527.177 54.601 61.362 23.01 34.046 0 1@527185cb"/>
    <g transform="matrix(1, 0, 0, 1, 567.873291, 215.90712)">
      <title>After</title>
      <g transform="matrix(1, 0, 0, 1, 0, -210.115509)" style="mask: url(#mask-4); filter: url(#saturate-filter-1);">
        <title>Job Ad</title>
        <rect x="96.854" y="319.868" width="360.596" height="116.099" style="fill: rgb(230, 230, 230); stroke: rgb(179, 179, 179);">
          <title>Container</title>
        </rect>
        <g transform="matrix(1, 0, 0, 1, 10, 18.941498)">
          <title>Company Logo</title>
          <rect x="106.854" y="329.868" width="58.216" height="58.216" style="">
            <title>Container</title>
          </rect>
          <path style="fill: rgb(115, 115, 115); filter: url(#filter-8);" transform="matrix(0.23, 0, 0, 0.23, 22.48218, 281.605499)" d="M 482.989 247 L 505.011 247 L 509.658 280.634 A 58.5 58.5 0 0 1 522.785 286.072 L 549.854 265.575 L 565.425 281.146 L 544.928 308.215 A 58.5 58.5 0 0 1 550.366 321.342 L 584 325.989 L 584 348.011 L 550.366 352.658 A 58.5 58.5 0 0 1 544.928 365.785 L 565.425 392.854 L 549.854 408.425 L 522.785 387.928 A 58.5 58.5 0 0 1 509.658 393.366 L 505.011 427 L 482.989 427 L 478.342 393.366 A 58.5 58.5 0 0 1 465.215 387.928 L 438.146 408.425 L 422.575 392.854 L 443.072 365.785 A 58.5 58.5 0 0 1 437.634 352.658 L 404 348.011 L 404 325.989 L 437.634 321.342 A 58.5 58.5 0 0 1 443.072 308.215 L 422.575 281.146 L 438.146 265.575 L 465.215 286.072 A 58.5 58.5 0 0 1 478.342 280.634 Z M 494 310 A 27 27 0 0 0 494 364 A 27 27 0 0 0 494 310" bx:shape="cog 494 337 27 58.5 90 0.38 8 1@0ee9e527">
            <title>Logo</title>
          </path>
        </g>
        <text style="fill: rgb(0, 42, 255); font-family: &quot;Open Sans&quot;; font-size: 18px; font-weight: 700; white-space: pre;" transform="matrix(1, 0, 0, 1, 55.55901, 91.018478)"><title>Job Title</title><tspan x="139.511" y="277.334">Frontend Developer</tspan><tspan x="139.51100158691406" dy="1em">​</tspan></text>
        <text style="font-family: &quot;Open Sans&quot;; font-size: 18px; white-space: pre;" x="193.564" y="398.353"><title>Company Name</title>Generic Inc.</text>
        <g transform="matrix(1.155068, 0, 0, 1.155068, -321.793549, -84.109703)">
          <title>Block Button</title>
          <circle style="fill: rgba(128, 128, 128, 0.25);" cx="640" cy="400" r="17.315">
            <title>Container</title>
          </circle>
          <path d="M 639.989 409.23 C 638.717 409.23 637.52 408.989 636.399 408.504 C 635.278 408.02 634.299 407.358 633.46 406.519 C 632.621 405.68 631.963 404.7 631.486 403.579 C 631.009 402.459 630.77 401.255 630.77 399.968 C 630.77 398.709 631.013 397.52 631.497 396.399 C 631.982 395.278 632.639 394.303 633.47 393.47 C 634.303 392.639 635.278 391.982 636.399 391.497 C 637.52 391.013 638.717 390.77 639.989 390.77 C 641.263 390.77 642.459 391.013 643.579 391.497 C 644.7 391.982 645.677 392.639 646.508 393.47 C 647.34 394.303 648.002 395.278 648.493 396.399 C 648.984 397.52 649.23 398.709 649.23 399.968 C 649.23 401.255 648.988 402.459 648.504 403.579 C 648.02 404.7 647.358 405.68 646.519 406.519 C 645.68 407.358 644.7 408.02 643.579 408.504 C 642.459 408.989 641.263 409.23 639.989 409.23 Z M 639.989 407.192 C 641.985 407.192 643.681 406.49 645.077 405.087 C 646.472 403.685 647.169 401.978 647.169 399.968 C 647.169 399.187 647.047 398.427 646.801 397.69 C 646.555 396.952 646.193 396.28 645.716 395.673 L 635.673 405.694 C 636.251 406.215 636.917 406.594 637.668 406.834 C 638.42 407.072 639.194 407.192 639.989 407.192 Z M 634.284 404.284 L 644.284 394.263 C 643.663 393.785 642.99 393.427 642.267 393.188 C 641.545 392.951 640.785 392.831 639.989 392.831 C 637.994 392.831 636.298 393.522 634.902 394.902 C 633.506 396.283 632.809 397.972 632.809 399.968 C 632.809 400.763 632.942 401.529 633.21 402.267 C 633.478 403.005 633.836 403.677 634.284 404.284 Z" style="fill: rgb(255, 0, 0);">
            <title>Icon</title>
          </path>
        </g>
      </g>
      <g transform="matrix(1, 0, 0, 1, 0, -94.01651)" style="">
        <title>Job Ad</title>
        <rect x="96.854" y="319.868" width="360.596" height="116.099" style="fill: rgb(230, 230, 230); stroke: rgb(179, 179, 179);">
          <title>Container</title>
        </rect>
        <g transform="matrix(1, 0, 0, 1, 10, 18.941498)">
          <title>Company Logo</title>
          <rect x="106.854" y="329.868" width="58.216" height="58.216" style="">
            <title>Container</title>
          </rect>
          <path d="M 135.952 358.981 m -20.55 0 a 20.55 20.55 0 1 0 41.1 0 a 20.55 20.55 0 1 0 -41.1 0 Z M 135.952 358.981 m -10.275 0 a 10.275 10.275 0 0 1 20.55 0 a 10.275 10.275 0 0 1 -20.55 0 Z" style="paint-order: fill; stroke: rgb(255, 255, 0); fill: none; stroke-width: 4px;" bx:shape="ring 135.952 358.981 10.275 10.275 20.55 20.55 1@df57ffaf"/>
        </g>
        <text style="fill: rgb(0, 42, 255); font-family: &quot;Open Sans&quot;; font-size: 18px; font-weight: 700; white-space: pre;" transform="matrix(1, 0, 0, 1, 55.55901, 91.018478)"><title>Job Title</title><tspan x="139.511" y="277.334">Web Developer</tspan><tspan x="139.51100158691406" dy="1em">​</tspan></text>
        <text style="font-family: &quot;Open Sans&quot;; font-size: 18px; white-space: pre;" x="193.564" y="398.353"><title>Company Name</title>WeAreFamily Inc.</text>
        <g transform="matrix(1.155068, 0, 0, 1.155068, -321.793549, -84.109703)">
          <title>Block Button</title>
          <circle style="fill: rgba(128, 128, 128, 0.25);" cx="640" cy="400" r="17.315">
            <title>Container</title>
          </circle>
          <path d="M 639.989 409.23 C 638.717 409.23 637.52 408.989 636.399 408.504 C 635.278 408.02 634.299 407.358 633.46 406.519 C 632.621 405.68 631.963 404.7 631.486 403.579 C 631.009 402.459 630.77 401.255 630.77 399.968 C 630.77 398.709 631.013 397.52 631.497 396.399 C 631.982 395.278 632.639 394.303 633.47 393.47 C 634.303 392.639 635.278 391.982 636.399 391.497 C 637.52 391.013 638.717 390.77 639.989 390.77 C 641.263 390.77 642.459 391.013 643.579 391.497 C 644.7 391.982 645.677 392.639 646.508 393.47 C 647.34 394.303 648.002 395.278 648.493 396.399 C 648.984 397.52 649.23 398.709 649.23 399.968 C 649.23 401.255 648.988 402.459 648.504 403.579 C 648.02 404.7 647.358 405.68 646.519 406.519 C 645.68 407.358 644.7 408.02 643.579 408.504 C 642.459 408.989 641.263 409.23 639.989 409.23 Z M 639.989 407.192 C 641.985 407.192 643.681 406.49 645.077 405.087 C 646.472 403.685 647.169 401.978 647.169 399.968 C 647.169 399.187 647.047 398.427 646.801 397.69 C 646.555 396.952 646.193 396.28 645.716 395.673 L 635.673 405.694 C 636.251 406.215 636.917 406.594 637.668 406.834 C 638.42 407.072 639.194 407.192 639.989 407.192 Z M 634.284 404.284 L 644.284 394.263 C 643.663 393.785 642.99 393.427 642.267 393.188 C 641.545 392.951 640.785 392.831 639.989 392.831 C 637.994 392.831 636.298 393.522 634.902 394.902 C 633.506 396.283 632.809 397.972 632.809 399.968 C 632.809 400.763 632.942 401.529 633.21 402.267 C 633.478 403.005 633.836 403.677 634.284 404.284 Z" style="fill: rgb(255, 0, 0);">
            <title>Icon</title>
          </path>
        </g>
      </g>
      <g transform="matrix(1, 0, 0, 1, 0, 22.082487)" style="">
        <title>Job Ad</title>
        <rect x="96.854" y="319.868" width="360.596" height="116.099" style="fill: rgb(230, 230, 230); stroke: rgb(179, 179, 179);">
          <title>Container</title>
        </rect>
        <g transform="matrix(1, 0, 0, 1, 10, 18.941498)">
          <title>Company Logo</title>
          <rect x="106.854" y="329.868" width="58.216" height="58.216" style="">
            <title>Container</title>
          </rect>
          <path d="M 135.951 338.419 L 141.031 353.786 L 156.5 354.117 L 144.171 363.946 L 148.651 379.518 L 135.951 370.226 L 123.251 379.518 L 127.731 363.946 L 115.402 354.117 L 130.871 353.786 Z" style="stroke-linejoin: round; fill: rgb(0, 213, 255); stroke-width: 3px;" bx:shape="star 135.951 361.138 21.607 22.719 0.4 5 1@b065aade"/>
        </g>
        <text style="fill: rgb(0, 42, 255); font-family: &quot;Open Sans&quot;; font-size: 18px; font-weight: 700; white-space: pre;" transform="matrix(1, 0, 0, 1, 55.55901, 91.018478)"><title>Job Title</title><tspan x="139.511" y="277.334">Software Developer</tspan><tspan x="139.51100158691406" dy="1em">​</tspan></text>
        <text style="font-family: &quot;Open Sans&quot;; font-size: 18px; white-space: pre;" x="193.564" y="398.353"><title>Company Name</title>Grind-U-Down Inc.</text>
        <g transform="matrix(1.155068, 0, 0, 1.155068, -321.793549, -84.109703)">
          <title>Block Button</title>
          <circle style="fill: rgba(128, 128, 128, 0.25);" cx="640" cy="400" r="17.315">
            <title>Container</title>
          </circle>
          <path d="M 639.989 409.23 C 638.717 409.23 637.52 408.989 636.399 408.504 C 635.278 408.02 634.299 407.358 633.46 406.519 C 632.621 405.68 631.963 404.7 631.486 403.579 C 631.009 402.459 630.77 401.255 630.77 399.968 C 630.77 398.709 631.013 397.52 631.497 396.399 C 631.982 395.278 632.639 394.303 633.47 393.47 C 634.303 392.639 635.278 391.982 636.399 391.497 C 637.52 391.013 638.717 390.77 639.989 390.77 C 641.263 390.77 642.459 391.013 643.579 391.497 C 644.7 391.982 645.677 392.639 646.508 393.47 C 647.34 394.303 648.002 395.278 648.493 396.399 C 648.984 397.52 649.23 398.709 649.23 399.968 C 649.23 401.255 648.988 402.459 648.504 403.579 C 648.02 404.7 647.358 405.68 646.519 406.519 C 645.68 407.358 644.7 408.02 643.579 408.504 C 642.459 408.989 641.263 409.23 639.989 409.23 Z M 639.989 407.192 C 641.985 407.192 643.681 406.49 645.077 405.087 C 646.472 403.685 647.169 401.978 647.169 399.968 C 647.169 399.187 647.047 398.427 646.801 397.69 C 646.555 396.952 646.193 396.28 645.716 395.673 L 635.673 405.694 C 636.251 406.215 636.917 406.594 637.668 406.834 C 638.42 407.072 639.194 407.192 639.989 407.192 Z M 634.284 404.284 L 644.284 394.263 C 643.663 393.785 642.99 393.427 642.267 393.188 C 641.545 392.951 640.785 392.831 639.989 392.831 C 637.994 392.831 636.298 393.522 634.902 394.902 C 633.506 396.283 632.809 397.972 632.809 399.968 C 632.809 400.763 632.942 401.529 633.21 402.267 C 633.478 403.005 633.836 403.677 634.284 404.284 Z" style="fill: rgb(255, 0, 0);">
            <title>Icon</title>
          </path>
        </g>
      </g>
      <g transform="matrix(1, 0, 0, 1, 0, 138.181488)" style="mask: url(#mask-5); filter: url(#saturate-filter-1);">
        <title>Job Ad</title>
        <rect x="96.854" y="319.868" width="360.596" height="116.099" style="fill: rgb(230, 230, 230); stroke: rgb(179, 179, 179);">
          <title>Container</title>
        </rect>
        <g transform="matrix(1, 0, 0, 1, 10, 18.941498)">
          <title>Company Logo</title>
          <rect x="106.854" y="329.868" width="58.216" height="58.216" style="">
            <title>Container</title>
          </rect>
          <g transform="matrix(1, 0, 0, 1, -0.000002, 0.000013)">
            <title>Logo</title>
            <path d="M 122.387 338.408 H 149.537 V 338.408 H 156.53 V 365.558 H 149.537 V 379.544 H 122.387 V 365.558 H 115.394 V 338.408 H 122.387 Z" style="fill: rgb(128, 128, 128);" bx:shape="cross 115.394 338.408 41.136 41.136 27.15 27.15 0.33 1@2a3a7213"/>
            <rect x="124.866" y="347.129" width="7.153" height="7.153" style=""/>
            <rect x="139.904" y="347.129" width="7.153" height="7.153" style=""/>
          </g>
        </g>
        <text style="fill: rgb(0, 42, 255); font-family: &quot;Open Sans&quot;; font-size: 18px; font-weight: 700; white-space: pre;" transform="matrix(1, 0, 0, 1, 55.55901, 91.018478)"><title>Job Title</title><tspan x="139.511" y="277.334">UI Developer</tspan><tspan x="139.51100158691406" dy="1em">​</tspan></text>
        <text style="font-family: &quot;Open Sans&quot;; font-size: 18px; white-space: pre;" x="193.564" y="398.353">Small Business Inc.</text>
        <g transform="matrix(1.155068, 0, 0, 1.155068, -321.793549, -84.109703)">
          <title>Block Button</title>
          <circle style="fill: rgba(128, 128, 128, 0.25);" cx="640" cy="400" r="17.315">
            <title>Container</title>
          </circle>
          <path d="M 639.989 409.23 C 638.717 409.23 637.52 408.989 636.399 408.504 C 635.278 408.02 634.299 407.358 633.46 406.519 C 632.621 405.68 631.963 404.7 631.486 403.579 C 631.009 402.459 630.77 401.255 630.77 399.968 C 630.77 398.709 631.013 397.52 631.497 396.399 C 631.982 395.278 632.639 394.303 633.47 393.47 C 634.303 392.639 635.278 391.982 636.399 391.497 C 637.52 391.013 638.717 390.77 639.989 390.77 C 641.263 390.77 642.459 391.013 643.579 391.497 C 644.7 391.982 645.677 392.639 646.508 393.47 C 647.34 394.303 648.002 395.278 648.493 396.399 C 648.984 397.52 649.23 398.709 649.23 399.968 C 649.23 401.255 648.988 402.459 648.504 403.579 C 648.02 404.7 647.358 405.68 646.519 406.519 C 645.68 407.358 644.7 408.02 643.579 408.504 C 642.459 408.989 641.263 409.23 639.989 409.23 Z M 639.989 407.192 C 641.985 407.192 643.681 406.49 645.077 405.087 C 646.472 403.685 647.169 401.978 647.169 399.968 C 647.169 399.187 647.047 398.427 646.801 397.69 C 646.555 396.952 646.193 396.28 645.716 395.673 L 635.673 405.694 C 636.251 406.215 636.917 406.594 637.668 406.834 C 638.42 407.072 639.194 407.192 639.989 407.192 Z M 634.284 404.284 L 644.284 394.263 C 643.663 393.785 642.99 393.427 642.267 393.188 C 641.545 392.951 640.785 392.831 639.989 392.831 C 637.994 392.831 636.298 393.522 634.902 394.902 C 633.506 396.283 632.809 397.972 632.809 399.968 C 632.809 400.763 632.942 401.529 633.21 402.267 C 633.478 403.005 633.836 403.677 634.284 404.284 Z" style="fill: rgb(255, 0, 0);">
            <title>Icon</title>
          </path>
        </g>
      </g>
    </g>
  </g>
</svg>